  0
SECTION
  2
HEADER
  9
$ANGBASE
  50
0.0
  9
$ANGDIR
  70
1
  9
$MEASUREMENT
  70
0
  0
ENDSEC
  0
SECTION
  2
TABLES
  0
TABLE
  2
LTYPE
  70
4
  0
LTYPE
  5
40F
  2
CONTINUOUS
  70
0
  3
Solid line
  72
65
  73
0
  40
0.0
  0
LTYPE
  5
410
  2
DASHDOT
 70
0
  3
Dash Dot ____ _ ____ _
 72
65
 73
4
 40
2.0
 49
1.25
 49
-0.25
 49
0.25
 49
-0.25
  0
LTYPE
  5
411
  2
DASHED
 70
0
  3
Dashed __ __ __ __ __
 72
65
 73
2
 40
0.75
 49
0.5
 49
-0.25
  0
LTYPE
  5
43B
  2
DOTTED
 70
0
  3
Dotted .  .  .  .
 72
65
 73
2
 40
0.2
 49
0.0
 49
-0.2
  0
ENDTAB
  0
TABLE
  2
STYLE
  70
4
  0
STYLE
  2
KICAD
  70
0
  40
0
  41
1
  42
1
  50
0
  71
0
  3
isocp.shx
  0
STYLE
  2
KICADB
  70
0
  40
0
  41
1
  42
1
  50
0
  71
0
  3
isocp.shx
  0
STYLE
  2
KICADI
  70
0
  40
0
  41
1
  42
1
  50
15
  71
0
  3
isocp.shx
  0
STYLE
  2
KICADBI
  70
0
  40
0
  41
1
  42
1
  50
15
  71
0
  3
isocp.shx
  0
ENDTAB
  0
TABLE
  2
LAYER
  70
1
  0
LAYER
  2
BLACK
  70
0
  62
7
  6
CONTINUOUS
  0
ENDTAB
  0
ENDSEC
  0
SECTION
  2
ENTITIES
0
LINE
8
BLACK
6
CONTINUOUS
10
0.35
20
0.3375
11
0.315
21
0.3375
0
LINE
8
BLACK
6
CONTINUOUS
10
0.315
20
0.3375
11
0.315
21
0.3925
0
LINE
8
BLACK
6
CONTINUOUS
10
0.315
20
0.3925
11
0.35
21
0.3925
0
LINE
8
BLACK
6
CONTINUOUS
10
0.35
20
0.3925
11
0.35
21
0.3375
0
LINE
8
BLACK
6
CONTINUOUS
10
0.425
20
0.3375
11
0.39
21
0.3375
0
LINE
8
BLACK
6
CONTINUOUS
10
0.39
20
0.3375
11
0.39
21
0.3925
0
LINE
8
BLACK
6
CONTINUOUS
10
0.39
20
0.3925
11
0.425
21
0.3925
0
LINE
8
BLACK
6
CONTINUOUS
10
0.425
20
0.3925
11
0.425
21
0.3375
0
LINE
8
BLACK
6
CONTINUOUS
10
0.35
20
0.405
11
0.315
21
0.405
0
LINE
8
BLACK
6
CONTINUOUS
10
0.315
20
0.405
11
0.315
21
0.46
0
LINE
8
BLACK
6
CONTINUOUS
10
0.315
20
0.46
11
0.35
21
0.46
0
LINE
8
BLACK
6
CONTINUOUS
10
0.35
20
0.46
11
0.35
21
0.405
0
LINE
8
BLACK
6
CONTINUOUS
10
0.425
20
0.405
11
0.39
21
0.405
0
LINE
8
BLACK
6
CONTINUOUS
10
0.39
20
0.405
11
0.39
21
0.46
0
LINE
8
BLACK
6
CONTINUOUS
10
0.39
20
0.46
11
0.425
21
0.46
0
LINE
8
BLACK
6
CONTINUOUS
10
0.425
20
0.46
11
0.425
21
0.405
0
LINE
8
BLACK
6
CONTINUOUS
10
1.2912999999999999
20
0.4262
11
1.2006999999999999
21
0.4262
0
LINE
8
BLACK
6
CONTINUOUS
10
1.2006999999999999
20
0.4262
11
1.2006999999999999
21
0.5246
0
LINE
8
BLACK
6
CONTINUOUS
10
1.2006999999999999
20
0.5246
11
1.2912999999999999
21
0.5246
0
LINE
8
BLACK
6
CONTINUOUS
10
1.2912999999999999
20
0.5246
11
1.2912999999999999
21
0.4262
0
LINE
8
BLACK
6
CONTINUOUS
10
0.995
20
0.4675
11
0.96
21
0.4675
0
LINE
8
BLACK
6
CONTINUOUS
10
0.96
20
0.4675
11
0.96
21
0.5225
0
LINE
8
BLACK
6
CONTINUOUS
10
0.96
20
0.5225
11
0.995
21
0.5225
0
LINE
8
BLACK
6
CONTINUOUS
10
0.995
20
0.5225
11
0.995
21
0.4675
0
LINE
8
BLACK
6
CONTINUOUS
10
1.0700000000000001
20
0.4675
11
1.0349999999999999
21
0.4675
0
LINE
8
BLACK
6
CONTINUOUS
10
1.0349999999999999
20
0.4675
11
1.0349999999999999
21
0.5225
0
LINE
8
BLACK
6
CONTINUOUS
10
1.0349999999999999
20
0.5225
11
1.0700000000000001
21
0.5225
0
LINE
8
BLACK
6
CONTINUOUS
10
1.0700000000000001
20
0.5225
11
1.0700000000000001
21
0.4675
0
LINE
8
BLACK
6
CONTINUOUS
10
0.52
20
0.4775
11
0.485
21
0.4775
0
LINE
8
BLACK
6
CONTINUOUS
10
0.485
20
0.4775
11
0.485
21
0.5325
0
LINE
8
BLACK
6
CONTINUOUS
10
0.485
20
0.5325
11
0.52
21
0.5325
0
LINE
8
BLACK
6
CONTINUOUS
10
0.52
20
0.5325
11
0.52
21
0.4775
0
LINE
8
BLACK
6
CONTINUOUS
10
0.595
20
0.4775
11
0.5599999999999999
21
0.4775
0
LINE
8
BLACK
6
CONTINUOUS
10
0.5599999999999999
20
0.4775
11
0.5599999999999999
21
0.5325
0
LINE
8
BLACK
6
CONTINUOUS
10
0.5599999999999999
20
0.5325
11
0.595
21
0.5325
0
LINE
8
BLACK
6
CONTINUOUS
10
0.595
20
0.5325
11
0.595
21
0.4775
0
LINE
8
BLACK
6
CONTINUOUS
10
0.415
20
0.5175
11
0.36
21
0.5175
0
LINE
8
BLACK
6
CONTINUOUS
10
0.36
20
0.5175
11
0.36
21
0.5525
0
LINE
8
BLACK
6
CONTINUOUS
10
0.36
20
0.5525
11
0.415
21
0.5525
0
LINE
8
BLACK
6
CONTINUOUS
10
0.415
20
0.5525
11
0.415
21
0.5175
0
LINE
8
BLACK
6
CONTINUOUS
10
0.415
20
0.5925
11
0.36
21
0.5925
0
LINE
8
BLACK
6
CONTINUOUS
10
0.36
20
0.5925
11
0.36
21
0.6274999999999999
0
LINE
8
BLACK
6
CONTINUOUS
10
0.36
20
0.6274999999999999
11
0.415
21
0.6274999999999999
0
LINE
8
BLACK
6
CONTINUOUS
10
0.415
20
0.6274999999999999
11
0.415
21
0.5925
0
LINE
8
BLACK
6
CONTINUOUS
10
1.2912999999999999
20
0.5954
11
1.2006999999999999
21
0.5954
0
LINE
8
BLACK
6
CONTINUOUS
10
1.2006999999999999
20
0.5954
11
1.2006999999999999
21
0.6938
0
LINE
8
BLACK
6
CONTINUOUS
10
1.2006999999999999
20
0.6938
11
1.2912999999999999
21
0.6938
0
LINE
8
BLACK
6
CONTINUOUS
10
1.2912999999999999
20
0.6938
11
1.2912999999999999
21
0.5954
0
LINE
8
BLACK
6
CONTINUOUS
10
0.4163
20
0.6513
11
0.3613
21
0.6513
0
LINE
8
BLACK
6
CONTINUOUS
10
0.3613
20
0.6513
11
0.3613
21
0.6863
0
LINE
8
BLACK
6
CONTINUOUS
10
0.3613
20
0.6863
11
0.4163
21
0.6863
0
LINE
8
BLACK
6
CONTINUOUS
10
0.4163
20
0.6863
11
0.4163
21
0.6513
0
LINE
8
BLACK
6
CONTINUOUS
10
0.4163
20
0.7262999999999999
11
0.3613
21
0.7262999999999999
0
LINE
8
BLACK
6
CONTINUOUS
10
0.3613
20
0.7262999999999999
11
0.3613
21
0.7613
0
LINE
8
BLACK
6
CONTINUOUS
10
0.3613
20
0.7613
11
0.4163
21
0.7613
0
LINE
8
BLACK
6
CONTINUOUS
10
0.4163
20
0.7613
11
0.4163
21
0.7262999999999999
0
LINE
8
BLACK
6
CONTINUOUS
10
1.3508
20
0.7358
11
1.2504
21
0.7358
0
LINE
8
BLACK
6
CONTINUOUS
10
1.2504
20
0.7358
11
1.2504
21
0.8341999999999999
0
LINE
8
BLACK
6
CONTINUOUS
10
1.2504
20
0.8341999999999999
11
1.3508
21
0.8341999999999999
0
LINE
8
BLACK
6
CONTINUOUS
10
1.3508
20
0.8341999999999999
11
1.3508
21
0.7358
0
LINE
8
BLACK
6
CONTINUOUS
10
1.5495999999999999
20
0.7358
11
1.4492
21
0.7358
0
LINE
8
BLACK
6
CONTINUOUS
10
1.4492
20
0.7358
11
1.4492
21
0.8341999999999999
0
LINE
8
BLACK
6
CONTINUOUS
10
1.4492
20
0.8341999999999999
11
1.5495999999999999
21
0.8341999999999999
0
LINE
8
BLACK
6
CONTINUOUS
10
1.5495999999999999
20
0.8341999999999999
11
1.5495999999999999
21
0.7358
0
LINE
8
BLACK
6
CONTINUOUS
10
0.4075
20
0.865
11
0.3525
21
0.865
0
LINE
8
BLACK
6
CONTINUOUS
10
0.3525
20
0.865
11
0.3525
21
0.9
0
LINE
8
BLACK
6
CONTINUOUS
10
0.3525
20
0.9
11
0.4075
21
0.9
0
LINE
8
BLACK
6
CONTINUOUS
10
0.4075
20
0.9
11
0.4075
21
0.865
0
LINE
8
BLACK
6
CONTINUOUS
10
0.4912
20
0.8835499999999999
11
0.4794
21
0.8835499999999999
0
LINE
8
BLACK
6
CONTINUOUS
10
0.4794
20
0.8835499999999999
11
0.4794
21
0.90125
0
LINE
8
BLACK
6
CONTINUOUS
10
0.4794
20
0.90125
11
0.4912
21
0.90125
0
LINE
8
BLACK
6
CONTINUOUS
10
0.4912
20
0.90125
11
0.4912
21
0.8835499999999999
0
LINE
8
BLACK
6
CONTINUOUS
10
0.5109
20
0.8835499999999999
11
0.4991
21
0.8835499999999999
0
LINE
8
BLACK
6
CONTINUOUS
10
0.4991
20
0.8835499999999999
11
0.4991
21
0.90125
0
LINE
8
BLACK
6
CONTINUOUS
10
0.4991
20
0.90125
11
0.5109
21
0.90125
0
LINE
8
BLACK
6
CONTINUOUS
10
0.5109
20
0.90125
11
0.5109
21
0.8835499999999999
0
LINE
8
BLACK
6
CONTINUOUS
10
0.5306
20
0.8835499999999999
11
0.5188
21
0.8835499999999999
0
LINE
8
BLACK
6
CONTINUOUS
10
0.5188
20
0.8835499999999999
11
0.5188
21
0.90125
0
LINE
8
BLACK
6
CONTINUOUS
10
0.5188
20
0.90125
11
0.5306
21
0.90125
0
LINE
8
BLACK
6
CONTINUOUS
10
0.5306
20
0.90125
11
0.5306
21
0.8835499999999999
0
LINE
8
BLACK
6
CONTINUOUS
10
1.2424999999999999
20
0.905
11
1.1875
21
0.905
0
LINE
8
BLACK
6
CONTINUOUS
10
1.1875
20
0.905
11
1.1875
21
0.9399999999999999
0
LINE
8
BLACK
6
CONTINUOUS
10
1.1875
20
0.9399999999999999
11
1.2424999999999999
21
0.9399999999999999
0
LINE
8
BLACK
6
CONTINUOUS
10
1.2424999999999999
20
0.9399999999999999
11
1.2424999999999999
21
0.905
0
LINE
8
BLACK
6
CONTINUOUS
10
1.1575
20
0.909
11
1.1025
21
0.909
0
LINE
8
BLACK
6
CONTINUOUS
10
1.1025
20
0.909
11
1.1025
21
0.944
0
LINE
8
BLACK
6
CONTINUOUS
10
1.1025
20
0.944
11
1.1575
21
0.944
0
LINE
8
BLACK
6
CONTINUOUS
10
1.1575
20
0.944
11
1.1575
21
0.909
0
LINE
8
BLACK
6
CONTINUOUS
10
0.9435
20
0.914
11
0.8885
21
0.914
0
LINE
8
BLACK
6
CONTINUOUS
10
0.8885
20
0.914
11
0.8885
21
0.949
0
LINE
8
BLACK
6
CONTINUOUS
10
0.8885
20
0.949
11
0.9435
21
0.949
0
LINE
8
BLACK
6
CONTINUOUS
10
0.9435
20
0.949
11
0.9435
21
0.914
0
LINE
8
BLACK
6
CONTINUOUS
10
0.09
20
0.9225
11
0.055
21
0.9225
0
LINE
8
BLACK
6
CONTINUOUS
10
0.055
20
0.9225
11
0.055
21
0.9774999999999999
0
LINE
8
BLACK
6
CONTINUOUS
10
0.055
20
0.9774999999999999
11
0.09
21
0.9774999999999999
0
LINE
8
BLACK
6
CONTINUOUS
10
0.09
20
0.9774999999999999
11
0.09
21
0.9225
0
LINE
8
BLACK
6
CONTINUOUS
10
0.165
20
0.9225
11
0.13
21
0.9225
0
LINE
8
BLACK
6
CONTINUOUS
10
0.13
20
0.9225
11
0.13
21
0.9774999999999999
0
LINE
8
BLACK
6
CONTINUOUS
10
0.13
20
0.9774999999999999
11
0.165
21
0.9774999999999999
0
LINE
8
BLACK
6
CONTINUOUS
10
0.165
20
0.9774999999999999
11
0.165
21
0.9225
0
LINE
8
BLACK
6
CONTINUOUS
10
0.735
20
0.9349999999999999
11
0.6799999999999999
21
0.9349999999999999
0
LINE
8
BLACK
6
CONTINUOUS
10
0.6799999999999999
20
0.9349999999999999
11
0.6799999999999999
21
0.97
0
LINE
8
BLACK
6
CONTINUOUS
10
0.6799999999999999
20
0.97
11
0.735
21
0.97
0
LINE
8
BLACK
6
CONTINUOUS
10
0.735
20
0.97
11
0.735
21
0.9349999999999999
0
LINE
8
BLACK
6
CONTINUOUS
10
0.4912
20
0.93875
11
0.4794
21
0.93875
0
LINE
8
BLACK
6
CONTINUOUS
10
0.4794
20
0.93875
11
0.4794
21
0.95645
0
LINE
8
BLACK
6
CONTINUOUS
10
0.4794
20
0.95645
11
0.4912
21
0.95645
0
LINE
8
BLACK
6
CONTINUOUS
10
0.4912
20
0.95645
11
0.4912
21
0.93875
0
LINE
8
BLACK
6
CONTINUOUS
10
0.5306
20
0.93875
11
0.5188
21
0.93875
0
LINE
8
BLACK
6
CONTINUOUS
10
0.5188
20
0.93875
11
0.5188
21
0.95645
0
LINE
8
BLACK
6
CONTINUOUS
10
0.5188
20
0.95645
11
0.5306
21
0.95645
0
LINE
8
BLACK
6
CONTINUOUS
10
0.5306
20
0.95645
11
0.5306
21
0.93875
0
LINE
8
BLACK
6
CONTINUOUS
10
0.4075
20
0.9399999999999999
11
0.3525
21
0.9399999999999999
0
LINE
8
BLACK
6
CONTINUOUS
10
0.3525
20
0.9399999999999999
11
0.3525
21
0.975
0
LINE
8
BLACK
6
CONTINUOUS
10
0.3525
20
0.975
11
0.4075
21
0.975
0
LINE
8
BLACK
6
CONTINUOUS
10
0.4075
20
0.975
11
0.4075
21
0.9399999999999999
0
LINE
8
BLACK
6
CONTINUOUS
10
1.325
20
0.975
11
1.2849999999999999
21
0.975
0
LINE
8
BLACK
6
CONTINUOUS
10
1.2849999999999999
20
0.975
11
1.2849999999999999
21
1.0549999999999999
0
LINE
8
BLACK
6
CONTINUOUS
10
1.2849999999999999
20
1.0549999999999999
11
1.325
21
1.0549999999999999
0
LINE
8
BLACK
6
CONTINUOUS
10
1.325
20
1.0549999999999999
11
1.325
21
0.975
0
LINE
8
BLACK
6
CONTINUOUS
10
1.415
20
0.975
11
1.375
21
0.975
0
LINE
8
BLACK
6
CONTINUOUS
10
1.375
20
0.975
11
1.375
21
1.0549999999999999
0
LINE
8
BLACK
6
CONTINUOUS
10
1.375
20
1.0549999999999999
11
1.415
21
1.0549999999999999
0
LINE
8
BLACK
6
CONTINUOUS
10
1.415
20
1.0549999999999999
11
1.415
21
0.975
0
LINE
8
BLACK
6
CONTINUOUS
10
1.5049999999999999
20
0.975
11
1.4649999999999999
21
0.975
0
LINE
8
BLACK
6
CONTINUOUS
10
1.4649999999999999
20
0.975
11
1.4649999999999999
21
1.0549999999999999
0
LINE
8
BLACK
6
CONTINUOUS
10
1.4649999999999999
20
1.0549999999999999
11
1.5049999999999999
21
1.0549999999999999
0
LINE
8
BLACK
6
CONTINUOUS
10
1.5049999999999999
20
1.0549999999999999
11
1.5049999999999999
21
0.975
0
LINE
8
BLACK
6
CONTINUOUS
10
1.2424999999999999
20
0.98
11
1.1875
21
0.98
0
LINE
8
BLACK
6
CONTINUOUS
10
1.1875
20
0.98
11
1.1875
21
1.0149999999999999
0
LINE
8
BLACK
6
CONTINUOUS
10
1.1875
20
1.0149999999999999
11
1.2424999999999999
21
1.0149999999999999
0
LINE
8
BLACK
6
CONTINUOUS
10
1.2424999999999999
20
1.0149999999999999
11
1.2424999999999999
21
0.98
0
LINE
8
BLACK
6
CONTINUOUS
10
1.1575
20
0.984
11
1.1025
21
0.984
0
LINE
8
BLACK
6
CONTINUOUS
10
1.1025
20
0.984
11
1.1025
21
1.0189999999999999
0
LINE
8
BLACK
6
CONTINUOUS
10
1.1025
20
1.0189999999999999
11
1.1575
21
1.0189999999999999
0
LINE
8
BLACK
6
CONTINUOUS
10
1.1575
20
1.0189999999999999
11
1.1575
21
0.984
0
LINE
8
BLACK
6
CONTINUOUS
10
0.9435
20
0.989
11
0.8885
21
0.989
0
LINE
8
BLACK
6
CONTINUOUS
10
0.8885
20
0.989
11
0.8885
21
1.024
0
LINE
8
BLACK
6
CONTINUOUS
10
0.8885
20
1.024
11
0.9435
21
1.024
0
LINE
8
BLACK
6
CONTINUOUS
10
0.9435
20
1.024
11
0.9435
21
0.989
0
LINE
8
BLACK
6
CONTINUOUS
10
0.735
20
1.01
11
0.6799999999999999
21
1.01
0
LINE
8
BLACK
6
CONTINUOUS
10
0.6799999999999999
20
1.01
11
0.6799999999999999
21
1.0449999999999999
0
LINE
8
BLACK
6
CONTINUOUS
10
0.6799999999999999
20
1.0449999999999999
11
0.735
21
1.0449999999999999
0
LINE
8
BLACK
6
CONTINUOUS
10
0.735
20
1.0449999999999999
11
0.735
21
1.01
0
LINE
8
BLACK
6
CONTINUOUS
10
0.1793858267716535
20
1.0115748031496063
11
0.1203307086614173
21
1.0115748031496063
0
LINE
8
BLACK
6
CONTINUOUS
10
0.1203307086614173
20
1.0115748031496063
11
0.1203307086614173
21
1.0292913385826772
0
LINE
8
BLACK
6
CONTINUOUS
10
0.1203307086614173
20
1.0292913385826772
11
0.1793858267716535
21
1.0292913385826772
0
LINE
8
BLACK
6
CONTINUOUS
10
0.1793858267716535
20
1.0292913385826772
11
0.1793858267716535
21
1.0115748031496063
0
LINE
8
BLACK
6
CONTINUOUS
10
0.4116692913385827
20
1.0115748031496063
11
0.3526141732283464
21
1.0115748031496063
0
LINE
8
BLACK
6
CONTINUOUS
10
0.3526141732283464
20
1.0115748031496063
11
0.3526141732283464
21
1.0292913385826772
0
LINE
8
BLACK
6
CONTINUOUS
10
0.3526141732283464
20
1.0292913385826772
11
0.4116692913385827
21
1.0292913385826772
0
LINE
8
BLACK
6
CONTINUOUS
10
0.4116692913385827
20
1.0292913385826772
11
0.4116692913385827
21
1.0115748031496063
0
LINE
8
BLACK
6
CONTINUOUS
10
0.1793858267716535
20
1.0371653543307087
11
0.1203307086614173
21
1.0371653543307087
0
LINE
8
BLACK
6
CONTINUOUS
10
0.1203307086614173
20
1.0371653543307087
11
0.1203307086614173
21
1.0548818897637795
0
LINE
8
BLACK
6
CONTINUOUS
10
0.1203307086614173
20
1.0548818897637795
11
0.1793858267716535
21
1.0548818897637795
0
LINE
8
BLACK
6
CONTINUOUS
10
0.1793858267716535
20
1.0548818897637795
11
0.1793858267716535
21
1.0371653543307087
0
LINE
8
BLACK
6
CONTINUOUS
10
0.4116692913385827
20
1.0371653543307087
11
0.3526141732283464
21
1.0371653543307087
0
LINE
8
BLACK
6
CONTINUOUS
10
0.3526141732283464
20
1.0371653543307087
11
0.3526141732283464
21
1.0548818897637795
0
LINE
8
BLACK
6
CONTINUOUS
10
0.3526141732283464
20
1.0548818897637795
11
0.4116692913385827
21
1.0548818897637795
0
LINE
8
BLACK
6
CONTINUOUS
10
0.4116692913385827
20
1.0548818897637795
11
0.4116692913385827
21
1.0371653543307087
0
LINE
8
BLACK
6
CONTINUOUS
10
1.1575
20
1.056
11
1.1025
21
1.056
0
LINE
8
BLACK
6
CONTINUOUS
10
1.1025
20
1.056
11
1.1025
21
1.091
0
LINE
8
BLACK
6
CONTINUOUS
10
1.1025
20
1.091
11
1.1575
21
1.091
0
LINE
8
BLACK
6
CONTINUOUS
10
1.1575
20
1.091
11
1.1575
21
1.056
0
LINE
8
BLACK
6
CONTINUOUS
10
0.9435
20
1.0609999999999999
11
0.8885
21
1.0609999999999999
0
LINE
8
BLACK
6
CONTINUOUS
10
0.8885
20
1.0609999999999999
11
0.8885
21
1.0960000000000001
0
LINE
8
BLACK
6
CONTINUOUS
10
0.8885
20
1.0960000000000001
11
0.9435
21
1.0960000000000001
0
LINE
8
BLACK
6
CONTINUOUS
10
0.9435
20
1.0960000000000001
11
0.9435
21
1.0609999999999999
0
LINE
8
BLACK
6
CONTINUOUS
10
0.1793858267716535
20
1.062755905511811
11
0.1203307086614173
21
1.062755905511811
0
LINE
8
BLACK
6
CONTINUOUS
10
0.1203307086614173
20
1.062755905511811
11
0.1203307086614173
21
1.0804724409448818
0
LINE
8
BLACK
6
CONTINUOUS
10
0.1203307086614173
20
1.0804724409448818
11
0.1793858267716535
21
1.0804724409448818
0
LINE
8
BLACK
6
CONTINUOUS
10
0.1793858267716535
20
1.0804724409448818
11
0.1793858267716535
21
1.062755905511811
0
LINE
8
BLACK
6
CONTINUOUS
10
0.4116692913385827
20
1.062755905511811
11
0.3526141732283464
21
1.062755905511811
0
LINE
8
BLACK
6
CONTINUOUS
10
0.3526141732283464
20
1.062755905511811
11
0.3526141732283464
21
1.0804724409448818
0
LINE
8
BLACK
6
CONTINUOUS
10
0.3526141732283464
20
1.0804724409448818
11
0.4116692913385827
21
1.0804724409448818
0
LINE
8
BLACK
6
CONTINUOUS
10
0.4116692913385827
20
1.0804724409448818
11
0.4116692913385827
21
1.062755905511811
0
LINE
8
BLACK
6
CONTINUOUS
10
0.734
20
1.0654999999999999
11
0.6789999999999999
21
1.0654999999999999
0
LINE
8
BLACK
6
CONTINUOUS
10
0.6789999999999999
20
1.0654999999999999
11
0.6789999999999999
21
1.1005
0
LINE
8
BLACK
6
CONTINUOUS
10
0.6789999999999999
20
1.1005
11
0.734
21
1.1005
0
LINE
8
BLACK
6
CONTINUOUS
10
0.734
20
1.1005
11
0.734
21
1.0654999999999999
0
LINE
8
BLACK
6
CONTINUOUS
10
0.1793858267716535
20
1.0883464566929133
11
0.1203307086614173
21
1.0883464566929133
0
LINE
8
BLACK
6
CONTINUOUS
10
0.1203307086614173
20
1.0883464566929133
11
0.1203307086614173
21
1.1060629921259841
0
LINE
8
BLACK
6
CONTINUOUS
10
0.1203307086614173
20
1.1060629921259841
11
0.1793858267716535
21
1.1060629921259841
0
LINE
8
BLACK
6
CONTINUOUS
10
0.1793858267716535
20
1.1060629921259841
11
0.1793858267716535
21
1.0883464566929133
0
LINE
8
BLACK
6
CONTINUOUS
10
0.4116692913385827
20
1.0883464566929133
11
0.3526141732283464
21
1.0883464566929133
0
LINE
8
BLACK
6
CONTINUOUS
10
0.3526141732283464
20
1.0883464566929133
11
0.3526141732283464
21
1.1060629921259841
0
LINE
8
BLACK
6
CONTINUOUS
10
0.3526141732283464
20
1.1060629921259841
11
0.4116692913385827
21
1.1060629921259841
0
LINE
8
BLACK
6
CONTINUOUS
10
0.4116692913385827
20
1.1060629921259841
11
0.4116692913385827
21
1.0883464566929133
0
LINE
8
BLACK
6
CONTINUOUS
10
0.1793858267716535
20
1.1139370078740156
11
0.1203307086614173
21
1.1139370078740156
0
LINE
8
BLACK
6
CONTINUOUS
10
0.1203307086614173
20
1.1139370078740156
11
0.1203307086614173
21
1.1316535433070867
0
LINE
8
BLACK
6
CONTINUOUS
10
0.1203307086614173
20
1.1316535433070867
11
0.1793858267716535
21
1.1316535433070867
0
LINE
8
BLACK
6
CONTINUOUS
10
0.1793858267716535
20
1.1316535433070867
11
0.1793858267716535
21
1.1139370078740156
0
LINE
8
BLACK
6
CONTINUOUS
10
0.4116692913385827
20
1.1139370078740156
11
0.3526141732283464
21
1.1139370078740156
0
LINE
8
BLACK
6
CONTINUOUS
10
0.3526141732283464
20
1.1139370078740156
11
0.3526141732283464
21
1.1316535433070867
0
LINE
8
BLACK
6
CONTINUOUS
10
0.3526141732283464
20
1.1316535433070867
11
0.4116692913385827
21
1.1316535433070867
0
LINE
8
BLACK
6
CONTINUOUS
10
0.4116692913385827
20
1.1316535433070867
11
0.4116692913385827
21
1.1139370078740156
0
LINE
8
BLACK
6
CONTINUOUS
10
1.1575
20
1.131
11
1.1025
21
1.131
0
LINE
8
BLACK
6
CONTINUOUS
10
1.1025
20
1.131
11
1.1025
21
1.1659999999999999
0
LINE
8
BLACK
6
CONTINUOUS
10
1.1025
20
1.1659999999999999
11
1.1575
21
1.1659999999999999
0
LINE
8
BLACK
6
CONTINUOUS
10
1.1575
20
1.1659999999999999
11
1.1575
21
1.131
0
LINE
8
BLACK
6
CONTINUOUS
10
0.9435
20
1.1359999999999999
11
0.8885
21
1.1359999999999999
0
LINE
8
BLACK
6
CONTINUOUS
10
0.8885
20
1.1359999999999999
11
0.8885
21
1.171
0
LINE
8
BLACK
6
CONTINUOUS
10
0.8885
20
1.171
11
0.9435
21
1.171
0
LINE
8
BLACK
6
CONTINUOUS
10
0.9435
20
1.171
11
0.9435
21
1.1359999999999999
0
LINE
8
BLACK
6
CONTINUOUS
10
0.1793858267716535
20
1.1395275590551182
11
0.1203307086614173
21
1.1395275590551182
0
LINE
8
BLACK
6
CONTINUOUS
10
0.1203307086614173
20
1.1395275590551182
11
0.1203307086614173
21
1.157244094488189
0
LINE
8
BLACK
6
CONTINUOUS
10
0.1203307086614173
20
1.157244094488189
11
0.1793858267716535
21
1.157244094488189
0
LINE
8
BLACK
6
CONTINUOUS
10
0.1793858267716535
20
1.157244094488189
11
0.1793858267716535
21
1.1395275590551182
0
LINE
8
BLACK
6
CONTINUOUS
10
0.4116692913385827
20
1.1395275590551182
11
0.3526141732283464
21
1.1395275590551182
0
LINE
8
BLACK
6
CONTINUOUS
10
0.3526141732283464
20
1.1395275590551182
11
0.3526141732283464
21
1.157244094488189
0
LINE
8
BLACK
6
CONTINUOUS
10
0.3526141732283464
20
1.157244094488189
11
0.4116692913385827
21
1.157244094488189
0
LINE
8
BLACK
6
CONTINUOUS
10
0.4116692913385827
20
1.157244094488189
11
0.4116692913385827
21
1.1395275590551182
0
LINE
8
BLACK
6
CONTINUOUS
10
0.734
20
1.1405000000000001
11
0.6789999999999999
21
1.1405000000000001
0
LINE
8
BLACK
6
CONTINUOUS
10
0.6789999999999999
20
1.1405000000000001
11
0.6789999999999999
21
1.1755
0
LINE
8
BLACK
6
CONTINUOUS
10
0.6789999999999999
20
1.1755
11
0.734
21
1.1755
0
LINE
8
BLACK
6
CONTINUOUS
10
0.734
20
1.1755
11
0.734
21
1.1405000000000001
0
LINE
8
BLACK
6
CONTINUOUS
10
0.5462
20
1.14855
11
0.5344
21
1.14855
0
LINE
8
BLACK
6
CONTINUOUS
10
0.5344
20
1.14855
11
0.5344
21
1.16625
0
LINE
8
BLACK
6
CONTINUOUS
10
0.5344
20
1.16625
11
0.5462
21
1.16625
0
LINE
8
BLACK
6
CONTINUOUS
10
0.5462
20
1.16625
11
0.5462
21
1.14855
0
LINE
8
BLACK
6
CONTINUOUS
10
0.5856
20
1.14855
11
0.5738
21
1.14855
0
LINE
8
BLACK
6
CONTINUOUS
10
0.5738
20
1.14855
11
0.5738
21
1.16625
0
LINE
8
BLACK
6
CONTINUOUS
10
0.5738
20
1.16625
11
0.5856
21
1.16625
0
LINE
8
BLACK
6
CONTINUOUS
10
0.5856
20
1.16625
11
0.5856
21
1.14855
0
LINE
8
BLACK
6
CONTINUOUS
10
0.1793858267716535
20
1.1651181102362205
11
0.1203307086614173
21
1.1651181102362205
0
LINE
8
BLACK
6
CONTINUOUS
10
0.1203307086614173
20
1.1651181102362205
11
0.1203307086614173
21
1.1828346456692913
0
LINE
8
BLACK
6
CONTINUOUS
10
0.1203307086614173
20
1.1828346456692913
11
0.1793858267716535
21
1.1828346456692913
0
LINE
8
BLACK
6
CONTINUOUS
10
0.1793858267716535
20
1.1828346456692913
11
0.1793858267716535
21
1.1651181102362205
0
LINE
8
BLACK
6
CONTINUOUS
10
0.4116692913385827
20
1.1651181102362205
11
0.3526141732283464
21
1.1651181102362205
0
LINE
8
BLACK
6
CONTINUOUS
10
0.3526141732283464
20
1.1651181102362205
11
0.3526141732283464
21
1.1828346456692913
0
LINE
8
BLACK
6
CONTINUOUS
10
0.3526141732283464
20
1.1828346456692913
11
0.4116692913385827
21
1.1828346456692913
0
LINE
8
BLACK
6
CONTINUOUS
10
0.4116692913385827
20
1.1828346456692913
11
0.4116692913385827
21
1.1651181102362205
0
LINE
8
BLACK
6
CONTINUOUS
10
0.1793858267716535
20
1.1907086614173228
11
0.1203307086614173
21
1.1907086614173228
0
LINE
8
BLACK
6
CONTINUOUS
10
0.1203307086614173
20
1.1907086614173228
11
0.1203307086614173
21
1.2084251968503936
0
LINE
8
BLACK
6
CONTINUOUS
10
0.1203307086614173
20
1.2084251968503936
11
0.1793858267716535
21
1.2084251968503936
0
LINE
8
BLACK
6
CONTINUOUS
10
0.1793858267716535
20
1.2084251968503936
11
0.1793858267716535
21
1.1907086614173228
0
LINE
8
BLACK
6
CONTINUOUS
10
0.4116692913385827
20
1.1907086614173228
11
0.3526141732283464
21
1.1907086614173228
0
LINE
8
BLACK
6
CONTINUOUS
10
0.3526141732283464
20
1.1907086614173228
11
0.3526141732283464
21
1.2084251968503936
0
LINE
8
BLACK
6
CONTINUOUS
10
0.3526141732283464
20
1.2084251968503936
11
0.4116692913385827
21
1.2084251968503936
0
LINE
8
BLACK
6
CONTINUOUS
10
0.4116692913385827
20
1.2084251968503936
11
0.4116692913385827
21
1.1907086614173228
0
LINE
8
BLACK
6
CONTINUOUS
10
1.1575
20
1.1910000000000001
11
1.1025
21
1.1910000000000001
0
LINE
8
BLACK
6
CONTINUOUS
10
1.1025
20
1.1910000000000001
11
1.1025
21
1.226
0
LINE
8
BLACK
6
CONTINUOUS
10
1.1025
20
1.226
11
1.1575
21
1.226
0
LINE
8
BLACK
6
CONTINUOUS
10
1.1575
20
1.226
11
1.1575
21
1.1910000000000001
0
LINE
8
BLACK
6
CONTINUOUS
10
0.9435
20
1.196
11
0.8885
21
1.196
0
LINE
8
BLACK
6
CONTINUOUS
10
0.8885
20
1.196
11
0.8885
21
1.2309999999999999
0
LINE
8
BLACK
6
CONTINUOUS
10
0.8885
20
1.2309999999999999
11
0.9435
21
1.2309999999999999
0
LINE
8
BLACK
6
CONTINUOUS
10
0.9435
20
1.2309999999999999
11
0.9435
21
1.196
0
LINE
8
BLACK
6
CONTINUOUS
10
0.5462
20
1.2037499999999999
11
0.5344
21
1.2037499999999999
0
LINE
8
BLACK
6
CONTINUOUS
10
0.5344
20
1.2037499999999999
11
0.5344
21
1.2214499999999999
0
LINE
8
BLACK
6
CONTINUOUS
10
0.5344
20
1.2214499999999999
11
0.5462
21
1.2214499999999999
0
LINE
8
BLACK
6
CONTINUOUS
10
0.5462
20
1.2214499999999999
11
0.5462
21
1.2037499999999999
0
LINE
8
BLACK
6
CONTINUOUS
10
0.5659
20
1.2037499999999999
11
0.5541
21
1.2037499999999999
0
LINE
8
BLACK
6
CONTINUOUS
10
0.5541
20
1.2037499999999999
11
0.5541
21
1.2214499999999999
0
LINE
8
BLACK
6
CONTINUOUS
10
0.5541
20
1.2214499999999999
11
0.5659
21
1.2214499999999999
0
LINE
8
BLACK
6
CONTINUOUS
10
0.5659
20
1.2214499999999999
11
0.5659
21
1.2037499999999999
0
LINE
8
BLACK
6
CONTINUOUS
10
0.5856
20
1.2037499999999999
11
0.5738
21
1.2037499999999999
0
LINE
8
BLACK
6
CONTINUOUS
10
0.5738
20
1.2037499999999999
11
0.5738
21
1.2214499999999999
0
LINE
8
BLACK
6
CONTINUOUS
10
0.5738
20
1.2214499999999999
11
0.5856
21
1.2214499999999999
0
LINE
8
BLACK
6
CONTINUOUS
10
0.5856
20
1.2214499999999999
11
0.5856
21
1.2037499999999999
0
LINE
8
BLACK
6
CONTINUOUS
10
0.7344999999999999
20
1.2050000000000001
11
0.6795
21
1.2050000000000001
0
LINE
8
BLACK
6
CONTINUOUS
10
0.6795
20
1.2050000000000001
11
0.6795
21
1.24
0
LINE
8
BLACK
6
CONTINUOUS
10
0.6795
20
1.24
11
0.7344999999999999
21
1.24
0
LINE
8
BLACK
6
CONTINUOUS
10
0.7344999999999999
20
1.24
11
0.7344999999999999
21
1.2050000000000001
0
LINE
8
BLACK
6
CONTINUOUS
10
1.4669999999999999
20
1.2349999999999999
11
1.323
21
1.2349999999999999
0
LINE
8
BLACK
6
CONTINUOUS
10
1.323
20
1.2349999999999999
11
1.323
21
1.3149999999999999
0
LINE
8
BLACK
6
CONTINUOUS
10
1.323
20
1.3149999999999999
11
1.4669999999999999
21
1.3149999999999999
0
LINE
8
BLACK
6
CONTINUOUS
10
1.4669999999999999
20
1.3149999999999999
11
1.4669999999999999
21
1.2349999999999999
0
LINE
8
BLACK
6
CONTINUOUS
10
1.1575
20
1.266
11
1.1025
21
1.266
0
LINE
8
BLACK
6
CONTINUOUS
10
1.1025
20
1.266
11
1.1025
21
1.3009999999999999
0
LINE
8
BLACK
6
CONTINUOUS
10
1.1025
20
1.3009999999999999
11
1.1575
21
1.3009999999999999
0
LINE
8
BLACK
6
CONTINUOUS
10
1.1575
20
1.3009999999999999
11
1.1575
21
1.266
0
LINE
8
BLACK
6
CONTINUOUS
10
0.395
20
1.27
11
0.36
21
1.27
0
LINE
8
BLACK
6
CONTINUOUS
10
0.36
20
1.27
11
0.36
21
1.325
0
LINE
8
BLACK
6
CONTINUOUS
10
0.36
20
1.325
11
0.395
21
1.325
0
LINE
8
BLACK
6
CONTINUOUS
10
0.395
20
1.325
11
0.395
21
1.27
0
LINE
8
BLACK
6
CONTINUOUS
10
0.47
20
1.27
11
0.435
21
1.27
0
LINE
8
BLACK
6
CONTINUOUS
10
0.435
20
1.27
11
0.435
21
1.325
0
LINE
8
BLACK
6
CONTINUOUS
10
0.435
20
1.325
11
0.47
21
1.325
0
LINE
8
BLACK
6
CONTINUOUS
10
0.47
20
1.325
11
0.47
21
1.27
0
LINE
8
BLACK
6
CONTINUOUS
10
0.9435
20
1.2709999999999999
11
0.8885
21
1.2709999999999999
0
LINE
8
BLACK
6
CONTINUOUS
10
0.8885
20
1.2709999999999999
11
0.8885
21
1.306
0
LINE
8
BLACK
6
CONTINUOUS
10
0.8885
20
1.306
11
0.9435
21
1.306
0
LINE
8
BLACK
6
CONTINUOUS
10
0.9435
20
1.306
11
0.9435
21
1.2709999999999999
0
LINE
8
BLACK
6
CONTINUOUS
10
0.7344999999999999
20
1.28
11
0.6795
21
1.28
0
LINE
8
BLACK
6
CONTINUOUS
10
0.6795
20
1.28
11
0.6795
21
1.3149999999999999
0
LINE
8
BLACK
6
CONTINUOUS
10
0.6795
20
1.3149999999999999
11
0.7344999999999999
21
1.3149999999999999
0
LINE
8
BLACK
6
CONTINUOUS
10
0.7344999999999999
20
1.3149999999999999
11
0.7344999999999999
21
1.28
0
LINE
8
BLACK
6
CONTINUOUS
10
0.96
20
1.3474999999999999
11
0.9249999999999999
21
1.3474999999999999
0
LINE
8
BLACK
6
CONTINUOUS
10
0.9249999999999999
20
1.3474999999999999
11
0.9249999999999999
21
1.4024999999999999
0
LINE
8
BLACK
6
CONTINUOUS
10
0.9249999999999999
20
1.4024999999999999
11
0.96
21
1.4024999999999999
0
LINE
8
BLACK
6
CONTINUOUS
10
0.96
20
1.4024999999999999
11
0.96
21
1.3474999999999999
0
LINE
8
BLACK
6
CONTINUOUS
10
1.0349999999999999
20
1.3474999999999999
11
1.
21
1.3474999999999999
0
LINE
8
BLACK
6
CONTINUOUS
10
1.
20
1.3474999999999999
11
1.
21
1.4024999999999999
0
LINE
8
BLACK
6
CONTINUOUS
10
1.
20
1.4024999999999999
11
1.0349999999999999
21
1.4024999999999999
0
LINE
8
BLACK
6
CONTINUOUS
10
1.0349999999999999
20
1.4024999999999999
11
1.0349999999999999
21
1.3474999999999999
0
LINE
8
BLACK
6
CONTINUOUS
10
1.2825
20
1.375
11
1.2275
21
1.375
0
LINE
8
BLACK
6
CONTINUOUS
10
1.2275
20
1.375
11
1.2275
21
1.4099999999999999
0
LINE
8
BLACK
6
CONTINUOUS
10
1.2275
20
1.4099999999999999
11
1.2825
21
1.4099999999999999
0
LINE
8
BLACK
6
CONTINUOUS
10
1.2825
20
1.4099999999999999
11
1.2825
21
1.375
0
LINE
8
BLACK
6
CONTINUOUS
10
1.2825
20
1.45
11
1.2275
21
1.45
0
LINE
8
BLACK
6
CONTINUOUS
10
1.2275
20
1.45
11
1.2275
21
1.4849999999999999
0
LINE
8
BLACK
6
CONTINUOUS
10
1.2275
20
1.4849999999999999
11
1.2825
21
1.4849999999999999
0
LINE
8
BLACK
6
CONTINUOUS
10
1.2825
20
1.4849999999999999
11
1.2825
21
1.45
0
LINE
8
BLACK
6
CONTINUOUS
10
1.05
20
1.4550000000000001
11
0.97
21
1.4550000000000001
0
LINE
8
BLACK
6
CONTINUOUS
10
0.97
20
1.4550000000000001
11
0.97
21
1.4949999999999999
0
LINE
8
BLACK
6
CONTINUOUS
10
0.97
20
1.4949999999999999
11
1.05
21
1.4949999999999999
0
LINE
8
BLACK
6
CONTINUOUS
10
1.05
20
1.4949999999999999
11
1.05
21
1.4550000000000001
0
LINE
8
BLACK
6
CONTINUOUS
10
0.79
20
1.4929999999999999
11
0.71
21
1.4929999999999999
0
LINE
8
BLACK
6
CONTINUOUS
10
0.71
20
1.4929999999999999
11
0.71
21
1.637
0
LINE
8
BLACK
6
CONTINUOUS
10
0.71
20
1.637
11
0.79
21
1.637
0
LINE
8
BLACK
6
CONTINUOUS
10
0.79
20
1.637
11
0.79
21
1.4929999999999999
0
LINE
8
BLACK
6
CONTINUOUS
10
1.05
20
1.5449999999999999
11
0.97
21
1.5449999999999999
0
LINE
8
BLACK
6
CONTINUOUS
10
0.97
20
1.5449999999999999
11
0.97
21
1.585
0
LINE
8
BLACK
6
CONTINUOUS
10
0.97
20
1.585
11
1.05
21
1.585
0
LINE
8
BLACK
6
CONTINUOUS
10
1.05
20
1.585
11
1.05
21
1.5449999999999999
0
LINE
8
BLACK
6
CONTINUOUS
10
1.1575
20
1.5999999999999999
11
1.1025
21
1.5999999999999999
0
LINE
8
BLACK
6
CONTINUOUS
10
1.1025
20
1.5999999999999999
11
1.1025
21
1.635
0
LINE
8
BLACK
6
CONTINUOUS
10
1.1025
20
1.635
11
1.1575
21
1.635
0
LINE
8
BLACK
6
CONTINUOUS
10
1.1575
20
1.635
11
1.1575
21
1.5999999999999999
0
LINE
8
BLACK
6
CONTINUOUS
10
1.05
20
1.635
11
0.97
21
1.635
0
LINE
8
BLACK
6
CONTINUOUS
10
0.97
20
1.635
11
0.97
21
1.675
0
LINE
8
BLACK
6
CONTINUOUS
10
0.97
20
1.675
11
1.05
21
1.675
0
LINE
8
BLACK
6
CONTINUOUS
10
1.05
20
1.675
11
1.05
21
1.635
0
LINE
8
BLACK
6
CONTINUOUS
10
1.1575
20
1.675
11
1.1025
21
1.675
0
LINE
8
BLACK
6
CONTINUOUS
10
1.1025
20
1.675
11
1.1025
21
1.71
0
LINE
8
BLACK
6
CONTINUOUS
10
1.1025
20
1.71
11
1.1575
21
1.71
0
LINE
8
BLACK
6
CONTINUOUS
10
1.1575
20
1.71
11
1.1575
21
1.675
  0
ENDSEC
  0
EOF
