  0
SECTION
  2
HEADER
  9
$ANGBASE
  50
0.0
  9
$ANGDIR
  70
1
  9
$MEASUREMENT
  70
0
  0
ENDSEC
  0
SECTION
  2
TABLES
  0
TABLE
  2
LTYPE
  70
4
  0
LTYPE
  5
40F
  2
CONTINUOUS
  70
0
  3
Solid line
  72
65
  73
0
  40
0.0
  0
LTYPE
  5
410
  2
DASHDOT
 70
0
  3
Dash Dot ____ _ ____ _
 72
65
 73
4
 40
2.0
 49
1.25
 49
-0.25
 49
0.25
 49
-0.25
  0
LTYPE
  5
411
  2
DASHED
 70
0
  3
Dashed __ __ __ __ __
 72
65
 73
2
 40
0.75
 49
0.5
 49
-0.25
  0
LTYPE
  5
43B
  2
DOTTED
 70
0
  3
Dotted .  .  .  .
 72
65
 73
2
 40
0.2
 49
0.0
 49
-0.2
  0
ENDTAB
  0
TABLE
  2
STYLE
  70
4
  0
STYLE
  2
KICAD
  70
0
  40
0
  41
1
  42
1
  50
0
  71
0
  3
isocp.shx
  0
STYLE
  2
KICADB
  70
0
  40
0
  41
1
  42
1
  50
0
  71
0
  3
isocp.shx
  0
STYLE
  2
KICADI
  70
0
  40
0
  41
1
  42
1
  50
15
  71
0
  3
isocp.shx
  0
STYLE
  2
KICADBI
  70
0
  40
0
  41
1
  42
1
  50
15
  71
0
  3
isocp.shx
  0
ENDTAB
  0
TABLE
  2
LAYER
  70
1
  0
LAYER
  2
BLACK
  70
0
  62
7
  6
CONTINUOUS
  0
ENDTAB
  0
ENDSEC
  0
SECTION
  2
ENTITIES
0
CIRCLE
8
BLACK
10
0.5599999999999999
20
0.71
40
0.0068897637795276
0
CIRCLE
8
BLACK
10
0.5599999999999999
20
0.8099999999999999
40
0.0068897637795276
0
CIRCLE
8
BLACK
10
0.66
20
0.71
40
0.0068897637795276
0
CIRCLE
8
BLACK
10
0.66
20
0.8099999999999999
40
0.0068897637795276
0
CIRCLE
8
BLACK
10
0.76
20
0.71
40
0.0068897637795276
0
CIRCLE
8
BLACK
10
0.76
20
0.8099999999999999
40
0.0068897637795276
0
CIRCLE
8
BLACK
10
0.86
20
0.71
40
0.0068897637795276
0
CIRCLE
8
BLACK
10
0.86
20
0.8099999999999999
40
0.0068897637795276
0
CIRCLE
8
BLACK
10
0.96
20
0.71
40
0.0068897637795276
0
CIRCLE
8
BLACK
10
0.96
20
0.8099999999999999
40
0.0068897637795276
0
CIRCLE
8
BLACK
10
1.0600000000000001
20
0.71
40
0.0068897637795276
0
CIRCLE
8
BLACK
10
1.0600000000000001
20
0.8099999999999999
40
0.0068897637795276
0
CIRCLE
8
BLACK
10
1.385
20
1.585
40
0.0068897637795276
0
CIRCLE
8
BLACK
10
1.4849999999999999
20
1.585
40
0.0068897637795276
0
CIRCLE
8
BLACK
10
1.385
20
1.4849999999999999
40
0.0068897637795276
0
CIRCLE
8
BLACK
10
1.4849999999999999
20
1.4849999999999999
40
0.0068897637795276
0
CIRCLE
8
BLACK
10
1.385
20
1.385
40
0.0068897637795276
0
CIRCLE
8
BLACK
10
1.4849999999999999
20
1.385
40
0.0068897637795276
0
CIRCLE
8
BLACK
10
1.1299999999999999
20
1.5349999999999999
40
0.0068897637795276
0
CIRCLE
8
BLACK
10
1.1299999999999999
20
1.4350000000000001
40
0.0068897637795276
0
CIRCLE
8
BLACK
10
0.59
20
1.6599999999999999
40
0.0068897637795276
0
CIRCLE
8
BLACK
10
0.59
20
1.5600000000000001
40
0.0068897637795276
0
CIRCLE
8
BLACK
10
0.59
20
1.46
40
0.0068897637795276
0
CIRCLE
8
BLACK
10
0.82
20
1.7949999999999999
40
0.0068897637795276
0
CIRCLE
8
BLACK
10
0.82
20
1.895
40
0.0068897637795276
0
CIRCLE
8
BLACK
10
0.9199999999999999
20
1.7949999999999999
40
0.0068897637795276
0
CIRCLE
8
BLACK
10
0.9199999999999999
20
1.895
40
0.0068897637795276
0
CIRCLE
8
BLACK
10
1.02
20
1.7949999999999999
40
0.0068897637795276
0
CIRCLE
8
BLACK
10
1.02
20
1.895
40
0.0068897637795276
0
CIRCLE
8
BLACK
10
0.1475
20
1.4924999999999999
40
0.0068897637795276
0
CIRCLE
8
BLACK
10
0.2475
20
1.4924999999999999
40
0.0068897637795276
0
CIRCLE
8
BLACK
10
0.145
20
0.835
40
0.0068897637795276
0
CIRCLE
8
BLACK
10
0.245
20
0.835
40
0.0068897637795276
0
CIRCLE
8
BLACK
10
0.145
20
0.535
40
0.0068897637795276
0
CIRCLE
8
BLACK
10
0.245
20
0.535
40
0.0068897637795276
0
CIRCLE
8
BLACK
10
0.145
20
0.635
40
0.0068897637795276
0
CIRCLE
8
BLACK
10
0.245
20
0.635
40
0.0068897637795276
0
CIRCLE
8
BLACK
10
0.145
20
0.735
40
0.0068897637795276
0
CIRCLE
8
BLACK
10
0.245
20
0.735
40
0.0068897637795276
0
CIRCLE
8
BLACK
10
0.145
20
0.435
40
0.0068897637795276
0
CIRCLE
8
BLACK
10
0.245
20
0.435
40
0.0068897637795276
0
CIRCLE
8
BLACK
10
0.2
20
1.8
40
0.0068897637795276
0
CIRCLE
8
BLACK
10
1.3999999999999999
20
0.2
40
0.0068897637795276
0
CIRCLE
8
BLACK
10
0.2
20
0.2
40
0.0068897637795276
0
CIRCLE
8
BLACK
10
1.3999999999999999
20
1.8
40
0.0068897637795276
0
CIRCLE
8
BLACK
10
0.5499999999999999
20
0.23
40
0.0068897637795276
0
CIRCLE
8
BLACK
10
1.05
20
0.23
40
0.0068897637795276
0
CIRCLE
8
BLACK
10
0.9397637795275591
20
0.33
40
0.0068897637795276
0
CIRCLE
8
BLACK
10
0.8996062992125984
20
0.4000787401574803
40
0.0068897637795276
0
CIRCLE
8
BLACK
10
0.8598425196850393
20
0.33
40
0.0068897637795276
0
CIRCLE
8
BLACK
10
0.8196850393700787
20
0.4000787401574803
40
0.0068897637795276
0
CIRCLE
8
BLACK
10
0.7799212598425197
20
0.33
40
0.0068897637795276
0
CIRCLE
8
BLACK
10
0.739763779527559
20
0.4000787401574803
40
0.0068897637795276
0
CIRCLE
8
BLACK
10
0.7
20
0.33
40
0.0068897637795276
0
CIRCLE
8
BLACK
10
0.6598425196850394
20
0.4000787401574803
40
0.0068897637795276
0
CIRCLE
8
BLACK
10
1.0700787401574803
20
0.5898425196850393
40
0.0068897637795276
0
CIRCLE
8
BLACK
10
0.9799212598425197
20
0.5898425196850393
40
0.0068897637795276
0
CIRCLE
8
BLACK
10
0.6200787401574803
20
0.5898425196850393
40
0.0068897637795276
0
CIRCLE
8
BLACK
10
0.5299212598425197
20
0.5898425196850393
40
0.0068897637795276
0
CIRCLE
8
BLACK
10
0.4799212598425197
20
0.3650393700787402
40
0.0068897637795276
0
CIRCLE
8
BLACK
10
1.1200787401574803
20
0.3650393700787402
40
0.0068897637795276
0
CIRCLE
8
BLACK
10
0.49
20
1.6599999999999999
40
0.0068897637795276
0
CIRCLE
8
BLACK
10
0.49
20
1.5600000000000001
40
0.0068897637795276
0
CIRCLE
8
BLACK
10
0.49
20
1.46
40
0.0068897637795276
0
CIRCLE
8
BLACK
10
1.3074999999999999
20
0.9125
40
0.0068897637795276
0
CIRCLE
8
BLACK
10
1.4075
20
0.9125
40
0.0068897637795276
0
CIRCLE
8
BLACK
10
1.3999999999999999
20
0.6899999999999999
40
0.0068897637795276
0
CIRCLE
8
BLACK
10
1.5
20
0.6899999999999999
40
0.0068897637795276
0
CIRCLE
8
BLACK
10
1.3999999999999999
20
0.59
40
0.0068897637795276
0
CIRCLE
8
BLACK
10
1.5
20
0.59
40
0.0068897637795276
0
CIRCLE
8
BLACK
10
1.3999999999999999
20
0.49
40
0.0068897637795276
0
CIRCLE
8
BLACK
10
1.5
20
0.49
40
0.0068897637795276
0
CIRCLE
8
BLACK
10
1.3999999999999999
20
0.39
40
0.0068897637795276
0
CIRCLE
8
BLACK
10
1.5
20
0.39
40
0.0068897637795276
0
CIRCLE
8
BLACK
10
0.1475
20
1.3925000000000001
40
0.0068897637795276
0
CIRCLE
8
BLACK
10
0.2475
20
1.3925000000000001
40
0.0068897637795276
0
CIRCLE
8
BLACK
10
0.248
20
1.5919999999999999
40
0.0068897637795276
0
CIRCLE
8
BLACK
10
0.148
20
1.5919999999999999
40
0.0068897637795276
  0
ENDSEC
  0
EOF
