  0
SECTION
  2
HEADER
  9
$ANGBASE
  50
0.0
  9
$ANGDIR
  70
1
  9
$MEASUREMENT
  70
0
  0
ENDSEC
  0
SECTION
  2
TABLES
  0
TABLE
  2
LTYPE
  70
4
  0
LTYPE
  5
40F
  2
CONTINUOUS
  70
0
  3
Solid line
  72
65
  73
0
  40
0.0
  0
LTYPE
  5
410
  2
DASHDOT
 70
0
  3
Dash Dot ____ _ ____ _
 72
65
 73
4
 40
2.0
 49
1.25
 49
-0.25
 49
0.25
 49
-0.25
  0
LTYPE
  5
411
  2
DASHED
 70
0
  3
Dashed __ __ __ __ __
 72
65
 73
2
 40
0.75
 49
0.5
 49
-0.25
  0
LTYPE
  5
43B
  2
DOTTED
 70
0
  3
Dotted .  .  .  .
 72
65
 73
2
 40
0.2
 49
0.0
 49
-0.2
  0
ENDTAB
  0
TABLE
  2
STYLE
  70
4
  0
STYLE
  2
KICAD
  70
0
  40
0
  41
1
  42
1
  50
0
  71
0
  3
isocp.shx
  0
STYLE
  2
KICADB
  70
0
  40
0
  41
1
  42
1
  50
0
  71
0
  3
isocp.shx
  0
STYLE
  2
KICADI
  70
0
  40
0
  41
1
  42
1
  50
15
  71
0
  3
isocp.shx
  0
STYLE
  2
KICADBI
  70
0
  40
0
  41
1
  42
1
  50
15
  71
0
  3
isocp.shx
  0
ENDTAB
  0
TABLE
  2
LAYER
  70
1
  0
LAYER
  2
BLACK
  70
0
  62
7
  6
CONTINUOUS
  0
ENDTAB
  0
ENDSEC
  0
SECTION
  2
ENTITIES
0
LINE
8
BLACK
6
CONTINUOUS
10
0.1540900787401575
20
1.2741235826771653
11
0.1541880708661417
21
1.2740829527559054
0
LINE
8
BLACK
6
CONTINUOUS
10
0.1541880708661417
20
1.2740829527559054
11
0.1542938976377953
21
1.2740754724409449
0
LINE
8
BLACK
6
CONTINUOUS
10
0.1542938976377953
20
1.2740754724409449
11
0.1548345275590551
21
1.2738685826771654
0
LINE
8
BLACK
6
CONTINUOUS
10
0.1548345275590551
20
1.2738685826771654
11
0.1585840551181102
21
1.2719938188976379
0
LINE
8
BLACK
6
CONTINUOUS
10
0.1585840551181102
20
1.2719938188976379
11
0.1588320472440945
21
1.2718377165354331
0
LINE
8
BLACK
6
CONTINUOUS
10
0.1588320472440945
20
1.2718377165354331
11
0.1589040157480315
21
1.2718079133858267
0
LINE
8
BLACK
6
CONTINUOUS
10
0.1589040157480315
20
1.2718079133858267
11
0.1589849606299213
21
1.2717414173228345
0
LINE
8
BLACK
6
CONTINUOUS
10
0.1589849606299213
20
1.2717414173228345
11
0.159073937007874
21
1.2716854724409448
0
LINE
8
BLACK
6
CONTINUOUS
10
0.159073937007874
20
1.2716854724409448
11
0.1591250787401575
21
1.2716264566929134
0
LINE
8
BLACK
6
CONTINUOUS
10
0.1591250787401575
20
1.2716264566929134
11
0.1593514566929134
21
1.2714407086614172
0
LINE
8
BLACK
6
CONTINUOUS
10
0.1593514566929134
20
1.2714407086614172
11
0.161226220472441
21
1.2695659448818897
0
LINE
8
BLACK
6
CONTINUOUS
10
0.161226220472441
20
1.2695659448818897
11
0.1612275196850394
21
1.2695643307086615
0
LINE
8
BLACK
6
CONTINUOUS
10
0.1612275196850394
20
1.2695643307086615
11
0.1612283858267717
21
1.2695637795275589
0
LINE
8
BLACK
6
CONTINUOUS
10
0.1612283858267717
20
1.2695637795275589
11
0.1614166929133858
21
1.269333779527559
0
LINE
8
BLACK
6
CONTINUOUS
10
0.1614166929133858
20
1.269333779527559
11
0.1615934251968504
21
1.2691185039370079
0
LINE
8
BLACK
6
CONTINUOUS
10
0.1615934251968504
20
1.2691185039370079
11
0.161593779527559
21
1.2691175984251968
0
LINE
8
BLACK
6
CONTINUOUS
10
0.161593779527559
20
1.2691175984251968
11
0.1615951574803149
21
1.2691159448818898
0
LINE
8
BLACK
6
CONTINUOUS
10
0.1615951574803149
20
1.2691159448818898
11
0.1653446850393701
21
1.2634916141732284
0
LINE
8
BLACK
6
CONTINUOUS
10
0.1653446850393701
20
1.2634916141732284
11
0.1655141338582677
21
1.2631737007874015
0
LINE
8
BLACK
6
CONTINUOUS
10
0.1655141338582677
20
1.2631737007874015
11
0.1655576771653543
21
1.263115
0
LINE
8
BLACK
6
CONTINUOUS
10
0.1655576771653543
20
1.263115
11
0.1655824409448819
21
1.263045590551181
0
LINE
8
BLACK
6
CONTINUOUS
10
0.1655824409448819
20
1.263045590551181
11
0.1656170078740157
21
1.2629808267716536
0
LINE
8
BLACK
6
CONTINUOUS
10
0.1656170078740157
20
1.2629808267716536
11
0.1656311023622047
21
1.2629093700787402
0
LINE
8
BLACK
6
CONTINUOUS
10
0.1656311023622047
20
1.2629093700787402
11
0.1657524409448819
21
1.2625698818897637
0
LINE
8
BLACK
6
CONTINUOUS
10
0.1657524409448819
20
1.2625698818897637
11
0.1676272047244095
21
1.2550708267716535
0
LINE
8
BLACK
6
CONTINUOUS
10
0.1676272047244095
20
1.2550708267716535
11
0.167641968503937
21
1.2549709448818898
0
LINE
8
BLACK
6
CONTINUOUS
10
0.167641968503937
20
1.2549709448818898
11
0.1676586220472441
21
1.254930748031496
0
LINE
8
BLACK
6
CONTINUOUS
10
0.1676586220472441
20
1.254930748031496
11
0.1676799606299212
21
1.2547137007874016
0
LINE
8
BLACK
6
CONTINUOUS
10
0.1676799606299212
20
1.2547137007874016
11
0.1677118503937008
21
1.2544982283464567
0
LINE
8
BLACK
6
CONTINUOUS
10
0.1677118503937008
20
1.2544982283464567
11
0.1677054330708661
21
1.2544551968503936
0
LINE
8
BLACK
6
CONTINUOUS
10
0.1677054330708661
20
1.2544551968503936
11
0.1677153543307087
21
1.2543546850393701
0
LINE
8
BLACK
6
CONTINUOUS
10
0.1677153543307087
20
1.2543546850393701
11
0.1677153543307087
21
1.2393565748031496
0
LINE
8
BLACK
6
CONTINUOUS
10
0.1677153543307087
20
1.2393565748031496
11
0.1676586220472441
21
1.2387805118110236
0
LINE
8
BLACK
6
CONTINUOUS
10
0.1676586220472441
20
1.2387805118110236
11
0.167618031496063
21
1.2386825196850393
0
LINE
8
BLACK
6
CONTINUOUS
10
0.167618031496063
20
1.2386825196850393
11
0.1676105118110236
21
1.2385766535433071
0
LINE
8
BLACK
6
CONTINUOUS
10
0.1676105118110236
20
1.2385766535433071
11
0.1674036220472441
21
1.2380360629921259
0
LINE
8
BLACK
6
CONTINUOUS
10
0.1674036220472441
20
1.2380360629921259
11
0.1655288582677165
21
1.2342865354330708
0
LINE
8
BLACK
6
CONTINUOUS
10
0.1655288582677165
20
1.2342865354330708
11
0.1653727559055118
21
1.2340385039370079
0
LINE
8
BLACK
6
CONTINUOUS
10
0.1653727559055118
20
1.2340385039370079
11
0.1653429527559055
21
1.2339665748031496
0
LINE
8
BLACK
6
CONTINUOUS
10
0.1653429527559055
20
1.2339665748031496
11
0.1652764566929134
21
1.233885590551181
0
LINE
8
BLACK
6
CONTINUOUS
10
0.1652764566929134
20
1.233885590551181
11
0.1652205118110236
21
1.2337966535433071
0
LINE
8
BLACK
6
CONTINUOUS
10
0.1652205118110236
20
1.2337966535433071
11
0.1651614960629921
21
1.2337454724409449
0
LINE
8
BLACK
6
CONTINUOUS
10
0.1651614960629921
20
1.2337454724409449
11
0.1649757480314961
21
1.2335191338582676
0
LINE
8
BLACK
6
CONTINUOUS
10
0.1649757480314961
20
1.2335191338582676
11
0.1631009842519685
21
1.2316443700787401
0
LINE
8
BLACK
6
CONTINUOUS
10
0.1631009842519685
20
1.2316443700787401
11
0.1628746456692913
21
1.2314586220472441
0
LINE
8
BLACK
6
CONTINUOUS
10
0.1628746456692913
20
1.2314586220472441
11
0.1628235039370079
21
1.2313996456692913
0
LINE
8
BLACK
6
CONTINUOUS
10
0.1628235039370079
20
1.2313996456692913
11
0.1627345275590551
21
1.231343622047244
0
LINE
8
BLACK
6
CONTINUOUS
10
0.1627345275590551
20
1.231343622047244
11
0.1626535433070866
21
1.2312771653543306
0
LINE
8
BLACK
6
CONTINUOUS
10
0.1626535433070866
20
1.2312771653543306
11
0.1625815748031496
21
1.2312473622047244
0
LINE
8
BLACK
6
CONTINUOUS
10
0.1625815748031496
20
1.2312473622047244
11
0.1623336220472441
21
1.2310912598425197
0
LINE
8
BLACK
6
CONTINUOUS
10
0.1623336220472441
20
1.2310912598425197
11
0.158584094488189
21
1.2292164566929134
0
LINE
8
BLACK
6
CONTINUOUS
10
0.158584094488189
20
1.2292164566929134
11
0.1580434645669291
21
1.2290095669291339
0
LINE
8
BLACK
6
CONTINUOUS
10
0.1580434645669291
20
1.2290095669291339
11
0.1579375590551181
21
1.2290020078740158
0
LINE
8
BLACK
6
CONTINUOUS
10
0.1579375590551181
20
1.2290020078740158
11
0.1578396062992126
21
1.2289614566929135
0
LINE
8
BLACK
6
CONTINUOUS
10
0.1578396062992126
20
1.2289614566929135
11
0.1572635433070866
21
1.2289047244094489
0
LINE
8
BLACK
6
CONTINUOUS
10
0.1572635433070866
20
1.2289047244094489
11
0.1497644881889764
21
1.2289047244094489
0
LINE
8
BLACK
6
CONTINUOUS
10
0.1497644881889764
20
1.2289047244094489
11
0.1491884251968504
21
1.2289614566929135
0
LINE
8
BLACK
6
CONTINUOUS
10
0.1491884251968504
20
1.2289614566929135
11
0.1490904330708661
21
1.2290020078740158
0
LINE
8
BLACK
6
CONTINUOUS
10
0.1490904330708661
20
1.2290020078740158
11
0.1489845669291339
21
1.2290095669291339
0
LINE
8
BLACK
6
CONTINUOUS
10
0.1489845669291339
20
1.2290095669291339
11
0.1484439763779528
21
1.2292164566929134
0
LINE
8
BLACK
6
CONTINUOUS
10
0.1484439763779528
20
1.2292164566929134
11
0.1446944094488189
21
1.2310912598425197
0
LINE
8
BLACK
6
CONTINUOUS
10
0.1446944094488189
20
1.2310912598425197
11
0.1444464566929134
21
1.2312473228346457
0
LINE
8
BLACK
6
CONTINUOUS
10
0.1444464566929134
20
1.2312473228346457
11
0.1443744881889764
21
1.2312771653543306
0
LINE
8
BLACK
6
CONTINUOUS
10
0.1443744881889764
20
1.2312771653543306
11
0.1442933464566929
21
1.2313437401574803
0
LINE
8
BLACK
6
CONTINUOUS
10
0.1442933464566929
20
1.2313437401574803
11
0.1442045669291339
21
1.2313996456692913
0
LINE
8
BLACK
6
CONTINUOUS
10
0.1442045669291339
20
1.2313996456692913
11
0.1441535039370079
21
1.2314585039370078
0
LINE
8
BLACK
6
CONTINUOUS
10
0.1441535039370079
20
1.2314585039370078
11
0.1439270472440945
21
1.2316443700787401
0
LINE
8
BLACK
6
CONTINUOUS
10
0.1439270472440945
20
1.2316443700787401
11
0.1420522834645669
21
1.2335191338582676
0
LINE
8
BLACK
6
CONTINUOUS
10
0.1420522834645669
20
1.2335191338582676
11
0.1418664960629921
21
1.2337454724409449
0
LINE
8
BLACK
6
CONTINUOUS
10
0.1418664960629921
20
1.2337454724409449
11
0.1418075196850394
21
1.2337966535433071
0
LINE
8
BLACK
6
CONTINUOUS
10
0.1418075196850394
20
1.2337966535433071
11
0.1417515354330709
21
1.233885590551181
0
LINE
8
BLACK
6
CONTINUOUS
10
0.1417515354330709
20
1.233885590551181
11
0.1416850787401575
21
1.2339665748031496
0
LINE
8
BLACK
6
CONTINUOUS
10
0.1416850787401575
20
1.2339665748031496
11
0.1416552362204724
21
1.2340385039370079
0
LINE
8
BLACK
6
CONTINUOUS
10
0.1416552362204724
20
1.2340385039370079
11
0.1414991732283465
21
1.2342865354330708
0
LINE
8
BLACK
6
CONTINUOUS
10
0.1414991732283465
20
1.2342865354330708
11
0.1396244094488189
21
1.2380360629921259
0
LINE
8
BLACK
6
CONTINUOUS
10
0.1396244094488189
20
1.2380360629921259
11
0.1394175196850394
21
1.2385766929133859
0
LINE
8
BLACK
6
CONTINUOUS
10
0.1394175196850394
20
1.2385766929133859
11
0.13941
21
1.2386824803149605
0
LINE
8
BLACK
6
CONTINUOUS
10
0.13941
20
1.2386824803149605
11
0.1393694094488189
21
1.2387805118110236
0
LINE
8
BLACK
6
CONTINUOUS
10
0.1393694094488189
20
1.2387805118110236
11
0.1393126771653543
21
1.2393565748031496
0
LINE
8
BLACK
6
CONTINUOUS
10
0.1393126771653543
20
1.2393565748031496
11
0.1393126771653543
21
1.2487303937007874
0
LINE
8
BLACK
6
CONTINUOUS
10
0.1393126771653543
20
1.2487303937007874
11
0.1393694094488189
21
1.2493064566929133
0
LINE
8
BLACK
6
CONTINUOUS
10
0.1393694094488189
20
1.2493064566929133
11
0.13941
21
1.2494044488188976
0
LINE
8
BLACK
6
CONTINUOUS
10
0.13941
20
1.2494044488188976
11
0.1394175196850394
21
1.2495102755905512
0
LINE
8
BLACK
6
CONTINUOUS
10
0.1394175196850394
20
1.2495102755905512
11
0.1396244094488189
21
1.250050905511811
0
LINE
8
BLACK
6
CONTINUOUS
10
0.1396244094488189
20
1.250050905511811
11
0.1414991732283465
21
1.2538004330708661
0
LINE
8
BLACK
6
CONTINUOUS
10
0.1414991732283465
20
1.2538004330708661
11
0.1416552362204724
21
1.2540484251968504
0
LINE
8
BLACK
6
CONTINUOUS
10
0.1416552362204724
20
1.2540484251968504
11
0.1416850787401575
21
1.2541203937007874
0
LINE
8
BLACK
6
CONTINUOUS
10
0.1416850787401575
20
1.2541203937007874
11
0.1417515354330709
21
1.2542013385826771
0
LINE
8
BLACK
6
CONTINUOUS
10
0.1417515354330709
20
1.2542013385826771
11
0.1418075196850394
21
1.2542903149606299
0
LINE
8
BLACK
6
CONTINUOUS
10
0.1418075196850394
20
1.2542903149606299
11
0.1418664960629921
21
1.2543414566929134
0
LINE
8
BLACK
6
CONTINUOUS
10
0.1418664960629921
20
1.2543414566929134
11
0.1420522834645669
21
1.2545678346456692
0
LINE
8
BLACK
6
CONTINUOUS
10
0.1420522834645669
20
1.2545678346456692
11
0.1439270472440945
21
1.2564425984251968
0
LINE
8
BLACK
6
CONTINUOUS
10
0.1439270472440945
20
1.2564425984251968
11
0.1441533858267716
21
1.256628346456693
0
LINE
8
BLACK
6
CONTINUOUS
10
0.1441533858267716
20
1.256628346456693
11
0.1442045669291339
21
1.2566873622047243
0
LINE
8
BLACK
6
CONTINUOUS
10
0.1442045669291339
20
1.2566873622047243
11
0.1442935039370079
21
1.2567433070866141
0
LINE
8
BLACK
6
CONTINUOUS
10
0.1442935039370079
20
1.2567433070866141
11
0.1443744881889764
21
1.2568098031496062
0
LINE
8
BLACK
6
CONTINUOUS
10
0.1443744881889764
20
1.2568098031496062
11
0.1444464173228346
21
1.2568396062992127
0
LINE
8
BLACK
6
CONTINUOUS
10
0.1444464173228346
20
1.2568396062992127
11
0.1446944488188976
21
1.2569957086614172
0
LINE
8
BLACK
6
CONTINUOUS
10
0.1446944488188976
20
1.2569957086614172
11
0.1484439763779528
21
1.2588704724409447
0
LINE
8
BLACK
6
CONTINUOUS
10
0.1484439763779528
20
1.2588704724409447
11
0.1489845669291339
21
1.2590773622047244
0
LINE
8
BLACK
6
CONTINUOUS
10
0.1489845669291339
20
1.2590773622047244
11
0.1490904330708661
21
1.2590848818897638
0
LINE
8
BLACK
6
CONTINUOUS
10
0.1490904330708661
20
1.2590848818897638
11
0.1491884251968504
21
1.2591254724409449
0
LINE
8
BLACK
6
CONTINUOUS
10
0.1491884251968504
20
1.2591254724409449
11
0.1497644881889764
21
1.2591822047244094
0
LINE
8
BLACK
6
CONTINUOUS
10
0.1497644881889764
20
1.2591822047244094
11
0.1572635433070866
21
1.2591822047244094
0
LINE
8
BLACK
6
CONTINUOUS
10
0.1572635433070866
20
1.2591822047244094
11
0.1578396062992126
21
1.2591254724409449
0
LINE
8
BLACK
6
CONTINUOUS
10
0.1578396062992126
20
1.2591254724409449
11
0.1579375984251968
21
1.259084842519685
0
LINE
8
BLACK
6
CONTINUOUS
10
0.1579375984251968
20
1.259084842519685
11
0.1580434251968504
21
1.2590773622047244
0
LINE
8
BLACK
6
CONTINUOUS
10
0.1580434251968504
20
1.2590773622047244
11
0.1585840551181102
21
1.2588704724409447
0
LINE
8
BLACK
6
CONTINUOUS
10
0.1585840551181102
20
1.2588704724409447
11
0.1608765748031496
21
1.2577242125984252
0
LINE
8
BLACK
6
CONTINUOUS
10
0.1608765748031496
20
1.2577242125984252
11
0.1601472834645669
21
1.2606413779527559
0
LINE
8
BLACK
6
CONTINUOUS
10
0.1601472834645669
20
1.2606413779527559
11
0.1568435826771654
21
1.2655969291338582
0
LINE
8
BLACK
6
CONTINUOUS
10
0.1568435826771654
20
1.2655969291338582
11
0.1555144488188976
21
1.266926062992126
0
LINE
8
BLACK
6
CONTINUOUS
10
0.1555144488188976
20
1.266926062992126
11
0.152816968503937
21
1.2682748031496063
0
LINE
8
BLACK
6
CONTINUOUS
10
0.152816968503937
20
1.2682748031496063
11
0.1460149606299213
21
1.2682748031496063
0
LINE
8
BLACK
6
CONTINUOUS
10
0.1460149606299213
20
1.2682748031496063
11
0.1454388976377953
21
1.2683315354330709
0
LINE
8
BLACK
6
CONTINUOUS
10
0.1454388976377953
20
1.2683315354330709
11
0.1443744881889764
21
1.268772440944882
0
LINE
8
BLACK
6
CONTINUOUS
10
0.1443744881889764
20
1.268772440944882
11
0.143559842519685
21
1.2695870866141732
0
LINE
8
BLACK
6
CONTINUOUS
10
0.143559842519685
20
1.2695870866141732
11
0.143118937007874
21
1.270651496062992
0
LINE
8
BLACK
6
CONTINUOUS
10
0.143118937007874
20
1.270651496062992
11
0.143118937007874
21
1.2718036220472442
0
LINE
8
BLACK
6
CONTINUOUS
10
0.143118937007874
20
1.2718036220472442
11
0.143559842519685
21
1.272868031496063
0
LINE
8
BLACK
6
CONTINUOUS
10
0.143559842519685
20
1.272868031496063
11
0.1443744881889764
21
1.2736826771653542
0
LINE
8
BLACK
6
CONTINUOUS
10
0.1443744881889764
20
1.2736826771653542
11
0.1454388976377953
21
1.2741235826771653
0
LINE
8
BLACK
6
CONTINUOUS
10
0.1454388976377953
20
1.2741235826771653
11
0.1460149606299213
21
1.2741803149606299
0
LINE
8
BLACK
6
CONTINUOUS
10
0.1460149606299213
20
1.2741803149606299
11
0.1535140157480315
21
1.2741803149606299
0
LINE
8
BLACK
6
CONTINUOUS
10
0.1535140157480315
20
1.2741803149606299
11
0.1540900787401575
21
1.2741235826771653
0
LINE
8
BLACK
6
CONTINUOUS
10
0.1477640551181102
20
1.2519279527559055
11
0.1465669291338583
21
1.2507308267716535
0
LINE
8
BLACK
6
CONTINUOUS
10
0.1465669291338583
20
1.2507308267716535
11
0.1452181889763779
21
1.2480333464566928
0
LINE
8
BLACK
6
CONTINUOUS
10
0.1452181889763779
20
1.2480333464566928
11
0.1452181889763779
21
1.240053622047244
0
LINE
8
BLACK
6
CONTINUOUS
10
0.1452181889763779
20
1.240053622047244
11
0.1465669291338583
21
1.2373561417322834
0
LINE
8
BLACK
6
CONTINUOUS
10
0.1465669291338583
20
1.2373561417322834
11
0.1477640157480315
21
1.2361590157480316
0
LINE
8
BLACK
6
CONTINUOUS
10
0.1477640157480315
20
1.2361590157480316
11
0.1504615748031496
21
1.2348102362204725
0
LINE
8
BLACK
6
CONTINUOUS
10
0.1504615748031496
20
1.2348102362204725
11
0.1565664566929134
21
1.2348102362204725
0
LINE
8
BLACK
6
CONTINUOUS
10
0.1565664566929134
20
1.2348102362204725
11
0.159263937007874
21
1.2361589763779528
0
LINE
8
BLACK
6
CONTINUOUS
10
0.159263937007874
20
1.2361589763779528
11
0.1604611023622047
21
1.2373561417322834
0
LINE
8
BLACK
6
CONTINUOUS
10
0.1604611023622047
20
1.2373561417322834
11
0.161809842519685
21
1.240053622047244
0
LINE
8
BLACK
6
CONTINUOUS
10
0.161809842519685
20
1.240053622047244
11
0.161809842519685
21
1.2480333464566928
0
LINE
8
BLACK
6
CONTINUOUS
10
0.161809842519685
20
1.2480333464566928
11
0.1604611023622047
21
1.2507308267716535
0
LINE
8
BLACK
6
CONTINUOUS
10
0.1604611023622047
20
1.2507308267716535
11
0.1592639763779528
21
1.2519279527559055
0
LINE
8
BLACK
6
CONTINUOUS
10
0.1592639763779528
20
1.2519279527559055
11
0.1565664960629921
21
1.2532766929133858
0
LINE
8
BLACK
6
CONTINUOUS
10
0.1565664960629921
20
1.2532766929133858
11
0.1504615354330709
21
1.2532766929133858
0
LINE
8
BLACK
6
CONTINUOUS
10
0.1504615354330709
20
1.2532766929133858
11
0.1477640551181102
21
1.2519279527559055
0
LINE
8
BLACK
6
CONTINUOUS
10
0.1912961023622047
20
1.2741235826771653
11
0.1915853937007874
21
1.2741235826771653
0
LINE
8
BLACK
6
CONTINUOUS
10
0.1915853937007874
20
1.2741235826771653
11
0.1918554724409449
21
1.2740116929133858
0
LINE
8
BLACK
6
CONTINUOUS
10
0.1918554724409449
20
1.2740116929133858
11
0.192142125984252
21
1.2739543700787401
0
LINE
8
BLACK
6
CONTINUOUS
10
0.192142125984252
20
1.2739543700787401
11
0.1923824803149606
21
1.2737933858267716
0
LINE
8
BLACK
6
CONTINUOUS
10
0.1923824803149606
20
1.2737933858267716
11
0.1926498031496063
21
1.2736826771653542
0
LINE
8
BLACK
6
CONTINUOUS
10
0.1926498031496063
20
1.2736826771653542
11
0.1928564960629921
21
1.2734759448818898
0
LINE
8
BLACK
6
CONTINUOUS
10
0.1928564960629921
20
1.2734759448818898
11
0.1930994094488189
21
1.2733133070866141
0
LINE
8
BLACK
6
CONTINUOUS
10
0.1930994094488189
20
1.2733133070866141
11
0.1934624015748032
21
1.2728700393700787
0
LINE
8
BLACK
6
CONTINUOUS
10
0.1934624015748032
20
1.2728700393700787
11
0.1934644488188976
21
1.272868031496063
0
LINE
8
BLACK
6
CONTINUOUS
10
0.1934644488188976
20
1.272868031496063
11
0.1934648031496063
21
1.2728671259842519
0
LINE
8
BLACK
6
CONTINUOUS
10
0.1934648031496063
20
1.2728671259842519
11
0.1934661811023622
21
1.2728654724409449
0
LINE
8
BLACK
6
CONTINUOUS
10
0.1934661811023622
20
1.2728654724409449
11
0.1970535039370079
21
1.2674844094488189
0
LINE
8
BLACK
6
CONTINUOUS
10
0.1970535039370079
20
1.2674844094488189
11
0.2002574803149606
21
1.2642804724409449
0
LINE
8
BLACK
6
CONTINUOUS
10
0.2002574803149606
20
1.2642804724409449
11
0.2035784251968504
21
1.2626200000000001
0
LINE
8
BLACK
6
CONTINUOUS
10
0.2035784251968504
20
1.2626200000000001
11
0.2040683070866142
21
1.262311653543307
0
LINE
8
BLACK
6
CONTINUOUS
10
0.2040683070866142
20
1.262311653543307
11
0.2048231496062992
21
1.2614412598425198
0
LINE
8
BLACK
6
CONTINUOUS
10
0.2048231496062992
20
1.2614412598425198
11
0.2051874803149606
21
1.2603483070866142
0
LINE
8
BLACK
6
CONTINUOUS
10
0.2051874803149606
20
1.2603483070866142
11
0.2051058267716535
21
1.259199094488189
0
LINE
8
BLACK
6
CONTINUOUS
10
0.2051058267716535
20
1.259199094488189
11
0.2045905511811024
21
1.2581685826771654
0
LINE
8
BLACK
6
CONTINUOUS
10
0.2045905511811024
20
1.2581685826771654
11
0.2037201968503937
21
1.2574137401574803
0
LINE
8
BLACK
6
CONTINUOUS
10
0.2037201968503937
20
1.2574137401574803
11
0.2026272047244095
21
1.2570494094488189
0
LINE
8
BLACK
6
CONTINUOUS
10
0.2026272047244095
20
1.2570494094488189
11
0.2014779921259842
21
1.257131062992126
0
LINE
8
BLACK
6
CONTINUOUS
10
0.2014779921259842
20
1.257131062992126
11
0.2009374015748031
21
1.2573379527559054
0
LINE
8
BLACK
6
CONTINUOUS
10
0.2009374015748031
20
1.2573379527559054
11
0.197187874015748
21
1.259212716535433
0
LINE
8
BLACK
6
CONTINUOUS
10
0.197187874015748
20
1.259212716535433
11
0.1969400393700787
21
1.2593687007874015
0
LINE
8
BLACK
6
CONTINUOUS
10
0.1969400393700787
20
1.2593687007874015
11
0.1968679133858268
21
1.2593985826771654
0
LINE
8
BLACK
6
CONTINUOUS
10
0.1968679133858268
20
1.2593985826771654
11
0.1967867322834645
21
1.2594651574803148
0
LINE
8
BLACK
6
CONTINUOUS
10
0.1967867322834645
20
1.2594651574803148
11
0.1966979921259842
21
1.2595210629921259
0
LINE
8
BLACK
6
CONTINUOUS
10
0.1966979921259842
20
1.2595210629921259
11
0.1966468503937008
21
1.2595799606299212
0
LINE
8
BLACK
6
CONTINUOUS
10
0.1966468503937008
20
1.2595799606299212
11
0.1964204724409449
21
1.2597658267716536
0
LINE
8
BLACK
6
CONTINUOUS
10
0.1964204724409449
20
1.2597658267716536
11
0.1939620866141732
21
1.2622242125984251
0
LINE
8
BLACK
6
CONTINUOUS
10
0.1939620866141732
20
1.2622242125984251
11
0.1939620866141732
21
1.2348102362204725
0
LINE
8
BLACK
6
CONTINUOUS
10
0.1939620866141732
20
1.2348102362204725
11
0.2022579133858268
21
1.2348102362204725
0
LINE
8
BLACK
6
CONTINUOUS
10
0.2022579133858268
20
1.2348102362204725
11
0.2028339763779528
21
1.2347535039370079
0
LINE
8
BLACK
6
CONTINUOUS
10
0.2028339763779528
20
1.2347535039370079
11
0.2038983858267716
21
1.2343125984251968
0
LINE
8
BLACK
6
CONTINUOUS
10
0.2038983858267716
20
1.2343125984251968
11
0.204713031496063
21
1.2334979527559056
0
LINE
8
BLACK
6
CONTINUOUS
10
0.204713031496063
20
1.2334979527559056
11
0.205153937007874
21
1.2324335433070865
0
LINE
8
BLACK
6
CONTINUOUS
10
0.205153937007874
20
1.2324335433070865
11
0.205153937007874
21
1.2312814173228346
0
LINE
8
BLACK
6
CONTINUOUS
10
0.205153937007874
20
1.2312814173228346
11
0.204713031496063
21
1.2302170078740158
0
LINE
8
BLACK
6
CONTINUOUS
10
0.204713031496063
20
1.2302170078740158
11
0.2038983858267716
21
1.2294023622047243
0
LINE
8
BLACK
6
CONTINUOUS
10
0.2038983858267716
20
1.2294023622047243
11
0.2028339763779528
21
1.2289614566929135
0
LINE
8
BLACK
6
CONTINUOUS
10
0.2028339763779528
20
1.2289614566929135
11
0.2022579133858268
21
1.2289047244094489
0
LINE
8
BLACK
6
CONTINUOUS
10
0.2022579133858268
20
1.2289047244094489
11
0.1797607480314961
21
1.2289047244094489
0
LINE
8
BLACK
6
CONTINUOUS
10
0.1797607480314961
20
1.2289047244094489
11
0.1791846850393701
21
1.2289614566929135
0
LINE
8
BLACK
6
CONTINUOUS
10
0.1791846850393701
20
1.2289614566929135
11
0.1781202755905512
21
1.2294023622047243
0
LINE
8
BLACK
6
CONTINUOUS
10
0.1781202755905512
20
1.2294023622047243
11
0.1773056299212598
21
1.2302170078740158
0
LINE
8
BLACK
6
CONTINUOUS
10
0.1773056299212598
20
1.2302170078740158
11
0.1768647244094488
21
1.2312814173228346
0
LINE
8
BLACK
6
CONTINUOUS
10
0.1768647244094488
20
1.2312814173228346
11
0.1768647244094488
21
1.2324335433070865
0
LINE
8
BLACK
6
CONTINUOUS
10
0.1768647244094488
20
1.2324335433070865
11
0.1773056299212598
21
1.2334979527559056
0
LINE
8
BLACK
6
CONTINUOUS
10
0.1773056299212598
20
1.2334979527559056
11
0.1781202755905512
21
1.2343125984251968
0
LINE
8
BLACK
6
CONTINUOUS
10
0.1781202755905512
20
1.2343125984251968
11
0.1791846850393701
21
1.2347535039370079
0
LINE
8
BLACK
6
CONTINUOUS
10
0.1791846850393701
20
1.2347535039370079
11
0.1797607480314961
21
1.2348102362204725
0
LINE
8
BLACK
6
CONTINUOUS
10
0.1797607480314961
20
1.2348102362204725
11
0.1880565748031496
21
1.2348102362204725
0
LINE
8
BLACK
6
CONTINUOUS
10
0.1880565748031496
20
1.2348102362204725
11
0.1880565748031496
21
1.2712275590551181
0
LINE
8
BLACK
6
CONTINUOUS
10
0.1880565748031496
20
1.2712275590551181
11
0.1880567716535433
21
1.2712296062992126
0
LINE
8
BLACK
6
CONTINUOUS
10
0.1880567716535433
20
1.2712296062992126
11
0.1880565748031496
21
1.2712306692913387
0
LINE
8
BLACK
6
CONTINUOUS
10
0.1880565748031496
20
1.2712306692913387
11
0.1880571653543307
21
1.2712336614173227
0
LINE
8
BLACK
6
CONTINUOUS
10
0.1880571653543307
20
1.2712336614173227
11
0.1881133070866142
21
1.2718036220472442
0
LINE
8
BLACK
6
CONTINUOUS
10
0.1881133070866142
20
1.2718036220472442
11
0.188225157480315
21
1.2720737007874015
0
LINE
8
BLACK
6
CONTINUOUS
10
0.188225157480315
20
1.2720737007874015
11
0.1882825196850394
21
1.2723603543307087
0
LINE
8
BLACK
6
CONTINUOUS
10
0.1882825196850394
20
1.2723603543307087
11
0.1884434645669291
21
1.2726007086614173
0
LINE
8
BLACK
6
CONTINUOUS
10
0.1884434645669291
20
1.2726007086614173
11
0.1885542125984252
21
1.272868031496063
0
LINE
8
BLACK
6
CONTINUOUS
10
0.1885542125984252
20
1.272868031496063
11
0.188760905511811
21
1.2730747244094487
0
LINE
8
BLACK
6
CONTINUOUS
10
0.188760905511811
20
1.2730747244094487
11
0.1889235826771654
21
1.2733176377952755
0
LINE
8
BLACK
6
CONTINUOUS
10
0.1889235826771654
20
1.2733176377952755
11
0.1891642913385827
21
1.2734781102362205
0
LINE
8
BLACK
6
CONTINUOUS
10
0.1891642913385827
20
1.2734781102362205
11
0.1893688582677165
21
1.2736826771653542
0
LINE
8
BLACK
6
CONTINUOUS
10
0.1893688582677165
20
1.2736826771653542
11
0.189638937007874
21
1.273794527559055
0
LINE
8
BLACK
6
CONTINUOUS
10
0.189638937007874
20
1.273794527559055
11
0.1898822047244094
21
1.2739567322834646
0
LINE
8
BLACK
6
CONTINUOUS
10
0.1898822047244094
20
1.2739567322834646
11
0.1901659842519685
21
1.2740128346456692
0
LINE
8
BLACK
6
CONTINUOUS
10
0.1901659842519685
20
1.2740128346456692
11
0.1904332677165354
21
1.2741235826771653
0
LINE
8
BLACK
6
CONTINUOUS
10
0.1904332677165354
20
1.2741235826771653
11
0.1907256692913386
21
1.2741235826771653
0
LINE
8
BLACK
6
CONTINUOUS
10
0.1907256692913386
20
1.2741235826771653
11
0.1910124409448819
21
1.2741803149606299
0
LINE
8
BLACK
6
CONTINUOUS
10
0.1910124409448819
20
1.2741803149606299
11
0.1912961023622047
21
1.2741235826771653
0
LINE
8
BLACK
6
CONTINUOUS
10
0.2290807086614173
20
1.2741235826771653
11
0.2291787007874016
21
1.2740829527559054
0
LINE
8
BLACK
6
CONTINUOUS
10
0.2291787007874016
20
1.2740829527559054
11
0.2292845275590551
21
1.2740754724409449
0
LINE
8
BLACK
6
CONTINUOUS
10
0.2292845275590551
20
1.2740754724409449
11
0.229825157480315
21
1.2738685826771654
0
LINE
8
BLACK
6
CONTINUOUS
10
0.229825157480315
20
1.2738685826771654
11
0.2335746850393701
21
1.2719938188976379
0
LINE
8
BLACK
6
CONTINUOUS
10
0.2335746850393701
20
1.2719938188976379
11
0.2338226771653543
21
1.2718377165354331
0
LINE
8
BLACK
6
CONTINUOUS
10
0.2338226771653543
20
1.2718377165354331
11
0.2338946456692913
21
1.2718079133858267
0
LINE
8
BLACK
6
CONTINUOUS
10
0.2338946456692913
20
1.2718079133858267
11
0.2339755905511811
21
1.2717414173228345
0
LINE
8
BLACK
6
CONTINUOUS
10
0.2339755905511811
20
1.2717414173228345
11
0.2340645669291339
21
1.2716854724409448
0
LINE
8
BLACK
6
CONTINUOUS
10
0.2340645669291339
20
1.2716854724409448
11
0.2341157086614173
21
1.2716264566929134
0
LINE
8
BLACK
6
CONTINUOUS
10
0.2341157086614173
20
1.2716264566929134
11
0.2343420866141732
21
1.2714407086614172
0
LINE
8
BLACK
6
CONTINUOUS
10
0.2343420866141732
20
1.2714407086614172
11
0.2362168503937008
21
1.2695659448818897
0
LINE
8
BLACK
6
CONTINUOUS
10
0.2362168503937008
20
1.2695659448818897
11
0.2362181496062992
21
1.2695643307086615
0
LINE
8
BLACK
6
CONTINUOUS
10
0.2362181496062992
20
1.2695643307086615
11
0.2362190157480315
21
1.2695637795275589
0
LINE
8
BLACK
6
CONTINUOUS
10
0.2362190157480315
20
1.2695637795275589
11
0.2364073228346457
21
1.269333779527559
0
LINE
8
BLACK
6
CONTINUOUS
10
0.2364073228346457
20
1.269333779527559
11
0.2365840551181102
21
1.2691185039370079
0
LINE
8
BLACK
6
CONTINUOUS
10
0.2365840551181102
20
1.2691185039370079
11
0.2365844094488189
21
1.2691175984251968
0
LINE
8
BLACK
6
CONTINUOUS
10
0.2365844094488189
20
1.2691175984251968
11
0.2365857874015748
21
1.2691159448818898
0
LINE
8
BLACK
6
CONTINUOUS
10
0.2365857874015748
20
1.2691159448818898
11
0.2403353149606299
21
1.2634916141732284
0
LINE
8
BLACK
6
CONTINUOUS
10
0.2403353149606299
20
1.2634916141732284
11
0.2405047637795276
21
1.2631737007874015
0
LINE
8
BLACK
6
CONTINUOUS
10
0.2405047637795276
20
1.2631737007874015
11
0.2405483070866142
21
1.263115
0
LINE
8
BLACK
6
CONTINUOUS
10
0.2405483070866142
20
1.263115
11
0.2405730708661417
21
1.263045590551181
0
LINE
8
BLACK
6
CONTINUOUS
10
0.2405730708661417
20
1.263045590551181
11
0.2406076377952756
21
1.2629808267716536
0
LINE
8
BLACK
6
CONTINUOUS
10
0.2406076377952756
20
1.2629808267716536
11
0.2406217322834646
21
1.2629093700787402
0
LINE
8
BLACK
6
CONTINUOUS
10
0.2406217322834646
20
1.2629093700787402
11
0.2407430708661417
21
1.2625698818897637
0
LINE
8
BLACK
6
CONTINUOUS
10
0.2407430708661417
20
1.2625698818897637
11
0.2426178346456693
21
1.2550708267716535
0
LINE
8
BLACK
6
CONTINUOUS
10
0.2426178346456693
20
1.2550708267716535
11
0.2426325984251969
21
1.2549709448818898
0
LINE
8
BLACK
6
CONTINUOUS
10
0.2426325984251969
20
1.2549709448818898
11
0.2426492519685039
21
1.254930748031496
0
LINE
8
BLACK
6
CONTINUOUS
10
0.2426492519685039
20
1.254930748031496
11
0.2426705905511811
21
1.2547137007874016
0
LINE
8
BLACK
6
CONTINUOUS
10
0.2426705905511811
20
1.2547137007874016
11
0.2427024803149606
21
1.2544982283464567
0
LINE
8
BLACK
6
CONTINUOUS
10
0.2427024803149606
20
1.2544982283464567
11
0.242696062992126
21
1.2544551968503936
0
LINE
8
BLACK
6
CONTINUOUS
10
0.242696062992126
20
1.2544551968503936
11
0.2427059842519685
21
1.2543546850393701
0
LINE
8
BLACK
6
CONTINUOUS
10
0.2427059842519685
20
1.2543546850393701
11
0.2427059842519685
21
1.2393565748031496
0
LINE
8
BLACK
6
CONTINUOUS
10
0.2427059842519685
20
1.2393565748031496
11
0.2426492519685039
21
1.2387805118110236
0
LINE
8
BLACK
6
CONTINUOUS
10
0.2426492519685039
20
1.2387805118110236
11
0.2426086614173228
21
1.2386825196850393
0
LINE
8
BLACK
6
CONTINUOUS
10
0.2426086614173228
20
1.2386825196850393
11
0.2426011417322834
21
1.2385766535433071
0
LINE
8
BLACK
6
CONTINUOUS
10
0.2426011417322834
20
1.2385766535433071
11
0.2423942519685039
21
1.2380360629921259
0
LINE
8
BLACK
6
CONTINUOUS
10
0.2423942519685039
20
1.2380360629921259
11
0.2405194881889764
21
1.2342865354330708
0
LINE
8
BLACK
6
CONTINUOUS
10
0.2405194881889764
20
1.2342865354330708
11
0.2403633858267716
21
1.2340385039370079
0
LINE
8
BLACK
6
CONTINUOUS
10
0.2403633858267716
20
1.2340385039370079
11
0.2403335826771653
21
1.2339665748031496
0
LINE
8
BLACK
6
CONTINUOUS
10
0.2403335826771653
20
1.2339665748031496
11
0.2402670866141732
21
1.233885590551181
0
LINE
8
BLACK
6
CONTINUOUS
10
0.2402670866141732
20
1.233885590551181
11
0.2402111417322834
21
1.2337966535433071
0
LINE
8
BLACK
6
CONTINUOUS
10
0.2402111417322834
20
1.2337966535433071
11
0.240152125984252
21
1.2337454724409449
0
LINE
8
BLACK
6
CONTINUOUS
10
0.240152125984252
20
1.2337454724409449
11
0.2399663779527559
21
1.2335191338582676
0
LINE
8
BLACK
6
CONTINUOUS
10
0.2399663779527559
20
1.2335191338582676
11
0.2380916141732283
21
1.2316443700787401
0
LINE
8
BLACK
6
CONTINUOUS
10
0.2380916141732283
20
1.2316443700787401
11
0.2378652755905512
21
1.2314586220472441
0
LINE
8
BLACK
6
CONTINUOUS
10
0.2378652755905512
20
1.2314586220472441
11
0.2378141338582677
21
1.2313996456692913
0
LINE
8
BLACK
6
CONTINUOUS
10
0.2378141338582677
20
1.2313996456692913
11
0.2377251574803149
21
1.231343622047244
0
LINE
8
BLACK
6
CONTINUOUS
10
0.2377251574803149
20
1.231343622047244
11
0.2376441732283464
21
1.2312771653543306
0
LINE
8
BLACK
6
CONTINUOUS
10
0.2376441732283464
20
1.2312771653543306
11
0.2375722047244094
21
1.2312473622047244
0
LINE
8
BLACK
6
CONTINUOUS
10
0.2375722047244094
20
1.2312473622047244
11
0.2373242519685039
21
1.2310912598425197
0
LINE
8
BLACK
6
CONTINUOUS
10
0.2373242519685039
20
1.2310912598425197
11
0.2335747244094488
21
1.2292164566929134
0
LINE
8
BLACK
6
CONTINUOUS
10
0.2335747244094488
20
1.2292164566929134
11
0.233034094488189
21
1.2290095669291339
0
LINE
8
BLACK
6
CONTINUOUS
10
0.233034094488189
20
1.2290095669291339
11
0.232928188976378
21
1.2290020078740158
0
LINE
8
BLACK
6
CONTINUOUS
10
0.232928188976378
20
1.2290020078740158
11
0.2328302362204724
21
1.2289614566929135
0
LINE
8
BLACK
6
CONTINUOUS
10
0.2328302362204724
20
1.2289614566929135
11
0.2322541732283465
21
1.2289047244094489
0
LINE
8
BLACK
6
CONTINUOUS
10
0.2322541732283465
20
1.2289047244094489
11
0.2247551181102362
21
1.2289047244094489
0
LINE
8
BLACK
6
CONTINUOUS
10
0.2247551181102362
20
1.2289047244094489
11
0.2241790551181102
21
1.2289614566929135
0
LINE
8
BLACK
6
CONTINUOUS
10
0.2241790551181102
20
1.2289614566929135
11
0.224081062992126
21
1.2290020078740158
0
LINE
8
BLACK
6
CONTINUOUS
10
0.224081062992126
20
1.2290020078740158
11
0.2239751968503937
21
1.2290095669291339
0
LINE
8
BLACK
6
CONTINUOUS
10
0.2239751968503937
20
1.2290095669291339
11
0.2234346062992126
21
1.2292164566929134
0
LINE
8
BLACK
6
CONTINUOUS
10
0.2234346062992126
20
1.2292164566929134
11
0.2196850393700787
21
1.2310912598425197
0
LINE
8
BLACK
6
CONTINUOUS
10
0.2196850393700787
20
1.2310912598425197
11
0.2194370866141732
21
1.2312473228346457
0
LINE
8
BLACK
6
CONTINUOUS
10
0.2194370866141732
20
1.2312473228346457
11
0.2193651181102362
21
1.2312771653543306
0
LINE
8
BLACK
6
CONTINUOUS
10
0.2193651181102362
20
1.2312771653543306
11
0.2192839763779527
21
1.2313437401574803
0
LINE
8
BLACK
6
CONTINUOUS
10
0.2192839763779527
20
1.2313437401574803
11
0.2191951968503937
21
1.2313996456692913
0
LINE
8
BLACK
6
CONTINUOUS
10
0.2191951968503937
20
1.2313996456692913
11
0.2191441338582677
21
1.2314585039370078
0
LINE
8
BLACK
6
CONTINUOUS
10
0.2191441338582677
20
1.2314585039370078
11
0.2189176771653543
21
1.2316443700787401
0
LINE
8
BLACK
6
CONTINUOUS
10
0.2189176771653543
20
1.2316443700787401
11
0.2170429133858268
21
1.2335191338582676
0
LINE
8
BLACK
6
CONTINUOUS
10
0.2170429133858268
20
1.2335191338582676
11
0.216857125984252
21
1.2337454724409449
0
LINE
8
BLACK
6
CONTINUOUS
10
0.216857125984252
20
1.2337454724409449
11
0.2167981496062992
21
1.2337966535433071
0
LINE
8
BLACK
6
CONTINUOUS
10
0.2167981496062992
20
1.2337966535433071
11
0.2167421653543307
21
1.233885590551181
0
LINE
8
BLACK
6
CONTINUOUS
10
0.2167421653543307
20
1.233885590551181
11
0.2166757086614173
21
1.2339665748031496
0
LINE
8
BLACK
6
CONTINUOUS
10
0.2166757086614173
20
1.2339665748031496
11
0.2166458661417323
21
1.2340385039370079
0
LINE
8
BLACK
6
CONTINUOUS
10
0.2166458661417323
20
1.2340385039370079
11
0.2164898031496063
21
1.2342865354330708
0
LINE
8
BLACK
6
CONTINUOUS
10
0.2164898031496063
20
1.2342865354330708
11
0.2146150393700787
21
1.2380360629921259
0
LINE
8
BLACK
6
CONTINUOUS
10
0.2146150393700787
20
1.2380360629921259
11
0.2144081496062992
21
1.2385766929133859
0
LINE
8
BLACK
6
CONTINUOUS
10
0.2144081496062992
20
1.2385766929133859
11
0.2144006299212598
21
1.2386824803149605
0
LINE
8
BLACK
6
CONTINUOUS
10
0.2144006299212598
20
1.2386824803149605
11
0.2143600393700787
21
1.2387805118110236
0
LINE
8
BLACK
6
CONTINUOUS
10
0.2143600393700787
20
1.2387805118110236
11
0.2143033070866142
21
1.2393565748031496
0
LINE
8
BLACK
6
CONTINUOUS
10
0.2143033070866142
20
1.2393565748031496
11
0.2143033070866142
21
1.2487303937007874
0
LINE
8
BLACK
6
CONTINUOUS
10
0.2143033070866142
20
1.2487303937007874
11
0.2143600393700787
21
1.2493064566929133
0
LINE
8
BLACK
6
CONTINUOUS
10
0.2143600393700787
20
1.2493064566929133
11
0.2144006299212598
21
1.2494044488188976
0
LINE
8
BLACK
6
CONTINUOUS
10
0.2144006299212598
20
1.2494044488188976
11
0.2144081496062992
21
1.2495102755905512
0
LINE
8
BLACK
6
CONTINUOUS
10
0.2144081496062992
20
1.2495102755905512
11
0.2146150393700787
21
1.250050905511811
0
LINE
8
BLACK
6
CONTINUOUS
10
0.2146150393700787
20
1.250050905511811
11
0.2164898031496063
21
1.2538004330708661
0
LINE
8
BLACK
6
CONTINUOUS
10
0.2164898031496063
20
1.2538004330708661
11
0.2166458661417323
21
1.2540484251968504
0
LINE
8
BLACK
6
CONTINUOUS
10
0.2166458661417323
20
1.2540484251968504
11
0.2166757086614173
21
1.2541203937007874
0
LINE
8
BLACK
6
CONTINUOUS
10
0.2166757086614173
20
1.2541203937007874
11
0.2167421653543307
21
1.2542013385826771
0
LINE
8
BLACK
6
CONTINUOUS
10
0.2167421653543307
20
1.2542013385826771
11
0.2167981496062992
21
1.2542903149606299
0
LINE
8
BLACK
6
CONTINUOUS
10
0.2167981496062992
20
1.2542903149606299
11
0.216857125984252
21
1.2543414566929134
0
LINE
8
BLACK
6
CONTINUOUS
10
0.216857125984252
20
1.2543414566929134
11
0.2170429133858268
21
1.2545678346456692
0
LINE
8
BLACK
6
CONTINUOUS
10
0.2170429133858268
20
1.2545678346456692
11
0.2189176771653543
21
1.2564425984251968
0
LINE
8
BLACK
6
CONTINUOUS
10
0.2189176771653543
20
1.2564425984251968
11
0.2191440157480315
21
1.256628346456693
0
LINE
8
BLACK
6
CONTINUOUS
10
0.2191440157480315
20
1.256628346456693
11
0.2191951968503937
21
1.2566873622047243
0
LINE
8
BLACK
6
CONTINUOUS
10
0.2191951968503937
20
1.2566873622047243
11
0.2192841338582677
21
1.2567433070866141
0
LINE
8
BLACK
6
CONTINUOUS
10
0.2192841338582677
20
1.2567433070866141
11
0.2193651181102362
21
1.2568098031496062
0
LINE
8
BLACK
6
CONTINUOUS
10
0.2193651181102362
20
1.2568098031496062
11
0.2194370472440945
21
1.2568396062992127
0
LINE
8
BLACK
6
CONTINUOUS
10
0.2194370472440945
20
1.2568396062992127
11
0.2196850787401575
21
1.2569957086614172
0
LINE
8
BLACK
6
CONTINUOUS
10
0.2196850787401575
20
1.2569957086614172
11
0.2234346062992126
21
1.2588704724409447
0
LINE
8
BLACK
6
CONTINUOUS
10
0.2234346062992126
20
1.2588704724409447
11
0.2239751968503937
21
1.2590773622047244
0
LINE
8
BLACK
6
CONTINUOUS
10
0.2239751968503937
20
1.2590773622047244
11
0.224081062992126
21
1.2590848818897638
0
LINE
8
BLACK
6
CONTINUOUS
10
0.224081062992126
20
1.2590848818897638
11
0.2241790551181102
21
1.2591254724409449
0
LINE
8
BLACK
6
CONTINUOUS
10
0.2241790551181102
20
1.2591254724409449
11
0.2247551181102362
21
1.2591822047244094
0
LINE
8
BLACK
6
CONTINUOUS
10
0.2247551181102362
20
1.2591822047244094
11
0.2322541732283465
21
1.2591822047244094
0
LINE
8
BLACK
6
CONTINUOUS
10
0.2322541732283465
20
1.2591822047244094
11
0.2328302362204724
21
1.2591254724409449
0
LINE
8
BLACK
6
CONTINUOUS
10
0.2328302362204724
20
1.2591254724409449
11
0.2329282283464567
21
1.259084842519685
0
LINE
8
BLACK
6
CONTINUOUS
10
0.2329282283464567
20
1.259084842519685
11
0.2330340551181102
21
1.2590773622047244
0
LINE
8
BLACK
6
CONTINUOUS
10
0.2330340551181102
20
1.2590773622047244
11
0.2335746850393701
21
1.2588704724409447
0
LINE
8
BLACK
6
CONTINUOUS
10
0.2335746850393701
20
1.2588704724409447
11
0.2358672047244094
21
1.2577242125984252
0
LINE
8
BLACK
6
CONTINUOUS
10
0.2358672047244094
20
1.2577242125984252
11
0.2351379133858268
21
1.2606413779527559
0
LINE
8
BLACK
6
CONTINUOUS
10
0.2351379133858268
20
1.2606413779527559
11
0.2318342125984252
21
1.2655969291338582
0
LINE
8
BLACK
6
CONTINUOUS
10
0.2318342125984252
20
1.2655969291338582
11
0.2305050787401575
21
1.266926062992126
0
LINE
8
BLACK
6
CONTINUOUS
10
0.2305050787401575
20
1.266926062992126
11
0.2278075984251968
21
1.2682748031496063
0
LINE
8
BLACK
6
CONTINUOUS
10
0.2278075984251968
20
1.2682748031496063
11
0.2210055905511811
21
1.2682748031496063
0
LINE
8
BLACK
6
CONTINUOUS
10
0.2210055905511811
20
1.2682748031496063
11
0.2204295275590551
21
1.2683315354330709
0
LINE
8
BLACK
6
CONTINUOUS
10
0.2204295275590551
20
1.2683315354330709
11
0.2193651181102362
21
1.268772440944882
0
LINE
8
BLACK
6
CONTINUOUS
10
0.2193651181102362
20
1.268772440944882
11
0.2185504724409449
21
1.2695870866141732
0
LINE
8
BLACK
6
CONTINUOUS
10
0.2185504724409449
20
1.2695870866141732
11
0.2181095669291339
21
1.270651496062992
0
LINE
8
BLACK
6
CONTINUOUS
10
0.2181095669291339
20
1.270651496062992
11
0.2181095669291339
21
1.2718036220472442
0
LINE
8
BLACK
6
CONTINUOUS
10
0.2181095669291339
20
1.2718036220472442
11
0.2185504724409449
21
1.272868031496063
0
LINE
8
BLACK
6
CONTINUOUS
10
0.2185504724409449
20
1.272868031496063
11
0.2193651181102362
21
1.2736826771653542
0
LINE
8
BLACK
6
CONTINUOUS
10
0.2193651181102362
20
1.2736826771653542
11
0.2204295275590551
21
1.2741235826771653
0
LINE
8
BLACK
6
CONTINUOUS
10
0.2204295275590551
20
1.2741235826771653
11
0.2210055905511811
21
1.2741803149606299
0
LINE
8
BLACK
6
CONTINUOUS
10
0.2210055905511811
20
1.2741803149606299
11
0.2285046456692913
21
1.2741803149606299
0
LINE
8
BLACK
6
CONTINUOUS
10
0.2285046456692913
20
1.2741803149606299
11
0.2290807086614173
21
1.2741235826771653
0
LINE
8
BLACK
6
CONTINUOUS
10
0.2227546850393701
20
1.2519279527559055
11
0.2215575590551181
21
1.2507308267716535
0
LINE
8
BLACK
6
CONTINUOUS
10
0.2215575590551181
20
1.2507308267716535
11
0.2202088188976378
21
1.2480333464566928
0
LINE
8
BLACK
6
CONTINUOUS
10
0.2202088188976378
20
1.2480333464566928
11
0.2202088188976378
21
1.240053622047244
0
LINE
8
BLACK
6
CONTINUOUS
10
0.2202088188976378
20
1.240053622047244
11
0.2215575590551181
21
1.2373561417322834
0
LINE
8
BLACK
6
CONTINUOUS
10
0.2215575590551181
20
1.2373561417322834
11
0.2227546456692913
21
1.2361590157480316
0
LINE
8
BLACK
6
CONTINUOUS
10
0.2227546456692913
20
1.2361590157480316
11
0.2254522047244094
21
1.2348102362204725
0
LINE
8
BLACK
6
CONTINUOUS
10
0.2254522047244094
20
1.2348102362204725
11
0.2315570866141732
21
1.2348102362204725
0
LINE
8
BLACK
6
CONTINUOUS
10
0.2315570866141732
20
1.2348102362204725
11
0.2342545669291339
21
1.2361589763779528
0
LINE
8
BLACK
6
CONTINUOUS
10
0.2342545669291339
20
1.2361589763779528
11
0.2354517322834646
21
1.2373561417322834
0
LINE
8
BLACK
6
CONTINUOUS
10
0.2354517322834646
20
1.2373561417322834
11
0.2368004724409449
21
1.240053622047244
0
LINE
8
BLACK
6
CONTINUOUS
10
0.2368004724409449
20
1.240053622047244
11
0.2368004724409449
21
1.2480333464566928
0
LINE
8
BLACK
6
CONTINUOUS
10
0.2368004724409449
20
1.2480333464566928
11
0.2354517322834646
21
1.2507308267716535
0
LINE
8
BLACK
6
CONTINUOUS
10
0.2354517322834646
20
1.2507308267716535
11
0.2342546062992126
21
1.2519279527559055
0
LINE
8
BLACK
6
CONTINUOUS
10
0.2342546062992126
20
1.2519279527559055
11
0.231557125984252
21
1.2532766929133858
0
LINE
8
BLACK
6
CONTINUOUS
10
0.231557125984252
20
1.2532766929133858
11
0.2254521653543307
21
1.2532766929133858
0
LINE
8
BLACK
6
CONTINUOUS
10
0.2254521653543307
20
1.2532766929133858
11
0.2227546850393701
21
1.2519279527559055
0
LINE
8
BLACK
6
CONTINUOUS
10
0.2703255511811024
20
1.2741235826771653
11
0.2704235433070866
21
1.2740829527559054
0
LINE
8
BLACK
6
CONTINUOUS
10
0.2704235433070866
20
1.2740829527559054
11
0.2705293700787402
21
1.2740754724409449
0
LINE
8
BLACK
6
CONTINUOUS
10
0.2705293700787402
20
1.2740754724409449
11
0.27107
21
1.2738685826771654
0
LINE
8
BLACK
6
CONTINUOUS
10
0.27107
20
1.2738685826771654
11
0.2748195275590551
21
1.2719938188976379
0
LINE
8
BLACK
6
CONTINUOUS
10
0.2748195275590551
20
1.2719938188976379
11
0.2750675196850393
21
1.2718377165354331
0
LINE
8
BLACK
6
CONTINUOUS
10
0.2750675196850393
20
1.2718377165354331
11
0.2751394881889764
21
1.2718079133858267
0
LINE
8
BLACK
6
CONTINUOUS
10
0.2751394881889764
20
1.2718079133858267
11
0.2752204330708661
21
1.2717414173228345
0
LINE
8
BLACK
6
CONTINUOUS
10
0.2752204330708661
20
1.2717414173228345
11
0.2753094094488189
21
1.2716854724409448
0
LINE
8
BLACK
6
CONTINUOUS
10
0.2753094094488189
20
1.2716854724409448
11
0.2753605511811024
21
1.2716264566929134
0
LINE
8
BLACK
6
CONTINUOUS
10
0.2753605511811024
20
1.2716264566929134
11
0.2755869291338582
21
1.2714407086614172
0
LINE
8
BLACK
6
CONTINUOUS
10
0.2755869291338582
20
1.2714407086614172
11
0.2774616929133858
21
1.2695659448818897
0
LINE
8
BLACK
6
CONTINUOUS
10
0.2774616929133858
20
1.2695659448818897
11
0.2776474409448819
21
1.2693395669291339
0
LINE
8
BLACK
6
CONTINUOUS
10
0.2776474409448819
20
1.2693395669291339
11
0.2777064566929134
21
1.2692884251968504
0
LINE
8
BLACK
6
CONTINUOUS
10
0.2777064566929134
20
1.2692884251968504
11
0.2777624015748031
21
1.2691994488188976
0
LINE
8
BLACK
6
CONTINUOUS
10
0.2777624015748031
20
1.2691994488188976
11
0.2778288976377953
21
1.2691185039370079
0
LINE
8
BLACK
6
CONTINUOUS
10
0.2778288976377953
20
1.2691185039370079
11
0.2778587007874015
21
1.2690465354330709
0
LINE
8
BLACK
6
CONTINUOUS
10
0.2778587007874015
20
1.2690465354330709
11
0.2780148031496063
21
1.2687985433070865
0
LINE
8
BLACK
6
CONTINUOUS
10
0.2780148031496063
20
1.2687985433070865
11
0.2798895669291339
21
1.2650490157480314
0
LINE
8
BLACK
6
CONTINUOUS
10
0.2798895669291339
20
1.2650490157480314
11
0.2800964566929134
21
1.2645084251968504
0
LINE
8
BLACK
6
CONTINUOUS
10
0.2800964566929134
20
1.2645084251968504
11
0.2801039763779528
21
1.2644025196850393
0
LINE
8
BLACK
6
CONTINUOUS
10
0.2801039763779528
20
1.2644025196850393
11
0.2801445669291339
21
1.2643045669291337
0
LINE
8
BLACK
6
CONTINUOUS
10
0.2801445669291339
20
1.2643045669291337
11
0.2802012992125984
21
1.2637285039370079
0
LINE
8
BLACK
6
CONTINUOUS
10
0.2802012992125984
20
1.2637285039370079
11
0.2802012992125984
21
1.2543546850393701
0
LINE
8
BLACK
6
CONTINUOUS
10
0.2802012992125984
20
1.2543546850393701
11
0.2801445669291339
21
1.253778622047244
0
LINE
8
BLACK
6
CONTINUOUS
10
0.2801445669291339
20
1.253778622047244
11
0.2801039763779528
21
1.2536806299212597
0
LINE
8
BLACK
6
CONTINUOUS
10
0.2801039763779528
20
1.2536806299212597
11
0.2800964566929134
21
1.2535747637795276
0
LINE
8
BLACK
6
CONTINUOUS
10
0.2800964566929134
20
1.2535747637795276
11
0.2798895669291339
21
1.2530341732283465
0
LINE
8
BLACK
6
CONTINUOUS
10
0.2798895669291339
20
1.2530341732283465
11
0.2780148031496063
21
1.2492846456692912
0
LINE
8
BLACK
6
CONTINUOUS
10
0.2780148031496063
20
1.2492846456692912
11
0.2778587007874015
21
1.2490366141732283
0
LINE
8
BLACK
6
CONTINUOUS
10
0.2778587007874015
20
1.2490366141732283
11
0.2778288976377953
21
1.2489646850393701
0
LINE
8
BLACK
6
CONTINUOUS
10
0.2778288976377953
20
1.2489646850393701
11
0.2777624015748031
21
1.2488837007874016
0
LINE
8
BLACK
6
CONTINUOUS
10
0.2777624015748031
20
1.2488837007874016
11
0.2777064566929134
21
1.2487947637795276
0
LINE
8
BLACK
6
CONTINUOUS
10
0.2777064566929134
20
1.2487947637795276
11
0.2776474409448819
21
1.2487435826771653
0
LINE
8
BLACK
6
CONTINUOUS
10
0.2776474409448819
20
1.2487435826771653
11
0.2774616929133858
21
1.2485172440944881
0
LINE
8
BLACK
6
CONTINUOUS
10
0.2774616929133858
20
1.2485172440944881
11
0.2755869291338582
21
1.2466424803149605
0
LINE
8
BLACK
6
CONTINUOUS
10
0.2755869291338582
20
1.2466424803149605
11
0.2753605511811024
21
1.2464566929133858
0
LINE
8
BLACK
6
CONTINUOUS
10
0.2753605511811024
20
1.2464566929133858
11
0.2753094094488189
21
1.246397716535433
0
LINE
8
BLACK
6
CONTINUOUS
10
0.2753094094488189
20
1.246397716535433
11
0.2752204330708661
21
1.2463417322834645
0
LINE
8
BLACK
6
CONTINUOUS
10
0.2752204330708661
20
1.2463417322834645
11
0.2751394881889764
21
1.2462752755905511
0
LINE
8
BLACK
6
CONTINUOUS
10
0.2751394881889764
20
1.2462752755905511
11
0.2750675196850393
21
1.2462454330708661
0
LINE
8
BLACK
6
CONTINUOUS
10
0.2750675196850393
20
1.2462454330708661
11
0.2748195275590551
21
1.2460893700787401
0
LINE
8
BLACK
6
CONTINUOUS
10
0.2748195275590551
20
1.2460893700787401
11
0.27107
21
1.2442146062992125
0
LINE
8
BLACK
6
CONTINUOUS
10
0.27107
20
1.2442146062992125
11
0.2705293700787402
21
1.2440077165354331
0
LINE
8
BLACK
6
CONTINUOUS
10
0.2705293700787402
20
1.2440077165354331
11
0.2704235433070866
21
1.2440001968503938
0
LINE
8
BLACK
6
CONTINUOUS
10
0.2704235433070866
20
1.2440001968503938
11
0.2703255511811024
21
1.2439596062992127
0
LINE
8
BLACK
6
CONTINUOUS
10
0.2703255511811024
20
1.2439596062992127
11
0.2697494881889764
21
1.2439028740157481
0
LINE
8
BLACK
6
CONTINUOUS
10
0.2697494881889764
20
1.2439028740157481
11
0.2622504330708662
21
1.2439028740157481
0
LINE
8
BLACK
6
CONTINUOUS
10
0.2622504330708662
20
1.2439028740157481
11
0.2616743700787402
21
1.2439596062992127
0
LINE
8
BLACK
6
CONTINUOUS
10
0.2616743700787402
20
1.2439596062992127
11
0.2615763779527559
21
1.244000157480315
0
LINE
8
BLACK
6
CONTINUOUS
10
0.2615763779527559
20
1.244000157480315
11
0.2614705118110236
21
1.2440077165354331
0
LINE
8
BLACK
6
CONTINUOUS
10
0.2614705118110236
20
1.2440077165354331
11
0.2609299212598425
21
1.2442146062992125
0
LINE
8
BLACK
6
CONTINUOUS
10
0.2609299212598425
20
1.2442146062992125
11
0.2586374015748031
21
1.2453608661417324
0
LINE
8
BLACK
6
CONTINUOUS
10
0.2586374015748031
20
1.2453608661417324
11
0.2593666929133858
21
1.2424436614173229
0
LINE
8
BLACK
6
CONTINUOUS
10
0.2593666929133858
20
1.2424436614173229
11
0.2626703149606299
21
1.237488188976378
0
LINE
8
BLACK
6
CONTINUOUS
10
0.2626703149606299
20
1.237488188976378
11
0.2639994881889764
21
1.2361590157480316
0
LINE
8
BLACK
6
CONTINUOUS
10
0.2639994881889764
20
1.2361590157480316
11
0.2666970472440945
21
1.2348102362204725
0
LINE
8
BLACK
6
CONTINUOUS
10
0.2666970472440945
20
1.2348102362204725
11
0.2734990157480315
21
1.2348102362204725
0
LINE
8
BLACK
6
CONTINUOUS
10
0.2734990157480315
20
1.2348102362204725
11
0.2740750787401575
21
1.2347535039370079
0
LINE
8
BLACK
6
CONTINUOUS
10
0.2740750787401575
20
1.2347535039370079
11
0.2751394881889764
21
1.2343125984251968
0
LINE
8
BLACK
6
CONTINUOUS
10
0.2751394881889764
20
1.2343125984251968
11
0.2759541338582677
21
1.2334979527559056
0
LINE
8
BLACK
6
CONTINUOUS
10
0.2759541338582677
20
1.2334979527559056
11
0.2763950393700788
21
1.2324335433070865
0
LINE
8
BLACK
6
CONTINUOUS
10
0.2763950393700788
20
1.2324335433070865
11
0.2763950393700788
21
1.2312814173228346
0
LINE
8
BLACK
6
CONTINUOUS
10
0.2763950393700788
20
1.2312814173228346
11
0.2759541338582677
21
1.2302170078740158
0
LINE
8
BLACK
6
CONTINUOUS
10
0.2759541338582677
20
1.2302170078740158
11
0.2751394881889764
21
1.2294023622047243
0
LINE
8
BLACK
6
CONTINUOUS
10
0.2751394881889764
20
1.2294023622047243
11
0.2740750787401575
21
1.2289614566929135
0
LINE
8
BLACK
6
CONTINUOUS
10
0.2740750787401575
20
1.2289614566929135
11
0.2734990157480315
21
1.2289047244094489
0
LINE
8
BLACK
6
CONTINUOUS
10
0.2734990157480315
20
1.2289047244094489
11
0.2659999606299213
21
1.2289047244094489
0
LINE
8
BLACK
6
CONTINUOUS
10
0.2659999606299213
20
1.2289047244094489
11
0.2654238976377953
21
1.2289614566929135
0
LINE
8
BLACK
6
CONTINUOUS
10
0.2654238976377953
20
1.2289614566929135
11
0.265325905511811
21
1.2290020078740158
0
LINE
8
BLACK
6
CONTINUOUS
10
0.265325905511811
20
1.2290020078740158
11
0.2652200393700787
21
1.2290095669291339
0
LINE
8
BLACK
6
CONTINUOUS
10
0.2652200393700787
20
1.2290095669291339
11
0.2646794488188977
21
1.2292164566929134
0
LINE
8
BLACK
6
CONTINUOUS
10
0.2646794488188977
20
1.2292164566929134
11
0.2609298818897638
21
1.2310912598425197
0
LINE
8
BLACK
6
CONTINUOUS
10
0.2609298818897638
20
1.2310912598425197
11
0.2606819291338582
21
1.2312473228346457
0
LINE
8
BLACK
6
CONTINUOUS
10
0.2606819291338582
20
1.2312473228346457
11
0.2606099606299213
21
1.2312771653543306
0
LINE
8
BLACK
6
CONTINUOUS
10
0.2606099606299213
20
1.2312771653543306
11
0.2605288188976378
21
1.2313437401574803
0
LINE
8
BLACK
6
CONTINUOUS
10
0.2605288188976378
20
1.2313437401574803
11
0.2604400393700788
21
1.2313996456692913
0
LINE
8
BLACK
6
CONTINUOUS
10
0.2604400393700788
20
1.2313996456692913
11
0.2603889763779528
21
1.2314585039370078
0
LINE
8
BLACK
6
CONTINUOUS
10
0.2603889763779528
20
1.2314585039370078
11
0.2601625196850393
21
1.2316443700787401
0
LINE
8
BLACK
6
CONTINUOUS
10
0.2601625196850393
20
1.2316443700787401
11
0.2582877559055118
21
1.2335191338582676
0
LINE
8
BLACK
6
CONTINUOUS
10
0.2582877559055118
20
1.2335191338582676
11
0.2582864173228346
21
1.2335207086614173
0
LINE
8
BLACK
6
CONTINUOUS
10
0.2582864173228346
20
1.2335207086614173
11
0.2582855905511811
21
1.2335212992125983
0
LINE
8
BLACK
6
CONTINUOUS
10
0.2582855905511811
20
1.2335212992125983
11
0.2580972440944882
21
1.2337512598425198
0
LINE
8
BLACK
6
CONTINUOUS
10
0.2580972440944882
20
1.2337512598425198
11
0.2579205511811024
21
1.2339665748031496
0
LINE
8
BLACK
6
CONTINUOUS
10
0.2579205511811024
20
1.2339665748031496
11
0.2579201574803149
21
1.2339674409448818
0
LINE
8
BLACK
6
CONTINUOUS
10
0.2579201574803149
20
1.2339674409448818
11
0.2579188188976378
21
1.2339691338582677
0
LINE
8
BLACK
6
CONTINUOUS
10
0.2579188188976378
20
1.2339691338582677
11
0.2541692913385827
21
1.2395934251968503
0
LINE
8
BLACK
6
CONTINUOUS
10
0.2541692913385827
20
1.2395934251968503
11
0.2539997244094488
21
1.2399114566929132
0
LINE
8
BLACK
6
CONTINUOUS
10
0.2539997244094488
20
1.2399114566929132
11
0.2539562992125984
21
1.2399700787401575
0
LINE
8
BLACK
6
CONTINUOUS
10
0.2539562992125984
20
1.2399700787401575
11
0.2539315354330708
21
1.2400393307086615
0
LINE
8
BLACK
6
CONTINUOUS
10
0.2539315354330708
20
1.2400393307086615
11
0.253896968503937
21
1.2401042125984252
0
LINE
8
BLACK
6
CONTINUOUS
10
0.253896968503937
20
1.2401042125984252
11
0.2538827952755905
21
1.2401757086614174
0
LINE
8
BLACK
6
CONTINUOUS
10
0.2538827952755905
20
1.2401757086614174
11
0.2537615354330708
21
1.2405151968503936
0
LINE
8
BLACK
6
CONTINUOUS
10
0.2537615354330708
20
1.2405151968503936
11
0.2518867716535433
21
1.248014251968504
0
LINE
8
BLACK
6
CONTINUOUS
10
0.2518867716535433
20
1.248014251968504
11
0.251871968503937
21
1.248114094488189
0
LINE
8
BLACK
6
CONTINUOUS
10
0.251871968503937
20
1.248114094488189
11
0.2518553543307087
21
1.2481543307086613
0
LINE
8
BLACK
6
CONTINUOUS
10
0.2518553543307087
20
1.2481543307086613
11
0.2518339763779527
21
1.2483713385826771
0
LINE
8
BLACK
6
CONTINUOUS
10
0.2518339763779527
20
1.2483713385826771
11
0.2518021259842519
21
1.2485868503937008
0
LINE
8
BLACK
6
CONTINUOUS
10
0.2518021259842519
20
1.2485868503937008
11
0.2518085039370079
21
1.2486298425196851
0
LINE
8
BLACK
6
CONTINUOUS
10
0.2518085039370079
20
1.2486298425196851
11
0.2517986220472441
21
1.2487303937007874
0
LINE
8
BLACK
6
CONTINUOUS
10
0.2517986220472441
20
1.2487303937007874
11
0.2517986220472441
21
1.2637285039370079
0
LINE
8
BLACK
6
CONTINUOUS
10
0.2517986220472441
20
1.2637285039370079
11
0.2518553543307087
21
1.2643045669291337
0
LINE
8
BLACK
6
CONTINUOUS
10
0.2518553543307087
20
1.2643045669291337
11
0.2518959448818898
21
1.264402559055118
0
LINE
8
BLACK
6
CONTINUOUS
10
0.2518959448818898
20
1.264402559055118
11
0.2519034645669291
21
1.2645083858267716
0
LINE
8
BLACK
6
CONTINUOUS
10
0.2519034645669291
20
1.2645083858267716
11
0.2521103543307087
21
1.2650490157480314
0
LINE
8
BLACK
6
CONTINUOUS
10
0.2521103543307087
20
1.2650490157480314
11
0.2539851181102362
21
1.2687985433070865
0
LINE
8
BLACK
6
CONTINUOUS
10
0.2539851181102362
20
1.2687985433070865
11
0.2541411811023622
21
1.2690465354330709
0
LINE
8
BLACK
6
CONTINUOUS
10
0.2541411811023622
20
1.2690465354330709
11
0.2541710236220472
21
1.2691185039370079
0
LINE
8
BLACK
6
CONTINUOUS
10
0.2541710236220472
20
1.2691185039370079
11
0.2542374803149606
21
1.2691994488188976
0
LINE
8
BLACK
6
CONTINUOUS
10
0.2542374803149606
20
1.2691994488188976
11
0.2542934645669291
21
1.2692884251968504
0
LINE
8
BLACK
6
CONTINUOUS
10
0.2542934645669291
20
1.2692884251968504
11
0.2543524409448819
21
1.2693395669291339
0
LINE
8
BLACK
6
CONTINUOUS
10
0.2543524409448819
20
1.2693395669291339
11
0.2545382283464567
21
1.2695659448818897
0
LINE
8
BLACK
6
CONTINUOUS
10
0.2545382283464567
20
1.2695659448818897
11
0.2564129921259842
21
1.2714407086614172
0
LINE
8
BLACK
6
CONTINUOUS
10
0.2564129921259842
20
1.2714407086614172
11
0.2566393307086614
21
1.2716264566929134
0
LINE
8
BLACK
6
CONTINUOUS
10
0.2566393307086614
20
1.2716264566929134
11
0.2566905118110236
21
1.2716854724409448
0
LINE
8
BLACK
6
CONTINUOUS
10
0.2566905118110236
20
1.2716854724409448
11
0.2567794488188976
21
1.2717414173228345
0
LINE
8
BLACK
6
CONTINUOUS
10
0.2567794488188976
20
1.2717414173228345
11
0.2568604330708661
21
1.2718079133858267
0
LINE
8
BLACK
6
CONTINUOUS
10
0.2568604330708661
20
1.2718079133858267
11
0.2569323622047244
21
1.2718377165354331
0
LINE
8
BLACK
6
CONTINUOUS
10
0.2569323622047244
20
1.2718377165354331
11
0.2571803937007874
21
1.2719938188976379
0
LINE
8
BLACK
6
CONTINUOUS
10
0.2571803937007874
20
1.2719938188976379
11
0.2609299212598425
21
1.2738685826771654
0
LINE
8
BLACK
6
CONTINUOUS
10
0.2609299212598425
20
1.2738685826771654
11
0.2614705118110236
21
1.2740754724409449
0
LINE
8
BLACK
6
CONTINUOUS
10
0.2614705118110236
20
1.2740754724409449
11
0.2615763779527559
21
1.2740829921259842
0
LINE
8
BLACK
6
CONTINUOUS
10
0.2615763779527559
20
1.2740829921259842
11
0.2616743700787402
21
1.2741235826771653
0
LINE
8
BLACK
6
CONTINUOUS
10
0.2616743700787402
20
1.2741235826771653
11
0.2622504330708662
21
1.2741803149606299
0
LINE
8
BLACK
6
CONTINUOUS
10
0.2622504330708662
20
1.2741803149606299
11
0.2697494881889764
21
1.2741803149606299
0
LINE
8
BLACK
6
CONTINUOUS
10
0.2697494881889764
20
1.2741803149606299
11
0.2703255511811024
21
1.2741235826771653
0
LINE
8
BLACK
6
CONTINUOUS
10
0.26025
20
1.266926062992126
11
0.259052874015748
21
1.2657289370078739
0
LINE
8
BLACK
6
CONTINUOUS
10
0.259052874015748
20
1.2657289370078739
11
0.2577041338582677
21
1.2630314566929133
0
LINE
8
BLACK
6
CONTINUOUS
10
0.2577041338582677
20
1.2630314566929133
11
0.2577041338582677
21
1.2550517322834644
0
LINE
8
BLACK
6
CONTINUOUS
10
0.2577041338582677
20
1.2550517322834644
11
0.259052874015748
21
1.2523542519685038
0
LINE
8
BLACK
6
CONTINUOUS
10
0.259052874015748
20
1.2523542519685038
11
0.26025
21
1.251157125984252
0
LINE
8
BLACK
6
CONTINUOUS
10
0.26025
20
1.251157125984252
11
0.2629474803149606
21
1.2498083858267717
0
LINE
8
BLACK
6
CONTINUOUS
10
0.2629474803149606
20
1.2498083858267717
11
0.2690524409448819
21
1.2498083858267717
0
LINE
8
BLACK
6
CONTINUOUS
10
0.2690524409448819
20
1.2498083858267717
11
0.2717499212598425
21
1.251157125984252
0
LINE
8
BLACK
6
CONTINUOUS
10
0.2717499212598425
20
1.251157125984252
11
0.2729470472440945
21
1.2523542519685038
0
LINE
8
BLACK
6
CONTINUOUS
10
0.2729470472440945
20
1.2523542519685038
11
0.2742957874015748
21
1.2550517322834644
0
LINE
8
BLACK
6
CONTINUOUS
10
0.2742957874015748
20
1.2550517322834644
11
0.2742957874015748
21
1.2630314566929133
0
LINE
8
BLACK
6
CONTINUOUS
10
0.2742957874015748
20
1.2630314566929133
11
0.2729470472440945
21
1.2657289370078739
0
LINE
8
BLACK
6
CONTINUOUS
10
0.2729470472440945
20
1.2657289370078739
11
0.2717499212598425
21
1.266926062992126
0
LINE
8
BLACK
6
CONTINUOUS
10
0.2717499212598425
20
1.266926062992126
11
0.2690524409448819
21
1.2682748031496063
0
LINE
8
BLACK
6
CONTINUOUS
10
0.2690524409448819
20
1.2682748031496063
11
0.2629474803149606
21
1.2682748031496063
0
LINE
8
BLACK
6
CONTINUOUS
10
0.2629474803149606
20
1.2682748031496063
11
0.26025
21
1.266926062992126
0
LINE
8
BLACK
6
CONTINUOUS
10
0.3375325984251968
20
1.2741515748031496
11
0.3376103543307086
21
1.2741571259842519
0
LINE
8
BLACK
6
CONTINUOUS
10
0.3376103543307086
20
1.2741571259842519
11
0.3377125984251969
21
1.2741338582677164
0
LINE
8
BLACK
6
CONTINUOUS
10
0.3377125984251969
20
1.2741338582677164
11
0.337817125984252
21
1.2741235826771653
0
LINE
8
BLACK
6
CONTINUOUS
10
0.337817125984252
20
1.2741235826771653
11
0.3378892125984252
21
1.2740937007874016
0
LINE
8
BLACK
6
CONTINUOUS
10
0.3378892125984252
20
1.2740937007874016
11
0.3381748031496063
21
1.2740287795275591
0
LINE
8
BLACK
6
CONTINUOUS
10
0.3381748031496063
20
1.2740287795275591
11
0.343799094488189
21
1.2721540157480316
0
LINE
8
BLACK
6
CONTINUOUS
10
0.343799094488189
20
1.2721540157480316
11
0.3443276377952756
21
1.271918031496063
0
LINE
8
BLACK
6
CONTINUOUS
10
0.3443276377952756
20
1.271918031496063
11
0.3444077559055118
21
1.2718485039370078
0
LINE
8
BLACK
6
CONTINUOUS
10
0.3444077559055118
20
1.2718485039370078
11
0.3445058267716535
21
1.2718079133858267
0
LINE
8
BLACK
6
CONTINUOUS
10
0.3445058267716535
20
1.2718079133858267
11
0.3449532677165354
21
1.2714407086614172
0
LINE
8
BLACK
6
CONTINUOUS
10
0.3449532677165354
20
1.2714407086614172
11
0.3487027952755906
21
1.2676911811023621
0
LINE
8
BLACK
6
CONTINUOUS
10
0.3487027952755906
20
1.2676911811023621
11
0.3488886220472441
21
1.2674647637795275
0
LINE
8
BLACK
6
CONTINUOUS
10
0.3488886220472441
20
1.2674647637795275
11
0.3489475590551181
21
1.2674136614173228
0
LINE
8
BLACK
6
CONTINUOUS
10
0.3489475590551181
20
1.2674136614173228
11
0.3490034251968504
21
1.2673248818897638
0
LINE
8
BLACK
6
CONTINUOUS
10
0.3490034251968504
20
1.2673248818897638
11
0.3490700393700787
21
1.2672437401574803
0
LINE
8
BLACK
6
CONTINUOUS
10
0.3490700393700787
20
1.2672437401574803
11
0.3490998818897638
21
1.2671715748031496
0
LINE
8
BLACK
6
CONTINUOUS
10
0.3490998818897638
20
1.2671715748031496
11
0.349255905511811
21
1.266923779527559
0
LINE
8
BLACK
6
CONTINUOUS
10
0.349255905511811
20
1.266923779527559
11
0.3511306692913386
21
1.2631742519685039
0
LINE
8
BLACK
6
CONTINUOUS
10
0.3511306692913386
20
1.2631742519685039
11
0.3511467716535433
21
1.2631321259842518
0
LINE
8
BLACK
6
CONTINUOUS
10
0.3511467716535433
20
1.2631321259842518
11
0.3511594881889764
21
1.263115
0
LINE
8
BLACK
6
CONTINUOUS
10
0.3511594881889764
20
1.263115
11
0.3512455511811023
21
1.2628740944881889
0
LINE
8
BLACK
6
CONTINUOUS
10
0.3512455511811023
20
1.2628740944881889
11
0.3513375590551181
21
1.2626336614173228
0
LINE
8
BLACK
6
CONTINUOUS
10
0.3513375590551181
20
1.2626336614173228
11
0.3513390551181103
21
1.2626123622047243
0
LINE
8
BLACK
6
CONTINUOUS
10
0.3513390551181103
20
1.2626123622047243
11
0.351354251968504
21
1.2625698818897637
0
LINE
8
BLACK
6
CONTINUOUS
10
0.351354251968504
20
1.2625698818897637
11
0.3532290157480315
21
1.2550708267716535
0
LINE
8
BLACK
6
CONTINUOUS
10
0.3532290157480315
20
1.2550708267716535
11
0.353243779527559
21
1.2549709448818898
0
LINE
8
BLACK
6
CONTINUOUS
10
0.353243779527559
20
1.2549709448818898
11
0.3532604330708661
21
1.254930748031496
0
LINE
8
BLACK
6
CONTINUOUS
10
0.3532604330708661
20
1.254930748031496
11
0.3532817716535433
21
1.2547137007874016
0
LINE
8
BLACK
6
CONTINUOUS
10
0.3532817716535433
20
1.2547137007874016
11
0.3533136614173228
21
1.2544982283464567
0
LINE
8
BLACK
6
CONTINUOUS
10
0.3533136614173228
20
1.2544982283464567
11
0.3533072440944882
21
1.2544551968503936
0
LINE
8
BLACK
6
CONTINUOUS
10
0.3533072440944882
20
1.2544551968503936
11
0.3533171653543307
21
1.2543546850393701
0
LINE
8
BLACK
6
CONTINUOUS
10
0.3533171653543307
20
1.2543546850393701
11
0.3533171653543307
21
1.2487303937007874
0
LINE
8
BLACK
6
CONTINUOUS
10
0.3533171653543307
20
1.2487303937007874
11
0.3533072440944882
21
1.2486298425196851
0
LINE
8
BLACK
6
CONTINUOUS
10
0.3533072440944882
20
1.2486298425196851
11
0.3533136614173228
21
1.2485868503937008
0
LINE
8
BLACK
6
CONTINUOUS
10
0.3533136614173228
20
1.2485868503937008
11
0.3532817716535433
21
1.2483713385826771
0
LINE
8
BLACK
6
CONTINUOUS
10
0.3532817716535433
20
1.2483713385826771
11
0.3532604330708661
21
1.2481543307086613
0
LINE
8
BLACK
6
CONTINUOUS
10
0.3532604330708661
20
1.2481543307086613
11
0.353243779527559
21
1.248114094488189
0
LINE
8
BLACK
6
CONTINUOUS
10
0.353243779527559
20
1.248114094488189
11
0.3532290157480315
21
1.248014251968504
0
LINE
8
BLACK
6
CONTINUOUS
10
0.3532290157480315
20
1.248014251968504
11
0.351354251968504
21
1.2405151968503936
0
LINE
8
BLACK
6
CONTINUOUS
10
0.351354251968504
20
1.2405151968503936
11
0.3513390551181103
21
1.2404726771653543
0
LINE
8
BLACK
6
CONTINUOUS
10
0.3513390551181103
20
1.2404726771653543
11
0.3513375590551181
21
1.2404514173228347
0
LINE
8
BLACK
6
CONTINUOUS
10
0.3513375590551181
20
1.2404514173228347
11
0.3512457874015748
21
1.240211653543307
0
LINE
8
BLACK
6
CONTINUOUS
10
0.3512457874015748
20
1.240211653543307
11
0.3511594881889764
21
1.2399700787401575
0
LINE
8
BLACK
6
CONTINUOUS
10
0.3511594881889764
20
1.2399700787401575
11
0.3511467716535433
21
1.2399529133858267
0
LINE
8
BLACK
6
CONTINUOUS
10
0.3511467716535433
20
1.2399529133858267
11
0.3511306692913386
21
1.2399108267716534
0
LINE
8
BLACK
6
CONTINUOUS
10
0.3511306692913386
20
1.2399108267716534
11
0.349255905511811
21
1.2361612992125983
0
LINE
8
BLACK
6
CONTINUOUS
10
0.349255905511811
20
1.2361612992125983
11
0.3490998818897638
21
1.2359134645669292
0
LINE
8
BLACK
6
CONTINUOUS
10
0.3490998818897638
20
1.2359134645669292
11
0.3490700393700787
21
1.2358413385826772
0
LINE
8
BLACK
6
CONTINUOUS
10
0.3490700393700787
20
1.2358413385826772
11
0.3490034251968504
21
1.235760157480315
0
LINE
8
BLACK
6
CONTINUOUS
10
0.3490034251968504
20
1.235760157480315
11
0.3489475590551181
21
1.2356714173228347
0
LINE
8
BLACK
6
CONTINUOUS
10
0.3489475590551181
20
1.2356714173228347
11
0.3488886220472441
21
1.2356202755905512
0
LINE
8
BLACK
6
CONTINUOUS
10
0.3488886220472441
20
1.2356202755905512
11
0.3487027952755906
21
1.2353938976377952
0
LINE
8
BLACK
6
CONTINUOUS
10
0.3487027952755906
20
1.2353938976377952
11
0.3449532677165354
21
1.2316443700787401
0
LINE
8
BLACK
6
CONTINUOUS
10
0.3449532677165354
20
1.2316443700787401
11
0.3445058267716535
21
1.2312771653543306
0
LINE
8
BLACK
6
CONTINUOUS
10
0.3445058267716535
20
1.2312771653543306
11
0.3444078346456693
21
1.2312365748031495
0
LINE
8
BLACK
6
CONTINUOUS
10
0.3444078346456693
20
1.2312365748031495
11
0.3443276771653543
21
1.2311670472440945
0
LINE
8
BLACK
6
CONTINUOUS
10
0.3443276771653543
20
1.2311670472440945
11
0.3437991338582677
21
1.230931062992126
0
LINE
8
BLACK
6
CONTINUOUS
10
0.3437991338582677
20
1.230931062992126
11
0.338174842519685
21
1.2290562598425196
0
LINE
8
BLACK
6
CONTINUOUS
10
0.338174842519685
20
1.2290562598425196
11
0.3378891732283464
21
1.2289912992125984
0
LINE
8
BLACK
6
CONTINUOUS
10
0.3378891732283464
20
1.2289912992125984
11
0.337817125984252
21
1.2289614566929135
0
LINE
8
BLACK
6
CONTINUOUS
10
0.337817125984252
20
1.2289614566929135
11
0.3377126377952756
21
1.2289511417322834
0
LINE
8
BLACK
6
CONTINUOUS
10
0.3377126377952756
20
1.2289511417322834
11
0.3376103937007874
21
1.2289279133858269
0
LINE
8
BLACK
6
CONTINUOUS
10
0.3376103937007874
20
1.2289279133858269
11
0.3375325984251968
21
1.2289334251968504
0
LINE
8
BLACK
6
CONTINUOUS
10
0.3375325984251968
20
1.2289334251968504
11
0.337241062992126
21
1.2289047244094489
0
LINE
8
BLACK
6
CONTINUOUS
10
0.337241062992126
20
1.2289047244094489
11
0.3334915354330709
21
1.2289047244094489
0
LINE
8
BLACK
6
CONTINUOUS
10
0.3334915354330709
20
1.2289047244094489
11
0.3331999606299212
21
1.2289334251968504
0
LINE
8
BLACK
6
CONTINUOUS
10
0.3331999606299212
20
1.2289334251968504
11
0.3331222047244095
21
1.2289279133858269
0
LINE
8
BLACK
6
CONTINUOUS
10
0.3331222047244095
20
1.2289279133858269
11
0.3330199212598425
21
1.2289511417322834
0
LINE
8
BLACK
6
CONTINUOUS
10
0.3330199212598425
20
1.2289511417322834
11
0.3329154724409449
21
1.2289614566929135
0
LINE
8
BLACK
6
CONTINUOUS
10
0.3329154724409449
20
1.2289614566929135
11
0.3328433858267716
21
1.2289912992125984
0
LINE
8
BLACK
6
CONTINUOUS
10
0.3328433858267716
20
1.2289912992125984
11
0.3325577952755905
21
1.2290562598425196
0
LINE
8
BLACK
6
CONTINUOUS
10
0.3325577952755905
20
1.2290562598425196
11
0.3269334645669291
21
1.230931062992126
0
LINE
8
BLACK
6
CONTINUOUS
10
0.3269334645669291
20
1.230931062992126
11
0.3264049212598425
21
1.2311670472440945
0
LINE
8
BLACK
6
CONTINUOUS
10
0.3264049212598425
20
1.2311670472440945
11
0.3263247244094488
21
1.2312365748031495
0
LINE
8
BLACK
6
CONTINUOUS
10
0.3263247244094488
20
1.2312365748031495
11
0.3262267716535433
21
1.2312771653543306
0
LINE
8
BLACK
6
CONTINUOUS
10
0.3262267716535433
20
1.2312771653543306
11
0.3257793307086614
21
1.2316443700787401
0
LINE
8
BLACK
6
CONTINUOUS
10
0.3257793307086614
20
1.2316443700787401
11
0.3239045669291338
21
1.2335191338582676
0
LINE
8
BLACK
6
CONTINUOUS
10
0.3239045669291338
20
1.2335191338582676
11
0.3235373622047244
21
1.2339665748031496
0
LINE
8
BLACK
6
CONTINUOUS
10
0.3235373622047244
20
1.2339665748031496
11
0.3230964566929134
21
1.2350310236220472
0
LINE
8
BLACK
6
CONTINUOUS
10
0.3230964566929134
20
1.2350310236220472
11
0.3230964566929134
21
1.2361830708661417
0
LINE
8
BLACK
6
CONTINUOUS
10
0.3230964566929134
20
1.2361830708661417
11
0.3235373622047244
21
1.2372475196850394
0
LINE
8
BLACK
6
CONTINUOUS
10
0.3235373622047244
20
1.2372475196850394
11
0.3243520078740157
21
1.2380621653543307
0
LINE
8
BLACK
6
CONTINUOUS
10
0.3243520078740157
20
1.2380621653543307
11
0.3254164566929134
21
1.2385030708661418
0
LINE
8
BLACK
6
CONTINUOUS
10
0.3254164566929134
20
1.2385030708661418
11
0.3265685039370079
21
1.2385030708661418
0
LINE
8
BLACK
6
CONTINUOUS
10
0.3265685039370079
20
1.2385030708661418
11
0.3276329527559055
21
1.2380621653543307
0
LINE
8
BLACK
6
CONTINUOUS
10
0.3276329527559055
20
1.2380621653543307
11
0.3280803937007874
21
1.2376949606299212
0
LINE
8
BLACK
6
CONTINUOUS
10
0.3280803937007874
20
1.2376949606299212
11
0.3294622440944882
21
1.2363130708661416
0
LINE
8
BLACK
6
CONTINUOUS
10
0.3294622440944882
20
1.2363130708661416
11
0.3339707086614173
21
1.2348102362204725
0
LINE
8
BLACK
6
CONTINUOUS
10
0.3339707086614173
20
1.2348102362204725
11
0.3367618897637795
21
1.2348102362204725
0
LINE
8
BLACK
6
CONTINUOUS
10
0.3367618897637795
20
1.2348102362204725
11
0.3412702755905512
21
1.2363130314960629
0
LINE
8
BLACK
6
CONTINUOUS
10
0.3412702755905512
20
1.2363130314960629
11
0.3441881496062992
21
1.2392309055118109
0
LINE
8
BLACK
6
CONTINUOUS
10
0.3441881496062992
20
1.2392309055118109
11
0.3457036220472441
21
1.2422618897637796
0
LINE
8
BLACK
6
CONTINUOUS
10
0.3457036220472441
20
1.2422618897637796
11
0.3474116535433071
21
1.249093937007874
0
LINE
8
BLACK
6
CONTINUOUS
10
0.3474116535433071
20
1.249093937007874
11
0.3474116535433071
21
1.2539911417322835
0
LINE
8
BLACK
6
CONTINUOUS
10
0.3474116535433071
20
1.2539911417322835
11
0.3457036220472441
21
1.2608231889763779
0
LINE
8
BLACK
6
CONTINUOUS
10
0.3457036220472441
20
1.2608231889763779
11
0.3441881496062992
21
1.2638541732283464
0
LINE
8
BLACK
6
CONTINUOUS
10
0.3441881496062992
20
1.2638541732283464
11
0.3412703149606299
21
1.2667719685039369
0
LINE
8
BLACK
6
CONTINUOUS
10
0.3412703149606299
20
1.2667719685039369
11
0.3367619291338583
21
1.2682748031496063
0
LINE
8
BLACK
6
CONTINUOUS
10
0.3367619291338583
20
1.2682748031496063
11
0.3339706692913386
21
1.2682748031496063
0
LINE
8
BLACK
6
CONTINUOUS
10
0.3339706692913386
20
1.2682748031496063
11
0.3294622834645669
21
1.2667720078740157
0
LINE
8
BLACK
6
CONTINUOUS
10
0.3294622834645669
20
1.2667720078740157
11
0.3280803937007874
21
1.2653901181102363
0
LINE
8
BLACK
6
CONTINUOUS
10
0.3280803937007874
20
1.2653901181102363
11
0.3276329527559055
21
1.2650229133858268
0
LINE
8
BLACK
6
CONTINUOUS
10
0.3276329527559055
20
1.2650229133858268
11
0.3265685039370079
21
1.2645820078740158
0
LINE
8
BLACK
6
CONTINUOUS
10
0.3265685039370079
20
1.2645820078740158
11
0.3254164566929134
21
1.2645820078740158
0
LINE
8
BLACK
6
CONTINUOUS
10
0.3254164566929134
20
1.2645820078740158
11
0.3243520078740157
21
1.2650229133858268
0
LINE
8
BLACK
6
CONTINUOUS
10
0.3243520078740157
20
1.2650229133858268
11
0.3235373622047244
21
1.2658375590551181
0
LINE
8
BLACK
6
CONTINUOUS
10
0.3235373622047244
20
1.2658375590551181
11
0.3230964566929134
21
1.2669020078740156
0
LINE
8
BLACK
6
CONTINUOUS
10
0.3230964566929134
20
1.2669020078740156
11
0.3230964566929134
21
1.2680540551181103
0
LINE
8
BLACK
6
CONTINUOUS
10
0.3230964566929134
20
1.2680540551181103
11
0.3235373622047244
21
1.2691185039370079
0
LINE
8
BLACK
6
CONTINUOUS
10
0.3235373622047244
20
1.2691185039370079
11
0.3239045669291338
21
1.2695659448818897
0
LINE
8
BLACK
6
CONTINUOUS
10
0.3239045669291338
20
1.2695659448818897
11
0.3257793307086614
21
1.2714407086614172
0
LINE
8
BLACK
6
CONTINUOUS
10
0.3257793307086614
20
1.2714407086614172
11
0.3262267716535433
21
1.2718079133858267
0
LINE
8
BLACK
6
CONTINUOUS
10
0.3262267716535433
20
1.2718079133858267
11
0.3263247244094488
21
1.271848464566929
0
LINE
8
BLACK
6
CONTINUOUS
10
0.3263247244094488
20
1.271848464566929
11
0.3264049212598425
21
1.271918031496063
0
LINE
8
BLACK
6
CONTINUOUS
10
0.3264049212598425
20
1.271918031496063
11
0.3269335039370079
21
1.2721540157480316
0
LINE
8
BLACK
6
CONTINUOUS
10
0.3269335039370079
20
1.2721540157480316
11
0.3325577559055118
21
1.2740287795275591
0
LINE
8
BLACK
6
CONTINUOUS
10
0.3325577559055118
20
1.2740287795275591
11
0.3328433858267716
21
1.2740937007874016
0
LINE
8
BLACK
6
CONTINUOUS
10
0.3328433858267716
20
1.2740937007874016
11
0.3329154724409449
21
1.2741235826771653
0
LINE
8
BLACK
6
CONTINUOUS
10
0.3329154724409449
20
1.2741235826771653
11
0.3330199212598425
21
1.2741338582677164
0
LINE
8
BLACK
6
CONTINUOUS
10
0.3330199212598425
20
1.2741338582677164
11
0.3331222047244095
21
1.2741571259842519
0
LINE
8
BLACK
6
CONTINUOUS
10
0.3331222047244095
20
1.2741571259842519
11
0.3331999212598425
21
1.2741515748031496
0
LINE
8
BLACK
6
CONTINUOUS
10
0.3331999212598425
20
1.2741515748031496
11
0.3334915354330709
21
1.2741803149606299
0
LINE
8
BLACK
6
CONTINUOUS
10
0.3334915354330709
20
1.2741803149606299
11
0.337241062992126
21
1.2741803149606299
0
LINE
8
BLACK
6
CONTINUOUS
10
0.337241062992126
20
1.2741803149606299
11
0.3375325984251968
21
1.2741515748031496
0
LINE
8
BLACK
6
CONTINUOUS
10
0.30219
20
1.2740903543307087
11
0.3024004330708661
21
1.2740754330708661
0
LINE
8
BLACK
6
CONTINUOUS
10
0.3024004330708661
20
1.2740754330708661
11
0.3027315354330709
21
1.2739098425196851
0
LINE
8
BLACK
6
CONTINUOUS
10
0.3027315354330709
20
1.2739098425196851
11
0.3030827952755906
21
1.2737927952755905
0
LINE
8
BLACK
6
CONTINUOUS
10
0.3030827952755906
20
1.2737927952755905
11
0.303242125984252
21
1.2736545669291339
0
LINE
8
BLACK
6
CONTINUOUS
10
0.303242125984252
20
1.2736545669291339
11
0.3034308661417323
21
1.2735602362204723
0
LINE
8
BLACK
6
CONTINUOUS
10
0.3034308661417323
20
1.2735602362204723
11
0.3036735039370079
21
1.2732804724409448
0
LINE
8
BLACK
6
CONTINUOUS
10
0.3036735039370079
20
1.2732804724409448
11
0.303953188976378
21
1.2730379133858267
0
LINE
8
BLACK
6
CONTINUOUS
10
0.303953188976378
20
1.2730379133858267
11
0.3040474803149606
21
1.272849251968504
0
LINE
8
BLACK
6
CONTINUOUS
10
0.3040474803149606
20
1.272849251968504
11
0.3041857480314961
21
1.2726898818897638
0
LINE
8
BLACK
6
CONTINUOUS
10
0.3041857480314961
20
1.2726898818897638
11
0.3044217322834646
21
1.2721612992125984
0
LINE
8
BLACK
6
CONTINUOUS
10
0.3044217322834646
20
1.2721612992125984
11
0.3175450787401575
21
1.2327912204724409
0
LINE
8
BLACK
6
CONTINUOUS
10
0.3175450787401575
20
1.2327912204724409
11
0.3176734251968504
21
1.2322268110236221
0
LINE
8
BLACK
6
CONTINUOUS
10
0.3176734251968504
20
1.2322268110236221
11
0.3175917322834645
21
1.2310775984251969
0
LINE
8
BLACK
6
CONTINUOUS
10
0.3175917322834645
20
1.2310775984251969
11
0.3170765354330708
21
1.230047125984252
0
LINE
8
BLACK
6
CONTINUOUS
10
0.3170765354330708
20
1.230047125984252
11
0.3162061417322835
21
1.2292922440944882
0
LINE
8
BLACK
6
CONTINUOUS
10
0.3162061417322835
20
1.2292922440944882
11
0.3151131496062992
21
1.2289279133858269
0
LINE
8
BLACK
6
CONTINUOUS
10
0.3151131496062992
20
1.2289279133858269
11
0.313963937007874
21
1.2290096062992126
0
LINE
8
BLACK
6
CONTINUOUS
10
0.313963937007874
20
1.2290096062992126
11
0.3129335039370079
21
1.229524842519685
0
LINE
8
BLACK
6
CONTINUOUS
10
0.3129335039370079
20
1.229524842519685
11
0.3121786220472441
21
1.2303951968503937
0
LINE
8
BLACK
6
CONTINUOUS
10
0.3121786220472441
20
1.2303951968503937
11
0.3119426377952756
21
1.2309237401574802
0
LINE
8
BLACK
6
CONTINUOUS
10
0.3119426377952756
20
1.2309237401574802
11
0.3088661023622047
21
1.240153346456693
0
LINE
8
BLACK
6
CONTINUOUS
10
0.3088661023622047
20
1.240153346456693
11
0.2943749212598425
21
1.240153346456693
0
LINE
8
BLACK
6
CONTINUOUS
10
0.2943749212598425
20
1.240153346456693
11
0.2912983858267716
21
1.2309237401574802
0
LINE
8
BLACK
6
CONTINUOUS
10
0.2912983858267716
20
1.2309237401574802
11
0.2910624015748031
21
1.2303951574803149
0
LINE
8
BLACK
6
CONTINUOUS
10
0.2910624015748031
20
1.2303951574803149
11
0.2903075196850394
21
1.2295248031496062
0
LINE
8
BLACK
6
CONTINUOUS
10
0.2903075196850394
20
1.2295248031496062
11
0.2892770866141732
21
1.2290096062992126
0
LINE
8
BLACK
6
CONTINUOUS
10
0.2892770866141732
20
1.2290096062992126
11
0.288127874015748
21
1.2289279133858269
0
LINE
8
BLACK
6
CONTINUOUS
10
0.288127874015748
20
1.2289279133858269
11
0.287034842519685
21
1.2292922440944882
0
LINE
8
BLACK
6
CONTINUOUS
10
0.287034842519685
20
1.2292922440944882
11
0.2861644881889764
21
1.230047125984252
0
LINE
8
BLACK
6
CONTINUOUS
10
0.2861644881889764
20
1.230047125984252
11
0.2856492913385827
21
1.2310775590551182
0
LINE
8
BLACK
6
CONTINUOUS
10
0.2856492913385827
20
1.2310775590551182
11
0.2855675984251969
21
1.2322267716535433
0
LINE
8
BLACK
6
CONTINUOUS
10
0.2855675984251969
20
1.2322267716535433
11
0.2856959448818898
21
1.2327912204724409
0
LINE
8
BLACK
6
CONTINUOUS
10
0.2856959448818898
20
1.2327912204724409
11
0.2988192913385826
21
1.2721612992125984
0
LINE
8
BLACK
6
CONTINUOUS
10
0.2988192913385826
20
1.2721612992125984
11
0.2990552755905512
21
1.2726898425196851
0
LINE
8
BLACK
6
CONTINUOUS
10
0.2990552755905512
20
1.2726898425196851
11
0.2991934645669291
21
1.2728491732283465
0
LINE
8
BLACK
6
CONTINUOUS
10
0.2991934645669291
20
1.2728491732283465
11
0.2992878346456693
21
1.2730379133858267
0
LINE
8
BLACK
6
CONTINUOUS
10
0.2992878346456693
20
1.2730379133858267
11
0.2995676771653543
21
1.2732806299212598
0
LINE
8
BLACK
6
CONTINUOUS
10
0.2995676771653543
20
1.2732806299212598
11
0.299810157480315
21
1.2735601968503936
0
LINE
8
BLACK
6
CONTINUOUS
10
0.299810157480315
20
1.2735601968503936
11
0.2999987007874016
21
1.2736544488188977
0
LINE
8
BLACK
6
CONTINUOUS
10
0.2999987007874016
20
1.2736544488188977
11
0.300158188976378
21
1.2737927952755905
0
LINE
8
BLACK
6
CONTINUOUS
10
0.300158188976378
20
1.2737927952755905
11
0.3005095669291338
21
1.2739098818897638
0
LINE
8
BLACK
6
CONTINUOUS
10
0.3005095669291338
20
1.2739098818897638
11
0.3008405905511811
21
1.2740754330708661
0
LINE
8
BLACK
6
CONTINUOUS
10
0.3008405905511811
20
1.2740754330708661
11
0.3010509842519685
21
1.2740903543307087
0
LINE
8
BLACK
6
CONTINUOUS
10
0.3010509842519685
20
1.2740903543307087
11
0.301251220472441
21
1.2741571259842519
0
LINE
8
BLACK
6
CONTINUOUS
10
0.301251220472441
20
1.2741571259842519
11
0.3016205118110236
21
1.2741308661417323
0
LINE
8
BLACK
6
CONTINUOUS
10
0.3016205118110236
20
1.2741308661417323
11
0.3019898031496063
21
1.2741571259842519
0
LINE
8
BLACK
6
CONTINUOUS
10
0.3019898031496063
20
1.2741571259842519
11
0.30219
21
1.2740903543307087
0
LINE
8
BLACK
6
CONTINUOUS
10
0.2963434251968504
20
1.2460588582677166
11
0.3068975984251968
21
1.2460588582677166
0
LINE
8
BLACK
6
CONTINUOUS
10
0.3068975984251968
20
1.2460588582677166
11
0.3016205118110236
21
1.2618901181102362
0
LINE
8
BLACK
6
CONTINUOUS
10
0.3016205118110236
20
1.2618901181102362
11
0.2963434251968504
21
1.2460588582677166
0
LINE
8
BLACK
6
CONTINUOUS
10
0.3884357874015748
20
1.2741235826771653
11
0.3895001968503937
21
1.2736826771653542
0
LINE
8
BLACK
6
CONTINUOUS
10
0.3895001968503937
20
1.2736826771653542
11
0.390314842519685
21
1.272868031496063
0
LINE
8
BLACK
6
CONTINUOUS
10
0.390314842519685
20
1.272868031496063
11
0.390755748031496
21
1.2718036220472442
0
LINE
8
BLACK
6
CONTINUOUS
10
0.390755748031496
20
1.2718036220472442
11
0.3908124803149606
21
1.2712275590551181
0
LINE
8
BLACK
6
CONTINUOUS
10
0.3908124803149606
20
1.2712275590551181
11
0.3908124803149606
21
1.2318574803149607
0
LINE
8
BLACK
6
CONTINUOUS
10
0.3908124803149606
20
1.2318574803149607
11
0.390755748031496
21
1.2312814173228346
0
LINE
8
BLACK
6
CONTINUOUS
10
0.390755748031496
20
1.2312814173228346
11
0.390314842519685
21
1.2302170078740158
0
LINE
8
BLACK
6
CONTINUOUS
10
0.390314842519685
20
1.2302170078740158
11
0.3895001968503937
21
1.2294023622047243
0
LINE
8
BLACK
6
CONTINUOUS
10
0.3895001968503937
20
1.2294023622047243
11
0.3884357874015748
21
1.2289614566929135
0
LINE
8
BLACK
6
CONTINUOUS
10
0.3884357874015748
20
1.2289614566929135
11
0.3872836614173228
21
1.2289614566929135
0
LINE
8
BLACK
6
CONTINUOUS
10
0.3872836614173228
20
1.2289614566929135
11
0.3862192519685039
21
1.2294023622047243
0
LINE
8
BLACK
6
CONTINUOUS
10
0.3862192519685039
20
1.2294023622047243
11
0.3854046062992126
21
1.2302170078740158
0
LINE
8
BLACK
6
CONTINUOUS
10
0.3854046062992126
20
1.2302170078740158
11
0.3849637007874016
21
1.2312814173228346
0
LINE
8
BLACK
6
CONTINUOUS
10
0.3849637007874016
20
1.2312814173228346
11
0.384906968503937
21
1.2318574803149607
0
LINE
8
BLACK
6
CONTINUOUS
10
0.384906968503937
20
1.2318574803149607
11
0.384906968503937
21
1.2476524015748032
0
LINE
8
BLACK
6
CONTINUOUS
10
0.384906968503937
20
1.2476524015748032
11
0.3728616141732283
21
1.2476524015748032
0
LINE
8
BLACK
6
CONTINUOUS
10
0.3728616141732283
20
1.2476524015748032
11
0.3722855511811023
21
1.2477091338582678
0
LINE
8
BLACK
6
CONTINUOUS
10
0.3722855511811023
20
1.2477091338582678
11
0.3721875590551181
21
1.2477496850393701
0
LINE
8
BLACK
6
CONTINUOUS
10
0.3721875590551181
20
1.2477496850393701
11
0.3720816929133858
21
1.2477572440944882
0
LINE
8
BLACK
6
CONTINUOUS
10
0.3720816929133858
20
1.2477572440944882
11
0.3715411023622047
21
1.2479641338582677
0
LINE
8
BLACK
6
CONTINUOUS
10
0.3715411023622047
20
1.2479641338582677
11
0.3677915748031496
21
1.2498388976377952
0
LINE
8
BLACK
6
CONTINUOUS
10
0.3677915748031496
20
1.2498388976377952
11
0.3675435433070866
21
1.2499949606299212
0
LINE
8
BLACK
6
CONTINUOUS
10
0.3675435433070866
20
1.2499949606299212
11
0.3674716141732283
21
1.2500248031496062
0
LINE
8
BLACK
6
CONTINUOUS
10
0.3674716141732283
20
1.2500248031496062
11
0.3673906299212598
21
1.2500912598425196
0
LINE
8
BLACK
6
CONTINUOUS
10
0.3673906299212598
20
1.2500912598425196
11
0.3673016929133858
21
1.2501472440944881
0
LINE
8
BLACK
6
CONTINUOUS
10
0.3673016929133858
20
1.2501472440944881
11
0.3672505118110236
21
1.2502062204724409
0
LINE
8
BLACK
6
CONTINUOUS
10
0.3672505118110236
20
1.2502062204724409
11
0.3670241732283465
21
1.2503920078740156
0
LINE
8
BLACK
6
CONTINUOUS
10
0.3670241732283465
20
1.2503920078740156
11
0.3651494094488189
21
1.2522667716535434
0
LINE
8
BLACK
6
CONTINUOUS
10
0.3651494094488189
20
1.2522667716535434
11
0.3649636220472441
21
1.2524931102362205
0
LINE
8
BLACK
6
CONTINUOUS
10
0.3649636220472441
20
1.2524931102362205
11
0.3649046456692913
21
1.2525442913385827
0
LINE
8
BLACK
6
CONTINUOUS
10
0.3649046456692913
20
1.2525442913385827
11
0.3648486614173228
21
1.2526332283464567
0
LINE
8
BLACK
6
CONTINUOUS
10
0.3648486614173228
20
1.2526332283464567
11
0.3647822047244094
21
1.2527142125984252
0
LINE
8
BLACK
6
CONTINUOUS
10
0.3647822047244094
20
1.2527142125984252
11
0.3647523622047244
21
1.2527861417322834
0
LINE
8
BLACK
6
CONTINUOUS
10
0.3647523622047244
20
1.2527861417322834
11
0.3645962992125984
21
1.2530341732283465
0
LINE
8
BLACK
6
CONTINUOUS
10
0.3645962992125984
20
1.2530341732283465
11
0.3627215354330708
21
1.2567837007874016
0
LINE
8
BLACK
6
CONTINUOUS
10
0.3627215354330708
20
1.2567837007874016
11
0.3625146456692913
21
1.2573243307086615
0
LINE
8
BLACK
6
CONTINUOUS
10
0.3625146456692913
20
1.2573243307086615
11
0.3625071259842519
21
1.2574301181102361
0
LINE
8
BLACK
6
CONTINUOUS
10
0.3625071259842519
20
1.2574301181102361
11
0.3624665354330708
21
1.2575281496062991
0
LINE
8
BLACK
6
CONTINUOUS
10
0.3624665354330708
20
1.2575281496062991
11
0.3624098031496063
21
1.2581042125984252
0
LINE
8
BLACK
6
CONTINUOUS
10
0.3624098031496063
20
1.2581042125984252
11
0.3624098031496063
21
1.2637285039370079
0
LINE
8
BLACK
6
CONTINUOUS
10
0.3624098031496063
20
1.2637285039370079
11
0.3624665354330708
21
1.2643045669291337
0
LINE
8
BLACK
6
CONTINUOUS
10
0.3624665354330708
20
1.2643045669291337
11
0.3625071259842519
21
1.264402559055118
0
LINE
8
BLACK
6
CONTINUOUS
10
0.3625071259842519
20
1.264402559055118
11
0.3625146456692913
21
1.2645083858267716
0
LINE
8
BLACK
6
CONTINUOUS
10
0.3625146456692913
20
1.2645083858267716
11
0.3627215354330708
21
1.2650490157480314
0
LINE
8
BLACK
6
CONTINUOUS
10
0.3627215354330708
20
1.2650490157480314
11
0.3645962992125984
21
1.2687985433070865
0
LINE
8
BLACK
6
CONTINUOUS
10
0.3645962992125984
20
1.2687985433070865
11
0.3647523622047244
21
1.2690465354330709
0
LINE
8
BLACK
6
CONTINUOUS
10
0.3647523622047244
20
1.2690465354330709
11
0.3647822047244094
21
1.2691185039370079
0
LINE
8
BLACK
6
CONTINUOUS
10
0.3647822047244094
20
1.2691185039370079
11
0.3648486614173228
21
1.2691994488188976
0
LINE
8
BLACK
6
CONTINUOUS
10
0.3648486614173228
20
1.2691994488188976
11
0.3649046456692913
21
1.2692884251968504
0
LINE
8
BLACK
6
CONTINUOUS
10
0.3649046456692913
20
1.2692884251968504
11
0.3649636220472441
21
1.2693395669291339
0
LINE
8
BLACK
6
CONTINUOUS
10
0.3649636220472441
20
1.2693395669291339
11
0.3651494094488189
21
1.2695659448818897
0
LINE
8
BLACK
6
CONTINUOUS
10
0.3651494094488189
20
1.2695659448818897
11
0.3670241732283465
21
1.2714407086614172
0
LINE
8
BLACK
6
CONTINUOUS
10
0.3670241732283465
20
1.2714407086614172
11
0.3672505118110236
21
1.2716264566929134
0
LINE
8
BLACK
6
CONTINUOUS
10
0.3672505118110236
20
1.2716264566929134
11
0.3673016929133858
21
1.2716854724409448
0
LINE
8
BLACK
6
CONTINUOUS
10
0.3673016929133858
20
1.2716854724409448
11
0.3673906299212598
21
1.2717414173228345
0
LINE
8
BLACK
6
CONTINUOUS
10
0.3673906299212598
20
1.2717414173228345
11
0.3674716141732283
21
1.2718079133858267
0
LINE
8
BLACK
6
CONTINUOUS
10
0.3674716141732283
20
1.2718079133858267
11
0.3675435433070866
21
1.2718377165354331
0
LINE
8
BLACK
6
CONTINUOUS
10
0.3675435433070866
20
1.2718377165354331
11
0.3677915748031496
21
1.2719938188976379
0
LINE
8
BLACK
6
CONTINUOUS
10
0.3677915748031496
20
1.2719938188976379
11
0.3715411023622047
21
1.2738685826771654
0
LINE
8
BLACK
6
CONTINUOUS
10
0.3715411023622047
20
1.2738685826771654
11
0.3720816929133858
21
1.2740754724409449
0
LINE
8
BLACK
6
CONTINUOUS
10
0.3720816929133858
20
1.2740754724409449
11
0.3721875590551181
21
1.2740829921259842
0
LINE
8
BLACK
6
CONTINUOUS
10
0.3721875590551181
20
1.2740829921259842
11
0.3722855511811023
21
1.2741235826771653
0
LINE
8
BLACK
6
CONTINUOUS
10
0.3722855511811023
20
1.2741235826771653
11
0.3728616141732283
21
1.2741803149606299
0
LINE
8
BLACK
6
CONTINUOUS
10
0.3728616141732283
20
1.2741803149606299
11
0.3878597244094488
21
1.2741803149606299
0
LINE
8
BLACK
6
CONTINUOUS
10
0.3878597244094488
20
1.2741803149606299
11
0.3884357874015748
21
1.2741235826771653
0
LINE
8
BLACK
6
CONTINUOUS
10
0.3708611811023622
20
1.266926062992126
11
0.3696640551181102
21
1.2657289370078739
0
LINE
8
BLACK
6
CONTINUOUS
10
0.3696640551181102
20
1.2657289370078739
11
0.3683153149606299
21
1.2630314566929133
0
LINE
8
BLACK
6
CONTINUOUS
10
0.3683153149606299
20
1.2630314566929133
11
0.3683153149606299
21
1.2588012598425196
0
LINE
8
BLACK
6
CONTINUOUS
10
0.3683153149606299
20
1.2588012598425196
11
0.3696640551181102
21
1.2561037795275589
0
LINE
8
BLACK
6
CONTINUOUS
10
0.3696640551181102
20
1.2561037795275589
11
0.3708611811023622
21
1.2549066535433071
0
LINE
8
BLACK
6
CONTINUOUS
10
0.3708611811023622
20
1.2549066535433071
11
0.3735586614173228
21
1.2535579133858268
0
LINE
8
BLACK
6
CONTINUOUS
10
0.3735586614173228
20
1.2535579133858268
11
0.384906968503937
21
1.2535579133858268
0
LINE
8
BLACK
6
CONTINUOUS
10
0.384906968503937
20
1.2535579133858268
11
0.384906968503937
21
1.2682748031496063
0
LINE
8
BLACK
6
CONTINUOUS
10
0.384906968503937
20
1.2682748031496063
11
0.3735586614173228
21
1.2682748031496063
0
LINE
8
BLACK
6
CONTINUOUS
10
0.3735586614173228
20
1.2682748031496063
11
0.3708611811023622
21
1.266926062992126
0
LINE
8
BLACK
6
CONTINUOUS
10
0.8901766535433071
20
1.4165364173228345
11
0.8909912992125985
21
1.4157217716535433
0
LINE
8
BLACK
6
CONTINUOUS
10
0.8909912992125985
20
1.4157217716535433
11
0.8914322047244094
21
1.4146573622047243
0
LINE
8
BLACK
6
CONTINUOUS
10
0.8914322047244094
20
1.4146573622047243
11
0.891488937007874
21
1.4140812992125984
0
LINE
8
BLACK
6
CONTINUOUS
10
0.891488937007874
20
1.4140812992125984
11
0.891488937007874
21
1.3962165354330709
0
LINE
8
BLACK
6
CONTINUOUS
10
0.891488937007874
20
1.3962165354330709
11
0.9015898818897637
21
1.4050548818897637
0
LINE
8
BLACK
6
CONTINUOUS
10
0.9015898818897637
20
1.4050548818897637
11
0.9018388582677165
21
1.405232874015748
0
LINE
8
BLACK
6
CONTINUOUS
10
0.9018388582677165
20
1.405232874015748
11
0.9018938188976378
21
1.4052878346456692
0
LINE
8
BLACK
6
CONTINUOUS
10
0.9018938188976378
20
1.4052878346456692
11
0.901945905511811
21
1.4053094094488188
0
LINE
8
BLACK
6
CONTINUOUS
10
0.901945905511811
20
1.4053094094488188
11
0.9020607874015748
21
1.4053915354330708
0
LINE
8
BLACK
6
CONTINUOUS
10
0.9020607874015748
20
1.4053915354330708
11
0.902515
21
1.4055451181102361
0
LINE
8
BLACK
6
CONTINUOUS
10
0.902515
20
1.4055451181102361
11
0.9029582283464567
21
1.4057287401574803
0
LINE
8
BLACK
6
CONTINUOUS
10
0.9029582283464567
20
1.4057287401574803
11
0.903057874015748
21
1.4057287401574803
0
LINE
8
BLACK
6
CONTINUOUS
10
0.903057874015748
20
1.4057287401574803
11
0.9031521653543307
21
1.4057606299212597
0
LINE
8
BLACK
6
CONTINUOUS
10
0.9031521653543307
20
1.4057606299212597
11
0.9036306299212599
21
1.4057287401574803
0
LINE
8
BLACK
6
CONTINUOUS
10
0.9036306299212599
20
1.4057287401574803
11
0.9041103543307086
21
1.4057287401574803
0
LINE
8
BLACK
6
CONTINUOUS
10
0.9041103543307086
20
1.4057287401574803
11
0.9042023228346456
21
1.4056906299212597
0
LINE
8
BLACK
6
CONTINUOUS
10
0.9042023228346456
20
1.4056906299212597
11
0.9043016929133858
21
1.4056840157480315
0
LINE
8
BLACK
6
CONTINUOUS
10
0.9043016929133858
20
1.4056840157480315
11
0.904731811023622
21
1.4054712992125984
0
LINE
8
BLACK
6
CONTINUOUS
10
0.904731811023622
20
1.4054712992125984
11
0.9051747637795275
21
1.4052878346456692
0
LINE
8
BLACK
6
CONTINUOUS
10
0.9051747637795275
20
1.4052878346456692
11
0.9052450787401575
21
1.4052174803149606
0
LINE
8
BLACK
6
CONTINUOUS
10
0.9052450787401575
20
1.4052174803149606
11
0.9053344488188976
21
1.4051733070866141
0
LINE
8
BLACK
6
CONTINUOUS
10
0.9053344488188976
20
1.4051733070866141
11
0.9056503937007874
21
1.4048121653543306
0
LINE
8
BLACK
6
CONTINUOUS
10
0.9056503937007874
20
1.4048121653543306
11
0.9059894094488189
21
1.404473188976378
0
LINE
8
BLACK
6
CONTINUOUS
10
0.9059894094488189
20
1.404473188976378
11
0.9060275196850394
21
1.4043811811023621
0
LINE
8
BLACK
6
CONTINUOUS
10
0.9060275196850394
20
1.4043811811023621
11
0.9060931102362204
21
1.4043062204724408
0
LINE
8
BLACK
6
CONTINUOUS
10
0.9060931102362204
20
1.4043062204724408
11
0.9062466929133858
21
1.403851968503937
0
LINE
8
BLACK
6
CONTINUOUS
10
0.9062466929133858
20
1.403851968503937
11
0.9064303149606299
21
1.4034087795275589
0
LINE
8
BLACK
6
CONTINUOUS
10
0.9064303149606299
20
1.4034087795275589
11
0.9064441338582677
21
1.4032681889763778
0
LINE
8
BLACK
6
CONTINUOUS
10
0.9064441338582677
20
1.4032681889763778
11
0.9064622047244094
21
1.4032148425196851
0
LINE
8
BLACK
6
CONTINUOUS
10
0.9064622047244094
20
1.4032148425196851
11
0.9064570078740157
21
1.4031373622047243
0
LINE
8
BLACK
6
CONTINUOUS
10
0.9064570078740157
20
1.4031373622047243
11
0.9064870472440945
21
1.4028327165354331
0
LINE
8
BLACK
6
CONTINUOUS
10
0.9064870472440945
20
1.4028327165354331
11
0.9064870472440945
21
1.3979054724409448
0
LINE
8
BLACK
6
CONTINUOUS
10
0.9064870472440945
20
1.3979054724409448
11
0.9078357874015748
21
1.3952079921259841
0
LINE
8
BLACK
6
CONTINUOUS
10
0.9078357874015748
20
1.3952079921259841
11
0.9090329133858267
21
1.3940108661417323
0
LINE
8
BLACK
6
CONTINUOUS
10
0.9090329133858267
20
1.3940108661417323
11
0.9117303937007873
21
1.392662125984252
0
LINE
8
BLACK
6
CONTINUOUS
10
0.9117303937007873
20
1.392662125984252
11
0.9197101181102362
21
1.392662125984252
0
LINE
8
BLACK
6
CONTINUOUS
10
0.9197101181102362
20
1.392662125984252
11
0.9224075984251968
21
1.3940108661417323
0
LINE
8
BLACK
6
CONTINUOUS
10
0.9224075984251968
20
1.3940108661417323
11
0.9236047637795275
21
1.3952079921259841
0
LINE
8
BLACK
6
CONTINUOUS
10
0.9236047637795275
20
1.3952079921259841
11
0.9249535039370078
21
1.3979054724409448
0
LINE
8
BLACK
6
CONTINUOUS
10
0.9249535039370078
20
1.3979054724409448
11
0.9249535039370078
21
1.4077599606299211
0
LINE
8
BLACK
6
CONTINUOUS
10
0.9249535039370078
20
1.4077599606299211
11
0.9236047637795275
21
1.410457401574803
0
LINE
8
BLACK
6
CONTINUOUS
10
0.9236047637795275
20
1.410457401574803
11
0.9220688188976378
21
1.4119933464566929
0
LINE
8
BLACK
6
CONTINUOUS
10
0.9220688188976378
20
1.4119933464566929
11
0.9217015748031496
21
1.4124408267716535
0
LINE
8
BLACK
6
CONTINUOUS
10
0.9217015748031496
20
1.4124408267716535
11
0.9212606692913385
21
1.4135052362204723
0
LINE
8
BLACK
6
CONTINUOUS
10
0.9212606692913385
20
1.4135052362204723
11
0.9212606692913385
21
1.4146573228346457
0
LINE
8
BLACK
6
CONTINUOUS
10
0.9212606692913385
20
1.4146573228346457
11
0.9217015354330709
21
1.4157217322834645
0
LINE
8
BLACK
6
CONTINUOUS
10
0.9217015354330709
20
1.4157217322834645
11
0.922516220472441
21
1.4165364173228345
0
LINE
8
BLACK
6
CONTINUOUS
10
0.922516220472441
20
1.4165364173228345
11
0.9235806299212598
21
1.4169773228346456
0
LINE
8
BLACK
6
CONTINUOUS
10
0.9235806299212598
20
1.4169773228346456
11
0.9247327165354331
21
1.4169773228346456
0
LINE
8
BLACK
6
CONTINUOUS
10
0.9247327165354331
20
1.4169773228346456
11
0.9257971259842519
21
1.4165364566929133
0
LINE
8
BLACK
6
CONTINUOUS
10
0.9257971259842519
20
1.4165364566929133
11
0.9262445669291338
21
1.4161692519685039
0
LINE
8
BLACK
6
CONTINUOUS
10
0.9262445669291338
20
1.4161692519685039
11
0.9281193700787401
21
1.4142944881889763
0
LINE
8
BLACK
6
CONTINUOUS
10
0.9281193700787401
20
1.4142944881889763
11
0.9283051181102362
21
1.4140681102362205
0
LINE
8
BLACK
6
CONTINUOUS
10
0.9283051181102362
20
1.4140681102362205
11
0.9283641732283464
21
1.4140169291338582
0
LINE
8
BLACK
6
CONTINUOUS
10
0.9283641732283464
20
1.4140169291338582
11
0.9284201574803149
21
1.4139279527559054
0
LINE
8
BLACK
6
CONTINUOUS
10
0.9284201574803149
20
1.4139279527559054
11
0.9284866141732283
21
1.4138470078740157
0
LINE
8
BLACK
6
CONTINUOUS
10
0.9284866141732283
20
1.4138470078740157
11
0.9285164173228346
21
1.4137750393700788
0
LINE
8
BLACK
6
CONTINUOUS
10
0.9285164173228346
20
1.4137750393700788
11
0.9286725196850394
21
1.4135270472440944
0
LINE
8
BLACK
6
CONTINUOUS
10
0.9286725196850394
20
1.4135270472440944
11
0.9305472834645669
21
1.4097775196850393
0
LINE
8
BLACK
6
CONTINUOUS
10
0.9305472834645669
20
1.4097775196850393
11
0.9307541732283464
21
1.4092369291338582
0
LINE
8
BLACK
6
CONTINUOUS
10
0.9307541732283464
20
1.4092369291338582
11
0.9307616929133858
21
1.4091310236220471
0
LINE
8
BLACK
6
CONTINUOUS
10
0.9307616929133858
20
1.4091310236220471
11
0.9308022834645669
21
1.4090330708661416
0
LINE
8
BLACK
6
CONTINUOUS
10
0.9308022834645669
20
1.4090330708661416
11
0.9308590157480314
21
1.4084570078740157
0
LINE
8
BLACK
6
CONTINUOUS
10
0.9308590157480314
20
1.4084570078740157
11
0.9308590157480314
21
1.3972084251968504
0
LINE
8
BLACK
6
CONTINUOUS
10
0.9308590157480314
20
1.3972084251968504
11
0.9308022834645669
21
1.3966323622047243
0
LINE
8
BLACK
6
CONTINUOUS
10
0.9308022834645669
20
1.3966323622047243
11
0.9307616929133858
21
1.39653437007874
0
LINE
8
BLACK
6
CONTINUOUS
10
0.9307616929133858
20
1.39653437007874
11
0.9307541732283464
21
1.3964285039370079
0
LINE
8
BLACK
6
CONTINUOUS
10
0.9307541732283464
20
1.3964285039370079
11
0.9305472834645669
21
1.3958879133858269
0
LINE
8
BLACK
6
CONTINUOUS
10
0.9305472834645669
20
1.3958879133858269
11
0.9286725196850394
21
1.3921383858267715
0
LINE
8
BLACK
6
CONTINUOUS
10
0.9286725196850394
20
1.3921383858267715
11
0.9285164173228346
21
1.3918903543307086
0
LINE
8
BLACK
6
CONTINUOUS
10
0.9285164173228346
20
1.3918903543307086
11
0.9284866141732283
21
1.3918184251968504
0
LINE
8
BLACK
6
CONTINUOUS
10
0.9284866141732283
20
1.3918184251968504
11
0.9284201574803149
21
1.3917374409448819
0
LINE
8
BLACK
6
CONTINUOUS
10
0.9284201574803149
20
1.3917374409448819
11
0.9283641732283464
21
1.3916485039370079
0
LINE
8
BLACK
6
CONTINUOUS
10
0.9283641732283464
20
1.3916485039370079
11
0.9283051181102362
21
1.3915972834645669
0
LINE
8
BLACK
6
CONTINUOUS
10
0.9283051181102362
20
1.3915972834645669
11
0.9281193700787401
21
1.3913709448818898
0
LINE
8
BLACK
6
CONTINUOUS
10
0.9281193700787401
20
1.3913709448818898
11
0.9262445669291338
21
1.3894961811023623
0
LINE
8
BLACK
6
CONTINUOUS
10
0.9262445669291338
20
1.3894961811023623
11
0.9260182283464566
21
1.3893104330708661
0
LINE
8
BLACK
6
CONTINUOUS
10
0.9260182283464566
20
1.3893104330708661
11
0.9259670866141733
21
1.3892514566929133
0
LINE
8
BLACK
6
CONTINUOUS
10
0.9259670866141733
20
1.3892514566929133
11
0.9258781496062992
21
1.3891954724409448
0
LINE
8
BLACK
6
CONTINUOUS
10
0.9258781496062992
20
1.3891954724409448
11
0.9257971259842519
21
1.3891289763779526
0
LINE
8
BLACK
6
CONTINUOUS
10
0.9257971259842519
20
1.3891289763779526
11
0.9257250787401574
21
1.3890991338582677
0
LINE
8
BLACK
6
CONTINUOUS
10
0.9257250787401574
20
1.3890991338582677
11
0.9254772047244094
21
1.3889431102362204
0
LINE
8
BLACK
6
CONTINUOUS
10
0.9254772047244094
20
1.3889431102362204
11
0.9217276771653543
21
1.3870683464566929
0
LINE
8
BLACK
6
CONTINUOUS
10
0.9217276771653543
20
1.3870683464566929
11
0.9211870472440945
21
1.3868614566929134
0
LINE
8
BLACK
6
CONTINUOUS
10
0.9211870472440945
20
1.3868614566929134
11
0.9210812204724409
21
1.3868539370078741
0
LINE
8
BLACK
6
CONTINUOUS
10
0.9210812204724409
20
1.3868539370078741
11
0.9209832283464566
21
1.386813346456693
0
LINE
8
BLACK
6
CONTINUOUS
10
0.9209832283464566
20
1.386813346456693
11
0.9204071653543306
21
1.3867566141732284
0
LINE
8
BLACK
6
CONTINUOUS
10
0.9204071653543306
20
1.3867566141732284
11
0.9110333464566929
21
1.3867566141732284
0
LINE
8
BLACK
6
CONTINUOUS
10
0.9110333464566929
20
1.3867566141732284
11
0.9104572834645669
21
1.386813346456693
0
LINE
8
BLACK
6
CONTINUOUS
10
0.9104572834645669
20
1.386813346456693
11
0.9103592913385826
21
1.3868538976377953
0
LINE
8
BLACK
6
CONTINUOUS
10
0.9103592913385826
20
1.3868538976377953
11
0.9102534251968504
21
1.3868614566929134
0
LINE
8
BLACK
6
CONTINUOUS
10
0.9102534251968504
20
1.3868614566929134
11
0.9097128346456693
21
1.3870683464566929
0
LINE
8
BLACK
6
CONTINUOUS
10
0.9097128346456693
20
1.3870683464566929
11
0.9059633070866141
21
1.3889431102362204
0
LINE
8
BLACK
6
CONTINUOUS
10
0.9059633070866141
20
1.3889431102362204
11
0.9057152755905512
21
1.3890991732283464
0
LINE
8
BLACK
6
CONTINUOUS
10
0.9057152755905512
20
1.3890991732283464
11
0.9056433464566929
21
1.3891290157480314
0
LINE
8
BLACK
6
CONTINUOUS
10
0.9056433464566929
20
1.3891290157480314
11
0.9055623622047244
21
1.3891954724409448
0
LINE
8
BLACK
6
CONTINUOUS
10
0.9055623622047244
20
1.3891954724409448
11
0.9054734251968504
21
1.3892514566929133
0
LINE
8
BLACK
6
CONTINUOUS
10
0.9054734251968504
20
1.3892514566929133
11
0.9054222440944881
21
1.3893104330708661
0
LINE
8
BLACK
6
CONTINUOUS
10
0.9054222440944881
20
1.3893104330708661
11
0.9051959055118109
21
1.3894962204724408
0
LINE
8
BLACK
6
CONTINUOUS
10
0.9051959055118109
20
1.3894962204724408
11
0.9033211417322834
21
1.3913709842519684
0
LINE
8
BLACK
6
CONTINUOUS
10
0.9033211417322834
20
1.3913709842519684
11
0.9031353543307087
21
1.3915973228346457
0
LINE
8
BLACK
6
CONTINUOUS
10
0.9031353543307087
20
1.3915973228346457
11
0.9030763779527559
21
1.3916485039370079
0
LINE
8
BLACK
6
CONTINUOUS
10
0.9030763779527559
20
1.3916485039370079
11
0.9030203937007873
21
1.3917374409448819
0
LINE
8
BLACK
6
CONTINUOUS
10
0.9030203937007873
20
1.3917374409448819
11
0.902953937007874
21
1.3918184251968504
0
LINE
8
BLACK
6
CONTINUOUS
10
0.902953937007874
20
1.3918184251968504
11
0.902924094488189
21
1.3918903543307086
0
LINE
8
BLACK
6
CONTINUOUS
10
0.902924094488189
20
1.3918903543307086
11
0.902768031496063
21
1.3921383858267715
0
LINE
8
BLACK
6
CONTINUOUS
10
0.902768031496063
20
1.3921383858267715
11
0.9008932677165354
21
1.3958879133858269
0
LINE
8
BLACK
6
CONTINUOUS
10
0.9008932677165354
20
1.3958879133858269
11
0.9006896062992126
21
1.3964200787401575
0
LINE
8
BLACK
6
CONTINUOUS
10
0.9006896062992126
20
1.3964200787401575
11
0.8904805905511811
21
1.3874872047244093
0
LINE
8
BLACK
6
CONTINUOUS
10
0.8904805905511811
20
1.3874872047244093
11
0.8902315748031496
21
1.3873091732283465
0
LINE
8
BLACK
6
CONTINUOUS
10
0.8902315748031496
20
1.3873091732283465
11
0.8901766535433071
21
1.3872542519685038
0
LINE
8
BLACK
6
CONTINUOUS
10
0.8901766535433071
20
1.3872542519685038
11
0.8901245275590551
21
1.3872326377952755
0
LINE
8
BLACK
6
CONTINUOUS
10
0.8901245275590551
20
1.3872326377952755
11
0.8900096850393701
21
1.3871505511811024
0
LINE
8
BLACK
6
CONTINUOUS
10
0.8900096850393701
20
1.3871505511811024
11
0.8895554330708662
21
1.3869969291338582
0
LINE
8
BLACK
6
CONTINUOUS
10
0.8895554330708662
20
1.3869969291338582
11
0.8891122440944882
21
1.386813346456693
0
LINE
8
BLACK
6
CONTINUOUS
10
0.8891122440944882
20
1.386813346456693
11
0.8890125984251969
21
1.386813346456693
0
LINE
8
BLACK
6
CONTINUOUS
10
0.8890125984251969
20
1.386813346456693
11
0.8889183070866141
21
1.3867814566929133
0
LINE
8
BLACK
6
CONTINUOUS
10
0.8889183070866141
20
1.3867814566929133
11
0.888439842519685
21
1.386813346456693
0
LINE
8
BLACK
6
CONTINUOUS
10
0.888439842519685
20
1.386813346456693
11
0.8879601181102362
21
1.386813346456693
0
LINE
8
BLACK
6
CONTINUOUS
10
0.8879601181102362
20
1.386813346456693
11
0.8878681102362205
21
1.3868514173228346
0
LINE
8
BLACK
6
CONTINUOUS
10
0.8878681102362205
20
1.3868514173228346
11
0.8877687795275591
21
1.3868580708661418
0
LINE
8
BLACK
6
CONTINUOUS
10
0.8877687795275591
20
1.3868580708661418
11
0.8873386220472441
21
1.3870707480314961
0
LINE
8
BLACK
6
CONTINUOUS
10
0.8873386220472441
20
1.3870707480314961
11
0.8868957086614173
21
1.3872542519685038
0
LINE
8
BLACK
6
CONTINUOUS
10
0.8868957086614173
20
1.3872542519685038
11
0.8868253543307086
21
1.3873245669291339
0
LINE
8
BLACK
6
CONTINUOUS
10
0.8868253543307086
20
1.3873245669291339
11
0.8867360236220472
21
1.3873687795275591
0
LINE
8
BLACK
6
CONTINUOUS
10
0.8867360236220472
20
1.3873687795275591
11
0.8864200393700787
21
1.3877298818897637
0
LINE
8
BLACK
6
CONTINUOUS
10
0.8864200393700787
20
1.3877298818897637
11
0.886081062992126
21
1.3880688976377953
0
LINE
8
BLACK
6
CONTINUOUS
10
0.886081062992126
20
1.3880688976377953
11
0.8860429133858267
21
1.3881608661417322
0
LINE
8
BLACK
6
CONTINUOUS
10
0.8860429133858267
20
1.3881608661417322
11
0.8859773622047243
21
1.3882358661417322
0
LINE
8
BLACK
6
CONTINUOUS
10
0.8859773622047243
20
1.3882358661417322
11
0.8858237401574803
21
1.3886900787401575
0
LINE
8
BLACK
6
CONTINUOUS
10
0.8858237401574803
20
1.3886900787401575
11
0.885640157480315
21
1.3891333070866141
0
LINE
8
BLACK
6
CONTINUOUS
10
0.885640157480315
20
1.3891333070866141
11
0.8856262992125984
21
1.3892738582677164
0
LINE
8
BLACK
6
CONTINUOUS
10
0.8856262992125984
20
1.3892738582677164
11
0.8856082677165354
21
1.3893272440944882
0
LINE
8
BLACK
6
CONTINUOUS
10
0.8856082677165354
20
1.3893272440944882
11
0.8856134251968504
21
1.38940468503937
0
LINE
8
BLACK
6
CONTINUOUS
10
0.8856134251968504
20
1.38940468503937
11
0.8855834251968504
21
1.3897093700787402
0
LINE
8
BLACK
6
CONTINUOUS
10
0.8855834251968504
20
1.3897093700787402
11
0.8855834251968504
21
1.4140812992125984
0
LINE
8
BLACK
6
CONTINUOUS
10
0.8855834251968504
20
1.4140812992125984
11
0.885640157480315
21
1.4146573622047243
0
LINE
8
BLACK
6
CONTINUOUS
10
0.885640157480315
20
1.4146573622047243
11
0.886081062992126
21
1.4157217716535433
0
LINE
8
BLACK
6
CONTINUOUS
10
0.886081062992126
20
1.4157217716535433
11
0.8868957086614173
21
1.4165364173228345
0
LINE
8
BLACK
6
CONTINUOUS
10
0.8868957086614173
20
1.4165364173228345
11
0.8879601181102362
21
1.4169773228346456
0
LINE
8
BLACK
6
CONTINUOUS
10
0.8879601181102362
20
1.4169773228346456
11
0.8891122440944882
21
1.4169773228346456
0
LINE
8
BLACK
6
CONTINUOUS
10
0.8891122440944882
20
1.4169773228346456
11
0.8901766535433071
21
1.4165364173228345
0
LINE
8
BLACK
6
CONTINUOUS
10
0.8894699212598425
20
1.4525030708661417
11
0.92884
21
1.4393797244094488
0
LINE
8
BLACK
6
CONTINUOUS
10
0.92884
20
1.4393797244094488
11
0.9293685433070866
21
1.4391437401574803
0
LINE
8
BLACK
6
CONTINUOUS
10
0.9293685433070866
20
1.4391437401574803
11
0.929527874015748
21
1.4390055118110237
0
LINE
8
BLACK
6
CONTINUOUS
10
0.929527874015748
20
1.4390055118110237
11
0.9297166141732284
21
1.4389111811023623
0
LINE
8
BLACK
6
CONTINUOUS
10
0.9297166141732284
20
1.4389111811023623
11
0.9299592913385827
21
1.4386313385826772
0
LINE
8
BLACK
6
CONTINUOUS
10
0.9299592913385827
20
1.4386313385826772
11
0.9302388976377952
21
1.4383888582677165
0
LINE
8
BLACK
6
CONTINUOUS
10
0.9302388976377952
20
1.4383888582677165
11
0.930333188976378
21
1.4382001968503937
0
LINE
8
BLACK
6
CONTINUOUS
10
0.930333188976378
20
1.4382001968503937
11
0.9304714960629921
21
1.4380407874015748
0
LINE
8
BLACK
6
CONTINUOUS
10
0.9304714960629921
20
1.4380407874015748
11
0.9305885826771654
21
1.4376894881889764
0
LINE
8
BLACK
6
CONTINUOUS
10
0.9305885826771654
20
1.4376894881889764
11
0.9307541338582677
21
1.4373584251968503
0
LINE
8
BLACK
6
CONTINUOUS
10
0.9307541338582677
20
1.4373584251968503
11
0.9307690551181103
21
1.4371479921259842
0
LINE
8
BLACK
6
CONTINUOUS
10
0.9307690551181103
20
1.4371479921259842
11
0.9308358267716536
21
1.4369477952755905
0
LINE
8
BLACK
6
CONTINUOUS
10
0.9308358267716536
20
1.4369477952755905
11
0.9308095669291339
21
1.4365785039370078
0
LINE
8
BLACK
6
CONTINUOUS
10
0.9308095669291339
20
1.4365785039370078
11
0.9308358267716536
21
1.4362092125984252
0
LINE
8
BLACK
6
CONTINUOUS
10
0.9308358267716536
20
1.4362092125984252
11
0.9307690551181103
21
1.4360089763779527
0
LINE
8
BLACK
6
CONTINUOUS
10
0.9307690551181103
20
1.4360089763779527
11
0.9307541338582677
21
1.4357985826771653
0
LINE
8
BLACK
6
CONTINUOUS
10
0.9307541338582677
20
1.4357985826771653
11
0.9305885826771654
21
1.4354674803149605
0
LINE
8
BLACK
6
CONTINUOUS
10
0.9305885826771654
20
1.4354674803149605
11
0.9304714960629921
21
1.4351162204724408
0
LINE
8
BLACK
6
CONTINUOUS
10
0.9304714960629921
20
1.4351162204724408
11
0.930333188976378
21
1.4349567716535432
0
LINE
8
BLACK
6
CONTINUOUS
10
0.930333188976378
20
1.4349567716535432
11
0.9302388976377952
21
1.4347681496062992
0
LINE
8
BLACK
6
CONTINUOUS
10
0.9302388976377952
20
1.4347681496062992
11
0.9299592913385827
21
1.4345256299212599
0
LINE
8
BLACK
6
CONTINUOUS
10
0.9299592913385827
20
1.4345256299212599
11
0.9297166141732284
21
1.4342458267716536
0
LINE
8
BLACK
6
CONTINUOUS
10
0.9297166141732284
20
1.4342458267716536
11
0.929527874015748
21
1.4341514566929134
0
LINE
8
BLACK
6
CONTINUOUS
10
0.929527874015748
20
1.4341514566929134
11
0.9293685433070866
21
1.4340132677165354
0
LINE
8
BLACK
6
CONTINUOUS
10
0.9293685433070866
20
1.4340132677165354
11
0.92884
21
1.4337772834645668
0
LINE
8
BLACK
6
CONTINUOUS
10
0.92884
20
1.4337772834645668
11
0.8894699212598425
21
1.4206539370078739
0
LINE
8
BLACK
6
CONTINUOUS
10
0.8894699212598425
20
1.4206539370078739
11
0.8889054724409449
21
1.4205255905511811
0
LINE
8
BLACK
6
CONTINUOUS
10
0.8889054724409449
20
1.4205255905511811
11
0.8877562598425197
21
1.4206072834645669
0
LINE
8
BLACK
6
CONTINUOUS
10
0.8877562598425197
20
1.4206072834645669
11
0.8867258267716536
21
1.4211224803149607
0
LINE
8
BLACK
6
CONTINUOUS
10
0.8867258267716536
20
1.4211224803149607
11
0.8859709448818898
21
1.4219928346456692
0
LINE
8
BLACK
6
CONTINUOUS
10
0.8859709448818898
20
1.4219928346456692
11
0.8856066141732283
21
1.4230858661417323
0
LINE
8
BLACK
6
CONTINUOUS
10
0.8856066141732283
20
1.4230858661417323
11
0.8856883070866142
21
1.4242350787401574
0
LINE
8
BLACK
6
CONTINUOUS
10
0.8856883070866142
20
1.4242350787401574
11
0.8862035039370079
21
1.4252655118110236
0
LINE
8
BLACK
6
CONTINUOUS
10
0.8862035039370079
20
1.4252655118110236
11
0.8870738582677166
21
1.4260203937007874
0
LINE
8
BLACK
6
CONTINUOUS
10
0.8870738582677166
20
1.4260203937007874
11
0.8876024409448818
21
1.4262563779527559
0
LINE
8
BLACK
6
CONTINUOUS
10
0.8876024409448818
20
1.4262563779527559
11
0.9185688188976378
21
1.4365785039370078
0
LINE
8
BLACK
6
CONTINUOUS
10
0.9185688188976378
20
1.4365785039370078
11
0.8876024409448818
21
1.4469006299212599
0
LINE
8
BLACK
6
CONTINUOUS
10
0.8876024409448818
20
1.4469006299212599
11
0.8870738582677166
21
1.4471366141732283
0
LINE
8
BLACK
6
CONTINUOUS
10
0.8870738582677166
20
1.4471366141732283
11
0.8862035039370079
21
1.4478914960629921
0
LINE
8
BLACK
6
CONTINUOUS
10
0.8862035039370079
20
1.4478914960629921
11
0.8856883070866142
21
1.4489219291338582
0
LINE
8
BLACK
6
CONTINUOUS
10
0.8856883070866142
20
1.4489219291338582
11
0.8856066141732283
21
1.4500711417322834
0
LINE
8
BLACK
6
CONTINUOUS
10
0.8856066141732283
20
1.4500711417322834
11
0.8859709448818898
21
1.4511641732283465
0
LINE
8
BLACK
6
CONTINUOUS
10
0.8859709448818898
20
1.4511641732283465
11
0.8867258267716536
21
1.4520345275590552
0
LINE
8
BLACK
6
CONTINUOUS
10
0.8867258267716536
20
1.4520345275590552
11
0.8877562598425197
21
1.4525497244094487
0
LINE
8
BLACK
6
CONTINUOUS
10
0.8877562598425197
20
1.4525497244094487
11
0.8889054724409449
21
1.4526314173228345
0
LINE
8
BLACK
6
CONTINUOUS
10
0.8889054724409449
20
1.4526314173228345
11
0.8894699212598425
21
1.4525030708661417
0
LINE
8
BLACK
6
CONTINUOUS
10
0.8901766535433071
20
1.4877775196850394
11
0.8909912992125985
21
1.4869628740157479
0
LINE
8
BLACK
6
CONTINUOUS
10
0.8909912992125985
20
1.4869628740157479
11
0.8914322047244094
21
1.4858984645669291
0
LINE
8
BLACK
6
CONTINUOUS
10
0.8914322047244094
20
1.4858984645669291
11
0.891488937007874
21
1.4853224015748032
0
LINE
8
BLACK
6
CONTINUOUS
10
0.891488937007874
20
1.4853224015748032
11
0.891488937007874
21
1.4674576377952755
0
LINE
8
BLACK
6
CONTINUOUS
10
0.891488937007874
20
1.4674576377952755
11
0.9015898818897637
21
1.4762959842519685
0
LINE
8
BLACK
6
CONTINUOUS
10
0.9015898818897637
20
1.4762959842519685
11
0.9018388582677165
21
1.4764739763779526
0
LINE
8
BLACK
6
CONTINUOUS
10
0.9018388582677165
20
1.4764739763779526
11
0.9018938188976378
21
1.476528937007874
0
LINE
8
BLACK
6
CONTINUOUS
10
0.9018938188976378
20
1.476528937007874
11
0.901945905511811
21
1.4765505118110236
0
LINE
8
BLACK
6
CONTINUOUS
10
0.901945905511811
20
1.4765505118110236
11
0.9020607874015748
21
1.4766326377952756
0
LINE
8
BLACK
6
CONTINUOUS
10
0.9020607874015748
20
1.4766326377952756
11
0.902515
21
1.4767862204724409
0
LINE
8
BLACK
6
CONTINUOUS
10
0.902515
20
1.4767862204724409
11
0.9029582283464567
21
1.4769698425196851
0
LINE
8
BLACK
6
CONTINUOUS
10
0.9029582283464567
20
1.4769698425196851
11
0.903057874015748
21
1.4769698425196851
0
LINE
8
BLACK
6
CONTINUOUS
10
0.903057874015748
20
1.4769698425196851
11
0.9031521653543307
21
1.4770017322834645
0
LINE
8
BLACK
6
CONTINUOUS
10
0.9031521653543307
20
1.4770017322834645
11
0.9036306299212599
21
1.4769698425196851
0
LINE
8
BLACK
6
CONTINUOUS
10
0.9036306299212599
20
1.4769698425196851
11
0.9041103543307086
21
1.4769698425196851
0
LINE
8
BLACK
6
CONTINUOUS
10
0.9041103543307086
20
1.4769698425196851
11
0.9042023228346456
21
1.4769317322834645
0
LINE
8
BLACK
6
CONTINUOUS
10
0.9042023228346456
20
1.4769317322834645
11
0.9043016929133858
21
1.4769251181102361
0
LINE
8
BLACK
6
CONTINUOUS
10
0.9043016929133858
20
1.4769251181102361
11
0.904731811023622
21
1.4767124015748032
0
LINE
8
BLACK
6
CONTINUOUS
10
0.904731811023622
20
1.4767124015748032
11
0.9051747637795275
21
1.476528937007874
0
LINE
8
BLACK
6
CONTINUOUS
10
0.9051747637795275
20
1.476528937007874
11
0.9052450787401575
21
1.4764585826771652
0
LINE
8
BLACK
6
CONTINUOUS
10
0.9052450787401575
20
1.4764585826771652
11
0.9053344488188976
21
1.476414409448819
0
LINE
8
BLACK
6
CONTINUOUS
10
0.9053344488188976
20
1.476414409448819
11
0.9056503937007874
21
1.4760532677165354
0
LINE
8
BLACK
6
CONTINUOUS
10
0.9056503937007874
20
1.4760532677165354
11
0.9059894094488189
21
1.4757142913385826
0
LINE
8
BLACK
6
CONTINUOUS
10
0.9059894094488189
20
1.4757142913385826
11
0.9060275196850394
21
1.4756222834645669
0
LINE
8
BLACK
6
CONTINUOUS
10
0.9060275196850394
20
1.4756222834645669
11
0.9060931102362204
21
1.4755473228346456
0
LINE
8
BLACK
6
CONTINUOUS
10
0.9060931102362204
20
1.4755473228346456
11
0.9062466929133858
21
1.4750930708661416
0
LINE
8
BLACK
6
CONTINUOUS
10
0.9062466929133858
20
1.4750930708661416
11
0.9064303149606299
21
1.4746498818897638
0
LINE
8
BLACK
6
CONTINUOUS
10
0.9064303149606299
20
1.4746498818897638
11
0.9064441338582677
21
1.4745092913385827
0
LINE
8
BLACK
6
CONTINUOUS
10
0.9064441338582677
20
1.4745092913385827
11
0.9064622047244094
21
1.4744559448818897
0
LINE
8
BLACK
6
CONTINUOUS
10
0.9064622047244094
20
1.4744559448818897
11
0.9064570078740157
21
1.4743784645669291
0
LINE
8
BLACK
6
CONTINUOUS
10
0.9064570078740157
20
1.4743784645669291
11
0.9064870472440945
21
1.4740738188976377
0
LINE
8
BLACK
6
CONTINUOUS
10
0.9064870472440945
20
1.4740738188976377
11
0.9064870472440945
21
1.4691465748031496
0
LINE
8
BLACK
6
CONTINUOUS
10
0.9064870472440945
20
1.4691465748031496
11
0.9078357874015748
21
1.4664490944881889
0
LINE
8
BLACK
6
CONTINUOUS
10
0.9078357874015748
20
1.4664490944881889
11
0.9090329133858267
21
1.4652519685039369
0
LINE
8
BLACK
6
CONTINUOUS
10
0.9090329133858267
20
1.4652519685039369
11
0.9117303937007873
21
1.4639032283464566
0
LINE
8
BLACK
6
CONTINUOUS
10
0.9117303937007873
20
1.4639032283464566
11
0.9197101181102362
21
1.4639032283464566
0
LINE
8
BLACK
6
CONTINUOUS
10
0.9197101181102362
20
1.4639032283464566
11
0.9224075984251968
21
1.4652519685039369
0
LINE
8
BLACK
6
CONTINUOUS
10
0.9224075984251968
20
1.4652519685039369
11
0.9236047637795275
21
1.4664490944881889
0
LINE
8
BLACK
6
CONTINUOUS
10
0.9236047637795275
20
1.4664490944881889
11
0.9249535039370078
21
1.4691465748031496
0
LINE
8
BLACK
6
CONTINUOUS
10
0.9249535039370078
20
1.4691465748031496
11
0.9249535039370078
21
1.479001062992126
0
LINE
8
BLACK
6
CONTINUOUS
10
0.9249535039370078
20
1.479001062992126
11
0.9236047637795275
21
1.4816985039370079
0
LINE
8
BLACK
6
CONTINUOUS
10
0.9236047637795275
20
1.4816985039370079
11
0.9220688188976378
21
1.4832344488188975
0
LINE
8
BLACK
6
CONTINUOUS
10
0.9220688188976378
20
1.4832344488188975
11
0.9217015748031496
21
1.4836819291338583
0
LINE
8
BLACK
6
CONTINUOUS
10
0.9217015748031496
20
1.4836819291338583
11
0.9212606692913385
21
1.4847463385826771
0
LINE
8
BLACK
6
CONTINUOUS
10
0.9212606692913385
20
1.4847463385826771
11
0.9212606692913385
21
1.4858984251968503
0
LINE
8
BLACK
6
CONTINUOUS
10
0.9212606692913385
20
1.4858984251968503
11
0.9217015354330709
21
1.4869628346456694
0
LINE
8
BLACK
6
CONTINUOUS
10
0.9217015354330709
20
1.4869628346456694
11
0.922516220472441
21
1.4877775196850394
0
LINE
8
BLACK
6
CONTINUOUS
10
0.922516220472441
20
1.4877775196850394
11
0.9235806299212598
21
1.4882184251968504
0
LINE
8
BLACK
6
CONTINUOUS
10
0.9235806299212598
20
1.4882184251968504
11
0.9247327165354331
21
1.4882184251968504
0
LINE
8
BLACK
6
CONTINUOUS
10
0.9247327165354331
20
1.4882184251968504
11
0.9257971259842519
21
1.4877775590551181
0
LINE
8
BLACK
6
CONTINUOUS
10
0.9257971259842519
20
1.4877775590551181
11
0.9262445669291338
21
1.4874103543307087
0
LINE
8
BLACK
6
CONTINUOUS
10
0.9262445669291338
20
1.4874103543307087
11
0.9281193700787401
21
1.4855355905511811
0
LINE
8
BLACK
6
CONTINUOUS
10
0.9281193700787401
20
1.4855355905511811
11
0.9283051181102362
21
1.4853092125984251
0
LINE
8
BLACK
6
CONTINUOUS
10
0.9283051181102362
20
1.4853092125984251
11
0.9283641732283464
21
1.4852580314960631
0
LINE
8
BLACK
6
CONTINUOUS
10
0.9283641732283464
20
1.4852580314960631
11
0.9284201574803149
21
1.4851690551181103
0
LINE
8
BLACK
6
CONTINUOUS
10
0.9284201574803149
20
1.4851690551181103
11
0.9284866141732283
21
1.4850881102362203
0
LINE
8
BLACK
6
CONTINUOUS
10
0.9284866141732283
20
1.4850881102362203
11
0.9285164173228346
21
1.4850161417322834
0
LINE
8
BLACK
6
CONTINUOUS
10
0.9285164173228346
20
1.4850161417322834
11
0.9286725196850394
21
1.4847681496062992
0
LINE
8
BLACK
6
CONTINUOUS
10
0.9286725196850394
20
1.4847681496062992
11
0.9305472834645669
21
1.4810186220472441
0
LINE
8
BLACK
6
CONTINUOUS
10
0.9305472834645669
20
1.4810186220472441
11
0.9307541732283464
21
1.4804780314960631
0
LINE
8
BLACK
6
CONTINUOUS
10
0.9307541732283464
20
1.4804780314960631
11
0.9307616929133858
21
1.4803721259842519
0
LINE
8
BLACK
6
CONTINUOUS
10
0.9307616929133858
20
1.4803721259842519
11
0.9308022834645669
21
1.4802741732283464
0
LINE
8
BLACK
6
CONTINUOUS
10
0.9308022834645669
20
1.4802741732283464
11
0.9308590157480314
21
1.4796981102362203
0
LINE
8
BLACK
6
CONTINUOUS
10
0.9308590157480314
20
1.4796981102362203
11
0.9308590157480314
21
1.468449527559055
0
LINE
8
BLACK
6
CONTINUOUS
10
0.9308590157480314
20
1.468449527559055
11
0.9308022834645669
21
1.4678734645669291
0
LINE
8
BLACK
6
CONTINUOUS
10
0.9308022834645669
20
1.4678734645669291
11
0.9307616929133858
21
1.4677754724409449
0
LINE
8
BLACK
6
CONTINUOUS
10
0.9307616929133858
20
1.4677754724409449
11
0.9307541732283464
21
1.4676696062992125
0
LINE
8
BLACK
6
CONTINUOUS
10
0.9307541732283464
20
1.4676696062992125
11
0.9305472834645669
21
1.4671290157480315
0
LINE
8
BLACK
6
CONTINUOUS
10
0.9305472834645669
20
1.4671290157480315
11
0.9286725196850394
21
1.4633794881889763
0
LINE
8
BLACK
6
CONTINUOUS
10
0.9286725196850394
20
1.4633794881889763
11
0.9285164173228346
21
1.4631314566929134
0
LINE
8
BLACK
6
CONTINUOUS
10
0.9285164173228346
20
1.4631314566929134
11
0.9284866141732283
21
1.463059527559055
0
LINE
8
BLACK
6
CONTINUOUS
10
0.9284866141732283
20
1.463059527559055
11
0.9284201574803149
21
1.4629785433070865
0
LINE
8
BLACK
6
CONTINUOUS
10
0.9284201574803149
20
1.4629785433070865
11
0.9283641732283464
21
1.4628896062992125
0
LINE
8
BLACK
6
CONTINUOUS
10
0.9283641732283464
20
1.4628896062992125
11
0.9283051181102362
21
1.4628383858267717
0
LINE
8
BLACK
6
CONTINUOUS
10
0.9283051181102362
20
1.4628383858267717
11
0.9281193700787401
21
1.4626120472440944
0
LINE
8
BLACK
6
CONTINUOUS
10
0.9281193700787401
20
1.4626120472440944
11
0.9262445669291338
21
1.4607372834645669
0
LINE
8
BLACK
6
CONTINUOUS
10
0.9262445669291338
20
1.4607372834645669
11
0.9260182283464566
21
1.4605515354330709
0
LINE
8
BLACK
6
CONTINUOUS
10
0.9260182283464566
20
1.4605515354330709
11
0.9259670866141733
21
1.4604925590551181
0
LINE
8
BLACK
6
CONTINUOUS
10
0.9259670866141733
20
1.4604925590551181
11
0.9258781496062992
21
1.4604365748031496
0
LINE
8
BLACK
6
CONTINUOUS
10
0.9258781496062992
20
1.4604365748031496
11
0.9257971259842519
21
1.4603700787401575
0
LINE
8
BLACK
6
CONTINUOUS
10
0.9257971259842519
20
1.4603700787401575
11
0.9257250787401574
21
1.4603402362204725
0
LINE
8
BLACK
6
CONTINUOUS
10
0.9257250787401574
20
1.4603402362204725
11
0.9254772047244094
21
1.4601842125984252
0
LINE
8
BLACK
6
CONTINUOUS
10
0.9254772047244094
20
1.4601842125984252
11
0.9217276771653543
21
1.4583094488188977
0
LINE
8
BLACK
6
CONTINUOUS
10
0.9217276771653543
20
1.4583094488188977
11
0.9211870472440945
21
1.458102559055118
0
LINE
8
BLACK
6
CONTINUOUS
10
0.9211870472440945
20
1.458102559055118
11
0.9210812204724409
21
1.4580950393700787
0
LINE
8
BLACK
6
CONTINUOUS
10
0.9210812204724409
20
1.4580950393700787
11
0.9209832283464566
21
1.4580544488188976
0
LINE
8
BLACK
6
CONTINUOUS
10
0.9209832283464566
20
1.4580544488188976
11
0.9204071653543306
21
1.457997716535433
0
LINE
8
BLACK
6
CONTINUOUS
10
0.9204071653543306
20
1.457997716535433
11
0.9110333464566929
21
1.457997716535433
0
LINE
8
BLACK
6
CONTINUOUS
10
0.9110333464566929
20
1.457997716535433
11
0.9104572834645669
21
1.4580544488188976
0
LINE
8
BLACK
6
CONTINUOUS
10
0.9104572834645669
20
1.4580544488188976
11
0.9103592913385826
21
1.4580949999999999
0
LINE
8
BLACK
6
CONTINUOUS
10
0.9103592913385826
20
1.4580949999999999
11
0.9102534251968504
21
1.458102559055118
0
LINE
8
BLACK
6
CONTINUOUS
10
0.9102534251968504
20
1.458102559055118
11
0.9097128346456693
21
1.4583094488188977
0
LINE
8
BLACK
6
CONTINUOUS
10
0.9097128346456693
20
1.4583094488188977
11
0.9059633070866141
21
1.4601842125984252
0
LINE
8
BLACK
6
CONTINUOUS
10
0.9059633070866141
20
1.4601842125984252
11
0.9057152755905512
21
1.4603402755905512
0
LINE
8
BLACK
6
CONTINUOUS
10
0.9057152755905512
20
1.4603402755905512
11
0.9056433464566929
21
1.4603701181102362
0
LINE
8
BLACK
6
CONTINUOUS
10
0.9056433464566929
20
1.4603701181102362
11
0.9055623622047244
21
1.4604365748031496
0
LINE
8
BLACK
6
CONTINUOUS
10
0.9055623622047244
20
1.4604365748031496
11
0.9054734251968504
21
1.4604925590551181
0
LINE
8
BLACK
6
CONTINUOUS
10
0.9054734251968504
20
1.4604925590551181
11
0.9054222440944881
21
1.4605515354330709
0
LINE
8
BLACK
6
CONTINUOUS
10
0.9054222440944881
20
1.4605515354330709
11
0.9051959055118109
21
1.4607373228346456
0
LINE
8
BLACK
6
CONTINUOUS
10
0.9051959055118109
20
1.4607373228346456
11
0.9033211417322834
21
1.4626120866141732
0
LINE
8
BLACK
6
CONTINUOUS
10
0.9033211417322834
20
1.4626120866141732
11
0.9031353543307087
21
1.4628384251968503
0
LINE
8
BLACK
6
CONTINUOUS
10
0.9031353543307087
20
1.4628384251968503
11
0.9030763779527559
21
1.4628896062992125
0
LINE
8
BLACK
6
CONTINUOUS
10
0.9030763779527559
20
1.4628896062992125
11
0.9030203937007873
21
1.4629785433070865
0
LINE
8
BLACK
6
CONTINUOUS
10
0.9030203937007873
20
1.4629785433070865
11
0.902953937007874
21
1.463059527559055
0
LINE
8
BLACK
6
CONTINUOUS
10
0.902953937007874
20
1.463059527559055
11
0.902924094488189
21
1.4631314566929134
0
LINE
8
BLACK
6
CONTINUOUS
10
0.902924094488189
20
1.4631314566929134
11
0.902768031496063
21
1.4633794881889763
0
LINE
8
BLACK
6
CONTINUOUS
10
0.902768031496063
20
1.4633794881889763
11
0.9008932677165354
21
1.4671290157480315
0
LINE
8
BLACK
6
CONTINUOUS
10
0.9008932677165354
20
1.4671290157480315
11
0.9006896062992126
21
1.4676611811023621
0
LINE
8
BLACK
6
CONTINUOUS
10
0.9006896062992126
20
1.4676611811023621
11
0.8904805905511811
21
1.4587283070866142
0
LINE
8
BLACK
6
CONTINUOUS
10
0.8904805905511811
20
1.4587283070866142
11
0.8902315748031496
21
1.4585502755905511
0
LINE
8
BLACK
6
CONTINUOUS
10
0.8902315748031496
20
1.4585502755905511
11
0.8901766535433071
21
1.4584953543307086
0
LINE
8
BLACK
6
CONTINUOUS
10
0.8901766535433071
20
1.4584953543307086
11
0.8901245275590551
21
1.4584737401574803
0
LINE
8
BLACK
6
CONTINUOUS
10
0.8901245275590551
20
1.4584737401574803
11
0.8900096850393701
21
1.458391653543307
0
LINE
8
BLACK
6
CONTINUOUS
10
0.8900096850393701
20
1.458391653543307
11
0.8895554330708662
21
1.458238031496063
0
LINE
8
BLACK
6
CONTINUOUS
10
0.8895554330708662
20
1.458238031496063
11
0.8891122440944882
21
1.4580544488188976
0
LINE
8
BLACK
6
CONTINUOUS
10
0.8891122440944882
20
1.4580544488188976
11
0.8890125984251969
21
1.4580544488188976
0
LINE
8
BLACK
6
CONTINUOUS
10
0.8890125984251969
20
1.4580544488188976
11
0.8889183070866141
21
1.4580225590551181
0
LINE
8
BLACK
6
CONTINUOUS
10
0.8889183070866141
20
1.4580225590551181
11
0.888439842519685
21
1.4580544488188976
0
LINE
8
BLACK
6
CONTINUOUS
10
0.888439842519685
20
1.4580544488188976
11
0.8879601181102362
21
1.4580544488188976
0
LINE
8
BLACK
6
CONTINUOUS
10
0.8879601181102362
20
1.4580544488188976
11
0.8878681102362205
21
1.4580925196850394
0
LINE
8
BLACK
6
CONTINUOUS
10
0.8878681102362205
20
1.4580925196850394
11
0.8877687795275591
21
1.4580991732283464
0
LINE
8
BLACK
6
CONTINUOUS
10
0.8877687795275591
20
1.4580991732283464
11
0.8873386220472441
21
1.4583118503937007
0
LINE
8
BLACK
6
CONTINUOUS
10
0.8873386220472441
20
1.4583118503937007
11
0.8868957086614173
21
1.4584953543307086
0
LINE
8
BLACK
6
CONTINUOUS
10
0.8868957086614173
20
1.4584953543307086
11
0.8868253543307086
21
1.4585656692913385
0
LINE
8
BLACK
6
CONTINUOUS
10
0.8868253543307086
20
1.4585656692913385
11
0.8867360236220472
21
1.4586098818897637
0
LINE
8
BLACK
6
CONTINUOUS
10
0.8867360236220472
20
1.4586098818897637
11
0.8864200393700787
21
1.4589709842519685
0
LINE
8
BLACK
6
CONTINUOUS
10
0.8864200393700787
20
1.4589709842519685
11
0.886081062992126
21
1.4593099999999999
0
LINE
8
BLACK
6
CONTINUOUS
10
0.886081062992126
20
1.4593099999999999
11
0.8860429133858267
21
1.459401968503937
0
LINE
8
BLACK
6
CONTINUOUS
10
0.8860429133858267
20
1.459401968503937
11
0.8859773622047243
21
1.459476968503937
0
LINE
8
BLACK
6
CONTINUOUS
10
0.8859773622047243
20
1.459476968503937
11
0.8858237401574803
21
1.4599311811023621
0
LINE
8
BLACK
6
CONTINUOUS
10
0.8858237401574803
20
1.4599311811023621
11
0.885640157480315
21
1.4603744094488189
0
LINE
8
BLACK
6
CONTINUOUS
10
0.885640157480315
20
1.4603744094488189
11
0.8856262992125984
21
1.4605149606299213
0
LINE
8
BLACK
6
CONTINUOUS
10
0.8856262992125984
20
1.4605149606299213
11
0.8856082677165354
21
1.460568346456693
0
LINE
8
BLACK
6
CONTINUOUS
10
0.8856082677165354
20
1.460568346456693
11
0.8856134251968504
21
1.4606457874015748
0
LINE
8
BLACK
6
CONTINUOUS
10
0.8856134251968504
20
1.4606457874015748
11
0.8855834251968504
21
1.4609504724409448
0
LINE
8
BLACK
6
CONTINUOUS
10
0.8855834251968504
20
1.4609504724409448
11
0.8855834251968504
21
1.4853224015748032
0
LINE
8
BLACK
6
CONTINUOUS
10
0.8855834251968504
20
1.4853224015748032
11
0.885640157480315
21
1.4858984645669291
0
LINE
8
BLACK
6
CONTINUOUS
10
0.885640157480315
20
1.4858984645669291
11
0.886081062992126
21
1.4869628740157479
0
LINE
8
BLACK
6
CONTINUOUS
10
0.886081062992126
20
1.4869628740157479
11
0.8868957086614173
21
1.4877775196850394
0
LINE
8
BLACK
6
CONTINUOUS
10
0.8868957086614173
20
1.4877775196850394
11
0.8879601181102362
21
1.4882184251968504
0
LINE
8
BLACK
6
CONTINUOUS
10
0.8879601181102362
20
1.4882184251968504
11
0.8891122440944882
21
1.4882184251968504
0
LINE
8
BLACK
6
CONTINUOUS
10
0.8891122440944882
20
1.4882184251968504
11
0.8901766535433071
21
1.4877775196850394
0
LINE
8
BLACK
6
CONTINUOUS
10
0.8901766535433071
20
1.5552690944881888
11
0.8909912992125985
21
1.5544544488188976
0
LINE
8
BLACK
6
CONTINUOUS
10
0.8909912992125985
20
1.5544544488188976
11
0.8914322047244094
21
1.5533900393700788
0
LINE
8
BLACK
6
CONTINUOUS
10
0.8914322047244094
20
1.5533900393700788
11
0.891488937007874
21
1.5528139763779527
0
LINE
8
BLACK
6
CONTINUOUS
10
0.891488937007874
20
1.5528139763779527
11
0.891488937007874
21
1.5310452362204725
0
LINE
8
BLACK
6
CONTINUOUS
10
0.891488937007874
20
1.5310452362204725
11
0.9267431102362205
21
1.5461541732283464
0
LINE
8
BLACK
6
CONTINUOUS
10
0.9267431102362205
20
1.5461541732283464
11
0.9272949212598425
21
1.5463289370078739
0
LINE
8
BLACK
6
CONTINUOUS
10
0.9272949212598425
20
1.5463289370078739
11
0.9284469685039369
21
1.5463429921259841
0
LINE
8
BLACK
6
CONTINUOUS
10
0.9284469685039369
20
1.5463429921259841
11
0.929516653543307
21
1.5459151181102362
0
LINE
8
BLACK
6
CONTINUOUS
10
0.929516653543307
20
1.5459151181102362
11
0.9303411811023622
21
1.545110433070866
0
LINE
8
BLACK
6
CONTINUOUS
10
0.9303411811023622
20
1.545110433070866
11
0.9307950393700787
21
1.5440514566929133
0
LINE
8
BLACK
6
CONTINUOUS
10
0.9307950393700787
20
1.5440514566929133
11
0.9308090551181102
21
1.5428994488188976
0
LINE
8
BLACK
6
CONTINUOUS
10
0.9308090551181102
20
1.5428994488188976
11
0.9303811811023622
21
1.5418297637795275
0
LINE
8
BLACK
6
CONTINUOUS
10
0.9303811811023622
20
1.5418297637795275
11
0.9295765354330708
21
1.5410051968503937
0
LINE
8
BLACK
6
CONTINUOUS
10
0.9295765354330708
20
1.5410051968503937
11
0.9290694094488189
21
1.5407261417322835
0
LINE
8
BLACK
6
CONTINUOUS
10
0.9290694094488189
20
1.5407261417322835
11
0.8896993307086614
21
1.5238532677165355
0
LINE
8
BLACK
6
CONTINUOUS
10
0.8896993307086614
20
1.5238532677165355
11
0.8891474803149606
21
1.5236785039370078
0
LINE
8
BLACK
6
CONTINUOUS
10
0.8891474803149606
20
1.5236785039370078
11
0.8891291732283464
21
1.5236782677165355
0
LINE
8
BLACK
6
CONTINUOUS
10
0.8891291732283464
20
1.5236782677165355
11
0.8891122440944882
21
1.5236712598425197
0
LINE
8
BLACK
6
CONTINUOUS
10
0.8891122440944882
20
1.5236712598425197
11
0.8885537401574803
21
1.5236712598425197
0
LINE
8
BLACK
6
CONTINUOUS
10
0.8885537401574803
20
1.5236712598425197
11
0.8879954724409449
21
1.5236644488188975
0
LINE
8
BLACK
6
CONTINUOUS
10
0.8879954724409449
20
1.5236644488188975
11
0.8879784645669291
21
1.5236712598425197
0
LINE
8
BLACK
6
CONTINUOUS
10
0.8879784645669291
20
1.5236712598425197
11
0.8879601181102362
21
1.5236712598425197
0
LINE
8
BLACK
6
CONTINUOUS
10
0.8879601181102362
20
1.5236712598425197
11
0.8874447637795275
21
1.5238846850393701
0
LINE
8
BLACK
6
CONTINUOUS
10
0.8874447637795275
20
1.5238846850393701
11
0.8869257874015748
21
1.5240923228346457
0
LINE
8
BLACK
6
CONTINUOUS
10
0.8869257874015748
20
1.5240923228346457
11
0.8869126377952755
21
1.5241051181102361
0
LINE
8
BLACK
6
CONTINUOUS
10
0.8869126377952755
20
1.5241051181102361
11
0.8868957086614173
21
1.5241121653543306
0
LINE
8
BLACK
6
CONTINUOUS
10
0.8868957086614173
20
1.5241121653543306
11
0.886501220472441
21
1.5245066141732284
0
LINE
8
BLACK
6
CONTINUOUS
10
0.886501220472441
20
1.5245066141732284
11
0.8861012204724409
21
1.5248970078740156
0
LINE
8
BLACK
6
CONTINUOUS
10
0.8861012204724409
20
1.5248970078740156
11
0.8860939763779527
21
1.5249138582677164
0
LINE
8
BLACK
6
CONTINUOUS
10
0.8860939763779527
20
1.5249138582677164
11
0.886081062992126
21
1.524926811023622
0
LINE
8
BLACK
6
CONTINUOUS
10
0.886081062992126
20
1.524926811023622
11
0.8858674015748031
21
1.5254425590551182
0
LINE
8
BLACK
6
CONTINUOUS
10
0.8858674015748031
20
1.5254425590551182
11
0.8856474015748032
21
1.5259559842519685
0
LINE
8
BLACK
6
CONTINUOUS
10
0.8856474015748032
20
1.5259559842519685
11
0.8856471653543306
21
1.525974251968504
0
LINE
8
BLACK
6
CONTINUOUS
10
0.8856471653543306
20
1.525974251968504
11
0.885640157480315
21
1.5259912204724408
0
LINE
8
BLACK
6
CONTINUOUS
10
0.885640157480315
20
1.5259912204724408
11
0.8855834251968504
21
1.5265672834645669
0
LINE
8
BLACK
6
CONTINUOUS
10
0.8855834251968504
20
1.5265672834645669
11
0.8855834251968504
21
1.5528139763779527
0
LINE
8
BLACK
6
CONTINUOUS
10
0.8855834251968504
20
1.5528139763779527
11
0.885640157480315
21
1.5533900393700788
0
LINE
8
BLACK
6
CONTINUOUS
10
0.885640157480315
20
1.5533900393700788
11
0.886081062992126
21
1.5544544488188976
0
LINE
8
BLACK
6
CONTINUOUS
10
0.886081062992126
20
1.5544544488188976
11
0.8868957086614173
21
1.5552690944881888
0
LINE
8
BLACK
6
CONTINUOUS
10
0.8868957086614173
20
1.5552690944881888
11
0.8879601181102362
21
1.5557099999999999
0
LINE
8
BLACK
6
CONTINUOUS
10
0.8879601181102362
20
1.5557099999999999
11
0.8891122440944882
21
1.5557099999999999
0
LINE
8
BLACK
6
CONTINUOUS
10
0.8891122440944882
20
1.5557099999999999
11
0.8901766535433071
21
1.5552690944881888
0
LINE
8
BLACK
6
CONTINUOUS
10
0.9005646456692913
20
1.5912824409448818
11
0.9015951574803149
21
1.5907671653543307
0
LINE
8
BLACK
6
CONTINUOUS
10
0.9015951574803149
20
1.5907671653543307
11
0.90235
21
1.589896811023622
0
LINE
8
BLACK
6
CONTINUOUS
10
0.90235
20
1.589896811023622
11
0.9027143307086614
21
1.5888038188976377
0
LINE
8
BLACK
6
CONTINUOUS
10
0.9027143307086614
20
1.5888038188976377
11
0.9026326771653543
21
1.5876546062992125
0
LINE
8
BLACK
6
CONTINUOUS
10
0.9026326771653543
20
1.5876546062992125
11
0.9024257874015748
21
1.5871140157480315
0
LINE
8
BLACK
6
CONTINUOUS
10
0.9024257874015748
20
1.5871140157480315
11
0.9005510236220472
21
1.5833644881889763
0
LINE
8
BLACK
6
CONTINUOUS
10
0.9005510236220472
20
1.5833644881889763
11
0.9003949999999999
21
1.583116653543307
0
LINE
8
BLACK
6
CONTINUOUS
10
0.9003949999999999
20
1.583116653543307
11
0.900365157480315
21
1.583044527559055
0
LINE
8
BLACK
6
CONTINUOUS
10
0.900365157480315
20
1.583044527559055
11
0.9002985433070866
21
1.5829633464566928
0
LINE
8
BLACK
6
CONTINUOUS
10
0.9002985433070866
20
1.5829633464566928
11
0.9002426771653543
21
1.5828746062992125
0
LINE
8
BLACK
6
CONTINUOUS
10
0.9002426771653543
20
1.5828746062992125
11
0.9001837401574803
21
1.582823464566929
0
LINE
8
BLACK
6
CONTINUOUS
10
0.9001837401574803
20
1.582823464566929
11
0.8999979133858268
21
1.5825970866141732
0
LINE
8
BLACK
6
CONTINUOUS
10
0.8999979133858268
20
1.5825970866141732
11
0.8975395275590551
21
1.5801387007874015
0
LINE
8
BLACK
6
CONTINUOUS
10
0.8975395275590551
20
1.5801387007874015
11
0.9249535039370078
21
1.5801387007874015
0
LINE
8
BLACK
6
CONTINUOUS
10
0.9249535039370078
20
1.5801387007874015
11
0.9249535039370078
21
1.588434527559055
0
LINE
8
BLACK
6
CONTINUOUS
10
0.9249535039370078
20
1.588434527559055
11
0.9250102362204724
21
1.5890105905511811
0
LINE
8
BLACK
6
CONTINUOUS
10
0.9250102362204724
20
1.5890105905511811
11
0.9254511417322835
21
1.5900749999999999
0
LINE
8
BLACK
6
CONTINUOUS
10
0.9254511417322835
20
1.5900749999999999
11
0.9262657874015748
21
1.5908896456692914
0
LINE
8
BLACK
6
CONTINUOUS
10
0.9262657874015748
20
1.5908896456692914
11
0.9273301968503936
21
1.5913305511811022
0
LINE
8
BLACK
6
CONTINUOUS
10
0.9273301968503936
20
1.5913305511811022
11
0.9284823228346456
21
1.5913305511811022
0
LINE
8
BLACK
6
CONTINUOUS
10
0.9284823228346456
20
1.5913305511811022
11
0.9295467322834645
21
1.5908896456692914
0
LINE
8
BLACK
6
CONTINUOUS
10
0.9295467322834645
20
1.5908896456692914
11
0.9303613779527559
21
1.5900749999999999
0
LINE
8
BLACK
6
CONTINUOUS
10
0.9303613779527559
20
1.5900749999999999
11
0.9308022834645669
21
1.5890105905511811
0
LINE
8
BLACK
6
CONTINUOUS
10
0.9308022834645669
20
1.5890105905511811
11
0.9308590157480314
21
1.588434527559055
0
LINE
8
BLACK
6
CONTINUOUS
10
0.9308590157480314
20
1.588434527559055
11
0.9308590157480314
21
1.5659373622047243
0
LINE
8
BLACK
6
CONTINUOUS
10
0.9308590157480314
20
1.5659373622047243
11
0.9308022834645669
21
1.5653612992125985
0
LINE
8
BLACK
6
CONTINUOUS
10
0.9308022834645669
20
1.5653612992125985
11
0.9303613779527559
21
1.5642968897637795
0
LINE
8
BLACK
6
CONTINUOUS
10
0.9303613779527559
20
1.5642968897637795
11
0.9295467322834645
21
1.5634822440944882
0
LINE
8
BLACK
6
CONTINUOUS
10
0.9295467322834645
20
1.5634822440944882
11
0.9284823228346456
21
1.5630413385826771
0
LINE
8
BLACK
6
CONTINUOUS
10
0.9284823228346456
20
1.5630413385826771
11
0.9273301968503936
21
1.5630413385826771
0
LINE
8
BLACK
6
CONTINUOUS
10
0.9273301968503936
20
1.5630413385826771
11
0.9262657874015748
21
1.5634822440944882
0
LINE
8
BLACK
6
CONTINUOUS
10
0.9262657874015748
20
1.5634822440944882
11
0.9254511417322835
21
1.5642968897637795
0
LINE
8
BLACK
6
CONTINUOUS
10
0.9254511417322835
20
1.5642968897637795
11
0.9250102362204724
21
1.5653612992125985
0
LINE
8
BLACK
6
CONTINUOUS
10
0.9250102362204724
20
1.5653612992125985
11
0.9249535039370078
21
1.5659373622047243
0
LINE
8
BLACK
6
CONTINUOUS
10
0.9249535039370078
20
1.5659373622047243
11
0.9249535039370078
21
1.5742331889763779
0
LINE
8
BLACK
6
CONTINUOUS
10
0.9249535039370078
20
1.5742331889763779
11
0.8885361811023622
21
1.5742331889763779
0
LINE
8
BLACK
6
CONTINUOUS
10
0.8885361811023622
20
1.5742331889763779
11
0.888534094488189
21
1.5742333858267716
0
LINE
8
BLACK
6
CONTINUOUS
10
0.888534094488189
20
1.5742333858267716
11
0.8885330708661417
21
1.5742331889763779
0
LINE
8
BLACK
6
CONTINUOUS
10
0.8885330708661417
20
1.5742331889763779
11
0.8885300393700787
21
1.5742337795275589
0
LINE
8
BLACK
6
CONTINUOUS
10
0.8885300393700787
20
1.5742337795275589
11
0.8879601181102362
21
1.5742899212598425
0
LINE
8
BLACK
6
CONTINUOUS
10
0.8879601181102362
20
1.5742899212598425
11
0.88769
21
1.5744017716535432
0
LINE
8
BLACK
6
CONTINUOUS
10
0.88769
20
1.5744017716535432
11
0.8874033858267716
21
1.5744591338582676
0
LINE
8
BLACK
6
CONTINUOUS
10
0.8874033858267716
20
1.5744591338582676
11
0.8871629921259843
21
1.5746200787401574
0
LINE
8
BLACK
6
CONTINUOUS
10
0.8871629921259843
20
1.5746200787401574
11
0.8868957086614173
21
1.5747308267716535
0
LINE
8
BLACK
6
CONTINUOUS
10
0.8868957086614173
20
1.5747308267716535
11
0.8866889763779527
21
1.5749375196850393
0
LINE
8
BLACK
6
CONTINUOUS
10
0.8866889763779527
20
1.5749375196850393
11
0.8864461023622047
21
1.5751001968503937
0
LINE
8
BLACK
6
CONTINUOUS
10
0.8864461023622047
20
1.5751001968503937
11
0.8862855905511811
21
1.5753409055118111
0
LINE
8
BLACK
6
CONTINUOUS
10
0.8862855905511811
20
1.5753409055118111
11
0.886081062992126
21
1.5755454724409448
0
LINE
8
BLACK
6
CONTINUOUS
10
0.886081062992126
20
1.5755454724409448
11
0.8859691732283465
21
1.5758155511811023
0
LINE
8
BLACK
6
CONTINUOUS
10
0.8859691732283465
20
1.5758155511811023
11
0.8858070078740157
21
1.5760588188976377
0
LINE
8
BLACK
6
CONTINUOUS
10
0.8858070078740157
20
1.5760588188976377
11
0.8857508661417323
21
1.5763425984251969
0
LINE
8
BLACK
6
CONTINUOUS
10
0.8857508661417323
20
1.5763425984251969
11
0.885640157480315
21
1.5766098818897638
0
LINE
8
BLACK
6
CONTINUOUS
10
0.885640157480315
20
1.5766098818897638
11
0.885640157480315
21
1.5769022440944882
0
LINE
8
BLACK
6
CONTINUOUS
10
0.885640157480315
20
1.5769022440944882
11
0.8855834251968504
21
1.5771890551181103
0
LINE
8
BLACK
6
CONTINUOUS
10
0.8855834251968504
20
1.5771890551181103
11
0.885640157480315
21
1.5774726771653542
0
LINE
8
BLACK
6
CONTINUOUS
10
0.885640157480315
20
1.5774726771653542
11
0.885640157480315
21
1.5777620078740158
0
LINE
8
BLACK
6
CONTINUOUS
10
0.885640157480315
20
1.5777620078740158
11
0.8857520078740158
21
1.5780320866141733
0
LINE
8
BLACK
6
CONTINUOUS
10
0.8857520078740158
20
1.5780320866141733
11
0.8858093700787402
21
1.5783187401574803
0
LINE
8
BLACK
6
CONTINUOUS
10
0.8858093700787402
20
1.5783187401574803
11
0.8859703149606299
21
1.5785590944881889
0
LINE
8
BLACK
6
CONTINUOUS
10
0.8859703149606299
20
1.5785590944881889
11
0.886081062992126
21
1.5788264173228346
0
LINE
8
BLACK
6
CONTINUOUS
10
0.886081062992126
20
1.5788264173228346
11
0.8862877559055118
21
1.5790331102362205
0
LINE
8
BLACK
6
CONTINUOUS
10
0.8862877559055118
20
1.5790331102362205
11
0.8864504330708661
21
1.5792760236220471
0
LINE
8
BLACK
6
CONTINUOUS
10
0.8864504330708661
20
1.5792760236220471
11
0.8868936614173228
21
1.5796390157480316
0
LINE
8
BLACK
6
CONTINUOUS
10
0.8868936614173228
20
1.5796390157480316
11
0.8868957086614173
21
1.579641062992126
0
LINE
8
BLACK
6
CONTINUOUS
10
0.8868957086614173
20
1.579641062992126
11
0.8868965748031495
21
1.5796414173228346
0
LINE
8
BLACK
6
CONTINUOUS
10
0.8868965748031495
20
1.5796414173228346
11
0.8868982677165355
21
1.5796427952755905
0
LINE
8
BLACK
6
CONTINUOUS
10
0.8868982677165355
20
1.5796427952755905
11
0.8922792913385826
21
1.5832301181102362
0
LINE
8
BLACK
6
CONTINUOUS
10
0.8922792913385826
20
1.5832301181102362
11
0.8954832677165354
21
1.586434094488189
0
LINE
8
BLACK
6
CONTINUOUS
10
0.8954832677165354
20
1.586434094488189
11
0.8971437401574803
21
1.5897550393700788
0
LINE
8
BLACK
6
CONTINUOUS
10
0.8971437401574803
20
1.5897550393700788
11
0.8974520866141732
21
1.5902449212598424
0
LINE
8
BLACK
6
CONTINUOUS
10
0.8974520866141732
20
1.5902449212598424
11
0.8983224803149606
21
1.5909997637795275
0
LINE
8
BLACK
6
CONTINUOUS
10
0.8983224803149606
20
1.5909997637795275
11
0.8994154330708661
21
1.5913640944881888
0
LINE
8
BLACK
6
CONTINUOUS
10
0.8994154330708661
20
1.5913640944881888
11
0.9005646456692913
21
1.5912824409448818
0
LINE
8
BLACK
6
CONTINUOUS
10
0.9005646456692913
20
1.6287777559055119
11
0.9015951574803149
21
1.6282624803149606
0
LINE
8
BLACK
6
CONTINUOUS
10
0.9015951574803149
20
1.6282624803149606
11
0.90235
21
1.6273921259842519
0
LINE
8
BLACK
6
CONTINUOUS
10
0.90235
20
1.6273921259842519
11
0.9027143307086614
21
1.6262991338582677
0
LINE
8
BLACK
6
CONTINUOUS
10
0.9027143307086614
20
1.6262991338582677
11
0.9026326771653543
21
1.6251499212598426
0
LINE
8
BLACK
6
CONTINUOUS
10
0.9026326771653543
20
1.6251499212598426
11
0.9024257874015748
21
1.6246093307086613
0
LINE
8
BLACK
6
CONTINUOUS
10
0.9024257874015748
20
1.6246093307086613
11
0.9005510236220472
21
1.6208598031496062
0
LINE
8
BLACK
6
CONTINUOUS
10
0.9005510236220472
20
1.6208598031496062
11
0.9003949999999999
21
1.6206119685039371
0
LINE
8
BLACK
6
CONTINUOUS
10
0.9003949999999999
20
1.6206119685039371
11
0.900365157480315
21
1.6205398425196851
0
LINE
8
BLACK
6
CONTINUOUS
10
0.900365157480315
20
1.6205398425196851
11
0.9002985433070866
21
1.6204586614173229
0
LINE
8
BLACK
6
CONTINUOUS
10
0.9002985433070866
20
1.6204586614173229
11
0.9002426771653543
21
1.6203699212598426
0
LINE
8
BLACK
6
CONTINUOUS
10
0.9002426771653543
20
1.6203699212598426
11
0.9001837401574803
21
1.6203187795275591
0
LINE
8
BLACK
6
CONTINUOUS
10
0.9001837401574803
20
1.6203187795275591
11
0.8999979133858268
21
1.6200924015748031
0
LINE
8
BLACK
6
CONTINUOUS
10
0.8999979133858268
20
1.6200924015748031
11
0.8975395275590551
21
1.6176340157480316
0
LINE
8
BLACK
6
CONTINUOUS
10
0.8975395275590551
20
1.6176340157480316
11
0.9249535039370078
21
1.6176340157480316
0
LINE
8
BLACK
6
CONTINUOUS
10
0.9249535039370078
20
1.6176340157480316
11
0.9249535039370078
21
1.6259298425196851
0
LINE
8
BLACK
6
CONTINUOUS
10
0.9249535039370078
20
1.6259298425196851
11
0.9250102362204724
21
1.626505905511811
0
LINE
8
BLACK
6
CONTINUOUS
10
0.9250102362204724
20
1.626505905511811
11
0.9254511417322835
21
1.62757031496063
0
LINE
8
BLACK
6
CONTINUOUS
10
0.9254511417322835
20
1.62757031496063
11
0.9262657874015748
21
1.6283849606299212
0
LINE
8
BLACK
6
CONTINUOUS
10
0.9262657874015748
20
1.6283849606299212
11
0.9273301968503936
21
1.6288258661417323
0
LINE
8
BLACK
6
CONTINUOUS
10
0.9273301968503936
20
1.6288258661417323
11
0.9284823228346456
21
1.6288258661417323
0
LINE
8
BLACK
6
CONTINUOUS
10
0.9284823228346456
20
1.6288258661417323
11
0.9295467322834645
21
1.6283849606299212
0
LINE
8
BLACK
6
CONTINUOUS
10
0.9295467322834645
20
1.6283849606299212
11
0.9303613779527559
21
1.62757031496063
0
LINE
8
BLACK
6
CONTINUOUS
10
0.9303613779527559
20
1.62757031496063
11
0.9308022834645669
21
1.626505905511811
0
LINE
8
BLACK
6
CONTINUOUS
10
0.9308022834645669
20
1.626505905511811
11
0.9308590157480314
21
1.6259298425196851
0
LINE
8
BLACK
6
CONTINUOUS
10
0.9308590157480314
20
1.6259298425196851
11
0.9308590157480314
21
1.6034326771653542
0
LINE
8
BLACK
6
CONTINUOUS
10
0.9308590157480314
20
1.6034326771653542
11
0.9308022834645669
21
1.6028566141732283
0
LINE
8
BLACK
6
CONTINUOUS
10
0.9308022834645669
20
1.6028566141732283
11
0.9303613779527559
21
1.6017922047244093
0
LINE
8
BLACK
6
CONTINUOUS
10
0.9303613779527559
20
1.6017922047244093
11
0.9295467322834645
21
1.6009775590551181
0
LINE
8
BLACK
6
CONTINUOUS
10
0.9295467322834645
20
1.6009775590551181
11
0.9284823228346456
21
1.600536653543307
0
LINE
8
BLACK
6
CONTINUOUS
10
0.9284823228346456
20
1.600536653543307
11
0.9273301968503936
21
1.600536653543307
0
LINE
8
BLACK
6
CONTINUOUS
10
0.9273301968503936
20
1.600536653543307
11
0.9262657874015748
21
1.6009775590551181
0
LINE
8
BLACK
6
CONTINUOUS
10
0.9262657874015748
20
1.6009775590551181
11
0.9254511417322835
21
1.6017922047244093
0
LINE
8
BLACK
6
CONTINUOUS
10
0.9254511417322835
20
1.6017922047244093
11
0.9250102362204724
21
1.6028566141732283
0
LINE
8
BLACK
6
CONTINUOUS
10
0.9250102362204724
20
1.6028566141732283
11
0.9249535039370078
21
1.6034326771653542
0
LINE
8
BLACK
6
CONTINUOUS
10
0.9249535039370078
20
1.6034326771653542
11
0.9249535039370078
21
1.6117285039370077
0
LINE
8
BLACK
6
CONTINUOUS
10
0.9249535039370078
20
1.6117285039370077
11
0.8885361811023622
21
1.6117285039370077
0
LINE
8
BLACK
6
CONTINUOUS
10
0.8885361811023622
20
1.6117285039370077
11
0.888534094488189
21
1.6117287007874015
0
LINE
8
BLACK
6
CONTINUOUS
10
0.888534094488189
20
1.6117287007874015
11
0.8885330708661417
21
1.6117285039370077
0
LINE
8
BLACK
6
CONTINUOUS
10
0.8885330708661417
20
1.6117285039370077
11
0.8885300393700787
21
1.611729094488189
0
LINE
8
BLACK
6
CONTINUOUS
10
0.8885300393700787
20
1.611729094488189
11
0.8879601181102362
21
1.6117852362204723
0
LINE
8
BLACK
6
CONTINUOUS
10
0.8879601181102362
20
1.6117852362204723
11
0.88769
21
1.6118970866141733
0
LINE
8
BLACK
6
CONTINUOUS
10
0.88769
20
1.6118970866141733
11
0.8874033858267716
21
1.6119544488188977
0
LINE
8
BLACK
6
CONTINUOUS
10
0.8874033858267716
20
1.6119544488188977
11
0.8871629921259843
21
1.6121153937007873
0
LINE
8
BLACK
6
CONTINUOUS
10
0.8871629921259843
20
1.6121153937007873
11
0.8868957086614173
21
1.6122261417322834
0
LINE
8
BLACK
6
CONTINUOUS
10
0.8868957086614173
20
1.6122261417322834
11
0.8866889763779527
21
1.6124328346456693
0
LINE
8
BLACK
6
CONTINUOUS
10
0.8866889763779527
20
1.6124328346456693
11
0.8864461023622047
21
1.6125955118110236
0
LINE
8
BLACK
6
CONTINUOUS
10
0.8864461023622047
20
1.6125955118110236
11
0.8862855905511811
21
1.6128362204724409
0
LINE
8
BLACK
6
CONTINUOUS
10
0.8862855905511811
20
1.6128362204724409
11
0.886081062992126
21
1.6130407874015749
0
LINE
8
BLACK
6
CONTINUOUS
10
0.886081062992126
20
1.6130407874015749
11
0.8859691732283465
21
1.6133108661417321
0
LINE
8
BLACK
6
CONTINUOUS
10
0.8859691732283465
20
1.6133108661417321
11
0.8858070078740157
21
1.6135541338582677
0
LINE
8
BLACK
6
CONTINUOUS
10
0.8858070078740157
20
1.6135541338582677
11
0.8857508661417323
21
1.6138379133858267
0
LINE
8
BLACK
6
CONTINUOUS
10
0.8857508661417323
20
1.6138379133858267
11
0.885640157480315
21
1.6141051968503937
0
LINE
8
BLACK
6
CONTINUOUS
10
0.885640157480315
20
1.6141051968503937
11
0.885640157480315
21
1.6143975590551181
0
LINE
8
BLACK
6
CONTINUOUS
10
0.885640157480315
20
1.6143975590551181
11
0.8855834251968504
21
1.6146843700787401
0
LINE
8
BLACK
6
CONTINUOUS
10
0.8855834251968504
20
1.6146843700787401
11
0.885640157480315
21
1.6149679921259843
0
LINE
8
BLACK
6
CONTINUOUS
10
0.885640157480315
20
1.6149679921259843
11
0.885640157480315
21
1.6152573228346456
0
LINE
8
BLACK
6
CONTINUOUS
10
0.885640157480315
20
1.6152573228346456
11
0.8857520078740158
21
1.6155274015748031
0
LINE
8
BLACK
6
CONTINUOUS
10
0.8857520078740158
20
1.6155274015748031
11
0.8858093700787402
21
1.6158140551181102
0
LINE
8
BLACK
6
CONTINUOUS
10
0.8858093700787402
20
1.6158140551181102
11
0.8859703149606299
21
1.616054409448819
0
LINE
8
BLACK
6
CONTINUOUS
10
0.8859703149606299
20
1.616054409448819
11
0.886081062992126
21
1.6163217322834644
0
LINE
8
BLACK
6
CONTINUOUS
10
0.886081062992126
20
1.6163217322834644
11
0.8862877559055118
21
1.6165284251968504
0
LINE
8
BLACK
6
CONTINUOUS
10
0.8862877559055118
20
1.6165284251968504
11
0.8864504330708661
21
1.6167713385826772
0
LINE
8
BLACK
6
CONTINUOUS
10
0.8864504330708661
20
1.6167713385826772
11
0.8868936614173228
21
1.6171343307086614
0
LINE
8
BLACK
6
CONTINUOUS
10
0.8868936614173228
20
1.6171343307086614
11
0.8868957086614173
21
1.6171363779527559
0
LINE
8
BLACK
6
CONTINUOUS
10
0.8868957086614173
20
1.6171363779527559
11
0.8868965748031495
21
1.6171367322834644
0
LINE
8
BLACK
6
CONTINUOUS
10
0.8868965748031495
20
1.6171367322834644
11
0.8868982677165355
21
1.6171381102362203
0
LINE
8
BLACK
6
CONTINUOUS
10
0.8868982677165355
20
1.6171381102362203
11
0.8922792913385826
21
1.620725433070866
0
LINE
8
BLACK
6
CONTINUOUS
10
0.8922792913385826
20
1.620725433070866
11
0.8954832677165354
21
1.6239294094488188
0
LINE
8
BLACK
6
CONTINUOUS
10
0.8954832677165354
20
1.6239294094488188
11
0.8971437401574803
21
1.6272503543307086
0
LINE
8
BLACK
6
CONTINUOUS
10
0.8971437401574803
20
1.6272503543307086
11
0.8974520866141732
21
1.6277402362204725
0
LINE
8
BLACK
6
CONTINUOUS
10
0.8974520866141732
20
1.6277402362204725
11
0.8983224803149606
21
1.6284950787401575
0
LINE
8
BLACK
6
CONTINUOUS
10
0.8983224803149606
20
1.6284950787401575
11
0.8994154330708661
21
1.6288594094488189
0
LINE
8
BLACK
6
CONTINUOUS
10
0.8994154330708661
20
1.6288594094488189
11
0.9005646456692913
21
1.6287777559055119
0
LINE
8
BLACK
6
CONTINUOUS
10
0.9005646456692913
20
1.6662730708661417
11
0.9015951574803149
21
1.6657577952755904
0
LINE
8
BLACK
6
CONTINUOUS
10
0.9015951574803149
20
1.6657577952755904
11
0.90235
21
1.6648874409448819
0
LINE
8
BLACK
6
CONTINUOUS
10
0.90235
20
1.6648874409448819
11
0.9027143307086614
21
1.6637944488188976
0
LINE
8
BLACK
6
CONTINUOUS
10
0.9027143307086614
20
1.6637944488188976
11
0.9026326771653543
21
1.6626452362204724
0
LINE
8
BLACK
6
CONTINUOUS
10
0.9026326771653543
20
1.6626452362204724
11
0.9024257874015748
21
1.6621046456692914
0
LINE
8
BLACK
6
CONTINUOUS
10
0.9024257874015748
20
1.6621046456692914
11
0.9005510236220472
21
1.6583551181102363
0
LINE
8
BLACK
6
CONTINUOUS
10
0.9005510236220472
20
1.6583551181102363
11
0.9003949999999999
21
1.6581072834645669
0
LINE
8
BLACK
6
CONTINUOUS
10
0.9003949999999999
20
1.6581072834645669
11
0.900365157480315
21
1.6580351574803149
0
LINE
8
BLACK
6
CONTINUOUS
10
0.900365157480315
20
1.6580351574803149
11
0.9002985433070866
21
1.6579539763779527
0
LINE
8
BLACK
6
CONTINUOUS
10
0.9002985433070866
20
1.6579539763779527
11
0.9002426771653543
21
1.6578652362204724
0
LINE
8
BLACK
6
CONTINUOUS
10
0.9002426771653543
20
1.6578652362204724
11
0.9001837401574803
21
1.6578140944881889
0
LINE
8
BLACK
6
CONTINUOUS
10
0.9001837401574803
20
1.6578140944881889
11
0.8999979133858268
21
1.6575877165354331
0
LINE
8
BLACK
6
CONTINUOUS
10
0.8999979133858268
20
1.6575877165354331
11
0.8975395275590551
21
1.6551293307086614
0
LINE
8
BLACK
6
CONTINUOUS
10
0.8975395275590551
20
1.6551293307086614
11
0.9249535039370078
21
1.6551293307086614
0
LINE
8
BLACK
6
CONTINUOUS
10
0.9249535039370078
20
1.6551293307086614
11
0.9249535039370078
21
1.6634251574803149
0
LINE
8
BLACK
6
CONTINUOUS
10
0.9249535039370078
20
1.6634251574803149
11
0.9250102362204724
21
1.6640012204724408
0
LINE
8
BLACK
6
CONTINUOUS
10
0.9250102362204724
20
1.6640012204724408
11
0.9254511417322835
21
1.6650656299212598
0
LINE
8
BLACK
6
CONTINUOUS
10
0.9254511417322835
20
1.6650656299212598
11
0.9262657874015748
21
1.6658802755905511
0
LINE
8
BLACK
6
CONTINUOUS
10
0.9262657874015748
20
1.6658802755905511
11
0.9273301968503936
21
1.6663211811023622
0
LINE
8
BLACK
6
CONTINUOUS
10
0.9273301968503936
20
1.6663211811023622
11
0.9284823228346456
21
1.6663211811023622
0
LINE
8
BLACK
6
CONTINUOUS
10
0.9284823228346456
20
1.6663211811023622
11
0.9295467322834645
21
1.6658802755905511
0
LINE
8
BLACK
6
CONTINUOUS
10
0.9295467322834645
20
1.6658802755905511
11
0.9303613779527559
21
1.6650656299212598
0
LINE
8
BLACK
6
CONTINUOUS
10
0.9303613779527559
20
1.6650656299212598
11
0.9308022834645669
21
1.6640012204724408
0
LINE
8
BLACK
6
CONTINUOUS
10
0.9308022834645669
20
1.6640012204724408
11
0.9308590157480314
21
1.6634251574803149
0
LINE
8
BLACK
6
CONTINUOUS
10
0.9308590157480314
20
1.6634251574803149
11
0.9308590157480314
21
1.6409279921259843
0
LINE
8
BLACK
6
CONTINUOUS
10
0.9308590157480314
20
1.6409279921259843
11
0.9308022834645669
21
1.6403519291338582
0
LINE
8
BLACK
6
CONTINUOUS
10
0.9308022834645669
20
1.6403519291338582
11
0.9303613779527559
21
1.6392875196850394
0
LINE
8
BLACK
6
CONTINUOUS
10
0.9303613779527559
20
1.6392875196850394
11
0.9295467322834645
21
1.6384728740157479
0
LINE
8
BLACK
6
CONTINUOUS
10
0.9295467322834645
20
1.6384728740157479
11
0.9284823228346456
21
1.6380319685039371
0
LINE
8
BLACK
6
CONTINUOUS
10
0.9284823228346456
20
1.6380319685039371
11
0.9273301968503936
21
1.6380319685039371
0
LINE
8
BLACK
6
CONTINUOUS
10
0.9273301968503936
20
1.6380319685039371
11
0.9262657874015748
21
1.6384728740157479
0
LINE
8
BLACK
6
CONTINUOUS
10
0.9262657874015748
20
1.6384728740157479
11
0.9254511417322835
21
1.6392875196850394
0
LINE
8
BLACK
6
CONTINUOUS
10
0.9254511417322835
20
1.6392875196850394
11
0.9250102362204724
21
1.6403519291338582
0
LINE
8
BLACK
6
CONTINUOUS
10
0.9250102362204724
20
1.6403519291338582
11
0.9249535039370078
21
1.6409279921259843
0
LINE
8
BLACK
6
CONTINUOUS
10
0.9249535039370078
20
1.6409279921259843
11
0.9249535039370078
21
1.6492238188976378
0
LINE
8
BLACK
6
CONTINUOUS
10
0.9249535039370078
20
1.6492238188976378
11
0.8885361811023622
21
1.6492238188976378
0
LINE
8
BLACK
6
CONTINUOUS
10
0.8885361811023622
20
1.6492238188976378
11
0.888534094488189
21
1.6492240157480316
0
LINE
8
BLACK
6
CONTINUOUS
10
0.888534094488189
20
1.6492240157480316
11
0.8885330708661417
21
1.6492238188976378
0
LINE
8
BLACK
6
CONTINUOUS
10
0.8885330708661417
20
1.6492238188976378
11
0.8885300393700787
21
1.6492244094488189
0
LINE
8
BLACK
6
CONTINUOUS
10
0.8885300393700787
20
1.6492244094488189
11
0.8879601181102362
21
1.6492805511811024
0
LINE
8
BLACK
6
CONTINUOUS
10
0.8879601181102362
20
1.6492805511811024
11
0.88769
21
1.6493924015748032
0
LINE
8
BLACK
6
CONTINUOUS
10
0.88769
20
1.6493924015748032
11
0.8874033858267716
21
1.6494497637795276
0
LINE
8
BLACK
6
CONTINUOUS
10
0.8874033858267716
20
1.6494497637795276
11
0.8871629921259843
21
1.6496107086614173
0
LINE
8
BLACK
6
CONTINUOUS
10
0.8871629921259843
20
1.6496107086614173
11
0.8868957086614173
21
1.6497214566929133
0
LINE
8
BLACK
6
CONTINUOUS
10
0.8868957086614173
20
1.6497214566929133
11
0.8866889763779527
21
1.6499281496062992
0
LINE
8
BLACK
6
CONTINUOUS
10
0.8866889763779527
20
1.6499281496062992
11
0.8864461023622047
21
1.6500908267716534
0
LINE
8
BLACK
6
CONTINUOUS
10
0.8864461023622047
20
1.6500908267716534
11
0.8862855905511811
21
1.6503315354330708
0
LINE
8
BLACK
6
CONTINUOUS
10
0.8862855905511811
20
1.6503315354330708
11
0.886081062992126
21
1.6505361023622047
0
LINE
8
BLACK
6
CONTINUOUS
10
0.886081062992126
20
1.6505361023622047
11
0.8859691732283465
21
1.6508061811023622
0
LINE
8
BLACK
6
CONTINUOUS
10
0.8859691732283465
20
1.6508061811023622
11
0.8858070078740157
21
1.6510494488188976
0
LINE
8
BLACK
6
CONTINUOUS
10
0.8858070078740157
20
1.6510494488188976
11
0.8857508661417323
21
1.6513332283464566
0
LINE
8
BLACK
6
CONTINUOUS
10
0.8857508661417323
20
1.6513332283464566
11
0.885640157480315
21
1.6516005118110235
0
LINE
8
BLACK
6
CONTINUOUS
10
0.885640157480315
20
1.6516005118110235
11
0.885640157480315
21
1.6518928740157479
0
LINE
8
BLACK
6
CONTINUOUS
10
0.885640157480315
20
1.6518928740157479
11
0.8855834251968504
21
1.65217968503937
0
LINE
8
BLACK
6
CONTINUOUS
10
0.8855834251968504
20
1.65217968503937
11
0.885640157480315
21
1.6524633070866142
0
LINE
8
BLACK
6
CONTINUOUS
10
0.885640157480315
20
1.6524633070866142
11
0.885640157480315
21
1.6527526377952755
0
LINE
8
BLACK
6
CONTINUOUS
10
0.885640157480315
20
1.6527526377952755
11
0.8857520078740158
21
1.653022716535433
0
LINE
8
BLACK
6
CONTINUOUS
10
0.8857520078740158
20
1.653022716535433
11
0.8858093700787402
21
1.65330937007874
0
LINE
8
BLACK
6
CONTINUOUS
10
0.8858093700787402
20
1.65330937007874
11
0.8859703149606299
21
1.6535497244094488
0
LINE
8
BLACK
6
CONTINUOUS
10
0.8859703149606299
20
1.6535497244094488
11
0.886081062992126
21
1.6538170472440945
0
LINE
8
BLACK
6
CONTINUOUS
10
0.886081062992126
20
1.6538170472440945
11
0.8862877559055118
21
1.6540237401574802
0
LINE
8
BLACK
6
CONTINUOUS
10
0.8862877559055118
20
1.6540237401574802
11
0.8864504330708661
21
1.654266653543307
0
LINE
8
BLACK
6
CONTINUOUS
10
0.8864504330708661
20
1.654266653543307
11
0.8868936614173228
21
1.6546296456692913
0
LINE
8
BLACK
6
CONTINUOUS
10
0.8868936614173228
20
1.6546296456692913
11
0.8868957086614173
21
1.6546316929133857
0
LINE
8
BLACK
6
CONTINUOUS
10
0.8868957086614173
20
1.6546316929133857
11
0.8868965748031495
21
1.6546320472440945
0
LINE
8
BLACK
6
CONTINUOUS
10
0.8868965748031495
20
1.6546320472440945
11
0.8868982677165355
21
1.6546334251968504
0
LINE
8
BLACK
6
CONTINUOUS
10
0.8868982677165355
20
1.6546334251968504
11
0.8922792913385826
21
1.6582207480314961
0
LINE
8
BLACK
6
CONTINUOUS
10
0.8922792913385826
20
1.6582207480314961
11
0.8954832677165354
21
1.6614247244094489
0
LINE
8
BLACK
6
CONTINUOUS
10
0.8954832677165354
20
1.6614247244094489
11
0.8971437401574803
21
1.6647456692913385
0
LINE
8
BLACK
6
CONTINUOUS
10
0.8971437401574803
20
1.6647456692913385
11
0.8974520866141732
21
1.6652355511811023
0
LINE
8
BLACK
6
CONTINUOUS
10
0.8974520866141732
20
1.6652355511811023
11
0.8983224803149606
21
1.6659903937007874
0
LINE
8
BLACK
6
CONTINUOUS
10
0.8983224803149606
20
1.6659903937007874
11
0.8994154330708661
21
1.6663547244094488
0
LINE
8
BLACK
6
CONTINUOUS
10
0.8994154330708661
20
1.6663547244094488
11
0.9005646456692913
21
1.6662730708661417
0
LINE
8
BLACK
6
CONTINUOUS
10
0.9284823228346456
20
1.7094407874015747
11
0.9295467322834645
21
1.7089998818897638
0
LINE
8
BLACK
6
CONTINUOUS
10
0.9295467322834645
20
1.7089998818897638
11
0.9303613779527559
21
1.7081852362204724
0
LINE
8
BLACK
6
CONTINUOUS
10
0.9303613779527559
20
1.7081852362204724
11
0.9308022834645669
21
1.7071208267716536
0
LINE
8
BLACK
6
CONTINUOUS
10
0.9308022834645669
20
1.7071208267716536
11
0.9308022834645669
21
1.7059687007874016
0
LINE
8
BLACK
6
CONTINUOUS
10
0.9308022834645669
20
1.7059687007874016
11
0.9303613779527559
21
1.7049042913385826
0
LINE
8
BLACK
6
CONTINUOUS
10
0.9303613779527559
20
1.7049042913385826
11
0.9295467322834645
21
1.7040896456692913
0
LINE
8
BLACK
6
CONTINUOUS
10
0.9295467322834645
20
1.7040896456692913
11
0.9284823228346456
21
1.7036487401574802
0
LINE
8
BLACK
6
CONTINUOUS
10
0.9284823228346456
20
1.7036487401574802
11
0.9279062598425196
21
1.7035920078740157
0
LINE
8
BLACK
6
CONTINUOUS
10
0.9279062598425196
20
1.7035920078740157
11
0.9018459448818897
21
1.7035920078740157
0
LINE
8
BLACK
6
CONTINUOUS
10
0.9018459448818897
20
1.7035920078740157
11
0.9179063385826771
21
1.6960971653543306
0
LINE
8
BLACK
6
CONTINUOUS
10
0.9179063385826771
20
1.6960971653543306
11
0.9181173228346456
21
1.6959721653543307
0
LINE
8
BLACK
6
CONTINUOUS
10
0.9181173228346456
20
1.6959721653543307
11
0.9181887007874016
21
1.6959462204724409
0
LINE
8
BLACK
6
CONTINUOUS
10
0.9181887007874016
20
1.6959462204724409
11
0.9182391732283465
21
1.6958999606299212
0
LINE
8
BLACK
6
CONTINUOUS
10
0.9182391732283465
20
1.6958999606299212
11
0.9184043700787401
21
1.695802125984252
0
LINE
8
BLACK
6
CONTINUOUS
10
0.9184043700787401
20
1.695802125984252
11
0.9187074015748031
21
1.6954711811023622
0
LINE
8
BLACK
6
CONTINUOUS
10
0.9187074015748031
20
1.6954711811023622
11
0.9190383858267717
21
1.6951681102362204
0
LINE
8
BLACK
6
CONTINUOUS
10
0.9190383858267717
20
1.6951681102362204
11
0.9190938582677165
21
1.6950491732283464
0
LINE
8
BLACK
6
CONTINUOUS
10
0.9190938582677165
20
1.6950491732283464
11
0.9191824409448819
21
1.6949524803149605
0
LINE
8
BLACK
6
CONTINUOUS
10
0.9191824409448819
20
1.6949524803149605
11
0.9193357480314961
21
1.6945308267716535
0
LINE
8
BLACK
6
CONTINUOUS
10
0.9193357480314961
20
1.6945308267716535
11
0.9195255905511811
21
1.694124094488189
0
LINE
8
BLACK
6
CONTINUOUS
10
0.9195255905511811
20
1.694124094488189
11
0.9195313385826771
21
1.693993031496063
0
LINE
8
BLACK
6
CONTINUOUS
10
0.9195313385826771
20
1.693993031496063
11
0.9195761811023622
21
1.6938697637795275
0
LINE
8
BLACK
6
CONTINUOUS
10
0.9195761811023622
20
1.6938697637795275
11
0.9195564566929134
21
1.6934214173228346
0
LINE
8
BLACK
6
CONTINUOUS
10
0.9195564566929134
20
1.6934214173228346
11
0.9195761811023622
21
1.6929730708661417
0
LINE
8
BLACK
6
CONTINUOUS
10
0.9195761811023622
20
1.6929730708661417
11
0.9195313385826771
21
1.6928497637795274
0
LINE
8
BLACK
6
CONTINUOUS
10
0.9195313385826771
20
1.6928497637795274
11
0.9195255905511811
21
1.6927187401574804
0
LINE
8
BLACK
6
CONTINUOUS
10
0.9195255905511811
20
1.6927187401574804
11
0.9193357480314961
21
1.6923119685039369
0
LINE
8
BLACK
6
CONTINUOUS
10
0.9193357480314961
20
1.6923119685039369
11
0.9191824409448819
21
1.6918903543307087
0
LINE
8
BLACK
6
CONTINUOUS
10
0.9191824409448819
20
1.6918903543307087
11
0.9190938582677165
21
1.691793622047244
0
LINE
8
BLACK
6
CONTINUOUS
10
0.9190938582677165
20
1.691793622047244
11
0.9190383858267717
21
1.6916747244094488
0
LINE
8
BLACK
6
CONTINUOUS
10
0.9190383858267717
20
1.6916747244094488
11
0.9187074015748031
21
1.6913716141732282
0
LINE
8
BLACK
6
CONTINUOUS
10
0.9187074015748031
20
1.6913716141732282
11
0.9184043700787401
21
1.6910407086614172
0
LINE
8
BLACK
6
CONTINUOUS
10
0.9184043700787401
20
1.6910407086614172
11
0.9182391732283465
21
1.6909428346456692
0
LINE
8
BLACK
6
CONTINUOUS
10
0.9182391732283465
20
1.6909428346456692
11
0.9181887007874016
21
1.6908966141732282
0
LINE
8
BLACK
6
CONTINUOUS
10
0.9181887007874016
20
1.6908966141732282
11
0.9181173228346456
21
1.6908706299212597
0
LINE
8
BLACK
6
CONTINUOUS
10
0.9181173228346456
20
1.6908706299212597
11
0.9179063385826771
21
1.6907456692913385
0
LINE
8
BLACK
6
CONTINUOUS
10
0.9179063385826771
20
1.6907456692913385
11
0.9018459448818897
21
1.6832508267716535
0
LINE
8
BLACK
6
CONTINUOUS
10
0.9018459448818897
20
1.6832508267716535
11
0.9279062598425196
21
1.6832508267716535
0
LINE
8
BLACK
6
CONTINUOUS
10
0.9279062598425196
20
1.6832508267716535
11
0.9284823228346456
21
1.6831940944881889
0
LINE
8
BLACK
6
CONTINUOUS
10
0.9284823228346456
20
1.6831940944881889
11
0.9295467322834645
21
1.6827531889763778
0
LINE
8
BLACK
6
CONTINUOUS
10
0.9295467322834645
20
1.6827531889763778
11
0.9303613779527559
21
1.6819385433070866
0
LINE
8
BLACK
6
CONTINUOUS
10
0.9303613779527559
20
1.6819385433070866
11
0.9308022834645669
21
1.6808741338582678
0
LINE
8
BLACK
6
CONTINUOUS
10
0.9308022834645669
20
1.6808741338582678
11
0.9308022834645669
21
1.6797220078740156
0
LINE
8
BLACK
6
CONTINUOUS
10
0.9308022834645669
20
1.6797220078740156
11
0.9303613779527559
21
1.6786575984251968
0
LINE
8
BLACK
6
CONTINUOUS
10
0.9303613779527559
20
1.6786575984251968
11
0.9295467322834645
21
1.6778429527559056
0
LINE
8
BLACK
6
CONTINUOUS
10
0.9295467322834645
20
1.6778429527559056
11
0.9284823228346456
21
1.6774020472440945
0
LINE
8
BLACK
6
CONTINUOUS
10
0.9284823228346456
20
1.6774020472440945
11
0.9279062598425196
21
1.6773453149606299
0
LINE
8
BLACK
6
CONTINUOUS
10
0.9279062598425196
20
1.6773453149606299
11
0.8885361811023622
21
1.6773453149606299
0
LINE
8
BLACK
6
CONTINUOUS
10
0.8885361811023622
20
1.6773453149606299
11
0.8881573622047244
21
1.6773825984251969
0
LINE
8
BLACK
6
CONTINUOUS
10
0.8881573622047244
20
1.6773825984251969
11
0.8880878346456693
21
1.6773795669291338
0
LINE
8
BLACK
6
CONTINUOUS
10
0.8880878346456693
20
1.6773795669291338
11
0.8880504724409448
21
1.6773931102362205
0
LINE
8
BLACK
6
CONTINUOUS
10
0.8880504724409448
20
1.6773931102362205
11
0.8879601181102362
21
1.6774020472440945
0
LINE
8
BLACK
6
CONTINUOUS
10
0.8879601181102362
20
1.6774020472440945
11
0.8874866141732283
21
1.6775981496062993
0
LINE
8
BLACK
6
CONTINUOUS
10
0.8874866141732283
20
1.6775981496062993
11
0.8870051181102362
21
1.6777732677165353
0
LINE
8
BLACK
6
CONTINUOUS
10
0.8870051181102362
20
1.6777732677165353
11
0.8869565354330708
21
1.6778177165354331
0
LINE
8
BLACK
6
CONTINUOUS
10
0.8869565354330708
20
1.6778177165354331
11
0.8868957086614173
21
1.6778429527559056
0
LINE
8
BLACK
6
CONTINUOUS
10
0.8868957086614173
20
1.6778429527559056
11
0.8865332677165354
21
1.6782053543307087
0
LINE
8
BLACK
6
CONTINUOUS
10
0.8865332677165354
20
1.6782053543307087
11
0.8861554724409448
21
1.6785513779527559
0
LINE
8
BLACK
6
CONTINUOUS
10
0.8861554724409448
20
1.6785513779527559
11
0.8861275984251968
21
1.6786110236220473
0
LINE
8
BLACK
6
CONTINUOUS
10
0.8861275984251968
20
1.6786110236220473
11
0.886081062992126
21
1.6786575984251968
0
LINE
8
BLACK
6
CONTINUOUS
10
0.886081062992126
20
1.6786575984251968
11
0.885885
21
1.6791308661417323
0
LINE
8
BLACK
6
CONTINUOUS
10
0.885885
20
1.6791308661417323
11
0.8856682283464566
21
1.6795953937007873
0
LINE
8
BLACK
6
CONTINUOUS
10
0.8856682283464566
20
1.6795953937007873
11
0.8856653149606299
21
1.6796611811023621
0
LINE
8
BLACK
6
CONTINUOUS
10
0.8856653149606299
20
1.6796611811023621
11
0.885640157480315
21
1.6797220078740156
0
LINE
8
BLACK
6
CONTINUOUS
10
0.885640157480315
20
1.6797220078740156
11
0.885640157480315
21
1.6802345275590551
0
LINE
8
BLACK
6
CONTINUOUS
10
0.885640157480315
20
1.6802345275590551
11
0.8856176771653543
21
1.6807464173228346
0
LINE
8
BLACK
6
CONTINUOUS
10
0.8856176771653543
20
1.6807464173228346
11
0.885640157480315
21
1.6808082283464567
0
LINE
8
BLACK
6
CONTINUOUS
10
0.885640157480315
20
1.6808082283464567
11
0.885640157480315
21
1.6808741338582678
0
LINE
8
BLACK
6
CONTINUOUS
10
0.885640157480315
20
1.6808741338582678
11
0.8858362598425197
21
1.6813475984251969
0
LINE
8
BLACK
6
CONTINUOUS
10
0.8858362598425197
20
1.6813475984251969
11
0.8860113779527559
21
1.6818291338582676
0
LINE
8
BLACK
6
CONTINUOUS
10
0.8860113779527559
20
1.6818291338582676
11
0.8860558267716535
21
1.6818776771653543
0
LINE
8
BLACK
6
CONTINUOUS
10
0.8860558267716535
20
1.6818776771653543
11
0.886081062992126
21
1.6819385433070866
0
LINE
8
BLACK
6
CONTINUOUS
10
0.886081062992126
20
1.6819385433070866
11
0.8864434645669291
21
1.6823009448818897
0
LINE
8
BLACK
6
CONTINUOUS
10
0.8864434645669291
20
1.6823009448818897
11
0.8867894881889764
21
1.6826787795275591
0
LINE
8
BLACK
6
CONTINUOUS
10
0.8867894881889764
20
1.6826787795275591
11
0.8868675196850393
21
1.682725
0
LINE
8
BLACK
6
CONTINUOUS
10
0.8868675196850393
20
1.682725
11
0.8868957086614173
21
1.6827531889763778
0
LINE
8
BLACK
6
CONTINUOUS
10
0.8868957086614173
20
1.6827531889763778
11
0.8869601181102362
21
1.6827798818897637
0
LINE
8
BLACK
6
CONTINUOUS
10
0.8869601181102362
20
1.6827798818897637
11
0.8872875196850394
21
1.6829738188976378
0
LINE
8
BLACK
6
CONTINUOUS
10
0.8872875196850394
20
1.6829738188976378
11
0.9096751968503937
21
1.6934214173228346
0
LINE
8
BLACK
6
CONTINUOUS
10
0.9096751968503937
20
1.6934214173228346
11
0.8872875196850394
21
1.7038690157480314
0
LINE
8
BLACK
6
CONTINUOUS
10
0.8872875196850394
20
1.7038690157480314
11
0.8869601181102362
21
1.7040629133858267
0
LINE
8
BLACK
6
CONTINUOUS
10
0.8869601181102362
20
1.7040629133858267
11
0.8868957086614173
21
1.7040896456692913
0
LINE
8
BLACK
6
CONTINUOUS
10
0.8868957086614173
20
1.7040896456692913
11
0.8868675196850393
21
1.7041177952755906
0
LINE
8
BLACK
6
CONTINUOUS
10
0.8868675196850393
20
1.7041177952755906
11
0.8867894881889764
21
1.7041640551181101
0
LINE
8
BLACK
6
CONTINUOUS
10
0.8867894881889764
20
1.7041640551181101
11
0.8864434645669291
21
1.7045418503937007
0
LINE
8
BLACK
6
CONTINUOUS
10
0.8864434645669291
20
1.7045418503937007
11
0.886081062992126
21
1.7049042913385826
0
LINE
8
BLACK
6
CONTINUOUS
10
0.886081062992126
20
1.7049042913385826
11
0.8860558267716535
21
1.7049651181102361
0
LINE
8
BLACK
6
CONTINUOUS
10
0.8860558267716535
20
1.7049651181102361
11
0.8860113779527559
21
1.7050137007874016
0
LINE
8
BLACK
6
CONTINUOUS
10
0.8860113779527559
20
1.7050137007874016
11
0.8858362598425197
21
1.7054951968503937
0
LINE
8
BLACK
6
CONTINUOUS
10
0.8858362598425197
20
1.7054951968503937
11
0.885640157480315
21
1.7059687007874016
0
LINE
8
BLACK
6
CONTINUOUS
10
0.885640157480315
20
1.7059687007874016
11
0.885640157480315
21
1.7060345669291339
0
LINE
8
BLACK
6
CONTINUOUS
10
0.885640157480315
20
1.7060345669291339
11
0.8856176771653543
21
1.7060964173228346
0
LINE
8
BLACK
6
CONTINUOUS
10
0.8856176771653543
20
1.7060964173228346
11
0.885640157480315
21
1.7066082677165353
0
LINE
8
BLACK
6
CONTINUOUS
10
0.885640157480315
20
1.7066082677165353
11
0.885640157480315
21
1.7071208267716536
0
LINE
8
BLACK
6
CONTINUOUS
10
0.885640157480315
20
1.7071208267716536
11
0.8856653149606299
21
1.7071816141732283
0
LINE
8
BLACK
6
CONTINUOUS
10
0.8856653149606299
20
1.7071816141732283
11
0.8856682283464566
21
1.7072474409448819
0
LINE
8
BLACK
6
CONTINUOUS
10
0.8856682283464566
20
1.7072474409448819
11
0.885885
21
1.7077119291338583
0
LINE
8
BLACK
6
CONTINUOUS
10
0.885885
20
1.7077119291338583
11
0.886081062992126
21
1.7081852362204724
0
LINE
8
BLACK
6
CONTINUOUS
10
0.886081062992126
20
1.7081852362204724
11
0.8861275984251968
21
1.7082317716535433
0
LINE
8
BLACK
6
CONTINUOUS
10
0.8861275984251968
20
1.7082317716535433
11
0.8861554724409448
21
1.7082914566929133
0
LINE
8
BLACK
6
CONTINUOUS
10
0.8861554724409448
20
1.7082914566929133
11
0.8865332677165354
21
1.7086374409448819
0
LINE
8
BLACK
6
CONTINUOUS
10
0.8865332677165354
20
1.7086374409448819
11
0.8868957086614173
21
1.7089998818897638
0
LINE
8
BLACK
6
CONTINUOUS
10
0.8868957086614173
20
1.7089998818897638
11
0.8869565354330708
21
1.7090250787401575
0
LINE
8
BLACK
6
CONTINUOUS
10
0.8869565354330708
20
1.7090250787401575
11
0.8870051181102362
21
1.7090695669291338
0
LINE
8
BLACK
6
CONTINUOUS
10
0.8870051181102362
20
1.7090695669291338
11
0.8874866141732283
21
1.7092446456692914
0
LINE
8
BLACK
6
CONTINUOUS
10
0.8874866141732283
20
1.7092446456692914
11
0.8879601181102362
21
1.7094407874015747
0
LINE
8
BLACK
6
CONTINUOUS
10
0.8879601181102362
20
1.7094407874015747
11
0.8880504724409448
21
1.7094496850393701
0
LINE
8
BLACK
6
CONTINUOUS
10
0.8880504724409448
20
1.7094496850393701
11
0.8880878346456693
21
1.7094632677165353
0
LINE
8
BLACK
6
CONTINUOUS
10
0.8880878346456693
20
1.7094632677165353
11
0.8881573622047244
21
1.7094601968503937
0
LINE
8
BLACK
6
CONTINUOUS
10
0.8881573622047244
20
1.7094601968503937
11
0.8885361811023622
21
1.7094975196850393
0
LINE
8
BLACK
6
CONTINUOUS
10
0.8885361811023622
20
1.7094975196850393
11
0.9279062598425196
21
1.7094975196850393
0
LINE
8
BLACK
6
CONTINUOUS
10
0.9279062598425196
20
1.7094975196850393
11
0.9284823228346456
21
1.7094407874015747
0
LINE
8
BLACK
6
CONTINUOUS
10
0.9284823228346456
20
1.7413118110236221
11
0.9295467322834645
21
1.740870905511811
0
LINE
8
BLACK
6
CONTINUOUS
10
0.9295467322834645
20
1.740870905511811
11
0.9303613779527559
21
1.7400562598425195
0
LINE
8
BLACK
6
CONTINUOUS
10
0.9303613779527559
20
1.7400562598425195
11
0.9308022834645669
21
1.7389918503937007
0
LINE
8
BLACK
6
CONTINUOUS
10
0.9308022834645669
20
1.7389918503937007
11
0.9308590157480314
21
1.7384157874015749
0
LINE
8
BLACK
6
CONTINUOUS
10
0.9308590157480314
20
1.7384157874015749
11
0.9308590157480314
21
1.7196681496062991
0
LINE
8
BLACK
6
CONTINUOUS
10
0.9308590157480314
20
1.7196681496062991
11
0.9308022834645669
21
1.7190920866141732
0
LINE
8
BLACK
6
CONTINUOUS
10
0.9308022834645669
20
1.7190920866141732
11
0.9303613779527559
21
1.7180276771653542
0
LINE
8
BLACK
6
CONTINUOUS
10
0.9303613779527559
20
1.7180276771653542
11
0.9295467322834645
21
1.717213031496063
0
LINE
8
BLACK
6
CONTINUOUS
10
0.9295467322834645
20
1.717213031496063
11
0.9284823228346456
21
1.7167721259842519
0
LINE
8
BLACK
6
CONTINUOUS
10
0.9284823228346456
20
1.7167721259842519
11
0.9273301968503936
21
1.7167721259842519
0
LINE
8
BLACK
6
CONTINUOUS
10
0.9273301968503936
20
1.7167721259842519
11
0.9262657874015748
21
1.717213031496063
0
LINE
8
BLACK
6
CONTINUOUS
10
0.9262657874015748
20
1.717213031496063
11
0.9254511417322835
21
1.7180276771653542
0
LINE
8
BLACK
6
CONTINUOUS
10
0.9254511417322835
20
1.7180276771653542
11
0.9250102362204724
21
1.7190920866141732
0
LINE
8
BLACK
6
CONTINUOUS
10
0.9250102362204724
20
1.7190920866141732
11
0.9249535039370078
21
1.7196681496062991
0
LINE
8
BLACK
6
CONTINUOUS
10
0.9249535039370078
20
1.7196681496062991
11
0.9249535039370078
21
1.7354630314960628
0
LINE
8
BLACK
6
CONTINUOUS
10
0.9249535039370078
20
1.7354630314960628
11
0.8885361811023622
21
1.7354630314960628
0
LINE
8
BLACK
6
CONTINUOUS
10
0.8885361811023622
20
1.7354630314960628
11
0.8879601181102362
21
1.7355197637795274
0
LINE
8
BLACK
6
CONTINUOUS
10
0.8879601181102362
20
1.7355197637795274
11
0.8868957086614173
21
1.7359606692913385
0
LINE
8
BLACK
6
CONTINUOUS
10
0.8868957086614173
20
1.7359606692913385
11
0.886081062992126
21
1.73677531496063
0
LINE
8
BLACK
6
CONTINUOUS
10
0.886081062992126
20
1.73677531496063
11
0.885640157480315
21
1.7378397244094488
0
LINE
8
BLACK
6
CONTINUOUS
10
0.885640157480315
20
1.7378397244094488
11
0.885640157480315
21
1.7389918503937007
0
LINE
8
BLACK
6
CONTINUOUS
10
0.885640157480315
20
1.7389918503937007
11
0.886081062992126
21
1.7400562598425195
0
LINE
8
BLACK
6
CONTINUOUS
10
0.886081062992126
20
1.7400562598425195
11
0.8868957086614173
21
1.740870905511811
0
LINE
8
BLACK
6
CONTINUOUS
10
0.8868957086614173
20
1.740870905511811
11
0.8879601181102362
21
1.7413118110236221
0
LINE
8
BLACK
6
CONTINUOUS
10
0.8879601181102362
20
1.7413118110236221
11
0.8885361811023622
21
1.7413685433070867
0
LINE
8
BLACK
6
CONTINUOUS
10
0.8885361811023622
20
1.7413685433070867
11
0.9279062598425196
21
1.7413685433070867
0
LINE
8
BLACK
6
CONTINUOUS
10
0.9279062598425196
20
1.7413685433070867
11
0.9284823228346456
21
1.7413118110236221
0
CIRCLE
8
BLACK
10
0.5599999999999999
20
0.71
40
0.0068897637795276
0
CIRCLE
8
BLACK
10
0.5599999999999999
20
0.8099999999999999
40
0.0068897637795276
0
CIRCLE
8
BLACK
10
0.66
20
0.71
40
0.0068897637795276
0
CIRCLE
8
BLACK
10
0.66
20
0.8099999999999999
40
0.0068897637795276
0
CIRCLE
8
BLACK
10
0.76
20
0.71
40
0.0068897637795276
0
CIRCLE
8
BLACK
10
0.76
20
0.8099999999999999
40
0.0068897637795276
0
CIRCLE
8
BLACK
10
0.86
20
0.71
40
0.0068897637795276
0
CIRCLE
8
BLACK
10
0.86
20
0.8099999999999999
40
0.0068897637795276
0
CIRCLE
8
BLACK
10
0.96
20
0.71
40
0.0068897637795276
0
CIRCLE
8
BLACK
10
0.96
20
0.8099999999999999
40
0.0068897637795276
0
CIRCLE
8
BLACK
10
1.0600000000000001
20
0.71
40
0.0068897637795276
0
CIRCLE
8
BLACK
10
1.0600000000000001
20
0.8099999999999999
40
0.0068897637795276
0
CIRCLE
8
BLACK
10
1.385
20
1.585
40
0.0068897637795276
0
CIRCLE
8
BLACK
10
1.4849999999999999
20
1.585
40
0.0068897637795276
0
CIRCLE
8
BLACK
10
1.385
20
1.4849999999999999
40
0.0068897637795276
0
CIRCLE
8
BLACK
10
1.4849999999999999
20
1.4849999999999999
40
0.0068897637795276
0
CIRCLE
8
BLACK
10
1.385
20
1.385
40
0.0068897637795276
0
CIRCLE
8
BLACK
10
1.4849999999999999
20
1.385
40
0.0068897637795276
0
CIRCLE
8
BLACK
10
1.1299999999999999
20
1.5349999999999999
40
0.0068897637795276
0
CIRCLE
8
BLACK
10
1.1299999999999999
20
1.4350000000000001
40
0.0068897637795276
0
CIRCLE
8
BLACK
10
0.59
20
1.6599999999999999
40
0.0068897637795276
0
CIRCLE
8
BLACK
10
0.59
20
1.5600000000000001
40
0.0068897637795276
0
CIRCLE
8
BLACK
10
0.59
20
1.46
40
0.0068897637795276
0
CIRCLE
8
BLACK
10
0.82
20
1.7949999999999999
40
0.0068897637795276
0
CIRCLE
8
BLACK
10
0.82
20
1.895
40
0.0068897637795276
0
CIRCLE
8
BLACK
10
0.9199999999999999
20
1.7949999999999999
40
0.0068897637795276
0
CIRCLE
8
BLACK
10
0.9199999999999999
20
1.895
40
0.0068897637795276
0
CIRCLE
8
BLACK
10
1.02
20
1.7949999999999999
40
0.0068897637795276
0
CIRCLE
8
BLACK
10
1.02
20
1.895
40
0.0068897637795276
0
CIRCLE
8
BLACK
10
0.1475
20
1.4924999999999999
40
0.0068897637795276
0
CIRCLE
8
BLACK
10
0.2475
20
1.4924999999999999
40
0.0068897637795276
0
CIRCLE
8
BLACK
10
0.145
20
0.835
40
0.0068897637795276
0
CIRCLE
8
BLACK
10
0.245
20
0.835
40
0.0068897637795276
0
CIRCLE
8
BLACK
10
0.145
20
0.535
40
0.0068897637795276
0
CIRCLE
8
BLACK
10
0.245
20
0.535
40
0.0068897637795276
0
CIRCLE
8
BLACK
10
0.145
20
0.635
40
0.0068897637795276
0
CIRCLE
8
BLACK
10
0.245
20
0.635
40
0.0068897637795276
0
CIRCLE
8
BLACK
10
0.145
20
0.735
40
0.0068897637795276
0
CIRCLE
8
BLACK
10
0.245
20
0.735
40
0.0068897637795276
0
CIRCLE
8
BLACK
10
0.145
20
0.435
40
0.0068897637795276
0
CIRCLE
8
BLACK
10
0.245
20
0.435
40
0.0068897637795276
0
CIRCLE
8
BLACK
10
0.2
20
1.8
40
0.0068897637795276
0
CIRCLE
8
BLACK
10
1.3999999999999999
20
0.2
40
0.0068897637795276
0
CIRCLE
8
BLACK
10
0.2
20
0.2
40
0.0068897637795276
0
CIRCLE
8
BLACK
10
1.3999999999999999
20
1.8
40
0.0068897637795276
0
CIRCLE
8
BLACK
10
0.5499999999999999
20
0.23
40
0.0068897637795276
0
CIRCLE
8
BLACK
10
1.05
20
0.23
40
0.0068897637795276
0
CIRCLE
8
BLACK
10
0.9397637795275591
20
0.33
40
0.0068897637795276
0
CIRCLE
8
BLACK
10
0.8996062992125984
20
0.4000787401574803
40
0.0068897637795276
0
CIRCLE
8
BLACK
10
0.8598425196850393
20
0.33
40
0.0068897637795276
0
CIRCLE
8
BLACK
10
0.8196850393700787
20
0.4000787401574803
40
0.0068897637795276
0
CIRCLE
8
BLACK
10
0.7799212598425197
20
0.33
40
0.0068897637795276
0
CIRCLE
8
BLACK
10
0.739763779527559
20
0.4000787401574803
40
0.0068897637795276
0
CIRCLE
8
BLACK
10
0.7
20
0.33
40
0.0068897637795276
0
CIRCLE
8
BLACK
10
0.6598425196850394
20
0.4000787401574803
40
0.0068897637795276
0
CIRCLE
8
BLACK
10
1.0700787401574803
20
0.5898425196850393
40
0.0068897637795276
0
CIRCLE
8
BLACK
10
0.9799212598425197
20
0.5898425196850393
40
0.0068897637795276
0
CIRCLE
8
BLACK
10
0.6200787401574803
20
0.5898425196850393
40
0.0068897637795276
0
CIRCLE
8
BLACK
10
0.5299212598425197
20
0.5898425196850393
40
0.0068897637795276
0
CIRCLE
8
BLACK
10
0.4799212598425197
20
0.3650393700787402
40
0.0068897637795276
0
CIRCLE
8
BLACK
10
1.1200787401574803
20
0.3650393700787402
40
0.0068897637795276
0
CIRCLE
8
BLACK
10
0.49
20
1.6599999999999999
40
0.0068897637795276
0
CIRCLE
8
BLACK
10
0.49
20
1.5600000000000001
40
0.0068897637795276
0
CIRCLE
8
BLACK
10
0.49
20
1.46
40
0.0068897637795276
0
CIRCLE
8
BLACK
10
1.3074999999999999
20
0.9125
40
0.0068897637795276
0
CIRCLE
8
BLACK
10
1.4075
20
0.9125
40
0.0068897637795276
0
CIRCLE
8
BLACK
10
1.3999999999999999
20
0.6899999999999999
40
0.0068897637795276
0
CIRCLE
8
BLACK
10
1.5
20
0.6899999999999999
40
0.0068897637795276
0
CIRCLE
8
BLACK
10
1.3999999999999999
20
0.59
40
0.0068897637795276
0
CIRCLE
8
BLACK
10
1.5
20
0.59
40
0.0068897637795276
0
CIRCLE
8
BLACK
10
1.3999999999999999
20
0.49
40
0.0068897637795276
0
CIRCLE
8
BLACK
10
1.5
20
0.49
40
0.0068897637795276
0
CIRCLE
8
BLACK
10
1.3999999999999999
20
0.39
40
0.0068897637795276
0
CIRCLE
8
BLACK
10
1.5
20
0.39
40
0.0068897637795276
0
CIRCLE
8
BLACK
10
0.1475
20
1.3925000000000001
40
0.0068897637795276
0
CIRCLE
8
BLACK
10
0.2475
20
1.3925000000000001
40
0.0068897637795276
0
CIRCLE
8
BLACK
10
0.248
20
1.5919999999999999
40
0.0068897637795276
0
CIRCLE
8
BLACK
10
0.148
20
1.5919999999999999
40
0.0068897637795276
  0
ENDSEC
  0
EOF
