  0
SECTION
  2
HEADER
  9
$ANGBASE
  50
0.0
  9
$ANGDIR
  70
1
  9
$MEASUREMENT
  70
0
  0
ENDSEC
  0
SECTION
  2
TABLES
  0
TABLE
  2
LTYPE
  70
4
  0
LTYPE
  5
40F
  2
CONTINUOUS
  70
0
  3
Solid line
  72
65
  73
0
  40
0.0
  0
LTYPE
  5
410
  2
DASHDOT
 70
0
  3
Dash Dot ____ _ ____ _
 72
65
 73
4
 40
2.0
 49
1.25
 49
-0.25
 49
0.25
 49
-0.25
  0
LTYPE
  5
411
  2
DASHED
 70
0
  3
Dashed __ __ __ __ __
 72
65
 73
2
 40
0.75
 49
0.5
 49
-0.25
  0
LTYPE
  5
43B
  2
DOTTED
 70
0
  3
Dotted .  .  .  .
 72
65
 73
2
 40
0.2
 49
0.0
 49
-0.2
  0
ENDTAB
  0
TABLE
  2
STYLE
  70
4
  0
STYLE
  2
KICAD
  70
0
  40
0
  41
1
  42
1
  50
0
  71
0
  3
isocp.shx
  0
STYLE
  2
KICADB
  70
0
  40
0
  41
1
  42
1
  50
0
  71
0
  3
isocp.shx
  0
STYLE
  2
KICADI
  70
0
  40
0
  41
1
  42
1
  50
15
  71
0
  3
isocp.shx
  0
STYLE
  2
KICADBI
  70
0
  40
0
  41
1
  42
1
  50
15
  71
0
  3
isocp.shx
  0
ENDTAB
  0
TABLE
  2
LAYER
  70
1
  0
LAYER
  2
BLACK
  70
0
  62
7
  6
CONTINUOUS
  0
ENDTAB
  0
ENDSEC
  0
SECTION
  2
ENTITIES
0
LINE
8
BLACK
6
CONTINUOUS
10
0.2197842125984252
20
0.3164414566929134
11
0.232697125984252
21
0.3134941732283464
0
LINE
8
BLACK
6
CONTINUOUS
10
0.232697125984252
20
0.3134941732283464
11
0.2451988188976378
21
0.3091196456692913
0
LINE
8
BLACK
6
CONTINUOUS
10
0.2451988188976378
20
0.3091196456692913
11
0.2571321653543307
21
0.3033728346456693
0
LINE
8
BLACK
6
CONTINUOUS
10
0.2571321653543307
20
0.3033728346456693
11
0.2683470078740157
21
0.2963261023622047
0
LINE
8
BLACK
6
CONTINUOUS
10
0.2683470078740157
20
0.2963261023622047
11
0.2787023622047244
21
0.2880679527559055
0
LINE
8
BLACK
6
CONTINUOUS
10
0.2787023622047244
20
0.2880679527559055
11
0.2880679527559055
21
0.2787023622047244
0
LINE
8
BLACK
6
CONTINUOUS
10
0.2880679527559055
20
0.2787023622047244
11
0.2963261023622047
21
0.2683470078740157
0
LINE
8
BLACK
6
CONTINUOUS
10
0.2963261023622047
20
0.2683470078740157
11
0.3033728346456693
21
0.2571321653543307
0
LINE
8
BLACK
6
CONTINUOUS
10
0.3033728346456693
20
0.2571321653543307
11
0.3091196456692913
21
0.2451988188976378
0
LINE
8
BLACK
6
CONTINUOUS
10
0.3091196456692913
20
0.2451988188976378
11
0.3134941732283464
21
0.232697125984252
0
LINE
8
BLACK
6
CONTINUOUS
10
0.3134941732283464
20
0.232697125984252
11
0.3164414566929134
21
0.2197842125984252
0
LINE
8
BLACK
6
CONTINUOUS
10
0.3164414566929134
20
0.2197842125984252
11
0.3179244094488189
21
0.2066224803149606
0
LINE
8
BLACK
6
CONTINUOUS
10
0.3179244094488189
20
0.2066224803149606
11
0.3179244094488189
21
0.1933775196850394
0
LINE
8
BLACK
6
CONTINUOUS
10
0.3179244094488189
20
0.1933775196850394
11
0.3164414566929134
21
0.1802157874015748
0
LINE
8
BLACK
6
CONTINUOUS
10
0.3164414566929134
20
0.1802157874015748
11
0.3134941732283464
21
0.167302874015748
0
LINE
8
BLACK
6
CONTINUOUS
10
0.3134941732283464
20
0.167302874015748
11
0.3091196456692913
21
0.1548011811023622
0
LINE
8
BLACK
6
CONTINUOUS
10
0.3091196456692913
20
0.1548011811023622
11
0.3033728346456693
21
0.1428678346456693
0
LINE
8
BLACK
6
CONTINUOUS
10
0.3033728346456693
20
0.1428678346456693
11
0.2963261023622047
21
0.1316529921259842
0
LINE
8
BLACK
6
CONTINUOUS
10
0.2963261023622047
20
0.1316529921259842
11
0.2880679527559055
21
0.1212976377952756
0
LINE
8
BLACK
6
CONTINUOUS
10
0.2880679527559055
20
0.1212976377952756
11
0.2787023622047244
21
0.1119320472440945
0
LINE
8
BLACK
6
CONTINUOUS
10
0.2787023622047244
20
0.1119320472440945
11
0.2683470078740157
21
0.1036738976377953
0
LINE
8
BLACK
6
CONTINUOUS
10
0.2683470078740157
20
0.1036738976377953
11
0.2571321653543307
21
0.0966271653543307
0
LINE
8
BLACK
6
CONTINUOUS
10
0.2571321653543307
20
0.0966271653543307
11
0.2451988188976378
21
0.0908803543307087
0
LINE
8
BLACK
6
CONTINUOUS
10
0.2451988188976378
20
0.0908803543307087
11
0.232697125984252
21
0.0865058267716535
0
LINE
8
BLACK
6
CONTINUOUS
10
0.232697125984252
20
0.0865058267716535
11
0.2197842125984252
21
0.0835585433070866
0
LINE
8
BLACK
6
CONTINUOUS
10
0.2197842125984252
20
0.0835585433070866
11
0.2066224803149606
21
0.0820755905511811
0
LINE
8
BLACK
6
CONTINUOUS
10
0.2066224803149606
20
0.0820755905511811
11
0.1933775196850394
21
0.0820755905511811
0
LINE
8
BLACK
6
CONTINUOUS
10
0.1933775196850394
20
0.0820755905511811
11
0.1802157874015748
21
0.0835585433070866
0
LINE
8
BLACK
6
CONTINUOUS
10
0.1802157874015748
20
0.0835585433070866
11
0.167302874015748
21
0.0865058267716535
0
LINE
8
BLACK
6
CONTINUOUS
10
0.167302874015748
20
0.0865058267716535
11
0.1548011811023622
21
0.0908803543307087
0
LINE
8
BLACK
6
CONTINUOUS
10
0.1548011811023622
20
0.0908803543307087
11
0.1428678346456693
21
0.0966271653543307
0
LINE
8
BLACK
6
CONTINUOUS
10
0.1428678346456693
20
0.0966271653543307
11
0.1316529921259842
21
0.1036738976377953
0
LINE
8
BLACK
6
CONTINUOUS
10
0.1316529921259842
20
0.1036738976377953
11
0.1212976377952756
21
0.1119320472440945
0
LINE
8
BLACK
6
CONTINUOUS
10
0.1212976377952756
20
0.1119320472440945
11
0.1119320472440945
21
0.1212976377952756
0
LINE
8
BLACK
6
CONTINUOUS
10
0.1119320472440945
20
0.1212976377952756
11
0.1036738976377953
21
0.1316529921259842
0
LINE
8
BLACK
6
CONTINUOUS
10
0.1036738976377953
20
0.1316529921259842
11
0.0966271653543307
21
0.1428678346456693
0
LINE
8
BLACK
6
CONTINUOUS
10
0.0966271653543307
20
0.1428678346456693
11
0.0908803543307087
21
0.1548011811023622
0
LINE
8
BLACK
6
CONTINUOUS
10
0.0908803543307087
20
0.1548011811023622
11
0.0865058267716535
21
0.167302874015748
0
LINE
8
BLACK
6
CONTINUOUS
10
0.0865058267716535
20
0.167302874015748
11
0.0835585433070866
21
0.1802157874015748
0
LINE
8
BLACK
6
CONTINUOUS
10
0.0835585433070866
20
0.1802157874015748
11
0.0820755905511811
21
0.1933775196850394
0
LINE
8
BLACK
6
CONTINUOUS
10
0.0820755905511811
20
0.1933775196850394
11
0.0820755905511811
21
0.2066224803149606
0
LINE
8
BLACK
6
CONTINUOUS
10
0.0820755905511811
20
0.2066224803149606
11
0.0835585433070866
21
0.2197842125984252
0
LINE
8
BLACK
6
CONTINUOUS
10
0.0835585433070866
20
0.2197842125984252
11
0.0865058267716535
21
0.232697125984252
0
LINE
8
BLACK
6
CONTINUOUS
10
0.0865058267716535
20
0.232697125984252
11
0.0908803543307087
21
0.2451988188976378
0
LINE
8
BLACK
6
CONTINUOUS
10
0.0908803543307087
20
0.2451988188976378
11
0.0966271653543307
21
0.2571321653543307
0
LINE
8
BLACK
6
CONTINUOUS
10
0.0966271653543307
20
0.2571321653543307
11
0.1036738976377953
21
0.2683470078740157
0
LINE
8
BLACK
6
CONTINUOUS
10
0.1036738976377953
20
0.2683470078740157
11
0.1119320472440945
21
0.2787023622047244
0
LINE
8
BLACK
6
CONTINUOUS
10
0.1119320472440945
20
0.2787023622047244
11
0.1212976377952756
21
0.2880679527559055
0
LINE
8
BLACK
6
CONTINUOUS
10
0.1212976377952756
20
0.2880679527559055
11
0.1316529921259842
21
0.2963261023622047
0
LINE
8
BLACK
6
CONTINUOUS
10
0.1316529921259842
20
0.2963261023622047
11
0.1428678346456693
21
0.3033728346456693
0
LINE
8
BLACK
6
CONTINUOUS
10
0.1428678346456693
20
0.3033728346456693
11
0.1548011811023622
21
0.3091196456692913
0
LINE
8
BLACK
6
CONTINUOUS
10
0.1548011811023622
20
0.3091196456692913
11
0.167302874015748
21
0.3134941732283464
0
LINE
8
BLACK
6
CONTINUOUS
10
0.167302874015748
20
0.3134941732283464
11
0.1802157874015748
21
0.3164414566929134
0
LINE
8
BLACK
6
CONTINUOUS
10
0.1802157874015748
20
0.3164414566929134
11
0.1933775196850394
21
0.3179244094488189
0
LINE
8
BLACK
6
CONTINUOUS
10
0.1933775196850394
20
0.3179244094488189
11
0.2066224803149606
21
0.3179244094488189
0
LINE
8
BLACK
6
CONTINUOUS
10
0.2066224803149606
20
0.3179244094488189
11
0.2197842125984252
21
0.3164414566929134
0
LINE
8
BLACK
6
CONTINUOUS
10
1.4197842125984252
20
0.3164414566929134
11
1.432697125984252
21
0.3134941732283464
0
LINE
8
BLACK
6
CONTINUOUS
10
1.432697125984252
20
0.3134941732283464
11
1.4451988188976377
21
0.3091196456692913
0
LINE
8
BLACK
6
CONTINUOUS
10
1.4451988188976377
20
0.3091196456692913
11
1.4571321653543308
21
0.3033728346456693
0
LINE
8
BLACK
6
CONTINUOUS
10
1.4571321653543308
20
0.3033728346456693
11
1.4683470078740157
21
0.2963261023622047
0
LINE
8
BLACK
6
CONTINUOUS
10
1.4683470078740157
20
0.2963261023622047
11
1.4787023622047244
21
0.2880679527559055
0
LINE
8
BLACK
6
CONTINUOUS
10
1.4787023622047244
20
0.2880679527559055
11
1.4880679527559055
21
0.2787023622047244
0
LINE
8
BLACK
6
CONTINUOUS
10
1.4880679527559055
20
0.2787023622047244
11
1.4963261023622048
21
0.2683470078740157
0
LINE
8
BLACK
6
CONTINUOUS
10
1.4963261023622048
20
0.2683470078740157
11
1.5033728346456692
21
0.2571321653543307
0
LINE
8
BLACK
6
CONTINUOUS
10
1.5033728346456692
20
0.2571321653543307
11
1.5091196456692912
21
0.2451988188976378
0
LINE
8
BLACK
6
CONTINUOUS
10
1.5091196456692912
20
0.2451988188976378
11
1.5134941732283465
21
0.232697125984252
0
LINE
8
BLACK
6
CONTINUOUS
10
1.5134941732283465
20
0.232697125984252
11
1.5164414566929134
21
0.2197842125984252
0
LINE
8
BLACK
6
CONTINUOUS
10
1.5164414566929134
20
0.2197842125984252
11
1.5179244094488189
21
0.2066224803149606
0
LINE
8
BLACK
6
CONTINUOUS
10
1.5179244094488189
20
0.2066224803149606
11
1.5179244094488189
21
0.1933775196850394
0
LINE
8
BLACK
6
CONTINUOUS
10
1.5179244094488189
20
0.1933775196850394
11
1.5164414566929134
21
0.1802157874015748
0
LINE
8
BLACK
6
CONTINUOUS
10
1.5164414566929134
20
0.1802157874015748
11
1.5134941732283465
21
0.167302874015748
0
LINE
8
BLACK
6
CONTINUOUS
10
1.5134941732283465
20
0.167302874015748
11
1.5091196456692912
21
0.1548011811023622
0
LINE
8
BLACK
6
CONTINUOUS
10
1.5091196456692912
20
0.1548011811023622
11
1.5033728346456692
21
0.1428678346456693
0
LINE
8
BLACK
6
CONTINUOUS
10
1.5033728346456692
20
0.1428678346456693
11
1.4963261023622048
21
0.1316529921259842
0
LINE
8
BLACK
6
CONTINUOUS
10
1.4963261023622048
20
0.1316529921259842
11
1.4880679527559055
21
0.1212976377952756
0
LINE
8
BLACK
6
CONTINUOUS
10
1.4880679527559055
20
0.1212976377952756
11
1.4787023622047244
21
0.1119320472440945
0
LINE
8
BLACK
6
CONTINUOUS
10
1.4787023622047244
20
0.1119320472440945
11
1.4683470078740157
21
0.1036738976377953
0
LINE
8
BLACK
6
CONTINUOUS
10
1.4683470078740157
20
0.1036738976377953
11
1.4571321653543308
21
0.0966271653543307
0
LINE
8
BLACK
6
CONTINUOUS
10
1.4571321653543308
20
0.0966271653543307
11
1.4451988188976377
21
0.0908803543307087
0
LINE
8
BLACK
6
CONTINUOUS
10
1.4451988188976377
20
0.0908803543307087
11
1.432697125984252
21
0.0865058267716535
0
LINE
8
BLACK
6
CONTINUOUS
10
1.432697125984252
20
0.0865058267716535
11
1.4197842125984252
21
0.0835585433070866
0
LINE
8
BLACK
6
CONTINUOUS
10
1.4197842125984252
20
0.0835585433070866
11
1.4066224803149605
21
0.0820755905511811
0
LINE
8
BLACK
6
CONTINUOUS
10
1.4066224803149605
20
0.0820755905511811
11
1.3933775196850393
21
0.0820755905511811
0
LINE
8
BLACK
6
CONTINUOUS
10
1.3933775196850393
20
0.0820755905511811
11
1.3802157874015748
21
0.0835585433070866
0
LINE
8
BLACK
6
CONTINUOUS
10
1.3802157874015748
20
0.0835585433070866
11
1.367302874015748
21
0.0865058267716535
0
LINE
8
BLACK
6
CONTINUOUS
10
1.367302874015748
20
0.0865058267716535
11
1.3548011811023621
21
0.0908803543307087
0
LINE
8
BLACK
6
CONTINUOUS
10
1.3548011811023621
20
0.0908803543307087
11
1.3428678346456693
21
0.0966271653543307
0
LINE
8
BLACK
6
CONTINUOUS
10
1.3428678346456693
20
0.0966271653543307
11
1.3316529921259843
21
0.1036738976377953
0
LINE
8
BLACK
6
CONTINUOUS
10
1.3316529921259843
20
0.1036738976377953
11
1.3212976377952756
21
0.1119320472440945
0
LINE
8
BLACK
6
CONTINUOUS
10
1.3212976377952756
20
0.1119320472440945
11
1.3119320472440945
21
0.1212976377952756
0
LINE
8
BLACK
6
CONTINUOUS
10
1.3119320472440945
20
0.1212976377952756
11
1.3036738976377953
21
0.1316529921259842
0
LINE
8
BLACK
6
CONTINUOUS
10
1.3036738976377953
20
0.1316529921259842
11
1.2966271653543306
21
0.1428678346456693
0
LINE
8
BLACK
6
CONTINUOUS
10
1.2966271653543306
20
0.1428678346456693
11
1.2908803543307086
21
0.1548011811023622
0
LINE
8
BLACK
6
CONTINUOUS
10
1.2908803543307086
20
0.1548011811023622
11
1.2865058267716536
21
0.167302874015748
0
LINE
8
BLACK
6
CONTINUOUS
10
1.2865058267716536
20
0.167302874015748
11
1.2835585433070866
21
0.1802157874015748
0
LINE
8
BLACK
6
CONTINUOUS
10
1.2835585433070866
20
0.1802157874015748
11
1.2820755905511811
21
0.1933775196850394
0
LINE
8
BLACK
6
CONTINUOUS
10
1.2820755905511811
20
0.1933775196850394
11
1.2820755905511811
21
0.2066224803149606
0
LINE
8
BLACK
6
CONTINUOUS
10
1.2820755905511811
20
0.2066224803149606
11
1.2835585433070866
21
0.2197842125984252
0
LINE
8
BLACK
6
CONTINUOUS
10
1.2835585433070866
20
0.2197842125984252
11
1.2865058267716536
21
0.232697125984252
0
LINE
8
BLACK
6
CONTINUOUS
10
1.2865058267716536
20
0.232697125984252
11
1.2908803543307086
21
0.2451988188976378
0
LINE
8
BLACK
6
CONTINUOUS
10
1.2908803543307086
20
0.2451988188976378
11
1.2966271653543306
21
0.2571321653543307
0
LINE
8
BLACK
6
CONTINUOUS
10
1.2966271653543306
20
0.2571321653543307
11
1.3036738976377953
21
0.2683470078740157
0
LINE
8
BLACK
6
CONTINUOUS
10
1.3036738976377953
20
0.2683470078740157
11
1.3119320472440945
21
0.2787023622047244
0
LINE
8
BLACK
6
CONTINUOUS
10
1.3119320472440945
20
0.2787023622047244
11
1.3212976377952756
21
0.2880679527559055
0
LINE
8
BLACK
6
CONTINUOUS
10
1.3212976377952756
20
0.2880679527559055
11
1.3316529921259843
21
0.2963261023622047
0
LINE
8
BLACK
6
CONTINUOUS
10
1.3316529921259843
20
0.2963261023622047
11
1.3428678346456693
21
0.3033728346456693
0
LINE
8
BLACK
6
CONTINUOUS
10
1.3428678346456693
20
0.3033728346456693
11
1.3548011811023621
21
0.3091196456692913
0
LINE
8
BLACK
6
CONTINUOUS
10
1.3548011811023621
20
0.3091196456692913
11
1.367302874015748
21
0.3134941732283464
0
LINE
8
BLACK
6
CONTINUOUS
10
1.367302874015748
20
0.3134941732283464
11
1.3802157874015748
21
0.3164414566929134
0
LINE
8
BLACK
6
CONTINUOUS
10
1.3802157874015748
20
0.3164414566929134
11
1.3933775196850393
21
0.3179244094488189
0
LINE
8
BLACK
6
CONTINUOUS
10
1.3933775196850393
20
0.3179244094488189
11
1.4066224803149605
21
0.3179244094488189
0
LINE
8
BLACK
6
CONTINUOUS
10
1.4066224803149605
20
0.3179244094488189
11
1.4197842125984252
21
0.3164414566929134
0
LINE
8
BLACK
6
CONTINUOUS
10
1.2534384251968504
20
0.5845211811023622
11
1.2580793307086613
21
0.5825988582677165
0
LINE
8
BLACK
6
CONTINUOUS
10
1.2580793307086613
20
0.5825988582677165
11
1.262256062992126
21
0.5798080708661417
0
LINE
8
BLACK
6
CONTINUOUS
10
1.262256062992126
20
0.5798080708661417
11
1.2658080708661417
21
0.576256062992126
0
LINE
8
BLACK
6
CONTINUOUS
10
1.2658080708661417
20
0.576256062992126
11
1.2685988582677166
21
0.5720793307086613
0
LINE
8
BLACK
6
CONTINUOUS
10
1.2685988582677166
20
0.5720793307086613
11
1.2705211811023622
21
0.5674384251968504
0
LINE
8
BLACK
6
CONTINUOUS
10
1.2705211811023622
20
0.5674384251968504
11
1.2715011811023622
21
0.5625116535433071
0
LINE
8
BLACK
6
CONTINUOUS
10
1.2715011811023622
20
0.5625116535433071
11
1.2715011811023622
21
0.5574883464566929
0
LINE
8
BLACK
6
CONTINUOUS
10
1.2715011811023622
20
0.5574883464566929
11
1.2705211811023622
21
0.5525615748031496
0
LINE
8
BLACK
6
CONTINUOUS
10
1.2705211811023622
20
0.5525615748031496
11
1.2685988582677166
21
0.5479206692913385
0
LINE
8
BLACK
6
CONTINUOUS
10
1.2685988582677166
20
0.5479206692913385
11
1.2658080708661417
21
0.543743937007874
0
LINE
8
BLACK
6
CONTINUOUS
10
1.2658080708661417
20
0.543743937007874
11
1.262256062992126
21
0.5401919291338583
0
LINE
8
BLACK
6
CONTINUOUS
10
1.262256062992126
20
0.5401919291338583
11
1.2580793307086613
21
0.5374011417322835
0
LINE
8
BLACK
6
CONTINUOUS
10
1.2580793307086613
20
0.5374011417322835
11
1.2534384251968504
21
0.5354788188976378
0
LINE
8
BLACK
6
CONTINUOUS
10
1.2534384251968504
20
0.5354788188976378
11
1.248511653543307
21
0.5344988188976377
0
LINE
8
BLACK
6
CONTINUOUS
10
1.248511653543307
20
0.5344988188976377
11
1.2434883464566928
21
0.5344988188976377
0
LINE
8
BLACK
6
CONTINUOUS
10
1.2434883464566928
20
0.5344988188976377
11
1.2385615748031495
21
0.5354788188976378
0
LINE
8
BLACK
6
CONTINUOUS
10
1.2385615748031495
20
0.5354788188976378
11
1.2339206692913385
21
0.5374011417322835
0
LINE
8
BLACK
6
CONTINUOUS
10
1.2339206692913385
20
0.5374011417322835
11
1.229743937007874
21
0.5401919291338583
0
LINE
8
BLACK
6
CONTINUOUS
10
1.229743937007874
20
0.5401919291338583
11
1.2261919291338583
21
0.543743937007874
0
LINE
8
BLACK
6
CONTINUOUS
10
1.2261919291338583
20
0.543743937007874
11
1.2234011417322834
21
0.5479206692913385
0
LINE
8
BLACK
6
CONTINUOUS
10
1.2234011417322834
20
0.5479206692913385
11
1.2214788188976378
21
0.5525615748031496
0
LINE
8
BLACK
6
CONTINUOUS
10
1.2214788188976378
20
0.5525615748031496
11
1.2204988188976378
21
0.5574883464566929
0
LINE
8
BLACK
6
CONTINUOUS
10
1.2204988188976378
20
0.5574883464566929
11
1.2204988188976378
21
0.5621133464566929
0
LINE
8
BLACK
6
CONTINUOUS
10
1.2204988188976378
20
0.5621133464566929
11
1.2204988188976378
21
0.5625116535433071
0
LINE
8
BLACK
6
CONTINUOUS
10
1.2204988188976378
20
0.5625116535433071
11
1.2214788188976378
21
0.5674384251968504
0
LINE
8
BLACK
6
CONTINUOUS
10
1.2214788188976378
20
0.5674384251968504
11
1.2234011417322834
21
0.5720793307086613
0
LINE
8
BLACK
6
CONTINUOUS
10
1.2234011417322834
20
0.5720793307086613
11
1.2261919291338583
21
0.576256062992126
0
LINE
8
BLACK
6
CONTINUOUS
10
1.2261919291338583
20
0.576256062992126
11
1.229743937007874
21
0.5798080708661417
0
LINE
8
BLACK
6
CONTINUOUS
10
1.229743937007874
20
0.5798080708661417
11
1.2339206692913385
21
0.5825988582677165
0
LINE
8
BLACK
6
CONTINUOUS
10
1.2339206692913385
20
0.5825988582677165
11
1.2385615748031495
21
0.5845211811023622
0
LINE
8
BLACK
6
CONTINUOUS
10
1.2385615748031495
20
0.5845211811023622
11
1.2434883464566928
21
0.5855011811023622
0
LINE
8
BLACK
6
CONTINUOUS
10
1.2434883464566928
20
0.5855011811023622
11
1.248511653543307
21
0.5855011811023622
0
LINE
8
BLACK
6
CONTINUOUS
10
1.248511653543307
20
0.5855011811023622
11
1.2534384251968504
21
0.5845211811023622
0
LINE
8
BLACK
6
CONTINUOUS
10
1.2446897637795276
20
0.5605427165354331
11
1.2446897637795276
21
0.5594572834645669
0
LINE
8
BLACK
6
CONTINUOUS
10
1.2446897637795276
20
0.5594572834645669
11
1.245457283464567
21
0.5586897637795275
0
LINE
8
BLACK
6
CONTINUOUS
10
1.245457283464567
20
0.5586897637795275
11
1.246542716535433
21
0.5586897637795275
0
LINE
8
BLACK
6
CONTINUOUS
10
1.246542716535433
20
0.5586897637795275
11
1.2473102362204724
21
0.5594572834645669
0
LINE
8
BLACK
6
CONTINUOUS
10
1.2473102362204724
20
0.5594572834645669
11
1.2473102362204724
21
0.5605427165354331
0
LINE
8
BLACK
6
CONTINUOUS
10
1.2473102362204724
20
0.5605427165354331
11
1.246542716535433
21
0.5613102362204724
0
LINE
8
BLACK
6
CONTINUOUS
10
1.246542716535433
20
0.5613102362204724
11
1.245457283464567
21
0.5613102362204724
0
LINE
8
BLACK
6
CONTINUOUS
10
1.245457283464567
20
0.5613102362204724
11
1.2446897637795276
21
0.5605427165354331
0
LINE
8
BLACK
6
CONTINUOUS
10
0.2197842125984252
20
1.9164414566929133
11
0.232697125984252
21
1.9134941732283464
0
LINE
8
BLACK
6
CONTINUOUS
10
0.232697125984252
20
1.9134941732283464
11
0.2451988188976378
21
1.9091196456692914
0
LINE
8
BLACK
6
CONTINUOUS
10
0.2451988188976378
20
1.9091196456692914
11
0.2571321653543307
21
1.9033728346456693
0
LINE
8
BLACK
6
CONTINUOUS
10
0.2571321653543307
20
1.9033728346456693
11
0.2683470078740157
21
1.8963261023622047
0
LINE
8
BLACK
6
CONTINUOUS
10
0.2683470078740157
20
1.8963261023622047
11
0.2787023622047244
21
1.8880679527559054
0
LINE
8
BLACK
6
CONTINUOUS
10
0.2787023622047244
20
1.8880679527559054
11
0.2880679527559055
21
1.8787023622047243
0
LINE
8
BLACK
6
CONTINUOUS
10
0.2880679527559055
20
1.8787023622047243
11
0.2963261023622047
21
1.8683470078740156
0
LINE
8
BLACK
6
CONTINUOUS
10
0.2963261023622047
20
1.8683470078740156
11
0.3033728346456693
21
1.8571321653543307
0
LINE
8
BLACK
6
CONTINUOUS
10
0.3033728346456693
20
1.8571321653543307
11
0.3091196456692913
21
1.8451988188976378
0
LINE
8
BLACK
6
CONTINUOUS
10
0.3091196456692913
20
1.8451988188976378
11
0.3134941732283464
21
1.8326971259842519
0
LINE
8
BLACK
6
CONTINUOUS
10
0.3134941732283464
20
1.8326971259842519
11
0.3164414566929134
21
1.8197842125984252
0
LINE
8
BLACK
6
CONTINUOUS
10
0.3164414566929134
20
1.8197842125984252
11
0.3179244094488189
21
1.8066224803149606
0
LINE
8
BLACK
6
CONTINUOUS
10
0.3179244094488189
20
1.8066224803149606
11
0.3179244094488189
21
1.7933775196850392
0
LINE
8
BLACK
6
CONTINUOUS
10
0.3179244094488189
20
1.7933775196850392
11
0.3164414566929134
21
1.7802157874015747
0
LINE
8
BLACK
6
CONTINUOUS
10
0.3164414566929134
20
1.7802157874015747
11
0.3134941732283464
21
1.7673028740157479
0
LINE
8
BLACK
6
CONTINUOUS
10
0.3134941732283464
20
1.7673028740157479
11
0.3091196456692913
21
1.7548011811023623
0
LINE
8
BLACK
6
CONTINUOUS
10
0.3091196456692913
20
1.7548011811023623
11
0.3033728346456693
21
1.7428678346456692
0
LINE
8
BLACK
6
CONTINUOUS
10
0.3033728346456693
20
1.7428678346456692
11
0.2963261023622047
21
1.7316529921259842
0
LINE
8
BLACK
6
CONTINUOUS
10
0.2963261023622047
20
1.7316529921259842
11
0.2880679527559055
21
1.7212976377952756
0
LINE
8
BLACK
6
CONTINUOUS
10
0.2880679527559055
20
1.7212976377952756
11
0.2787023622047244
21
1.7119320472440944
0
LINE
8
BLACK
6
CONTINUOUS
10
0.2787023622047244
20
1.7119320472440944
11
0.2683470078740157
21
1.7036738976377952
0
LINE
8
BLACK
6
CONTINUOUS
10
0.2683470078740157
20
1.7036738976377952
11
0.2571321653543307
21
1.6966271653543308
0
LINE
8
BLACK
6
CONTINUOUS
10
0.2571321653543307
20
1.6966271653543308
11
0.2451988188976378
21
1.6908803543307087
0
LINE
8
BLACK
6
CONTINUOUS
10
0.2451988188976378
20
1.6908803543307087
11
0.232697125984252
21
1.6865058267716535
0
LINE
8
BLACK
6
CONTINUOUS
10
0.232697125984252
20
1.6865058267716535
11
0.2197842125984252
21
1.6835585433070865
0
LINE
8
BLACK
6
CONTINUOUS
10
0.2197842125984252
20
1.6835585433070865
11
0.2066224803149606
21
1.6820755905511811
0
LINE
8
BLACK
6
CONTINUOUS
10
0.2066224803149606
20
1.6820755905511811
11
0.1933775196850394
21
1.6820755905511811
0
LINE
8
BLACK
6
CONTINUOUS
10
0.1933775196850394
20
1.6820755905511811
11
0.1802157874015748
21
1.6835585433070865
0
LINE
8
BLACK
6
CONTINUOUS
10
0.1802157874015748
20
1.6835585433070865
11
0.167302874015748
21
1.6865058267716535
0
LINE
8
BLACK
6
CONTINUOUS
10
0.167302874015748
20
1.6865058267716535
11
0.1548011811023622
21
1.6908803543307087
0
LINE
8
BLACK
6
CONTINUOUS
10
0.1548011811023622
20
1.6908803543307087
11
0.1428678346456693
21
1.6966271653543308
0
LINE
8
BLACK
6
CONTINUOUS
10
0.1428678346456693
20
1.6966271653543308
11
0.1316529921259842
21
1.7036738976377952
0
LINE
8
BLACK
6
CONTINUOUS
10
0.1316529921259842
20
1.7036738976377952
11
0.1212976377952756
21
1.7119320472440944
0
LINE
8
BLACK
6
CONTINUOUS
10
0.1212976377952756
20
1.7119320472440944
11
0.1119320472440945
21
1.7212976377952756
0
LINE
8
BLACK
6
CONTINUOUS
10
0.1119320472440945
20
1.7212976377952756
11
0.1036738976377953
21
1.7316529921259842
0
LINE
8
BLACK
6
CONTINUOUS
10
0.1036738976377953
20
1.7316529921259842
11
0.0966271653543307
21
1.7428678346456692
0
LINE
8
BLACK
6
CONTINUOUS
10
0.0966271653543307
20
1.7428678346456692
11
0.0908803543307087
21
1.7548011811023623
0
LINE
8
BLACK
6
CONTINUOUS
10
0.0908803543307087
20
1.7548011811023623
11
0.0865058267716535
21
1.7673028740157479
0
LINE
8
BLACK
6
CONTINUOUS
10
0.0865058267716535
20
1.7673028740157479
11
0.0835585433070866
21
1.7802157874015747
0
LINE
8
BLACK
6
CONTINUOUS
10
0.0835585433070866
20
1.7802157874015747
11
0.0820755905511811
21
1.7933775196850392
0
LINE
8
BLACK
6
CONTINUOUS
10
0.0820755905511811
20
1.7933775196850392
11
0.0820755905511811
21
1.8066224803149606
0
LINE
8
BLACK
6
CONTINUOUS
10
0.0820755905511811
20
1.8066224803149606
11
0.0835585433070866
21
1.8197842125984252
0
LINE
8
BLACK
6
CONTINUOUS
10
0.0835585433070866
20
1.8197842125984252
11
0.0865058267716535
21
1.8326971259842519
0
LINE
8
BLACK
6
CONTINUOUS
10
0.0865058267716535
20
1.8326971259842519
11
0.0908803543307087
21
1.8451988188976378
0
LINE
8
BLACK
6
CONTINUOUS
10
0.0908803543307087
20
1.8451988188976378
11
0.0966271653543307
21
1.8571321653543307
0
LINE
8
BLACK
6
CONTINUOUS
10
0.0966271653543307
20
1.8571321653543307
11
0.1036738976377953
21
1.8683470078740156
0
LINE
8
BLACK
6
CONTINUOUS
10
0.1036738976377953
20
1.8683470078740156
11
0.1119320472440945
21
1.8787023622047243
0
LINE
8
BLACK
6
CONTINUOUS
10
0.1119320472440945
20
1.8787023622047243
11
0.1212976377952756
21
1.8880679527559054
0
LINE
8
BLACK
6
CONTINUOUS
10
0.1212976377952756
20
1.8880679527559054
11
0.1316529921259842
21
1.8963261023622047
0
LINE
8
BLACK
6
CONTINUOUS
10
0.1316529921259842
20
1.8963261023622047
11
0.1428678346456693
21
1.9033728346456693
0
LINE
8
BLACK
6
CONTINUOUS
10
0.1428678346456693
20
1.9033728346456693
11
0.1548011811023622
21
1.9091196456692914
0
LINE
8
BLACK
6
CONTINUOUS
10
0.1548011811023622
20
1.9091196456692914
11
0.167302874015748
21
1.9134941732283464
0
LINE
8
BLACK
6
CONTINUOUS
10
0.167302874015748
20
1.9134941732283464
11
0.1802157874015748
21
1.9164414566929133
0
LINE
8
BLACK
6
CONTINUOUS
10
0.1802157874015748
20
1.9164414566929133
11
0.1933775196850394
21
1.9179244094488188
0
LINE
8
BLACK
6
CONTINUOUS
10
0.1933775196850394
20
1.9179244094488188
11
0.2066224803149606
21
1.9179244094488188
0
LINE
8
BLACK
6
CONTINUOUS
10
0.2066224803149606
20
1.9179244094488188
11
0.2197842125984252
21
1.9164414566929133
0
LINE
8
BLACK
6
CONTINUOUS
10
1.4197842125984252
20
1.9164414566929133
11
1.432697125984252
21
1.9134941732283464
0
LINE
8
BLACK
6
CONTINUOUS
10
1.432697125984252
20
1.9134941732283464
11
1.4451988188976377
21
1.9091196456692914
0
LINE
8
BLACK
6
CONTINUOUS
10
1.4451988188976377
20
1.9091196456692914
11
1.4571321653543308
21
1.9033728346456693
0
LINE
8
BLACK
6
CONTINUOUS
10
1.4571321653543308
20
1.9033728346456693
11
1.4683470078740157
21
1.8963261023622047
0
LINE
8
BLACK
6
CONTINUOUS
10
1.4683470078740157
20
1.8963261023622047
11
1.4787023622047244
21
1.8880679527559054
0
LINE
8
BLACK
6
CONTINUOUS
10
1.4787023622047244
20
1.8880679527559054
11
1.4880679527559055
21
1.8787023622047243
0
LINE
8
BLACK
6
CONTINUOUS
10
1.4880679527559055
20
1.8787023622047243
11
1.4963261023622048
21
1.8683470078740156
0
LINE
8
BLACK
6
CONTINUOUS
10
1.4963261023622048
20
1.8683470078740156
11
1.5033728346456692
21
1.8571321653543307
0
LINE
8
BLACK
6
CONTINUOUS
10
1.5033728346456692
20
1.8571321653543307
11
1.5091196456692912
21
1.8451988188976378
0
LINE
8
BLACK
6
CONTINUOUS
10
1.5091196456692912
20
1.8451988188976378
11
1.5134941732283465
21
1.8326971259842519
0
LINE
8
BLACK
6
CONTINUOUS
10
1.5134941732283465
20
1.8326971259842519
11
1.5164414566929134
21
1.8197842125984252
0
LINE
8
BLACK
6
CONTINUOUS
10
1.5164414566929134
20
1.8197842125984252
11
1.5179244094488189
21
1.8066224803149606
0
LINE
8
BLACK
6
CONTINUOUS
10
1.5179244094488189
20
1.8066224803149606
11
1.5179244094488189
21
1.7933775196850392
0
LINE
8
BLACK
6
CONTINUOUS
10
1.5179244094488189
20
1.7933775196850392
11
1.5164414566929134
21
1.7802157874015747
0
LINE
8
BLACK
6
CONTINUOUS
10
1.5164414566929134
20
1.7802157874015747
11
1.5134941732283465
21
1.7673028740157479
0
LINE
8
BLACK
6
CONTINUOUS
10
1.5134941732283465
20
1.7673028740157479
11
1.5091196456692912
21
1.7548011811023623
0
LINE
8
BLACK
6
CONTINUOUS
10
1.5091196456692912
20
1.7548011811023623
11
1.5033728346456692
21
1.7428678346456692
0
LINE
8
BLACK
6
CONTINUOUS
10
1.5033728346456692
20
1.7428678346456692
11
1.4963261023622048
21
1.7316529921259842
0
LINE
8
BLACK
6
CONTINUOUS
10
1.4963261023622048
20
1.7316529921259842
11
1.4880679527559055
21
1.7212976377952756
0
LINE
8
BLACK
6
CONTINUOUS
10
1.4880679527559055
20
1.7212976377952756
11
1.4787023622047244
21
1.7119320472440944
0
LINE
8
BLACK
6
CONTINUOUS
10
1.4787023622047244
20
1.7119320472440944
11
1.4683470078740157
21
1.7036738976377952
0
LINE
8
BLACK
6
CONTINUOUS
10
1.4683470078740157
20
1.7036738976377952
11
1.4571321653543308
21
1.6966271653543308
0
LINE
8
BLACK
6
CONTINUOUS
10
1.4571321653543308
20
1.6966271653543308
11
1.4451988188976377
21
1.6908803543307087
0
LINE
8
BLACK
6
CONTINUOUS
10
1.4451988188976377
20
1.6908803543307087
11
1.432697125984252
21
1.6865058267716535
0
LINE
8
BLACK
6
CONTINUOUS
10
1.432697125984252
20
1.6865058267716535
11
1.4197842125984252
21
1.6835585433070865
0
LINE
8
BLACK
6
CONTINUOUS
10
1.4197842125984252
20
1.6835585433070865
11
1.4066224803149605
21
1.6820755905511811
0
LINE
8
BLACK
6
CONTINUOUS
10
1.4066224803149605
20
1.6820755905511811
11
1.3933775196850393
21
1.6820755905511811
0
LINE
8
BLACK
6
CONTINUOUS
10
1.3933775196850393
20
1.6820755905511811
11
1.3802157874015748
21
1.6835585433070865
0
LINE
8
BLACK
6
CONTINUOUS
10
1.3802157874015748
20
1.6835585433070865
11
1.367302874015748
21
1.6865058267716535
0
LINE
8
BLACK
6
CONTINUOUS
10
1.367302874015748
20
1.6865058267716535
11
1.3548011811023621
21
1.6908803543307087
0
LINE
8
BLACK
6
CONTINUOUS
10
1.3548011811023621
20
1.6908803543307087
11
1.3428678346456693
21
1.6966271653543308
0
LINE
8
BLACK
6
CONTINUOUS
10
1.3428678346456693
20
1.6966271653543308
11
1.3316529921259843
21
1.7036738976377952
0
LINE
8
BLACK
6
CONTINUOUS
10
1.3316529921259843
20
1.7036738976377952
11
1.3212976377952756
21
1.7119320472440944
0
LINE
8
BLACK
6
CONTINUOUS
10
1.3212976377952756
20
1.7119320472440944
11
1.3119320472440945
21
1.7212976377952756
0
LINE
8
BLACK
6
CONTINUOUS
10
1.3119320472440945
20
1.7212976377952756
11
1.3036738976377953
21
1.7316529921259842
0
LINE
8
BLACK
6
CONTINUOUS
10
1.3036738976377953
20
1.7316529921259842
11
1.2966271653543306
21
1.7428678346456692
0
LINE
8
BLACK
6
CONTINUOUS
10
1.2966271653543306
20
1.7428678346456692
11
1.2908803543307086
21
1.7548011811023623
0
LINE
8
BLACK
6
CONTINUOUS
10
1.2908803543307086
20
1.7548011811023623
11
1.2865058267716536
21
1.7673028740157479
0
LINE
8
BLACK
6
CONTINUOUS
10
1.2865058267716536
20
1.7673028740157479
11
1.2835585433070866
21
1.7802157874015747
0
LINE
8
BLACK
6
CONTINUOUS
10
1.2835585433070866
20
1.7802157874015747
11
1.2820755905511811
21
1.7933775196850392
0
LINE
8
BLACK
6
CONTINUOUS
10
1.2820755905511811
20
1.7933775196850392
11
1.2820755905511811
21
1.8066224803149606
0
LINE
8
BLACK
6
CONTINUOUS
10
1.2820755905511811
20
1.8066224803149606
11
1.2835585433070866
21
1.8197842125984252
0
LINE
8
BLACK
6
CONTINUOUS
10
1.2835585433070866
20
1.8197842125984252
11
1.2865058267716536
21
1.8326971259842519
0
LINE
8
BLACK
6
CONTINUOUS
10
1.2865058267716536
20
1.8326971259842519
11
1.2908803543307086
21
1.8451988188976378
0
LINE
8
BLACK
6
CONTINUOUS
10
1.2908803543307086
20
1.8451988188976378
11
1.2966271653543306
21
1.8571321653543307
0
LINE
8
BLACK
6
CONTINUOUS
10
1.2966271653543306
20
1.8571321653543307
11
1.3036738976377953
21
1.8683470078740156
0
LINE
8
BLACK
6
CONTINUOUS
10
1.3036738976377953
20
1.8683470078740156
11
1.3119320472440945
21
1.8787023622047243
0
LINE
8
BLACK
6
CONTINUOUS
10
1.3119320472440945
20
1.8787023622047243
11
1.3212976377952756
21
1.8880679527559054
0
LINE
8
BLACK
6
CONTINUOUS
10
1.3212976377952756
20
1.8880679527559054
11
1.3316529921259843
21
1.8963261023622047
0
LINE
8
BLACK
6
CONTINUOUS
10
1.3316529921259843
20
1.8963261023622047
11
1.3428678346456693
21
1.9033728346456693
0
LINE
8
BLACK
6
CONTINUOUS
10
1.3428678346456693
20
1.9033728346456693
11
1.3548011811023621
21
1.9091196456692914
0
LINE
8
BLACK
6
CONTINUOUS
10
1.3548011811023621
20
1.9091196456692914
11
1.367302874015748
21
1.9134941732283464
0
LINE
8
BLACK
6
CONTINUOUS
10
1.367302874015748
20
1.9134941732283464
11
1.3802157874015748
21
1.9164414566929133
0
LINE
8
BLACK
6
CONTINUOUS
10
1.3802157874015748
20
1.9164414566929133
11
1.3933775196850393
21
1.9179244094488188
0
LINE
8
BLACK
6
CONTINUOUS
10
1.3933775196850393
20
1.9179244094488188
11
1.4066224803149605
21
1.9179244094488188
0
LINE
8
BLACK
6
CONTINUOUS
10
1.4066224803149605
20
1.9179244094488188
11
1.4197842125984252
21
1.9164414566929133
  0
ENDSEC
  0
EOF
