%TF.GenerationSoftware,KiCad,Pcbnew,9.0.1+1*%
%TF.CreationDate,2025-08-19T22:48:49+00:00*%
%TF.ProjectId,I2CDIFF01,49324344-4946-4463-9031-2e6b69636164,rev?*%
%TF.SameCoordinates,Original*%
%TF.FileFunction,Legend,Top*%
%TF.FilePolarity,Positive*%
%FSLAX46Y46*%
G04 Gerber Fmt 4.6, Leading zero omitted, Abs format (unit mm)*
G04 Created by KiCad (PCBNEW 9.0.1+1) date 2025-08-19 22:48:49*
%MOMM*%
%LPD*%
G01*
G04 APERTURE LIST*
%ADD10C,0.300000*%
%ADD11C,0.150000*%
%ADD12R,1.524000X1.524000*%
%ADD13C,3.300000*%
%ADD14C,1.300000*%
%ADD15C,1.500000*%
%ADD16C,2.300000*%
G04 APERTURE END LIST*
D10*
X17466328Y45490000D02*
X17466328Y45775714D01*
X17466328Y45775714D02*
X17537757Y45918571D01*
X17537757Y45918571D02*
X17680614Y46061428D01*
X17680614Y46061428D02*
X17966328Y46132857D01*
X17966328Y46132857D02*
X18466328Y46132857D01*
X18466328Y46132857D02*
X18752042Y46061428D01*
X18752042Y46061428D02*
X18894900Y45918571D01*
X18894900Y45918571D02*
X18966328Y45775714D01*
X18966328Y45775714D02*
X18966328Y45490000D01*
X18966328Y45490000D02*
X18894900Y45347143D01*
X18894900Y45347143D02*
X18752042Y45204285D01*
X18752042Y45204285D02*
X18466328Y45132857D01*
X18466328Y45132857D02*
X17966328Y45132857D01*
X17966328Y45132857D02*
X17680614Y45204285D01*
X17680614Y45204285D02*
X17537757Y45347143D01*
X17537757Y45347143D02*
X17466328Y45490000D01*
X17466328Y46775714D02*
X18680614Y46775714D01*
X18680614Y46775714D02*
X18823471Y46847143D01*
X18823471Y46847143D02*
X18894900Y46918572D01*
X18894900Y46918572D02*
X18966328Y47061429D01*
X18966328Y47061429D02*
X18966328Y47347143D01*
X18966328Y47347143D02*
X18894900Y47490000D01*
X18894900Y47490000D02*
X18823471Y47561429D01*
X18823471Y47561429D02*
X18680614Y47632857D01*
X18680614Y47632857D02*
X17466328Y47632857D01*
X17466328Y48132858D02*
X17466328Y48990001D01*
X18966328Y48561429D02*
X17466328Y48561429D01*
X7226571Y31648457D02*
X7626571Y30448457D01*
X7626571Y30448457D02*
X8026571Y31648457D01*
X8426571Y30448457D02*
X8426571Y31648457D01*
X8426571Y31648457D02*
X8712285Y31648457D01*
X8712285Y31648457D02*
X8883714Y31591314D01*
X8883714Y31591314D02*
X8997999Y31477028D01*
X8997999Y31477028D02*
X9055142Y31362742D01*
X9055142Y31362742D02*
X9112285Y31134171D01*
X9112285Y31134171D02*
X9112285Y30962742D01*
X9112285Y30962742D02*
X9055142Y30734171D01*
X9055142Y30734171D02*
X8997999Y30619885D01*
X8997999Y30619885D02*
X8883714Y30505600D01*
X8883714Y30505600D02*
X8712285Y30448457D01*
X8712285Y30448457D02*
X8426571Y30448457D01*
X9626571Y30448457D02*
X9626571Y31648457D01*
X9626571Y31648457D02*
X9912285Y31648457D01*
X9912285Y31648457D02*
X10083714Y31591314D01*
X10083714Y31591314D02*
X10197999Y31477028D01*
X10197999Y31477028D02*
X10255142Y31362742D01*
X10255142Y31362742D02*
X10312285Y31134171D01*
X10312285Y31134171D02*
X10312285Y30962742D01*
X10312285Y30962742D02*
X10255142Y30734171D01*
X10255142Y30734171D02*
X10197999Y30619885D01*
X10197999Y30619885D02*
X10083714Y30505600D01*
X10083714Y30505600D02*
X9912285Y30448457D01*
X9912285Y30448457D02*
X9626571Y30448457D01*
X10769428Y31534171D02*
X10826571Y31591314D01*
X10826571Y31591314D02*
X10940857Y31648457D01*
X10940857Y31648457D02*
X11226571Y31648457D01*
X11226571Y31648457D02*
X11340857Y31591314D01*
X11340857Y31591314D02*
X11397999Y31534171D01*
X11397999Y31534171D02*
X11455142Y31419885D01*
X11455142Y31419885D02*
X11455142Y31305600D01*
X11455142Y31305600D02*
X11397999Y31134171D01*
X11397999Y31134171D02*
X10712285Y30448457D01*
X10712285Y30448457D02*
X11455142Y30448457D01*
X31563328Y35004715D02*
X33063328Y35504715D01*
X33063328Y35504715D02*
X31563328Y36004715D01*
X33063328Y36504714D02*
X31563328Y36504714D01*
X31563328Y36504714D02*
X31563328Y36861857D01*
X31563328Y36861857D02*
X31634757Y37076143D01*
X31634757Y37076143D02*
X31777614Y37219000D01*
X31777614Y37219000D02*
X31920471Y37290429D01*
X31920471Y37290429D02*
X32206185Y37361857D01*
X32206185Y37361857D02*
X32420471Y37361857D01*
X32420471Y37361857D02*
X32706185Y37290429D01*
X32706185Y37290429D02*
X32849042Y37219000D01*
X32849042Y37219000D02*
X32991900Y37076143D01*
X32991900Y37076143D02*
X33063328Y36861857D01*
X33063328Y36861857D02*
X33063328Y36504714D01*
X33063328Y38004714D02*
X31563328Y38004714D01*
X31563328Y38004714D02*
X31563328Y38361857D01*
X31563328Y38361857D02*
X31634757Y38576143D01*
X31634757Y38576143D02*
X31777614Y38719000D01*
X31777614Y38719000D02*
X31920471Y38790429D01*
X31920471Y38790429D02*
X32206185Y38861857D01*
X32206185Y38861857D02*
X32420471Y38861857D01*
X32420471Y38861857D02*
X32706185Y38790429D01*
X32706185Y38790429D02*
X32849042Y38719000D01*
X32849042Y38719000D02*
X32991900Y38576143D01*
X32991900Y38576143D02*
X33063328Y38361857D01*
X33063328Y38361857D02*
X33063328Y38004714D01*
X33063328Y40290429D02*
X33063328Y39433286D01*
X33063328Y39861857D02*
X31563328Y39861857D01*
X31563328Y39861857D02*
X31777614Y39719000D01*
X31777614Y39719000D02*
X31920471Y39576143D01*
X31920471Y39576143D02*
X31991900Y39433286D01*
X2576000Y32278171D02*
X2076000Y32992457D01*
X1718857Y32278171D02*
X1718857Y33778171D01*
X1718857Y33778171D02*
X2290286Y33778171D01*
X2290286Y33778171D02*
X2433143Y33706742D01*
X2433143Y33706742D02*
X2504572Y33635314D01*
X2504572Y33635314D02*
X2576000Y33492457D01*
X2576000Y33492457D02*
X2576000Y33278171D01*
X2576000Y33278171D02*
X2504572Y33135314D01*
X2504572Y33135314D02*
X2433143Y33063885D01*
X2433143Y33063885D02*
X2290286Y32992457D01*
X2290286Y32992457D02*
X1718857Y32992457D01*
X3218857Y33063885D02*
X3718857Y33063885D01*
X3933143Y32278171D02*
X3218857Y32278171D01*
X3218857Y32278171D02*
X3218857Y33778171D01*
X3218857Y33778171D02*
X3933143Y33778171D01*
X4504572Y32706742D02*
X5218858Y32706742D01*
X4361715Y32278171D02*
X4861715Y33778171D01*
X4861715Y33778171D02*
X5361715Y32278171D01*
X5861714Y32278171D02*
X5861714Y33778171D01*
X5861714Y33778171D02*
X6218857Y33778171D01*
X6218857Y33778171D02*
X6433143Y33706742D01*
X6433143Y33706742D02*
X6576000Y33563885D01*
X6576000Y33563885D02*
X6647429Y33421028D01*
X6647429Y33421028D02*
X6718857Y33135314D01*
X6718857Y33135314D02*
X6718857Y32921028D01*
X6718857Y32921028D02*
X6647429Y32635314D01*
X6647429Y32635314D02*
X6576000Y32492457D01*
X6576000Y32492457D02*
X6433143Y32349600D01*
X6433143Y32349600D02*
X6218857Y32278171D01*
X6218857Y32278171D02*
X5861714Y32278171D01*
X7647429Y32992457D02*
X7647429Y32278171D01*
X7147429Y33778171D02*
X7647429Y32992457D01*
X7647429Y32992457D02*
X8147429Y33778171D01*
X30777328Y24888571D02*
X29277328Y24888571D01*
X29277328Y24888571D02*
X30348757Y25388571D01*
X30348757Y25388571D02*
X29277328Y25888571D01*
X29277328Y25888571D02*
X30777328Y25888571D01*
X30777328Y27317143D02*
X30777328Y26602857D01*
X30777328Y26602857D02*
X29277328Y26602857D01*
X30348757Y27745715D02*
X30348757Y28460001D01*
X30777328Y27602858D02*
X29277328Y28102858D01*
X29277328Y28102858D02*
X30777328Y28602858D01*
X29991614Y29602857D02*
X30063042Y29817143D01*
X30063042Y29817143D02*
X30134471Y29888572D01*
X30134471Y29888572D02*
X30277328Y29960000D01*
X30277328Y29960000D02*
X30491614Y29960000D01*
X30491614Y29960000D02*
X30634471Y29888572D01*
X30634471Y29888572D02*
X30705900Y29817143D01*
X30705900Y29817143D02*
X30777328Y29674286D01*
X30777328Y29674286D02*
X30777328Y29102857D01*
X30777328Y29102857D02*
X29277328Y29102857D01*
X29277328Y29102857D02*
X29277328Y29602857D01*
X29277328Y29602857D02*
X29348757Y29745715D01*
X29348757Y29745715D02*
X29420185Y29817143D01*
X29420185Y29817143D02*
X29563042Y29888572D01*
X29563042Y29888572D02*
X29705900Y29888572D01*
X29705900Y29888572D02*
X29848757Y29817143D01*
X29848757Y29817143D02*
X29920185Y29745715D01*
X29920185Y29745715D02*
X29991614Y29602857D01*
X29991614Y29602857D02*
X29991614Y29102857D01*
X30634471Y30602857D02*
X30705900Y30674286D01*
X30705900Y30674286D02*
X30777328Y30602857D01*
X30777328Y30602857D02*
X30705900Y30531429D01*
X30705900Y30531429D02*
X30634471Y30602857D01*
X30634471Y30602857D02*
X30777328Y30602857D01*
X30634471Y32174286D02*
X30705900Y32102858D01*
X30705900Y32102858D02*
X30777328Y31888572D01*
X30777328Y31888572D02*
X30777328Y31745715D01*
X30777328Y31745715D02*
X30705900Y31531429D01*
X30705900Y31531429D02*
X30563042Y31388572D01*
X30563042Y31388572D02*
X30420185Y31317143D01*
X30420185Y31317143D02*
X30134471Y31245715D01*
X30134471Y31245715D02*
X29920185Y31245715D01*
X29920185Y31245715D02*
X29634471Y31317143D01*
X29634471Y31317143D02*
X29491614Y31388572D01*
X29491614Y31388572D02*
X29348757Y31531429D01*
X29348757Y31531429D02*
X29277328Y31745715D01*
X29277328Y31745715D02*
X29277328Y31888572D01*
X29277328Y31888572D02*
X29348757Y32102858D01*
X29348757Y32102858D02*
X29420185Y32174286D01*
X29277328Y32674286D02*
X29277328Y33674286D01*
X29277328Y33674286D02*
X30777328Y32674286D01*
X30777328Y32674286D02*
X30777328Y33674286D01*
X21409204Y39810671D02*
X21909204Y38310671D01*
X21909204Y38310671D02*
X22409204Y39810671D01*
X22909203Y38310671D02*
X22909203Y39810671D01*
X22909203Y39810671D02*
X23266346Y39810671D01*
X23266346Y39810671D02*
X23480632Y39739242D01*
X23480632Y39739242D02*
X23623489Y39596385D01*
X23623489Y39596385D02*
X23694918Y39453528D01*
X23694918Y39453528D02*
X23766346Y39167814D01*
X23766346Y39167814D02*
X23766346Y38953528D01*
X23766346Y38953528D02*
X23694918Y38667814D01*
X23694918Y38667814D02*
X23623489Y38524957D01*
X23623489Y38524957D02*
X23480632Y38382100D01*
X23480632Y38382100D02*
X23266346Y38310671D01*
X23266346Y38310671D02*
X22909203Y38310671D01*
X24409203Y38310671D02*
X24409203Y39810671D01*
X24409203Y39810671D02*
X24766346Y39810671D01*
X24766346Y39810671D02*
X24980632Y39739242D01*
X24980632Y39739242D02*
X25123489Y39596385D01*
X25123489Y39596385D02*
X25194918Y39453528D01*
X25194918Y39453528D02*
X25266346Y39167814D01*
X25266346Y39167814D02*
X25266346Y38953528D01*
X25266346Y38953528D02*
X25194918Y38667814D01*
X25194918Y38667814D02*
X25123489Y38524957D01*
X25123489Y38524957D02*
X24980632Y38382100D01*
X24980632Y38382100D02*
X24766346Y38310671D01*
X24766346Y38310671D02*
X24409203Y38310671D01*
X26694918Y38310671D02*
X25837775Y38310671D01*
X26266346Y38310671D02*
X26266346Y39810671D01*
X26266346Y39810671D02*
X26123489Y39596385D01*
X26123489Y39596385D02*
X25980632Y39453528D01*
X25980632Y39453528D02*
X25837775Y39382100D01*
X34992328Y25740225D02*
X36492328Y26240225D01*
X36492328Y26240225D02*
X34992328Y26740225D01*
X36492328Y27240224D02*
X34992328Y27240224D01*
X34992328Y27240224D02*
X34992328Y27597367D01*
X34992328Y27597367D02*
X35063757Y27811653D01*
X35063757Y27811653D02*
X35206614Y27954510D01*
X35206614Y27954510D02*
X35349471Y28025939D01*
X35349471Y28025939D02*
X35635185Y28097367D01*
X35635185Y28097367D02*
X35849471Y28097367D01*
X35849471Y28097367D02*
X36135185Y28025939D01*
X36135185Y28025939D02*
X36278042Y27954510D01*
X36278042Y27954510D02*
X36420900Y27811653D01*
X36420900Y27811653D02*
X36492328Y27597367D01*
X36492328Y27597367D02*
X36492328Y27240224D01*
X36492328Y28740224D02*
X34992328Y28740224D01*
X34992328Y28740224D02*
X34992328Y29097367D01*
X34992328Y29097367D02*
X35063757Y29311653D01*
X35063757Y29311653D02*
X35206614Y29454510D01*
X35206614Y29454510D02*
X35349471Y29525939D01*
X35349471Y29525939D02*
X35635185Y29597367D01*
X35635185Y29597367D02*
X35849471Y29597367D01*
X35849471Y29597367D02*
X36135185Y29525939D01*
X36135185Y29525939D02*
X36278042Y29454510D01*
X36278042Y29454510D02*
X36420900Y29311653D01*
X36420900Y29311653D02*
X36492328Y29097367D01*
X36492328Y29097367D02*
X36492328Y28740224D01*
X11001715Y45652671D02*
X11501715Y44152671D01*
X11501715Y44152671D02*
X12001715Y45652671D01*
X12501714Y44152671D02*
X12501714Y45652671D01*
X12501714Y45652671D02*
X12858857Y45652671D01*
X12858857Y45652671D02*
X13073143Y45581242D01*
X13073143Y45581242D02*
X13216000Y45438385D01*
X13216000Y45438385D02*
X13287429Y45295528D01*
X13287429Y45295528D02*
X13358857Y45009814D01*
X13358857Y45009814D02*
X13358857Y44795528D01*
X13358857Y44795528D02*
X13287429Y44509814D01*
X13287429Y44509814D02*
X13216000Y44366957D01*
X13216000Y44366957D02*
X13073143Y44224100D01*
X13073143Y44224100D02*
X12858857Y44152671D01*
X12858857Y44152671D02*
X12501714Y44152671D01*
X14001714Y44152671D02*
X14001714Y45652671D01*
X14001714Y45652671D02*
X14358857Y45652671D01*
X14358857Y45652671D02*
X14573143Y45581242D01*
X14573143Y45581242D02*
X14716000Y45438385D01*
X14716000Y45438385D02*
X14787429Y45295528D01*
X14787429Y45295528D02*
X14858857Y45009814D01*
X14858857Y45009814D02*
X14858857Y44795528D01*
X14858857Y44795528D02*
X14787429Y44509814D01*
X14787429Y44509814D02*
X14716000Y44366957D01*
X14716000Y44366957D02*
X14573143Y44224100D01*
X14573143Y44224100D02*
X14358857Y44152671D01*
X14358857Y44152671D02*
X14001714Y44152671D01*
X15430286Y45509814D02*
X15501714Y45581242D01*
X15501714Y45581242D02*
X15644572Y45652671D01*
X15644572Y45652671D02*
X16001714Y45652671D01*
X16001714Y45652671D02*
X16144572Y45581242D01*
X16144572Y45581242D02*
X16216000Y45509814D01*
X16216000Y45509814D02*
X16287429Y45366957D01*
X16287429Y45366957D02*
X16287429Y45224100D01*
X16287429Y45224100D02*
X16216000Y45009814D01*
X16216000Y45009814D02*
X15358857Y44152671D01*
X15358857Y44152671D02*
X16287429Y44152671D01*
X14474786Y30055671D02*
X14474786Y31555671D01*
X15117644Y31412814D02*
X15189072Y31484242D01*
X15189072Y31484242D02*
X15331930Y31555671D01*
X15331930Y31555671D02*
X15689072Y31555671D01*
X15689072Y31555671D02*
X15831930Y31484242D01*
X15831930Y31484242D02*
X15903358Y31412814D01*
X15903358Y31412814D02*
X15974787Y31269957D01*
X15974787Y31269957D02*
X15974787Y31127100D01*
X15974787Y31127100D02*
X15903358Y30912814D01*
X15903358Y30912814D02*
X15046215Y30055671D01*
X15046215Y30055671D02*
X15974787Y30055671D01*
X17474786Y30198528D02*
X17403358Y30127100D01*
X17403358Y30127100D02*
X17189072Y30055671D01*
X17189072Y30055671D02*
X17046215Y30055671D01*
X17046215Y30055671D02*
X16831929Y30127100D01*
X16831929Y30127100D02*
X16689072Y30269957D01*
X16689072Y30269957D02*
X16617643Y30412814D01*
X16617643Y30412814D02*
X16546215Y30698528D01*
X16546215Y30698528D02*
X16546215Y30912814D01*
X16546215Y30912814D02*
X16617643Y31198528D01*
X16617643Y31198528D02*
X16689072Y31341385D01*
X16689072Y31341385D02*
X16831929Y31484242D01*
X16831929Y31484242D02*
X17046215Y31555671D01*
X17046215Y31555671D02*
X17189072Y31555671D01*
X17189072Y31555671D02*
X17403358Y31484242D01*
X17403358Y31484242D02*
X17474786Y31412814D01*
X18117643Y30055671D02*
X18117643Y31555671D01*
X18117643Y31555671D02*
X18474786Y31555671D01*
X18474786Y31555671D02*
X18689072Y31484242D01*
X18689072Y31484242D02*
X18831929Y31341385D01*
X18831929Y31341385D02*
X18903358Y31198528D01*
X18903358Y31198528D02*
X18974786Y30912814D01*
X18974786Y30912814D02*
X18974786Y30698528D01*
X18974786Y30698528D02*
X18903358Y30412814D01*
X18903358Y30412814D02*
X18831929Y30269957D01*
X18831929Y30269957D02*
X18689072Y30127100D01*
X18689072Y30127100D02*
X18474786Y30055671D01*
X18474786Y30055671D02*
X18117643Y30055671D01*
X19617643Y30055671D02*
X19617643Y31555671D01*
X20831929Y30841385D02*
X20331929Y30841385D01*
X20331929Y30055671D02*
X20331929Y31555671D01*
X20331929Y31555671D02*
X21046215Y31555671D01*
X22117643Y30841385D02*
X21617643Y30841385D01*
X21617643Y30055671D02*
X21617643Y31555671D01*
X21617643Y31555671D02*
X22331929Y31555671D01*
X23189072Y31555671D02*
X23331929Y31555671D01*
X23331929Y31555671D02*
X23474786Y31484242D01*
X23474786Y31484242D02*
X23546215Y31412814D01*
X23546215Y31412814D02*
X23617643Y31269957D01*
X23617643Y31269957D02*
X23689072Y30984242D01*
X23689072Y30984242D02*
X23689072Y30627100D01*
X23689072Y30627100D02*
X23617643Y30341385D01*
X23617643Y30341385D02*
X23546215Y30198528D01*
X23546215Y30198528D02*
X23474786Y30127100D01*
X23474786Y30127100D02*
X23331929Y30055671D01*
X23331929Y30055671D02*
X23189072Y30055671D01*
X23189072Y30055671D02*
X23046215Y30127100D01*
X23046215Y30127100D02*
X22974786Y30198528D01*
X22974786Y30198528D02*
X22903357Y30341385D01*
X22903357Y30341385D02*
X22831929Y30627100D01*
X22831929Y30627100D02*
X22831929Y30984242D01*
X22831929Y30984242D02*
X22903357Y31269957D01*
X22903357Y31269957D02*
X22974786Y31412814D01*
X22974786Y31412814D02*
X23046215Y31484242D01*
X23046215Y31484242D02*
X23189072Y31555671D01*
X25117643Y30055671D02*
X24260500Y30055671D01*
X24689071Y30055671D02*
X24689071Y31555671D01*
X24689071Y31555671D02*
X24546214Y31341385D01*
X24546214Y31341385D02*
X24403357Y31198528D01*
X24403357Y31198528D02*
X24260500Y31127100D01*
X26260499Y30841385D02*
X26474785Y30769957D01*
X26474785Y30769957D02*
X26546214Y30698528D01*
X26546214Y30698528D02*
X26617642Y30555671D01*
X26617642Y30555671D02*
X26617642Y30341385D01*
X26617642Y30341385D02*
X26546214Y30198528D01*
X26546214Y30198528D02*
X26474785Y30127100D01*
X26474785Y30127100D02*
X26331928Y30055671D01*
X26331928Y30055671D02*
X25760499Y30055671D01*
X25760499Y30055671D02*
X25760499Y31555671D01*
X25760499Y31555671D02*
X26260499Y31555671D01*
X26260499Y31555671D02*
X26403357Y31484242D01*
X26403357Y31484242D02*
X26474785Y31412814D01*
X26474785Y31412814D02*
X26546214Y31269957D01*
X26546214Y31269957D02*
X26546214Y31127100D01*
X26546214Y31127100D02*
X26474785Y30984242D01*
X26474785Y30984242D02*
X26403357Y30912814D01*
X26403357Y30912814D02*
X26260499Y30841385D01*
X26260499Y30841385D02*
X25760499Y30841385D01*
X9466728Y41060856D02*
X7966728Y41060856D01*
X9466728Y41775142D02*
X7966728Y41775142D01*
X7966728Y41775142D02*
X9466728Y42632285D01*
X9466728Y42632285D02*
X7966728Y42632285D01*
X7966728Y43132286D02*
X7966728Y43989429D01*
X9466728Y43560857D02*
X7966728Y43560857D01*
X8103082Y12982100D02*
X8317368Y12910671D01*
X8317368Y12910671D02*
X8674510Y12910671D01*
X8674510Y12910671D02*
X8817368Y12982100D01*
X8817368Y12982100D02*
X8888796Y13053528D01*
X8888796Y13053528D02*
X8960225Y13196385D01*
X8960225Y13196385D02*
X8960225Y13339242D01*
X8960225Y13339242D02*
X8888796Y13482100D01*
X8888796Y13482100D02*
X8817368Y13553528D01*
X8817368Y13553528D02*
X8674510Y13624957D01*
X8674510Y13624957D02*
X8388796Y13696385D01*
X8388796Y13696385D02*
X8245939Y13767814D01*
X8245939Y13767814D02*
X8174510Y13839242D01*
X8174510Y13839242D02*
X8103082Y13982100D01*
X8103082Y13982100D02*
X8103082Y14124957D01*
X8103082Y14124957D02*
X8174510Y14267814D01*
X8174510Y14267814D02*
X8245939Y14339242D01*
X8245939Y14339242D02*
X8388796Y14410671D01*
X8388796Y14410671D02*
X8745939Y14410671D01*
X8745939Y14410671D02*
X8960225Y14339242D01*
X9603081Y12910671D02*
X9603081Y14410671D01*
X9603081Y14410671D02*
X9960224Y14410671D01*
X9960224Y14410671D02*
X10174510Y14339242D01*
X10174510Y14339242D02*
X10317367Y14196385D01*
X10317367Y14196385D02*
X10388796Y14053528D01*
X10388796Y14053528D02*
X10460224Y13767814D01*
X10460224Y13767814D02*
X10460224Y13553528D01*
X10460224Y13553528D02*
X10388796Y13267814D01*
X10388796Y13267814D02*
X10317367Y13124957D01*
X10317367Y13124957D02*
X10174510Y12982100D01*
X10174510Y12982100D02*
X9960224Y12910671D01*
X9960224Y12910671D02*
X9603081Y12910671D01*
X11031653Y13339242D02*
X11745939Y13339242D01*
X10888796Y12910671D02*
X11388796Y14410671D01*
X11388796Y14410671D02*
X11888796Y12910671D01*
X16755128Y35502400D02*
X18255128Y36002400D01*
X18255128Y36002400D02*
X16755128Y36502400D01*
X18255128Y37002399D02*
X16755128Y37002399D01*
X16755128Y37002399D02*
X16755128Y37359542D01*
X16755128Y37359542D02*
X16826557Y37573828D01*
X16826557Y37573828D02*
X16969414Y37716685D01*
X16969414Y37716685D02*
X17112271Y37788114D01*
X17112271Y37788114D02*
X17397985Y37859542D01*
X17397985Y37859542D02*
X17612271Y37859542D01*
X17612271Y37859542D02*
X17897985Y37788114D01*
X17897985Y37788114D02*
X18040842Y37716685D01*
X18040842Y37716685D02*
X18183700Y37573828D01*
X18183700Y37573828D02*
X18255128Y37359542D01*
X18255128Y37359542D02*
X18255128Y37002399D01*
X18255128Y38502399D02*
X16755128Y38502399D01*
X16755128Y38502399D02*
X16755128Y38859542D01*
X16755128Y38859542D02*
X16826557Y39073828D01*
X16826557Y39073828D02*
X16969414Y39216685D01*
X16969414Y39216685D02*
X17112271Y39288114D01*
X17112271Y39288114D02*
X17397985Y39359542D01*
X17397985Y39359542D02*
X17612271Y39359542D01*
X17612271Y39359542D02*
X17897985Y39288114D01*
X17897985Y39288114D02*
X18040842Y39216685D01*
X18040842Y39216685D02*
X18183700Y39073828D01*
X18183700Y39073828D02*
X18255128Y38859542D01*
X18255128Y38859542D02*
X18255128Y38502399D01*
X17469414Y40502399D02*
X17540842Y40716685D01*
X17540842Y40716685D02*
X17612271Y40788114D01*
X17612271Y40788114D02*
X17755128Y40859542D01*
X17755128Y40859542D02*
X17969414Y40859542D01*
X17969414Y40859542D02*
X18112271Y40788114D01*
X18112271Y40788114D02*
X18183700Y40716685D01*
X18183700Y40716685D02*
X18255128Y40573828D01*
X18255128Y40573828D02*
X18255128Y40002399D01*
X18255128Y40002399D02*
X16755128Y40002399D01*
X16755128Y40002399D02*
X16755128Y40502399D01*
X16755128Y40502399D02*
X16826557Y40645257D01*
X16826557Y40645257D02*
X16897985Y40716685D01*
X16897985Y40716685D02*
X17040842Y40788114D01*
X17040842Y40788114D02*
X17183700Y40788114D01*
X17183700Y40788114D02*
X17326557Y40716685D01*
X17326557Y40716685D02*
X17397985Y40645257D01*
X17397985Y40645257D02*
X17469414Y40502399D01*
X17469414Y40502399D02*
X17469414Y40002399D01*
X33166614Y25954510D02*
X33166614Y26454510D01*
X33952328Y26668796D02*
X33952328Y25954510D01*
X33952328Y25954510D02*
X32452328Y25954510D01*
X32452328Y25954510D02*
X32452328Y26668796D01*
X32452328Y27168796D02*
X33952328Y28168796D01*
X32452328Y28168796D02*
X33952328Y27168796D01*
X32452328Y28525939D02*
X32452328Y29383082D01*
X33952328Y28954510D02*
X32452328Y28954510D01*
X19910900Y22898582D02*
X19982328Y23112868D01*
X19982328Y23112868D02*
X19982328Y23470010D01*
X19982328Y23470010D02*
X19910900Y23612868D01*
X19910900Y23612868D02*
X19839471Y23684296D01*
X19839471Y23684296D02*
X19696614Y23755725D01*
X19696614Y23755725D02*
X19553757Y23755725D01*
X19553757Y23755725D02*
X19410900Y23684296D01*
X19410900Y23684296D02*
X19339471Y23612868D01*
X19339471Y23612868D02*
X19268042Y23470010D01*
X19268042Y23470010D02*
X19196614Y23184296D01*
X19196614Y23184296D02*
X19125185Y23041439D01*
X19125185Y23041439D02*
X19053757Y22970010D01*
X19053757Y22970010D02*
X18910900Y22898582D01*
X18910900Y22898582D02*
X18768042Y22898582D01*
X18768042Y22898582D02*
X18625185Y22970010D01*
X18625185Y22970010D02*
X18553757Y23041439D01*
X18553757Y23041439D02*
X18482328Y23184296D01*
X18482328Y23184296D02*
X18482328Y23541439D01*
X18482328Y23541439D02*
X18553757Y23755725D01*
X19839471Y25255724D02*
X19910900Y25184296D01*
X19910900Y25184296D02*
X19982328Y24970010D01*
X19982328Y24970010D02*
X19982328Y24827153D01*
X19982328Y24827153D02*
X19910900Y24612867D01*
X19910900Y24612867D02*
X19768042Y24470010D01*
X19768042Y24470010D02*
X19625185Y24398581D01*
X19625185Y24398581D02*
X19339471Y24327153D01*
X19339471Y24327153D02*
X19125185Y24327153D01*
X19125185Y24327153D02*
X18839471Y24398581D01*
X18839471Y24398581D02*
X18696614Y24470010D01*
X18696614Y24470010D02*
X18553757Y24612867D01*
X18553757Y24612867D02*
X18482328Y24827153D01*
X18482328Y24827153D02*
X18482328Y24970010D01*
X18482328Y24970010D02*
X18553757Y25184296D01*
X18553757Y25184296D02*
X18625185Y25255724D01*
X19982328Y26612867D02*
X19982328Y25898581D01*
X19982328Y25898581D02*
X18482328Y25898581D01*
X19410900Y27112867D02*
X19410900Y28255725D01*
X19982328Y27684296D02*
X18839471Y27684296D01*
X17442328Y22906510D02*
X15942328Y22906510D01*
X17442328Y23620796D02*
X15942328Y23620796D01*
X15942328Y23620796D02*
X17442328Y24477939D01*
X17442328Y24477939D02*
X15942328Y24477939D01*
X15942328Y24977940D02*
X15942328Y25835083D01*
X17442328Y25406511D02*
X15942328Y25406511D01*
X16870900Y26335082D02*
X16870900Y27477940D01*
X24990900Y22835082D02*
X25062328Y23049368D01*
X25062328Y23049368D02*
X25062328Y23406510D01*
X25062328Y23406510D02*
X24990900Y23549368D01*
X24990900Y23549368D02*
X24919471Y23620796D01*
X24919471Y23620796D02*
X24776614Y23692225D01*
X24776614Y23692225D02*
X24633757Y23692225D01*
X24633757Y23692225D02*
X24490900Y23620796D01*
X24490900Y23620796D02*
X24419471Y23549368D01*
X24419471Y23549368D02*
X24348042Y23406510D01*
X24348042Y23406510D02*
X24276614Y23120796D01*
X24276614Y23120796D02*
X24205185Y22977939D01*
X24205185Y22977939D02*
X24133757Y22906510D01*
X24133757Y22906510D02*
X23990900Y22835082D01*
X23990900Y22835082D02*
X23848042Y22835082D01*
X23848042Y22835082D02*
X23705185Y22906510D01*
X23705185Y22906510D02*
X23633757Y22977939D01*
X23633757Y22977939D02*
X23562328Y23120796D01*
X23562328Y23120796D02*
X23562328Y23477939D01*
X23562328Y23477939D02*
X23633757Y23692225D01*
X25062328Y24335081D02*
X23562328Y24335081D01*
X23562328Y24335081D02*
X23562328Y24692224D01*
X23562328Y24692224D02*
X23633757Y24906510D01*
X23633757Y24906510D02*
X23776614Y25049367D01*
X23776614Y25049367D02*
X23919471Y25120796D01*
X23919471Y25120796D02*
X24205185Y25192224D01*
X24205185Y25192224D02*
X24419471Y25192224D01*
X24419471Y25192224D02*
X24705185Y25120796D01*
X24705185Y25120796D02*
X24848042Y25049367D01*
X24848042Y25049367D02*
X24990900Y24906510D01*
X24990900Y24906510D02*
X25062328Y24692224D01*
X25062328Y24692224D02*
X25062328Y24335081D01*
X24633757Y25763653D02*
X24633757Y26477939D01*
X25062328Y25620796D02*
X23562328Y26120796D01*
X23562328Y26120796D02*
X25062328Y26620796D01*
X24490900Y27120795D02*
X24490900Y28263653D01*
X25062328Y27692224D02*
X23919471Y27692224D01*
X8166286Y27838457D02*
X8909143Y27838457D01*
X8909143Y27838457D02*
X8509143Y27381314D01*
X8509143Y27381314D02*
X8680572Y27381314D01*
X8680572Y27381314D02*
X8794858Y27324171D01*
X8794858Y27324171D02*
X8852000Y27267028D01*
X8852000Y27267028D02*
X8909143Y27152742D01*
X8909143Y27152742D02*
X8909143Y26867028D01*
X8909143Y26867028D02*
X8852000Y26752742D01*
X8852000Y26752742D02*
X8794858Y26695600D01*
X8794858Y26695600D02*
X8680572Y26638457D01*
X8680572Y26638457D02*
X8337715Y26638457D01*
X8337715Y26638457D02*
X8223429Y26695600D01*
X8223429Y26695600D02*
X8166286Y26752742D01*
X9252000Y27838457D02*
X9652000Y26638457D01*
X9652000Y26638457D02*
X10052000Y27838457D01*
X10337714Y27838457D02*
X11080571Y27838457D01*
X11080571Y27838457D02*
X10680571Y27381314D01*
X10680571Y27381314D02*
X10852000Y27381314D01*
X10852000Y27381314D02*
X10966286Y27324171D01*
X10966286Y27324171D02*
X11023428Y27267028D01*
X11023428Y27267028D02*
X11080571Y27152742D01*
X11080571Y27152742D02*
X11080571Y26867028D01*
X11080571Y26867028D02*
X11023428Y26752742D01*
X11023428Y26752742D02*
X10966286Y26695600D01*
X10966286Y26695600D02*
X10852000Y26638457D01*
X10852000Y26638457D02*
X10509143Y26638457D01*
X10509143Y26638457D02*
X10394857Y26695600D01*
X10394857Y26695600D02*
X10337714Y26752742D01*
X11001715Y35238671D02*
X11501715Y33738671D01*
X11501715Y33738671D02*
X12001715Y35238671D01*
X12501714Y33738671D02*
X12501714Y35238671D01*
X12501714Y35238671D02*
X12858857Y35238671D01*
X12858857Y35238671D02*
X13073143Y35167242D01*
X13073143Y35167242D02*
X13216000Y35024385D01*
X13216000Y35024385D02*
X13287429Y34881528D01*
X13287429Y34881528D02*
X13358857Y34595814D01*
X13358857Y34595814D02*
X13358857Y34381528D01*
X13358857Y34381528D02*
X13287429Y34095814D01*
X13287429Y34095814D02*
X13216000Y33952957D01*
X13216000Y33952957D02*
X13073143Y33810100D01*
X13073143Y33810100D02*
X12858857Y33738671D01*
X12858857Y33738671D02*
X12501714Y33738671D01*
X14001714Y33738671D02*
X14001714Y35238671D01*
X14001714Y35238671D02*
X14358857Y35238671D01*
X14358857Y35238671D02*
X14573143Y35167242D01*
X14573143Y35167242D02*
X14716000Y35024385D01*
X14716000Y35024385D02*
X14787429Y34881528D01*
X14787429Y34881528D02*
X14858857Y34595814D01*
X14858857Y34595814D02*
X14858857Y34381528D01*
X14858857Y34381528D02*
X14787429Y34095814D01*
X14787429Y34095814D02*
X14716000Y33952957D01*
X14716000Y33952957D02*
X14573143Y33810100D01*
X14573143Y33810100D02*
X14358857Y33738671D01*
X14358857Y33738671D02*
X14001714Y33738671D01*
X16287429Y33738671D02*
X15430286Y33738671D01*
X15858857Y33738671D02*
X15858857Y35238671D01*
X15858857Y35238671D02*
X15716000Y35024385D01*
X15716000Y35024385D02*
X15573143Y34881528D01*
X15573143Y34881528D02*
X15430286Y34810100D01*
X2324286Y27774957D02*
X3067143Y27774957D01*
X3067143Y27774957D02*
X2667143Y27317814D01*
X2667143Y27317814D02*
X2838572Y27317814D01*
X2838572Y27317814D02*
X2952858Y27260671D01*
X2952858Y27260671D02*
X3010000Y27203528D01*
X3010000Y27203528D02*
X3067143Y27089242D01*
X3067143Y27089242D02*
X3067143Y26803528D01*
X3067143Y26803528D02*
X3010000Y26689242D01*
X3010000Y26689242D02*
X2952858Y26632100D01*
X2952858Y26632100D02*
X2838572Y26574957D01*
X2838572Y26574957D02*
X2495715Y26574957D01*
X2495715Y26574957D02*
X2381429Y26632100D01*
X2381429Y26632100D02*
X2324286Y26689242D01*
X3410000Y27774957D02*
X3810000Y26574957D01*
X3810000Y26574957D02*
X4210000Y27774957D01*
X4495714Y27774957D02*
X5238571Y27774957D01*
X5238571Y27774957D02*
X4838571Y27317814D01*
X4838571Y27317814D02*
X5010000Y27317814D01*
X5010000Y27317814D02*
X5124286Y27260671D01*
X5124286Y27260671D02*
X5181428Y27203528D01*
X5181428Y27203528D02*
X5238571Y27089242D01*
X5238571Y27089242D02*
X5238571Y26803528D01*
X5238571Y26803528D02*
X5181428Y26689242D01*
X5181428Y26689242D02*
X5124286Y26632100D01*
X5124286Y26632100D02*
X5010000Y26574957D01*
X5010000Y26574957D02*
X4667143Y26574957D01*
X4667143Y26574957D02*
X4552857Y26632100D01*
X4552857Y26632100D02*
X4495714Y26689242D01*
X1353114Y41247356D02*
X1353114Y41747356D01*
X2138828Y41961642D02*
X2138828Y41247356D01*
X2138828Y41247356D02*
X638828Y41247356D01*
X638828Y41247356D02*
X638828Y41961642D01*
X2138828Y42604499D02*
X638828Y42604499D01*
X638828Y42604499D02*
X2138828Y43461642D01*
X2138828Y43461642D02*
X638828Y43461642D01*
X1511571Y31648457D02*
X1911571Y30448457D01*
X1911571Y30448457D02*
X2311571Y31648457D01*
X2711571Y30448457D02*
X2711571Y31648457D01*
X2711571Y31648457D02*
X2997285Y31648457D01*
X2997285Y31648457D02*
X3168714Y31591314D01*
X3168714Y31591314D02*
X3282999Y31477028D01*
X3282999Y31477028D02*
X3340142Y31362742D01*
X3340142Y31362742D02*
X3397285Y31134171D01*
X3397285Y31134171D02*
X3397285Y30962742D01*
X3397285Y30962742D02*
X3340142Y30734171D01*
X3340142Y30734171D02*
X3282999Y30619885D01*
X3282999Y30619885D02*
X3168714Y30505600D01*
X3168714Y30505600D02*
X2997285Y30448457D01*
X2997285Y30448457D02*
X2711571Y30448457D01*
X3911571Y30448457D02*
X3911571Y31648457D01*
X3911571Y31648457D02*
X4197285Y31648457D01*
X4197285Y31648457D02*
X4368714Y31591314D01*
X4368714Y31591314D02*
X4482999Y31477028D01*
X4482999Y31477028D02*
X4540142Y31362742D01*
X4540142Y31362742D02*
X4597285Y31134171D01*
X4597285Y31134171D02*
X4597285Y30962742D01*
X4597285Y30962742D02*
X4540142Y30734171D01*
X4540142Y30734171D02*
X4482999Y30619885D01*
X4482999Y30619885D02*
X4368714Y30505600D01*
X4368714Y30505600D02*
X4197285Y30448457D01*
X4197285Y30448457D02*
X3911571Y30448457D01*
X5740142Y30448457D02*
X5054428Y30448457D01*
X5397285Y30448457D02*
X5397285Y31648457D01*
X5397285Y31648457D02*
X5282999Y31477028D01*
X5282999Y31477028D02*
X5168714Y31362742D01*
X5168714Y31362742D02*
X5054428Y31305600D01*
X14902328Y22906510D02*
X13402328Y22906510D01*
X14902328Y23620796D02*
X13402328Y23620796D01*
X13402328Y23620796D02*
X14902328Y24477939D01*
X14902328Y24477939D02*
X13402328Y24477939D01*
X13402328Y24977940D02*
X13402328Y25835083D01*
X14902328Y25406511D02*
X13402328Y25406511D01*
X14330900Y26335082D02*
X14330900Y27477940D01*
X14902328Y26906511D02*
X13759471Y26906511D01*
X17316000Y13521671D02*
X17316000Y12450242D01*
X17316000Y12450242D02*
X17244571Y12235957D01*
X17244571Y12235957D02*
X17101714Y12093100D01*
X17101714Y12093100D02*
X16887428Y12021671D01*
X16887428Y12021671D02*
X16744571Y12021671D01*
X17958857Y12450242D02*
X18673143Y12450242D01*
X17816000Y12021671D02*
X18316000Y13521671D01*
X18316000Y13521671D02*
X18816000Y12021671D01*
X20173142Y12164528D02*
X20101714Y12093100D01*
X20101714Y12093100D02*
X19887428Y12021671D01*
X19887428Y12021671D02*
X19744571Y12021671D01*
X19744571Y12021671D02*
X19530285Y12093100D01*
X19530285Y12093100D02*
X19387428Y12235957D01*
X19387428Y12235957D02*
X19315999Y12378814D01*
X19315999Y12378814D02*
X19244571Y12664528D01*
X19244571Y12664528D02*
X19244571Y12878814D01*
X19244571Y12878814D02*
X19315999Y13164528D01*
X19315999Y13164528D02*
X19387428Y13307385D01*
X19387428Y13307385D02*
X19530285Y13450242D01*
X19530285Y13450242D02*
X19744571Y13521671D01*
X19744571Y13521671D02*
X19887428Y13521671D01*
X19887428Y13521671D02*
X20101714Y13450242D01*
X20101714Y13450242D02*
X20173142Y13378814D01*
X20815999Y12021671D02*
X20815999Y13521671D01*
X20815999Y12807385D02*
X21673142Y12807385D01*
X21673142Y12021671D02*
X21673142Y13521671D01*
X22673143Y13521671D02*
X22958857Y13521671D01*
X22958857Y13521671D02*
X23101714Y13450242D01*
X23101714Y13450242D02*
X23244571Y13307385D01*
X23244571Y13307385D02*
X23316000Y13021671D01*
X23316000Y13021671D02*
X23316000Y12521671D01*
X23316000Y12521671D02*
X23244571Y12235957D01*
X23244571Y12235957D02*
X23101714Y12093100D01*
X23101714Y12093100D02*
X22958857Y12021671D01*
X22958857Y12021671D02*
X22673143Y12021671D01*
X22673143Y12021671D02*
X22530286Y12093100D01*
X22530286Y12093100D02*
X22387428Y12235957D01*
X22387428Y12235957D02*
X22316000Y12521671D01*
X22316000Y12521671D02*
X22316000Y13021671D01*
X22316000Y13021671D02*
X22387428Y13307385D01*
X22387428Y13307385D02*
X22530286Y13450242D01*
X22530286Y13450242D02*
X22673143Y13521671D01*
X3581428Y25806457D02*
X3010000Y25806457D01*
X3010000Y25806457D02*
X2952857Y25235028D01*
X2952857Y25235028D02*
X3010000Y25292171D01*
X3010000Y25292171D02*
X3124286Y25349314D01*
X3124286Y25349314D02*
X3410000Y25349314D01*
X3410000Y25349314D02*
X3524286Y25292171D01*
X3524286Y25292171D02*
X3581428Y25235028D01*
X3581428Y25235028D02*
X3638571Y25120742D01*
X3638571Y25120742D02*
X3638571Y24835028D01*
X3638571Y24835028D02*
X3581428Y24720742D01*
X3581428Y24720742D02*
X3524286Y24663600D01*
X3524286Y24663600D02*
X3410000Y24606457D01*
X3410000Y24606457D02*
X3124286Y24606457D01*
X3124286Y24606457D02*
X3010000Y24663600D01*
X3010000Y24663600D02*
X2952857Y24720742D01*
X3981428Y25806457D02*
X4381428Y24606457D01*
X4381428Y24606457D02*
X4781428Y25806457D01*
X9236728Y35609543D02*
X10736728Y36109543D01*
X10736728Y36109543D02*
X9236728Y36609543D01*
X10736728Y37109542D02*
X9236728Y37109542D01*
X9236728Y37109542D02*
X9236728Y37466685D01*
X9236728Y37466685D02*
X9308157Y37680971D01*
X9308157Y37680971D02*
X9451014Y37823828D01*
X9451014Y37823828D02*
X9593871Y37895257D01*
X9593871Y37895257D02*
X9879585Y37966685D01*
X9879585Y37966685D02*
X10093871Y37966685D01*
X10093871Y37966685D02*
X10379585Y37895257D01*
X10379585Y37895257D02*
X10522442Y37823828D01*
X10522442Y37823828D02*
X10665300Y37680971D01*
X10665300Y37680971D02*
X10736728Y37466685D01*
X10736728Y37466685D02*
X10736728Y37109542D01*
X10736728Y38609542D02*
X9236728Y38609542D01*
X9236728Y38609542D02*
X9236728Y38966685D01*
X9236728Y38966685D02*
X9308157Y39180971D01*
X9308157Y39180971D02*
X9451014Y39323828D01*
X9451014Y39323828D02*
X9593871Y39395257D01*
X9593871Y39395257D02*
X9879585Y39466685D01*
X9879585Y39466685D02*
X10093871Y39466685D01*
X10093871Y39466685D02*
X10379585Y39395257D01*
X10379585Y39395257D02*
X10522442Y39323828D01*
X10522442Y39323828D02*
X10665300Y39180971D01*
X10665300Y39180971D02*
X10736728Y38966685D01*
X10736728Y38966685D02*
X10736728Y38609542D01*
X10308157Y40038114D02*
X10308157Y40752400D01*
X10736728Y39895257D02*
X9236728Y40395257D01*
X9236728Y40395257D02*
X10736728Y40895257D01*
X33103114Y12108857D02*
X33103114Y12608857D01*
X33888828Y12823143D02*
X33888828Y12108857D01*
X33888828Y12108857D02*
X32388828Y12108857D01*
X32388828Y12108857D02*
X32388828Y12823143D01*
X32388828Y13323143D02*
X33888828Y14323143D01*
X32388828Y14323143D02*
X33888828Y13323143D01*
X32388828Y14680286D02*
X32388828Y15537429D01*
X33888828Y15108857D02*
X32388828Y15108857D01*
X31666328Y10251713D02*
X30166328Y10251713D01*
X30166328Y10251713D02*
X30166328Y10823142D01*
X30166328Y10823142D02*
X30237757Y10965999D01*
X30237757Y10965999D02*
X30309185Y11037428D01*
X30309185Y11037428D02*
X30452042Y11108856D01*
X30452042Y11108856D02*
X30666328Y11108856D01*
X30666328Y11108856D02*
X30809185Y11037428D01*
X30809185Y11037428D02*
X30880614Y10965999D01*
X30880614Y10965999D02*
X30952042Y10823142D01*
X30952042Y10823142D02*
X30952042Y10251713D01*
X30166328Y12037428D02*
X30166328Y12323142D01*
X30166328Y12323142D02*
X30237757Y12465999D01*
X30237757Y12465999D02*
X30380614Y12608856D01*
X30380614Y12608856D02*
X30666328Y12680285D01*
X30666328Y12680285D02*
X31166328Y12680285D01*
X31166328Y12680285D02*
X31452042Y12608856D01*
X31452042Y12608856D02*
X31594900Y12465999D01*
X31594900Y12465999D02*
X31666328Y12323142D01*
X31666328Y12323142D02*
X31666328Y12037428D01*
X31666328Y12037428D02*
X31594900Y11894571D01*
X31594900Y11894571D02*
X31452042Y11751713D01*
X31452042Y11751713D02*
X31166328Y11680285D01*
X31166328Y11680285D02*
X30666328Y11680285D01*
X30666328Y11680285D02*
X30380614Y11751713D01*
X30380614Y11751713D02*
X30237757Y11894571D01*
X30237757Y11894571D02*
X30166328Y12037428D01*
X30166328Y13180285D02*
X31666328Y13537428D01*
X31666328Y13537428D02*
X30594900Y13823142D01*
X30594900Y13823142D02*
X31666328Y14108857D01*
X31666328Y14108857D02*
X30166328Y14466000D01*
X30880614Y15037428D02*
X30880614Y15537428D01*
X31666328Y15751714D02*
X31666328Y15037428D01*
X31666328Y15037428D02*
X30166328Y15037428D01*
X30166328Y15037428D02*
X30166328Y15751714D01*
X31666328Y17251714D02*
X30952042Y16751714D01*
X31666328Y16394571D02*
X30166328Y16394571D01*
X30166328Y16394571D02*
X30166328Y16966000D01*
X30166328Y16966000D02*
X30237757Y17108857D01*
X30237757Y17108857D02*
X30309185Y17180286D01*
X30309185Y17180286D02*
X30452042Y17251714D01*
X30452042Y17251714D02*
X30666328Y17251714D01*
X30666328Y17251714D02*
X30809185Y17180286D01*
X30809185Y17180286D02*
X30880614Y17108857D01*
X30880614Y17108857D02*
X30952042Y16966000D01*
X30952042Y16966000D02*
X30952042Y16394571D01*
X20653715Y43747671D02*
X21153715Y42247671D01*
X21153715Y42247671D02*
X21653715Y43747671D01*
X22153714Y42247671D02*
X22153714Y43747671D01*
X22153714Y43747671D02*
X22510857Y43747671D01*
X22510857Y43747671D02*
X22725143Y43676242D01*
X22725143Y43676242D02*
X22868000Y43533385D01*
X22868000Y43533385D02*
X22939429Y43390528D01*
X22939429Y43390528D02*
X23010857Y43104814D01*
X23010857Y43104814D02*
X23010857Y42890528D01*
X23010857Y42890528D02*
X22939429Y42604814D01*
X22939429Y42604814D02*
X22868000Y42461957D01*
X22868000Y42461957D02*
X22725143Y42319100D01*
X22725143Y42319100D02*
X22510857Y42247671D01*
X22510857Y42247671D02*
X22153714Y42247671D01*
X23653714Y42247671D02*
X23653714Y43747671D01*
X23653714Y43747671D02*
X24010857Y43747671D01*
X24010857Y43747671D02*
X24225143Y43676242D01*
X24225143Y43676242D02*
X24368000Y43533385D01*
X24368000Y43533385D02*
X24439429Y43390528D01*
X24439429Y43390528D02*
X24510857Y43104814D01*
X24510857Y43104814D02*
X24510857Y42890528D01*
X24510857Y42890528D02*
X24439429Y42604814D01*
X24439429Y42604814D02*
X24368000Y42461957D01*
X24368000Y42461957D02*
X24225143Y42319100D01*
X24225143Y42319100D02*
X24010857Y42247671D01*
X24010857Y42247671D02*
X23653714Y42247671D01*
X25082286Y43604814D02*
X25153714Y43676242D01*
X25153714Y43676242D02*
X25296572Y43747671D01*
X25296572Y43747671D02*
X25653714Y43747671D01*
X25653714Y43747671D02*
X25796572Y43676242D01*
X25796572Y43676242D02*
X25868000Y43604814D01*
X25868000Y43604814D02*
X25939429Y43461957D01*
X25939429Y43461957D02*
X25939429Y43319100D01*
X25939429Y43319100D02*
X25868000Y43104814D01*
X25868000Y43104814D02*
X25010857Y42247671D01*
X25010857Y42247671D02*
X25939429Y42247671D01*
X22387400Y22898582D02*
X22458828Y23112868D01*
X22458828Y23112868D02*
X22458828Y23470010D01*
X22458828Y23470010D02*
X22387400Y23612868D01*
X22387400Y23612868D02*
X22315971Y23684296D01*
X22315971Y23684296D02*
X22173114Y23755725D01*
X22173114Y23755725D02*
X22030257Y23755725D01*
X22030257Y23755725D02*
X21887400Y23684296D01*
X21887400Y23684296D02*
X21815971Y23612868D01*
X21815971Y23612868D02*
X21744542Y23470010D01*
X21744542Y23470010D02*
X21673114Y23184296D01*
X21673114Y23184296D02*
X21601685Y23041439D01*
X21601685Y23041439D02*
X21530257Y22970010D01*
X21530257Y22970010D02*
X21387400Y22898582D01*
X21387400Y22898582D02*
X21244542Y22898582D01*
X21244542Y22898582D02*
X21101685Y22970010D01*
X21101685Y22970010D02*
X21030257Y23041439D01*
X21030257Y23041439D02*
X20958828Y23184296D01*
X20958828Y23184296D02*
X20958828Y23541439D01*
X20958828Y23541439D02*
X21030257Y23755725D01*
X22315971Y25255724D02*
X22387400Y25184296D01*
X22387400Y25184296D02*
X22458828Y24970010D01*
X22458828Y24970010D02*
X22458828Y24827153D01*
X22458828Y24827153D02*
X22387400Y24612867D01*
X22387400Y24612867D02*
X22244542Y24470010D01*
X22244542Y24470010D02*
X22101685Y24398581D01*
X22101685Y24398581D02*
X21815971Y24327153D01*
X21815971Y24327153D02*
X21601685Y24327153D01*
X21601685Y24327153D02*
X21315971Y24398581D01*
X21315971Y24398581D02*
X21173114Y24470010D01*
X21173114Y24470010D02*
X21030257Y24612867D01*
X21030257Y24612867D02*
X20958828Y24827153D01*
X20958828Y24827153D02*
X20958828Y24970010D01*
X20958828Y24970010D02*
X21030257Y25184296D01*
X21030257Y25184296D02*
X21101685Y25255724D01*
X22458828Y26612867D02*
X22458828Y25898581D01*
X22458828Y25898581D02*
X20958828Y25898581D01*
X21887400Y27112867D02*
X21887400Y28255725D01*
X27530900Y22835082D02*
X27602328Y23049368D01*
X27602328Y23049368D02*
X27602328Y23406510D01*
X27602328Y23406510D02*
X27530900Y23549368D01*
X27530900Y23549368D02*
X27459471Y23620796D01*
X27459471Y23620796D02*
X27316614Y23692225D01*
X27316614Y23692225D02*
X27173757Y23692225D01*
X27173757Y23692225D02*
X27030900Y23620796D01*
X27030900Y23620796D02*
X26959471Y23549368D01*
X26959471Y23549368D02*
X26888042Y23406510D01*
X26888042Y23406510D02*
X26816614Y23120796D01*
X26816614Y23120796D02*
X26745185Y22977939D01*
X26745185Y22977939D02*
X26673757Y22906510D01*
X26673757Y22906510D02*
X26530900Y22835082D01*
X26530900Y22835082D02*
X26388042Y22835082D01*
X26388042Y22835082D02*
X26245185Y22906510D01*
X26245185Y22906510D02*
X26173757Y22977939D01*
X26173757Y22977939D02*
X26102328Y23120796D01*
X26102328Y23120796D02*
X26102328Y23477939D01*
X26102328Y23477939D02*
X26173757Y23692225D01*
X27602328Y24335081D02*
X26102328Y24335081D01*
X26102328Y24335081D02*
X26102328Y24692224D01*
X26102328Y24692224D02*
X26173757Y24906510D01*
X26173757Y24906510D02*
X26316614Y25049367D01*
X26316614Y25049367D02*
X26459471Y25120796D01*
X26459471Y25120796D02*
X26745185Y25192224D01*
X26745185Y25192224D02*
X26959471Y25192224D01*
X26959471Y25192224D02*
X27245185Y25120796D01*
X27245185Y25120796D02*
X27388042Y25049367D01*
X27388042Y25049367D02*
X27530900Y24906510D01*
X27530900Y24906510D02*
X27602328Y24692224D01*
X27602328Y24692224D02*
X27602328Y24335081D01*
X27173757Y25763653D02*
X27173757Y26477939D01*
X27602328Y25620796D02*
X26102328Y26120796D01*
X26102328Y26120796D02*
X27602328Y26620796D01*
X27030900Y27120795D02*
X27030900Y28263653D01*
X21409204Y37270671D02*
X21909204Y35770671D01*
X21909204Y35770671D02*
X22409204Y37270671D01*
X22909203Y35770671D02*
X22909203Y37270671D01*
X22909203Y37270671D02*
X23266346Y37270671D01*
X23266346Y37270671D02*
X23480632Y37199242D01*
X23480632Y37199242D02*
X23623489Y37056385D01*
X23623489Y37056385D02*
X23694918Y36913528D01*
X23694918Y36913528D02*
X23766346Y36627814D01*
X23766346Y36627814D02*
X23766346Y36413528D01*
X23766346Y36413528D02*
X23694918Y36127814D01*
X23694918Y36127814D02*
X23623489Y35984957D01*
X23623489Y35984957D02*
X23480632Y35842100D01*
X23480632Y35842100D02*
X23266346Y35770671D01*
X23266346Y35770671D02*
X22909203Y35770671D01*
X24409203Y35770671D02*
X24409203Y37270671D01*
X24409203Y37270671D02*
X24766346Y37270671D01*
X24766346Y37270671D02*
X24980632Y37199242D01*
X24980632Y37199242D02*
X25123489Y37056385D01*
X25123489Y37056385D02*
X25194918Y36913528D01*
X25194918Y36913528D02*
X25266346Y36627814D01*
X25266346Y36627814D02*
X25266346Y36413528D01*
X25266346Y36413528D02*
X25194918Y36127814D01*
X25194918Y36127814D02*
X25123489Y35984957D01*
X25123489Y35984957D02*
X24980632Y35842100D01*
X24980632Y35842100D02*
X24766346Y35770671D01*
X24766346Y35770671D02*
X24409203Y35770671D01*
X25837775Y37127814D02*
X25909203Y37199242D01*
X25909203Y37199242D02*
X26052061Y37270671D01*
X26052061Y37270671D02*
X26409203Y37270671D01*
X26409203Y37270671D02*
X26552061Y37199242D01*
X26552061Y37199242D02*
X26623489Y37127814D01*
X26623489Y37127814D02*
X26694918Y36984957D01*
X26694918Y36984957D02*
X26694918Y36842100D01*
X26694918Y36842100D02*
X26623489Y36627814D01*
X26623489Y36627814D02*
X25766346Y35770671D01*
X25766346Y35770671D02*
X26694918Y35770671D01*
X8782143Y28670457D02*
X8096429Y28670457D01*
X8439286Y28670457D02*
X8439286Y29870457D01*
X8439286Y29870457D02*
X8325000Y29699028D01*
X8325000Y29699028D02*
X8210715Y29584742D01*
X8210715Y29584742D02*
X8096429Y29527600D01*
X9125000Y29870457D02*
X9525000Y28670457D01*
X9525000Y28670457D02*
X9925000Y29870457D01*
X10496428Y29356171D02*
X10382143Y29413314D01*
X10382143Y29413314D02*
X10325000Y29470457D01*
X10325000Y29470457D02*
X10267857Y29584742D01*
X10267857Y29584742D02*
X10267857Y29641885D01*
X10267857Y29641885D02*
X10325000Y29756171D01*
X10325000Y29756171D02*
X10382143Y29813314D01*
X10382143Y29813314D02*
X10496428Y29870457D01*
X10496428Y29870457D02*
X10725000Y29870457D01*
X10725000Y29870457D02*
X10839286Y29813314D01*
X10839286Y29813314D02*
X10896428Y29756171D01*
X10896428Y29756171D02*
X10953571Y29641885D01*
X10953571Y29641885D02*
X10953571Y29584742D01*
X10953571Y29584742D02*
X10896428Y29470457D01*
X10896428Y29470457D02*
X10839286Y29413314D01*
X10839286Y29413314D02*
X10725000Y29356171D01*
X10725000Y29356171D02*
X10496428Y29356171D01*
X10496428Y29356171D02*
X10382143Y29299028D01*
X10382143Y29299028D02*
X10325000Y29241885D01*
X10325000Y29241885D02*
X10267857Y29127600D01*
X10267857Y29127600D02*
X10267857Y28899028D01*
X10267857Y28899028D02*
X10325000Y28784742D01*
X10325000Y28784742D02*
X10382143Y28727600D01*
X10382143Y28727600D02*
X10496428Y28670457D01*
X10496428Y28670457D02*
X10725000Y28670457D01*
X10725000Y28670457D02*
X10839286Y28727600D01*
X10839286Y28727600D02*
X10896428Y28784742D01*
X10896428Y28784742D02*
X10953571Y28899028D01*
X10953571Y28899028D02*
X10953571Y29127600D01*
X10953571Y29127600D02*
X10896428Y29241885D01*
X10896428Y29241885D02*
X10839286Y29299028D01*
X10839286Y29299028D02*
X10725000Y29356171D01*
X2075328Y14537714D02*
X575328Y14537714D01*
X718185Y15180572D02*
X646757Y15252000D01*
X646757Y15252000D02*
X575328Y15394858D01*
X575328Y15394858D02*
X575328Y15752000D01*
X575328Y15752000D02*
X646757Y15894858D01*
X646757Y15894858D02*
X718185Y15966286D01*
X718185Y15966286D02*
X861042Y16037715D01*
X861042Y16037715D02*
X1003900Y16037715D01*
X1003900Y16037715D02*
X1218185Y15966286D01*
X1218185Y15966286D02*
X2075328Y15109143D01*
X2075328Y15109143D02*
X2075328Y16037715D01*
X1932471Y17537714D02*
X2003900Y17466286D01*
X2003900Y17466286D02*
X2075328Y17252000D01*
X2075328Y17252000D02*
X2075328Y17109143D01*
X2075328Y17109143D02*
X2003900Y16894857D01*
X2003900Y16894857D02*
X1861042Y16752000D01*
X1861042Y16752000D02*
X1718185Y16680571D01*
X1718185Y16680571D02*
X1432471Y16609143D01*
X1432471Y16609143D02*
X1218185Y16609143D01*
X1218185Y16609143D02*
X932471Y16680571D01*
X932471Y16680571D02*
X789614Y16752000D01*
X789614Y16752000D02*
X646757Y16894857D01*
X646757Y16894857D02*
X575328Y17109143D01*
X575328Y17109143D02*
X575328Y17252000D01*
X575328Y17252000D02*
X646757Y17466286D01*
X646757Y17466286D02*
X718185Y17537714D01*
X8103082Y18062100D02*
X8317368Y17990671D01*
X8317368Y17990671D02*
X8674510Y17990671D01*
X8674510Y17990671D02*
X8817368Y18062100D01*
X8817368Y18062100D02*
X8888796Y18133528D01*
X8888796Y18133528D02*
X8960225Y18276385D01*
X8960225Y18276385D02*
X8960225Y18419242D01*
X8960225Y18419242D02*
X8888796Y18562100D01*
X8888796Y18562100D02*
X8817368Y18633528D01*
X8817368Y18633528D02*
X8674510Y18704957D01*
X8674510Y18704957D02*
X8388796Y18776385D01*
X8388796Y18776385D02*
X8245939Y18847814D01*
X8245939Y18847814D02*
X8174510Y18919242D01*
X8174510Y18919242D02*
X8103082Y19062100D01*
X8103082Y19062100D02*
X8103082Y19204957D01*
X8103082Y19204957D02*
X8174510Y19347814D01*
X8174510Y19347814D02*
X8245939Y19419242D01*
X8245939Y19419242D02*
X8388796Y19490671D01*
X8388796Y19490671D02*
X8745939Y19490671D01*
X8745939Y19490671D02*
X8960225Y19419242D01*
X10460224Y18133528D02*
X10388796Y18062100D01*
X10388796Y18062100D02*
X10174510Y17990671D01*
X10174510Y17990671D02*
X10031653Y17990671D01*
X10031653Y17990671D02*
X9817367Y18062100D01*
X9817367Y18062100D02*
X9674510Y18204957D01*
X9674510Y18204957D02*
X9603081Y18347814D01*
X9603081Y18347814D02*
X9531653Y18633528D01*
X9531653Y18633528D02*
X9531653Y18847814D01*
X9531653Y18847814D02*
X9603081Y19133528D01*
X9603081Y19133528D02*
X9674510Y19276385D01*
X9674510Y19276385D02*
X9817367Y19419242D01*
X9817367Y19419242D02*
X10031653Y19490671D01*
X10031653Y19490671D02*
X10174510Y19490671D01*
X10174510Y19490671D02*
X10388796Y19419242D01*
X10388796Y19419242D02*
X10460224Y19347814D01*
X11817367Y17990671D02*
X11103081Y17990671D01*
X11103081Y17990671D02*
X11103081Y19490671D01*
X17748572Y6520814D02*
X17820000Y6592242D01*
X17820000Y6592242D02*
X17962858Y6663671D01*
X17962858Y6663671D02*
X18320000Y6663671D01*
X18320000Y6663671D02*
X18462858Y6592242D01*
X18462858Y6592242D02*
X18534286Y6520814D01*
X18534286Y6520814D02*
X18605715Y6377957D01*
X18605715Y6377957D02*
X18605715Y6235100D01*
X18605715Y6235100D02*
X18534286Y6020814D01*
X18534286Y6020814D02*
X17677143Y5163671D01*
X17677143Y5163671D02*
X18605715Y5163671D01*
X19534286Y6663671D02*
X19677143Y6663671D01*
X19677143Y6663671D02*
X19820000Y6592242D01*
X19820000Y6592242D02*
X19891429Y6520814D01*
X19891429Y6520814D02*
X19962857Y6377957D01*
X19962857Y6377957D02*
X20034286Y6092242D01*
X20034286Y6092242D02*
X20034286Y5735100D01*
X20034286Y5735100D02*
X19962857Y5449385D01*
X19962857Y5449385D02*
X19891429Y5306528D01*
X19891429Y5306528D02*
X19820000Y5235100D01*
X19820000Y5235100D02*
X19677143Y5163671D01*
X19677143Y5163671D02*
X19534286Y5163671D01*
X19534286Y5163671D02*
X19391429Y5235100D01*
X19391429Y5235100D02*
X19320000Y5306528D01*
X19320000Y5306528D02*
X19248571Y5449385D01*
X19248571Y5449385D02*
X19177143Y5735100D01*
X19177143Y5735100D02*
X19177143Y6092242D01*
X19177143Y6092242D02*
X19248571Y6377957D01*
X19248571Y6377957D02*
X19320000Y6520814D01*
X19320000Y6520814D02*
X19391429Y6592242D01*
X19391429Y6592242D02*
X19534286Y6663671D01*
X21462857Y5163671D02*
X20605714Y5163671D01*
X21034285Y5163671D02*
X21034285Y6663671D01*
X21034285Y6663671D02*
X20891428Y6449385D01*
X20891428Y6449385D02*
X20748571Y6306528D01*
X20748571Y6306528D02*
X20605714Y6235100D01*
X22748571Y6663671D02*
X22462856Y6663671D01*
X22462856Y6663671D02*
X22319999Y6592242D01*
X22319999Y6592242D02*
X22248571Y6520814D01*
X22248571Y6520814D02*
X22105713Y6306528D01*
X22105713Y6306528D02*
X22034285Y6020814D01*
X22034285Y6020814D02*
X22034285Y5449385D01*
X22034285Y5449385D02*
X22105713Y5306528D01*
X22105713Y5306528D02*
X22177142Y5235100D01*
X22177142Y5235100D02*
X22319999Y5163671D01*
X22319999Y5163671D02*
X22605713Y5163671D01*
X22605713Y5163671D02*
X22748571Y5235100D01*
X22748571Y5235100D02*
X22819999Y5306528D01*
X22819999Y5306528D02*
X22891428Y5449385D01*
X22891428Y5449385D02*
X22891428Y5806528D01*
X22891428Y5806528D02*
X22819999Y5949385D01*
X22819999Y5949385D02*
X22748571Y6020814D01*
X22748571Y6020814D02*
X22605713Y6092242D01*
X22605713Y6092242D02*
X22319999Y6092242D01*
X22319999Y6092242D02*
X22177142Y6020814D01*
X22177142Y6020814D02*
X22105713Y5949385D01*
X22105713Y5949385D02*
X22034285Y5806528D01*
X34822000Y33079671D02*
X35107714Y33079671D01*
X35107714Y33079671D02*
X35250571Y33008242D01*
X35250571Y33008242D02*
X35393428Y32865385D01*
X35393428Y32865385D02*
X35464857Y32579671D01*
X35464857Y32579671D02*
X35464857Y32079671D01*
X35464857Y32079671D02*
X35393428Y31793957D01*
X35393428Y31793957D02*
X35250571Y31651100D01*
X35250571Y31651100D02*
X35107714Y31579671D01*
X35107714Y31579671D02*
X34822000Y31579671D01*
X34822000Y31579671D02*
X34679143Y31651100D01*
X34679143Y31651100D02*
X34536285Y31793957D01*
X34536285Y31793957D02*
X34464857Y32079671D01*
X34464857Y32079671D02*
X34464857Y32579671D01*
X34464857Y32579671D02*
X34536285Y32865385D01*
X34536285Y32865385D02*
X34679143Y33008242D01*
X34679143Y33008242D02*
X34822000Y33079671D01*
X36107714Y33079671D02*
X36107714Y31865385D01*
X36107714Y31865385D02*
X36179143Y31722528D01*
X36179143Y31722528D02*
X36250572Y31651100D01*
X36250572Y31651100D02*
X36393429Y31579671D01*
X36393429Y31579671D02*
X36679143Y31579671D01*
X36679143Y31579671D02*
X36822000Y31651100D01*
X36822000Y31651100D02*
X36893429Y31722528D01*
X36893429Y31722528D02*
X36964857Y31865385D01*
X36964857Y31865385D02*
X36964857Y33079671D01*
X37464858Y33079671D02*
X38322001Y33079671D01*
X37893429Y31579671D02*
X37893429Y33079671D01*
X2003900Y36195214D02*
X2075328Y36409500D01*
X2075328Y36409500D02*
X2075328Y36766642D01*
X2075328Y36766642D02*
X2003900Y36909500D01*
X2003900Y36909500D02*
X1932471Y36980928D01*
X1932471Y36980928D02*
X1789614Y37052357D01*
X1789614Y37052357D02*
X1646757Y37052357D01*
X1646757Y37052357D02*
X1503900Y36980928D01*
X1503900Y36980928D02*
X1432471Y36909500D01*
X1432471Y36909500D02*
X1361042Y36766642D01*
X1361042Y36766642D02*
X1289614Y36480928D01*
X1289614Y36480928D02*
X1218185Y36338071D01*
X1218185Y36338071D02*
X1146757Y36266642D01*
X1146757Y36266642D02*
X1003900Y36195214D01*
X1003900Y36195214D02*
X861042Y36195214D01*
X861042Y36195214D02*
X718185Y36266642D01*
X718185Y36266642D02*
X646757Y36338071D01*
X646757Y36338071D02*
X575328Y36480928D01*
X575328Y36480928D02*
X575328Y36838071D01*
X575328Y36838071D02*
X646757Y37052357D01*
X1289614Y37695213D02*
X1289614Y38195213D01*
X2075328Y38409499D02*
X2075328Y37695213D01*
X2075328Y37695213D02*
X575328Y37695213D01*
X575328Y37695213D02*
X575328Y38409499D01*
X2075328Y39766642D02*
X2075328Y39052356D01*
X2075328Y39052356D02*
X575328Y39052356D01*
X9423428Y25806457D02*
X8852000Y25806457D01*
X8852000Y25806457D02*
X8794857Y25235028D01*
X8794857Y25235028D02*
X8852000Y25292171D01*
X8852000Y25292171D02*
X8966286Y25349314D01*
X8966286Y25349314D02*
X9252000Y25349314D01*
X9252000Y25349314D02*
X9366286Y25292171D01*
X9366286Y25292171D02*
X9423428Y25235028D01*
X9423428Y25235028D02*
X9480571Y25120742D01*
X9480571Y25120742D02*
X9480571Y24835028D01*
X9480571Y24835028D02*
X9423428Y24720742D01*
X9423428Y24720742D02*
X9366286Y24663600D01*
X9366286Y24663600D02*
X9252000Y24606457D01*
X9252000Y24606457D02*
X8966286Y24606457D01*
X8966286Y24606457D02*
X8852000Y24663600D01*
X8852000Y24663600D02*
X8794857Y24720742D01*
X9823428Y25806457D02*
X10223428Y24606457D01*
X10223428Y24606457D02*
X10623428Y25806457D01*
X7931653Y16789457D02*
X8331653Y15589457D01*
X8331653Y15589457D02*
X8731653Y16789457D01*
X9131653Y15589457D02*
X9131653Y16789457D01*
X9131653Y16789457D02*
X9417367Y16789457D01*
X9417367Y16789457D02*
X9588796Y16732314D01*
X9588796Y16732314D02*
X9703081Y16618028D01*
X9703081Y16618028D02*
X9760224Y16503742D01*
X9760224Y16503742D02*
X9817367Y16275171D01*
X9817367Y16275171D02*
X9817367Y16103742D01*
X9817367Y16103742D02*
X9760224Y15875171D01*
X9760224Y15875171D02*
X9703081Y15760885D01*
X9703081Y15760885D02*
X9588796Y15646600D01*
X9588796Y15646600D02*
X9417367Y15589457D01*
X9417367Y15589457D02*
X9131653Y15589457D01*
X10331653Y15589457D02*
X10331653Y16789457D01*
X10331653Y16789457D02*
X10617367Y16789457D01*
X10617367Y16789457D02*
X10788796Y16732314D01*
X10788796Y16732314D02*
X10903081Y16618028D01*
X10903081Y16618028D02*
X10960224Y16503742D01*
X10960224Y16503742D02*
X11017367Y16275171D01*
X11017367Y16275171D02*
X11017367Y16103742D01*
X11017367Y16103742D02*
X10960224Y15875171D01*
X10960224Y15875171D02*
X10903081Y15760885D01*
X10903081Y15760885D02*
X10788796Y15646600D01*
X10788796Y15646600D02*
X10617367Y15589457D01*
X10617367Y15589457D02*
X10331653Y15589457D01*
X11474510Y15932314D02*
X12045939Y15932314D01*
X11360224Y15589457D02*
X11760224Y16789457D01*
X11760224Y16789457D02*
X12160224Y15589457D01*
X3067143Y28543457D02*
X2381429Y28543457D01*
X2724286Y28543457D02*
X2724286Y29743457D01*
X2724286Y29743457D02*
X2610000Y29572028D01*
X2610000Y29572028D02*
X2495715Y29457742D01*
X2495715Y29457742D02*
X2381429Y29400600D01*
X3410000Y29743457D02*
X3810000Y28543457D01*
X3810000Y28543457D02*
X4210000Y29743457D01*
X4781428Y29229171D02*
X4667143Y29286314D01*
X4667143Y29286314D02*
X4610000Y29343457D01*
X4610000Y29343457D02*
X4552857Y29457742D01*
X4552857Y29457742D02*
X4552857Y29514885D01*
X4552857Y29514885D02*
X4610000Y29629171D01*
X4610000Y29629171D02*
X4667143Y29686314D01*
X4667143Y29686314D02*
X4781428Y29743457D01*
X4781428Y29743457D02*
X5010000Y29743457D01*
X5010000Y29743457D02*
X5124286Y29686314D01*
X5124286Y29686314D02*
X5181428Y29629171D01*
X5181428Y29629171D02*
X5238571Y29514885D01*
X5238571Y29514885D02*
X5238571Y29457742D01*
X5238571Y29457742D02*
X5181428Y29343457D01*
X5181428Y29343457D02*
X5124286Y29286314D01*
X5124286Y29286314D02*
X5010000Y29229171D01*
X5010000Y29229171D02*
X4781428Y29229171D01*
X4781428Y29229171D02*
X4667143Y29172028D01*
X4667143Y29172028D02*
X4610000Y29114885D01*
X4610000Y29114885D02*
X4552857Y29000600D01*
X4552857Y29000600D02*
X4552857Y28772028D01*
X4552857Y28772028D02*
X4610000Y28657742D01*
X4610000Y28657742D02*
X4667143Y28600600D01*
X4667143Y28600600D02*
X4781428Y28543457D01*
X4781428Y28543457D02*
X5010000Y28543457D01*
X5010000Y28543457D02*
X5124286Y28600600D01*
X5124286Y28600600D02*
X5181428Y28657742D01*
X5181428Y28657742D02*
X5238571Y28772028D01*
X5238571Y28772028D02*
X5238571Y29000600D01*
X5238571Y29000600D02*
X5181428Y29114885D01*
X5181428Y29114885D02*
X5124286Y29172028D01*
X5124286Y29172028D02*
X5010000Y29229171D01*
D11*
X18081666Y15658180D02*
X18081666Y14943895D01*
X18081666Y14943895D02*
X18034047Y14801038D01*
X18034047Y14801038D02*
X17938809Y14705800D01*
X17938809Y14705800D02*
X17795952Y14658180D01*
X17795952Y14658180D02*
X17700714Y14658180D01*
X18510238Y15562942D02*
X18557857Y15610561D01*
X18557857Y15610561D02*
X18653095Y15658180D01*
X18653095Y15658180D02*
X18891190Y15658180D01*
X18891190Y15658180D02*
X18986428Y15610561D01*
X18986428Y15610561D02*
X19034047Y15562942D01*
X19034047Y15562942D02*
X19081666Y15467704D01*
X19081666Y15467704D02*
X19081666Y15372466D01*
X19081666Y15372466D02*
X19034047Y15229609D01*
X19034047Y15229609D02*
X18462619Y14658180D01*
X18462619Y14658180D02*
X19081666Y14658180D01*
%TO.C,J4*%
X12954000Y21844000D02*
X15494000Y21844000D01*
X12954000Y16764000D02*
X12954000Y21844000D01*
X15494000Y21844000D02*
X15494000Y16764000D01*
X15494000Y16764000D02*
X12954000Y16764000D01*
%TO.C,J5*%
X15494000Y21844000D02*
X18034000Y21844000D01*
X15494000Y16764000D02*
X15494000Y21844000D01*
X18034000Y21844000D02*
X18034000Y16764000D01*
X18034000Y16764000D02*
X15494000Y16764000D01*
%TO.C,J6*%
X18034000Y21844000D02*
X20574000Y21844000D01*
X18034000Y16764000D02*
X18034000Y21844000D01*
X20574000Y21844000D02*
X20574000Y16764000D01*
X20574000Y16764000D02*
X18034000Y16764000D01*
%TO.C,J7*%
X20574000Y21844000D02*
X23114000Y21844000D01*
X20574000Y16764000D02*
X20574000Y21844000D01*
X23114000Y21844000D02*
X23114000Y16764000D01*
X23114000Y16764000D02*
X20574000Y16764000D01*
%TO.C,J8*%
X23114000Y21844000D02*
X25654000Y21844000D01*
X23114000Y16764000D02*
X23114000Y21844000D01*
X25654000Y21844000D02*
X25654000Y16764000D01*
X25654000Y16764000D02*
X23114000Y16764000D01*
%TO.C,J9*%
X25654000Y21844000D02*
X28194000Y21844000D01*
X25654000Y16764000D02*
X25654000Y21844000D01*
X28194000Y21844000D02*
X28194000Y16764000D01*
X28194000Y16764000D02*
X25654000Y16764000D01*
%TO.C,J10*%
X33909000Y41529000D02*
X38989000Y41529000D01*
X33909000Y33909000D02*
X33909000Y41529000D01*
X38989000Y41529000D02*
X38989000Y33909000D01*
X38989000Y33909000D02*
X33909000Y33909000D01*
%TO.C,J11*%
X27432000Y40259000D02*
X29972000Y40259000D01*
X27432000Y35179000D02*
X27432000Y40259000D01*
X29972000Y40259000D02*
X29972000Y35179000D01*
X29972000Y35179000D02*
X27432000Y35179000D01*
%TO.C,J12*%
X13716000Y43434000D02*
X16256000Y43434000D01*
X13716000Y35814000D02*
X13716000Y43434000D01*
X16256000Y43434000D02*
X16256000Y35814000D01*
X16256000Y35814000D02*
X13716000Y35814000D01*
%TO.C,J13*%
X19558000Y49403000D02*
X27178000Y49403000D01*
X19558000Y44323000D02*
X19558000Y49403000D01*
X27178000Y49403000D02*
X27178000Y44323000D01*
X27178000Y44323000D02*
X19558000Y44323000D01*
%TO.C,J14*%
X2476500Y39179500D02*
X7556500Y39179500D01*
X2476500Y36639500D02*
X2476500Y39179500D01*
X7556500Y39179500D02*
X7556500Y36639500D01*
X7556500Y36639500D02*
X2476500Y36639500D01*
%TO.C,J19*%
X2413000Y22479000D02*
X7493000Y22479000D01*
X2413000Y19939000D02*
X2413000Y22479000D01*
X7493000Y22479000D02*
X7493000Y19939000D01*
X7493000Y19939000D02*
X2413000Y19939000D01*
%TO.C,J20*%
X2413000Y14859000D02*
X7493000Y14859000D01*
X2413000Y12319000D02*
X2413000Y14859000D01*
X7493000Y14859000D02*
X7493000Y12319000D01*
X7493000Y12319000D02*
X2413000Y12319000D01*
%TO.C,J21*%
X2413000Y17399000D02*
X7493000Y17399000D01*
X2413000Y14859000D02*
X2413000Y17399000D01*
X7493000Y17399000D02*
X7493000Y14859000D01*
X7493000Y14859000D02*
X2413000Y14859000D01*
%TO.C,J22*%
X2413000Y19939000D02*
X7493000Y19939000D01*
X2413000Y17399000D02*
X2413000Y19939000D01*
X7493000Y19939000D02*
X7493000Y17399000D01*
X7493000Y17399000D02*
X2413000Y17399000D01*
%TO.C,J23*%
X2413000Y12319000D02*
X7493000Y12319000D01*
X2413000Y9779000D02*
X2413000Y12319000D01*
X7493000Y12319000D02*
X7493000Y9779000D01*
X7493000Y9779000D02*
X2413000Y9779000D01*
%TO.C,J2*%
X12190000Y16112000D02*
X12190000Y382000D01*
X12190000Y382000D02*
X28700000Y382000D01*
X28700000Y16132000D02*
X12190000Y16132000D01*
X28700000Y382000D02*
X28700000Y16132000D01*
%TO.C,J15*%
X11176000Y43434000D02*
X13716000Y43434000D01*
X11176000Y35814000D02*
X11176000Y43434000D01*
X13716000Y43434000D02*
X13716000Y35814000D01*
X13716000Y35814000D02*
X11176000Y35814000D01*
%TO.C,J17*%
X31940500Y24447500D02*
X37020500Y24447500D01*
X31940500Y21907500D02*
X31940500Y24447500D01*
X37020500Y24447500D02*
X37020500Y21907500D01*
X37020500Y21907500D02*
X31940500Y21907500D01*
%TO.C,J1*%
X34290000Y18796000D02*
X39370000Y18796000D01*
X34290000Y8636000D02*
X34290000Y18796000D01*
X39370000Y18796000D02*
X39370000Y8636000D01*
X39370000Y8636000D02*
X34290000Y8636000D01*
%TO.C,J3*%
X2476500Y36639500D02*
X7556500Y36639500D01*
X2476500Y34099500D02*
X2476500Y36639500D01*
X7556500Y36639500D02*
X7556500Y34099500D01*
X7556500Y34099500D02*
X2476500Y34099500D01*
%TO.C,J18*%
X5029200Y41706800D02*
X7569200Y41706800D01*
X5029200Y39166800D02*
X5029200Y41706800D01*
X7569200Y41706800D02*
X7569200Y39166800D01*
X7569200Y39166800D02*
X5029200Y39166800D01*
%TO.C,J16*%
X2489200Y41706800D02*
X5029200Y41706800D01*
X2489200Y39166800D02*
X2489200Y41706800D01*
X5029200Y41706800D02*
X5029200Y39166800D01*
X5029200Y39166800D02*
X2489200Y39166800D01*
%TD*%
D12*
%TO.C,J4*%
X14224000Y18034000D03*
X14224000Y20574000D03*
%TD*%
%TO.C,J5*%
X16764000Y18034000D03*
X16764000Y20574000D03*
%TD*%
%TO.C,J6*%
X19304000Y18034000D03*
X19304000Y20574000D03*
%TD*%
%TO.C,J7*%
X21844000Y18034000D03*
X21844000Y20574000D03*
%TD*%
%TO.C,J8*%
X24384000Y18034000D03*
X24384000Y20574000D03*
%TD*%
%TO.C,J9*%
X26924000Y18034000D03*
X26924000Y20574000D03*
%TD*%
%TO.C,J10*%
X35179000Y40259000D03*
X37719000Y40259000D03*
X35179000Y37719000D03*
X37719000Y37719000D03*
X35179000Y35179000D03*
X37719000Y35179000D03*
%TD*%
%TO.C,J11*%
X28702000Y38989000D03*
X28702000Y36449000D03*
%TD*%
%TO.C,J12*%
X14986000Y42164000D03*
X14986000Y39624000D03*
X14986000Y37084000D03*
%TD*%
%TO.C,J13*%
X20828000Y45593000D03*
X20828000Y48133000D03*
X23368000Y45593000D03*
X23368000Y48133000D03*
X25908000Y45593000D03*
X25908000Y48133000D03*
%TD*%
%TO.C,J14*%
X3746500Y37909500D03*
X6286500Y37909500D03*
%TD*%
%TO.C,J19*%
X3683000Y21209000D03*
X6223000Y21209000D03*
%TD*%
%TO.C,J20*%
X3683000Y13589000D03*
X6223000Y13589000D03*
%TD*%
%TO.C,J21*%
X3683000Y16129000D03*
X6223000Y16129000D03*
%TD*%
%TO.C,J22*%
X3683000Y18669000D03*
X6223000Y18669000D03*
%TD*%
%TO.C,J23*%
X3683000Y11049000D03*
X6223000Y11049000D03*
%TD*%
D13*
%TO.C,J2*%
X13970000Y5842000D03*
X26670000Y5842000D03*
D14*
X23870000Y8382000D03*
X22850000Y10162000D03*
X21840000Y8382000D03*
X20820000Y10162000D03*
X19810000Y8382000D03*
X18790000Y10162000D03*
X17780000Y8382000D03*
X16760000Y10162000D03*
D15*
X27180000Y14982000D03*
X24890000Y14982000D03*
X15750000Y14982000D03*
X13460000Y14982000D03*
D16*
X12190000Y9272000D03*
X28450000Y9272000D03*
%TD*%
D12*
%TO.C,J15*%
X12446000Y42164000D03*
X12446000Y39624000D03*
X12446000Y37084000D03*
%TD*%
%TO.C,J17*%
X33210500Y23177500D03*
X35750500Y23177500D03*
%TD*%
%TO.C,J1*%
X35560000Y17526000D03*
X38100000Y17526000D03*
X35560000Y14986000D03*
X38100000Y14986000D03*
X35560000Y12446000D03*
X38100000Y12446000D03*
X35560000Y9906000D03*
X38100000Y9906000D03*
%TD*%
%TO.C,J3*%
X3746500Y35369500D03*
X6286500Y35369500D03*
%TD*%
%TO.C,J18*%
X6299200Y40436800D03*
%TD*%
%TO.C,J16*%
X3759200Y40436800D03*
%TD*%
M02*
