%TF.GenerationSoftware,KiCad,Pcbnew,9.0.1+1*%
%TF.CreationDate,2025-08-19T22:48:49+00:00*%
%TF.ProjectId,I2CDIFF01,49324344-4946-4463-9031-2e6b69636164,rev?*%
%TF.SameCoordinates,Original*%
%TF.FileFunction,Paste,Bot*%
%TF.FilePolarity,Positive*%
%FSLAX46Y46*%
G04 Gerber Fmt 4.6, Leading zero omitted, Abs format (unit mm)*
G04 Created by KiCad (PCBNEW 9.0.1+1) date 2025-08-19 22:48:49*
%MOMM*%
%LPD*%
G01*
G04 APERTURE LIST*
%ADD10R,1.397000X0.889000*%
%ADD11R,0.889000X1.397000*%
%ADD12R,1.016000X2.032000*%
%ADD13R,3.657600X2.032000*%
%ADD14R,2.032000X1.016000*%
%ADD15R,2.032000X3.657600*%
%ADD16R,1.500000X0.450000*%
%ADD17R,2.550160X2.499360*%
%ADD18R,0.299720X0.449580*%
%ADD19R,2.301240X2.499360*%
G04 APERTURE END LIST*
D10*
%TO.C,C1*%
X30861000Y25336500D03*
X30861000Y23431500D03*
%TD*%
%TO.C,C2*%
X31877000Y35369500D03*
X31877000Y37274500D03*
%TD*%
D11*
%TO.C,C3*%
X25844500Y34925000D03*
X23939500Y34925000D03*
%TD*%
D10*
%TO.C,C4*%
X28702000Y41084500D03*
X28702000Y42989500D03*
%TD*%
D11*
%TO.C,C6*%
X3746500Y24130000D03*
X1841500Y24130000D03*
%TD*%
%TO.C,R1*%
X24828500Y12573000D03*
X26733500Y12573000D03*
%TD*%
%TO.C,R2*%
X14668500Y12827000D03*
X12763500Y12827000D03*
%TD*%
D10*
%TO.C,R3*%
X17957800Y32956500D03*
X17957800Y31051500D03*
%TD*%
%TO.C,R4*%
X17945100Y29413200D03*
X17945100Y27508200D03*
%TD*%
%TO.C,R5*%
X17970500Y26098500D03*
X17970500Y24193500D03*
%TD*%
%TO.C,R6*%
X23266400Y32727900D03*
X23266400Y30822900D03*
%TD*%
%TO.C,R7*%
X23266400Y29298900D03*
X23266400Y27393900D03*
%TD*%
%TO.C,R8*%
X23266400Y25565100D03*
X23266400Y23660100D03*
%TD*%
%TO.C,R9*%
X28702000Y32600900D03*
X28702000Y30695900D03*
%TD*%
%TO.C,R10*%
X28702000Y29171900D03*
X28702000Y27266900D03*
%TD*%
%TO.C,R11*%
X28702000Y25438100D03*
X28702000Y23533100D03*
%TD*%
D11*
%TO.C,R12*%
X9588500Y32956500D03*
X11493500Y32956500D03*
%TD*%
D10*
%TO.C,R14*%
X9875520Y16987520D03*
X9875520Y18892520D03*
%TD*%
D12*
%TO.C,U1*%
X37719000Y25781000D03*
X35433000Y25781000D03*
X33147000Y25781000D03*
D13*
X35433000Y32385000D03*
%TD*%
D14*
%TO.C,U2*%
X25654000Y42037000D03*
X25654000Y39751000D03*
X25654000Y37465000D03*
D15*
X19050000Y39751000D03*
%TD*%
D16*
%TO.C,U3*%
X3806400Y25919000D03*
X3806400Y26569000D03*
X3806400Y27219000D03*
X3806400Y27869000D03*
X3806400Y28519000D03*
X3806400Y29169000D03*
X3806400Y29819000D03*
X3806400Y30469000D03*
X9706400Y30469000D03*
X9706400Y29819000D03*
X9706400Y29169000D03*
X9706400Y28519000D03*
X9706400Y27869000D03*
X9706400Y27219000D03*
X9706400Y26569000D03*
X9706400Y25919000D03*
%TD*%
D17*
%TO.C,C7*%
X33035240Y19939000D03*
X38084760Y19939000D03*
%TD*%
D10*
%TO.C,C5*%
X9652000Y24320500D03*
X9652000Y22415500D03*
%TD*%
D18*
%TO.C,D2*%
X13327380Y22666960D03*
X12827000Y22666960D03*
X12326620Y22666960D03*
X12326620Y24069040D03*
X13327380Y24069040D03*
%TD*%
%TO.C,D3*%
X13723620Y30800040D03*
X14224000Y30800040D03*
X14724380Y30800040D03*
X14724380Y29397960D03*
X13723620Y29397960D03*
%TD*%
D10*
%TO.C,R13*%
X9842500Y15494000D03*
X9842500Y13589000D03*
%TD*%
D11*
%TO.C,C8*%
X10350500Y9271000D03*
X8445500Y9271000D03*
%TD*%
%TO.C,R15*%
X8445500Y10985500D03*
X10350500Y10985500D03*
%TD*%
D19*
%TO.C,D1*%
X31648400Y12075160D03*
X31648400Y16372840D03*
%TD*%
M02*
