%TF.GenerationSoftware,KiCad,Pcbnew,9.0.1+1*%
%TF.CreationDate,2025-08-19T22:48:49+00:00*%
%TF.ProjectId,I2CDIFF01,49324344-4946-4463-9031-2e6b69636164,rev?*%
%TF.SameCoordinates,Original*%
%TF.FileFunction,Soldermask,Top*%
%TF.FilePolarity,Negative*%
%FSLAX46Y46*%
G04 Gerber Fmt 4.6, Leading zero omitted, Abs format (unit mm)*
G04 Created by KiCad (PCBNEW 9.0.1+1) date 2025-08-19 22:48:49*
%MOMM*%
%LPD*%
G01*
G04 APERTURE LIST*
G04 Aperture macros list*
%AMRoundRect*
0 Rectangle with rounded corners*
0 $1 Rounding radius*
0 $2 $3 $4 $5 $6 $7 $8 $9 X,Y pos of 4 corners*
0 Add a 4 corners polygon primitive as box body*
4,1,4,$2,$3,$4,$5,$6,$7,$8,$9,$2,$3,0*
0 Add four circle primitives for the rounded corners*
1,1,$1+$1,$2,$3*
1,1,$1+$1,$4,$5*
1,1,$1+$1,$6,$7*
1,1,$1+$1,$8,$9*
0 Add four rect primitives between the rounded corners*
20,1,$1+$1,$2,$3,$4,$5,0*
20,1,$1+$1,$4,$5,$6,$7,0*
20,1,$1+$1,$6,$7,$8,$9,0*
20,1,$1+$1,$8,$9,$2,$3,0*%
G04 Aperture macros list end*
%ADD10RoundRect,0.120000X0.762000X-0.762000X0.762000X0.762000X-0.762000X0.762000X-0.762000X-0.762000X0*%
%ADD11RoundRect,0.120000X-0.762000X-0.762000X0.762000X-0.762000X0.762000X0.762000X-0.762000X0.762000X0*%
%ADD12RoundRect,0.120000X-0.762000X0.762000X-0.762000X-0.762000X0.762000X-0.762000X0.762000X0.762000X0*%
%ADD13C,6.240000*%
%ADD14C,3.540000*%
%ADD15C,1.540000*%
%ADD16C,1.740000*%
%ADD17C,2.540000*%
G04 APERTURE END LIST*
D10*
%TO.C,J4*%
X14224000Y18034000D03*
X14224000Y20574000D03*
%TD*%
%TO.C,J5*%
X16764000Y18034000D03*
X16764000Y20574000D03*
%TD*%
%TO.C,J6*%
X19304000Y18034000D03*
X19304000Y20574000D03*
%TD*%
%TO.C,J7*%
X21844000Y18034000D03*
X21844000Y20574000D03*
%TD*%
%TO.C,J8*%
X24384000Y18034000D03*
X24384000Y20574000D03*
%TD*%
%TO.C,J9*%
X26924000Y18034000D03*
X26924000Y20574000D03*
%TD*%
D11*
%TO.C,J10*%
X35179000Y40259000D03*
X37719000Y40259000D03*
X35179000Y37719000D03*
X37719000Y37719000D03*
X35179000Y35179000D03*
X37719000Y35179000D03*
%TD*%
D12*
%TO.C,J11*%
X28702000Y38989000D03*
X28702000Y36449000D03*
%TD*%
D11*
%TO.C,J12*%
X14986000Y42164000D03*
X14986000Y39624000D03*
X14986000Y37084000D03*
%TD*%
D10*
%TO.C,J13*%
X20828000Y45593000D03*
X20828000Y48133000D03*
X23368000Y45593000D03*
X23368000Y48133000D03*
X25908000Y45593000D03*
X25908000Y48133000D03*
%TD*%
D11*
%TO.C,J14*%
X3746500Y37909500D03*
X6286500Y37909500D03*
%TD*%
D10*
%TO.C,J19*%
X3683000Y21209000D03*
X6223000Y21209000D03*
%TD*%
%TO.C,J20*%
X3683000Y13589000D03*
X6223000Y13589000D03*
%TD*%
%TO.C,J21*%
X3683000Y16129000D03*
X6223000Y16129000D03*
%TD*%
%TO.C,J22*%
X3683000Y18669000D03*
X6223000Y18669000D03*
%TD*%
%TO.C,J23*%
X3683000Y11049000D03*
X6223000Y11049000D03*
%TD*%
D13*
%TO.C,M1*%
X5080000Y45720000D03*
%TD*%
%TO.C,M2*%
X35560000Y5080000D03*
%TD*%
%TO.C,M3*%
X5080000Y5080000D03*
%TD*%
%TO.C,M4*%
X35560000Y45720000D03*
%TD*%
D14*
%TO.C,J2*%
X13970000Y5842000D03*
X26670000Y5842000D03*
D15*
X23870000Y8382000D03*
X22850000Y10162000D03*
X21840000Y8382000D03*
X20820000Y10162000D03*
X19810000Y8382000D03*
X18790000Y10162000D03*
X17780000Y8382000D03*
X16760000Y10162000D03*
D16*
X27180000Y14982000D03*
X24890000Y14982000D03*
X15750000Y14982000D03*
X13460000Y14982000D03*
D17*
X12190000Y9272000D03*
X28450000Y9272000D03*
%TD*%
D11*
%TO.C,J15*%
X12446000Y42164000D03*
X12446000Y39624000D03*
X12446000Y37084000D03*
%TD*%
%TO.C,J17*%
X33210500Y23177500D03*
X35750500Y23177500D03*
%TD*%
%TO.C,J1*%
X35560000Y17526000D03*
X38100000Y17526000D03*
X35560000Y14986000D03*
X38100000Y14986000D03*
X35560000Y12446000D03*
X38100000Y12446000D03*
X35560000Y9906000D03*
X38100000Y9906000D03*
%TD*%
D10*
%TO.C,J3*%
X3746500Y35369500D03*
X6286500Y35369500D03*
%TD*%
D11*
%TO.C,J18*%
X6299200Y40436800D03*
%TD*%
%TO.C,J16*%
X3759200Y40436800D03*
%TD*%
M02*
